<mxfile host="app.diagrams.net" modified="2021-05-12T08:14:27.520Z" agent="5.0 (Macintosh; Intel Mac OS X 10_15_7) AppleWebKit/605.1.15 (KHTML, like Gecko) Version/14.1 Safari/605.1.15" etag="XNJuOtQIyPOExNqIZAw_" version="14.5.7" type="github">
  <diagram id="Lvhn_V5thaHM55jCRGsW" name="Trang-1">
    <mxGraphModel dx="589" dy="886" grid="1" gridSize="10" guides="1" tooltips="1" connect="1" arrows="1" fold="1" page="1" pageScale="1" pageWidth="827" pageHeight="1169" math="0" shadow="0">
      <root>
        <mxCell id="0" />
        <mxCell id="1" parent="0" />
        <mxCell id="rdEikVPCRvwlYAzFl2-a-15" value="" style="rounded=0;whiteSpace=wrap;html=1;fontColor=#4D9900;" vertex="1" parent="1">
          <mxGeometry x="30" y="60" width="977.23" height="460" as="geometry" />
        </mxCell>
        <mxCell id="rdEikVPCRvwlYAzFl2-a-5" value="Chi nhánh" style="swimlane;strokeWidth=2;" vertex="1" parent="1">
          <mxGeometry x="40" y="100" width="110" height="62.5" as="geometry" />
        </mxCell>
        <mxCell id="rdEikVPCRvwlYAzFl2-a-6" value="&lt;font style=&quot;font-size: 14px&quot;&gt;&lt;i&gt;Cơ sở chính&lt;/i&gt;&lt;/font&gt;" style="text;html=1;align=center;verticalAlign=middle;resizable=0;points=[];autosize=1;perimeterSpacing=4;fontStyle=1;fontColor=#4D9900;" vertex="1" parent="rdEikVPCRvwlYAzFl2-a-5">
          <mxGeometry x="10" y="30" width="100" height="20" as="geometry" />
        </mxCell>
        <mxCell id="rdEikVPCRvwlYAzFl2-a-34" value="" style="strokeWidth=2;html=1;shape=mxgraph.flowchart.merge_or_storage;whiteSpace=wrap;rounded=0;fontColor=#4D9900;fillColor=#000000;" vertex="1" parent="rdEikVPCRvwlYAzFl2-a-5">
          <mxGeometry x="5" y="38" width="10" height="8" as="geometry" />
        </mxCell>
        <mxCell id="rdEikVPCRvwlYAzFl2-a-7" value="Loại hoá đơn" style="swimlane;startSize=23;strokeWidth=2;" vertex="1" parent="1">
          <mxGeometry x="40" y="160" width="110" height="190" as="geometry" />
        </mxCell>
        <mxCell id="rdEikVPCRvwlYAzFl2-a-9" value="Đã giao dịch" style="whiteSpace=wrap;html=1;fillColor=#60a917;strokeColor=#2D7600;fontColor=#ffffff;" vertex="1" parent="rdEikVPCRvwlYAzFl2-a-7">
          <mxGeometry x="15" y="30" width="80" height="30" as="geometry" />
        </mxCell>
        <mxCell id="rdEikVPCRvwlYAzFl2-a-10" value="Chưa giao" style="whiteSpace=wrap;html=1;" vertex="1" parent="rdEikVPCRvwlYAzFl2-a-7">
          <mxGeometry x="15" y="70" width="80" height="30" as="geometry" />
        </mxCell>
        <mxCell id="rdEikVPCRvwlYAzFl2-a-12" value="Đã huỷ" style="whiteSpace=wrap;html=1;" vertex="1" parent="rdEikVPCRvwlYAzFl2-a-7">
          <mxGeometry x="15" y="150" width="80" height="30" as="geometry" />
        </mxCell>
        <mxCell id="rdEikVPCRvwlYAzFl2-a-11" value="Không giao được" style="whiteSpace=wrap;html=1;" vertex="1" parent="1">
          <mxGeometry x="55" y="270" width="80" height="30" as="geometry" />
        </mxCell>
        <mxCell id="rdEikVPCRvwlYAzFl2-a-18" value="Mức thuế" style="swimlane;startSize=23;strokeWidth=2;" vertex="1" parent="1">
          <mxGeometry x="40" y="360" width="110" height="150" as="geometry" />
        </mxCell>
        <mxCell id="rdEikVPCRvwlYAzFl2-a-19" value="5%" style="whiteSpace=wrap;html=1;fillColor=#60a917;strokeColor=#2D7600;fontColor=#ffffff;" vertex="1" parent="rdEikVPCRvwlYAzFl2-a-18">
          <mxGeometry x="15" y="30" width="80" height="30" as="geometry" />
        </mxCell>
        <mxCell id="rdEikVPCRvwlYAzFl2-a-20" value="10%" style="whiteSpace=wrap;html=1;" vertex="1" parent="rdEikVPCRvwlYAzFl2-a-18">
          <mxGeometry x="15" y="70" width="80" height="30" as="geometry" />
        </mxCell>
        <mxCell id="rdEikVPCRvwlYAzFl2-a-21" value="15%" style="whiteSpace=wrap;html=1;" vertex="1" parent="rdEikVPCRvwlYAzFl2-a-18">
          <mxGeometry x="15" y="110" width="80" height="30" as="geometry" />
        </mxCell>
        <mxCell id="rdEikVPCRvwlYAzFl2-a-24" value="&lt;font style=&quot;font-size: 21px&quot;&gt;&lt;b&gt;HOÁ ĐƠN BÁN HÀNG&lt;/b&gt;&lt;/font&gt;" style="rounded=0;whiteSpace=wrap;html=1;strokeWidth=2;fillColor=#d5e8d4;strokeColor=#82b366;" vertex="1" parent="1">
          <mxGeometry x="40" y="62.5" width="960" height="27.5" as="geometry" />
        </mxCell>
        <mxCell id="rdEikVPCRvwlYAzFl2-a-25" value="" style="shape=image;verticalLabelPosition=bottom;labelBackgroundColor=#ffffff;verticalAlign=top;aspect=fixed;imageAspect=0;image=data:image/png,iVBORw0KGgoAAAANSUhEUgAAA+AAAAGiCAYAAABnKKwzAAAYe2lDQ1BJQ0MgUHJvZmlsZQAAWIWVeQc8le3//3WffY59jr33Jnvvvfcm4VjHimOGEkkZJRKiVJJZqRQqEWkoZfSQJJGMSqGiMvK7jXqe7/P9v/6/1+96va77ep/P9bk+61r359wAcI34RkaGIRgBCI+IoTqYGvC7uXvwYycBCvAAWqAKIF9ydKS+nZ0VgMvv9j/L0iCANtrnMhuy/rv//1uI/gHRZAAgLxj7+UeTw2F8FwDUKXIkNQYAzAZdKD4mcgPvhzEzFTYQxgUbOGgLV29gvy3cssnj5GAI414AcLS+vtQgAOhHYDp/HDkIlkO/CvcRI/wpEQCwwJ5jdMjBvv4AcNnBPNLh4bs3cDKMxWH+SBhXwFjN7x8yg/5Dvt8f+b6+QX/wll+bBWdEiY4M893zfwzN/17Cw2J/6xCFK20w1cxhw384hkOhuy03MC2MZyP8bGw3Yg3jHxT/rbgDgCAEx5o5b/EjuMnRhnD8ACuM5fx9jSxhzA1jk4gwG6ttul8gxcQcxnDMEAmUGHMnGLPD+HBAtLHjNs9Z6m6HbV2IxkCqof42/ZEvdVPvhq7R2FBn/W35X4IDzLflI+kTg51cYUyAsXAcxcUGxvQwlo0OdbTc5tFKDDa0+c1DjXXYsF8Yxg4BEaYGW/KRcYFUE4dt/qzw6N/+Is8GU8xttvG1mGAns634IDvJvpv2w74gewMi9J1/ywmIdrP67Yt/gJHxlu/ImYAIZ8dtOT8iYwwctsaiCJFhdtv8KMGAMNMNuiCMlaLjHLfHolxi4MW5JR8VGBlj57RlJyoxxNfCbsse1DFgBQyBEeAHsXD1A7tBCKA8m22ahX9t9ZgAX0AFQSAAyGxTfo9w3eyJgJ+OIBF8glEAiP4zzmCzNwDEwfS1P9StpwwI3OyN2xwRCqZgHA4sQRj8O3ZzVMQfbS7gHUyh/Jd2X7iSYXvD4LrR//+m/6b+TdGHKVbblNjfGvkZfnNijDFGGDOMCUYCxYnSQWmirOCnHlwVUGoo9d9+/M2PnkL3od+iB9Bj6Je7KGnUf1lpDcZg+SbbsfD7ZyxQorBMZZQBShuWDktGsaI4gQxKCdajj9KFNSvDVMNtuzeiwv8v2f/hwT9mY5sPL4dH4Nnwenjxf4+kl6RX/iNlI9b/jM+WrX5/4m34p+ff+g3/EX1/uLX8NyfyMLIB+RDZjuxCtiCbAD+yDdmM7Ebe2cB/Vte7zdX1W5vDpj2hsBzKf+nz3da5EclouTq593KrW30xAQkxGxvPcHfkHiolKDiGXx++HQL4zSPIstL8CnIK8gBs3DVbx9dXh807BGLt+ZtGPgiA6jwA+OW/aeFfAbgC731+679pIt7w9sMAUD1FjqXGbdFQGw80fEowwDuNA/ACISAO+6MAVIAm0APGwALYAifgDrzhKAfD65wK4kEySAUZIBscAydACTgDzoNqcAlcA02gBbSDB+AJ6AUD4BW8eibBRzAPlsAKBEFYiA4iQRwQHyQCSUEKkBqkAxlDVpAD5A75QEFQBBQLJUMHoGwoHyqBzkE10FXoJtQOdUF90EtoHHoPfYGWEUgELYIZwYMQRexAqCH0EZYIJ8RORBAiCpGISEccRRQjyhEXEY2IdsQTxABiDPERsYgESBokK1IAKYNUQxoibZEeyEAkFbkPmYUsRJYjLyNvwfP8HDmGnEX+RGFQJBQ/SgZewWYoZxQZFYXah8pBlaCqUY2oTtRz1DhqHvULTYfmRkuhNdDmaDd0EDoenYEuRFeib6Dvw3tpEr2EwWBYMWIYVXgvumNCMEmYHMxpTD3mLqYPM4FZxGKxHFgprDbWFuuLjcFmYE9iL2LbsP3YSewPHA2OD6eAM8F54CJwabhCXC2uFdePm8at4BnxIngNvC3eH78Hn4uvwN/C9+An8SsEJoIYQZvgRAghpBKKCZcJ9wkjhK80NDSCNOo09jQUmv00xTRXaB7RjNP8pCXSStIa0nrRxtIepa2ivUv7kvYrHR2dKJ0enQddDN1Ruhq6e3SjdD/oSfSy9Ob0/vQp9KX0jfT99J8Z8AwiDPoM3gyJDIUMDQw9DLOMeEZRRkNGX8Z9jKWMNxlfMC4ykZjkmWyZwplymGqZuphmiFiiKNGY6E9MJ54n3iNOkJAkIZIhiUw6QKog3SdNMmOYxZjNmUOYs5kvMT9jnmchsiixuLAksJSy3GEZY0WyirKas4ax5rJeYx1kXWbjYdNnC2DLZLvM1s/2nZ2LXY89gD2LvZ59gH2Zg5/DmCOUI4+jieM1J4pTktOeM56zjPM+5ywXM5cmF5kri+sa1zA3gluS24E7ifs8dzf3Ig8vjylPJM9Jnns8s7ysvHq8IbwFvK287/lIfDp8FL4Cvja+D/ws/Pr8YfzF/J388wLcAmYCsQLnBJ4JrAiKCToLpgnWC74WIgipCQUKFQh1CM0L8wlbCycL1wkPi+BF1ESCRYpEHop8FxUTdRU9JNokOiPGLmYulihWJzYiTieuKx4lXi7+lwRGQk0iVOK0RK8kQlJZMliyVLJHCiGlIkWROi3VJ42WVpeOkC6XfiFDK6MvEydTJzMuyyprJZsm2yT7eYfwDo8deTse7vglpywXJlch90qeKG8hnyZ/S/6LgqQCWaFU4S9FOkUTxRTFZsUFJSmlAKUypSFlkrK18iHlDuU1FVUVqspllfeqwqo+qqdUX6gxq9mp5ag9UkerG6inqLeo/9RQ0YjRuKYxpymjGapZqzmjJaYVoFWhNaEtqO2rfU57TIdfx0fnrM6YroCur2657ls9IT1/vUq9aX0J/RD9i/qfDeQMqAY3DL4bahjuNbxrhDQyNcoyemZMNHY2LjEeNRE0CTKpM5k3VTZNMr1rhjazNMsze2HOY042rzGft1C12GvRaUlr6WhZYvnWStKKanXLGmFtYX3cesRGxCbCpskW2JrbHrd9bSdmF2V32x5jb2dfaj/lIO+Q7PDQkeS4y7HWccnJwCnX6ZWzuHOsc4cLg4uXS43Ld1cj13zXMbcdbnvdnrhzulPcmz2wHi4elR6LnsaeJzwnvZS9MrwGd4rtTNjZ5c3pHeZ9ZxfDLt9dDT5oH1efWp9VX1vfct9FP3O/U37zZENyEfmjv55/gf/7AO2A/IDpQO3A/MCZIO2g40Hvg3WDC4NnKYaUEspCiFnImZDvobahVaHrYa5h9eG4cJ/wmxHEiNCIzt28uxN290VKRWZEjkVpRJ2ImqdaUiujoeid0c0xzPBLfXeseOzB2PE4nbjSuB/xLvENCUwJEQndeyT3ZO6ZTjRJvJCESiIndSQLJKcmj+/V33tuH7TPb19HilBKesrkftP91amE1NDUp2lyaflp3w64HriVzpO+P33ioOnBugz6DGrGi0Oah84cRh2mHH6WqZh5MvNXln/W42y57MLs1RxyzuMj8keKj6wfDTz6LFclt+wY5ljEscE83bzqfKb8xPyJ49bHGwv4C7IKvp3YdaKrUKnwTBGhKLZorNiquPmk8MljJ1dLgksGSg1K609xn8o89f20/+n+Mr2yy2d4zmSfWT5LOTt0zvRcY7loeeF5zPm481MVLhUPL6hdqKnkrMyuXKuKqBqrdqjurFGtqanlrs2tQ9TF1r2/6HWx95LRpebLMpfP1bPWZ18BV2KvfLjqc3XwmuW1jga1hsvXRa6fukG6kdUINe5pnG8Kbhprdm/uu2lxs+OW5q0bt2VvV7UItJTeYbmT20poTW9db0tsW7wbeXe2Pah9omNXx6t7bvf+6rTvfHbf8v6jByYP7j3Uf9j2SPtRS5dG183Hao+bnqg8aexW7r7xVPnpjWcqzxp7VHuae9V7b/Vp9bX26/a3Pzd6/uAv87+eDNgM9A06Dw698HoxNuQ/NPMy7OXCcNzwyqv9I+iRrNeMrwtHuUfL30i8qR9TGbszbjTe/dbx7asJ8sTHd9HvVifTp+imCqf5pmtmFGZa3pu87/3g+WHyY+THldmMT0yfTn0W/3x9Tm+ue95tfnKBurD+Jecrx9eqb0rfOhbtFkeXwpdWvmf94PhR/VPt58Nl1+XplfhV7GrxmsTarV+Wv0bWw9fXI32pvpuvAki4IgIDAfhSBQCdOwAkOG8jeG7lgtsFCb98IODWBZKFPiLS4Ru1B5WBNsEgMU+wxbgIvBVBggZLM0vbT9dEX8VQyVjP1EzsID1h7mUZYn3DNsP+kWOBc5lrjQfBi+Uj8NMJEAWJQqzC7CJsouxi3OI8EvyS/FKC0sIyorJiO6Tl5OQVFVQUNZR0lY1VzFXN1UzUTTRMNA219LW1dDR0lfRk9UUNeAyZjQhG68ZfTaZMX5p1m7dYVFset0qxDrFxszW2U7YXc+ByZHTCOSNdIFeEG8od78HoyeElvFPGW2KXsA+fL6cfC5nkTwwgBbIGcQULUqRDVENNwlzCKRHJu/MjK6LOUouj82JyYjPjsuKPJhTvqU5sTXq1F+yTTtm1/2TqqwOC6bsPth/CHBbKVMgyyHbMCTySeDQvt/rY3bzh/MUCphMyhRZFgcUHTpaV3CztP/Xu9OIZ7FmOc5LlWudtK/wuxFQerCqsrq65Wfu4bvjih0s/63FX2K6KX9NtcL8edSOz8XRTfXPbza5bPbd7W57c6Wi92lZ6N6V9V4fGPeK9qc6b92sfnHqY/Sihy++x+RPZbvru2af3n53qiew16CP1TfRfe576l/2AyCBq8P2L7qH6l/nDMa9cRtRec75eHR190z52YTzz7e4J53dak8LwKlua/mvm+vuiDykfw2bJn8ifI+ey528szH3V+3ZuifS9+KfU8rPVlF8a6+v/mH8F5AwqH22JYcG8xjbgcvBBBCMaSVoG2lW6afohhiHGN0zviJ9IX5mXWNZYV9jW2H9xrHEucX3lnuOZ4h3h6+e/L3BTsFIoWzhMxEpUUgwv9kG8S6JGMkuKIm0pIyNLJzu3o0/uunyRQrIiWcle2UBFQVVAjai2rv5ZY0SzS6tRu1wnRzdez0ffwkDBkNMIYfTe+JnJFdM8s2hzJwsVSzbLFas31vdsam3z7JLsAx0cHfWd5J0FXEiuWNdlt4/uIx7dnne86nee9T6+65BPsi/Vj0L29fcIcAq0D7IJtqRYhpiFaobJhgtEsOymiURErkb9oP6MXotFxxHjhRI09jglRicVJrfsnUqh2c+XKpOmfcAm3e9gfMaRQ5WH2zKHs77nMB9ROGqfG3HsSF5d/qPj7wrWCzmLlIvtToaWHCw9c6r5dG/ZzJlf55jLJc5rV9hdIFfGVh2qLobPue66uUvEy4r1jleiruZeq2vovD5y40sTppnjpuQtjdsWLW53Altj2lLuprYf6Dh4L6Pz0P3DD7Ie5jw60nXk8ZEnR7pznmY/y+w51Jvel9q/93ncX1EDuwcjX8QMJb08OHz8VflIw+sHoy/ffBoHb4kTgu/kJ3WmzKf9Zs6+//RReTbpU+vnX/OaC3FfLn99t8i+ZPk95UfDz+kV7lWHtaxfndvzb4zQR+5Afka1ow9hHLHi2AXcTXwGwYGGm2aU9jxdOL06A4KhnTGdyYLIQOwlHWO2ZWFgecqaxWbCDrE3c0RwCnEOcWVz63B/4inlNeP9xlfGb8b/WaBAUENwRGivML9wq4i3yKposZiSWLd4gPiqxHFJKck2KUepKelUGRGZIdmcHQY7vslVyXsq0Cm0KUYqCSj1K6epKKiMq+aqaat9Ui/VMNdY1DyvZa/1S7tOx10Xq3tDj6xP1L9rEGnIb9hrlGasZDxtUmJqC7933DaPspCyeGdZZuVhzWr93Cbf1sGOZDdof9LB21HY8YPTVedEF2NXBtdht0r3aA8DT1rPQa8zO4O9FbxXdt33yfP18pPwWyJ3+h8P8A1UDEIFDQbXUlJCnEKlw9Bhb8JvRRTvjo90jdKg8kajomdjBmLb4+rjyxJy96QmxieFJvvv3bnPLcVpv0OqfZr9AYd0p4PuGTsPBRwOzYzOSsk+nJN/pOxoTW7jsXt5ffmjxz+fQBVKFHkVHzt5v2TllOxpv7ITZx6fXS1XOB9QUXKhpwpVrVUTX1tf9/GS5OWQ+torc9dUGvZf727kaApr7rzFdzul5W2rVVtLu3zHxU6p+1cfGjwafpzQzfe0t+dIn9Nz0QEw+HHo3fCH1+CNyPiuidop9EziR/CpYp78VXdJ7afzavHG/G/9J7hRMCoAnDgEwMb/PA41AORcBEBsDwBscO5pRweAkzpACJgCaLEDQBbaf+4PCE48CYAEeIAkUANmcH4ZBueURaAedIEJsAaxQ8qQIxQNnYCaoddwzieNcEGkIuoRo0gGpAEyHnkJOQVnaV6oUtQrOBPzQV9Af8KoYFIxz7A82HBsG46Eo+Da8Zz4WHw/QZFQRFilIdM8pVWnraZjp8uhR9An0X9niGVYYkxkgpiyiKzECpIaqZc5hAXLcoHVmHWK7TC7FHsvRwwnB2crlz83Dfc1Hg9eJO8lPk84I+gTyBW0FWISei5cJOIpKiA6JXZRPFpCQxKS7JLKk/aEV+e8bP+OFrlK+XyFfYoUJUdlDRU+VUh1TK1FvUAjRFNbi15rRLtGJ0ZXVw+n16ffYHDdsMnolnGryT3TLrMe80GLUctpqwXrFVucHau9qIOao5UT2TnZpdi11W3Gg+Sp7xW5s9x7wIfgq++XRG72/x6oFpQU3B5CCHUOqwhf3G0WWRY1F60Vkx07Gq+UcGzPQpJr8oN92imtqZZpE+mZGdqHQWZf9pUjp3Lz88yOIwvuF+YVB5QYnpIuEzwrUq5UYVMZVV1a++QSqFe9atPgfiO4KfnmidvX7vS3LXXwdpo9iHl09vGz7rUemb6dz48O3B0iDZNHLo3OjnNPqE3qTcu/p//wYvbo5x1z7QtmXzq/KSyWLC3/sP95YXlhVWMt5dfdzfNja/6J8PxLAFVgAlxBCNgHCkAd6ASj4AdEguQgGygCOgY1QC8RACEBZ/lpiKuIt3Aeb4VMR7YhV1DaqAOobjQ7OhDdiMFjvDGNWEZsGPYJThqXi1vEe+EfEGQJRTRImiiacVpn2sd0hnSt9Fr0d+As9hGjPeMonKeuEwtIsqSnzBFw5tnM6stGw9bMHsjByvGQcw+XNNc4dxGPLS+Ot4NvP7+BAEbgqWChkK+wrPCqSLdomViUuLEEl8QXycdS56VTZDxlNXdIyLHL4+VXFeYUJ5ReKD9Wua16Ua1E/ZAGVdNTy1BbUodRZ1F3WK9Vv97gqmGDUZPxbZM2006zx+a9Fi8s31hNWy/YrNjh7FkdxBzVnayd/V32upa43XQf9ljzEtxp4R2z66xPjx9EVvGPCKgJnAoWpYSEXA1dDjeNKNw9E6VF3RvdFouKs4ovSphKVE86mjy9zzilOpU+bc+Bafg86T1skfkw2yyn+6hD7lheynHegruFgcX0J5tL/U+Tyh6c3Vuucv7LhatVsTVadZiLA5cvXEm+5nVdpZG+aeLm9dsH7ti0sd8d76jppD7QeoTtGnxS83R/j1efznORAabBR0POLydfJb5mHr025jS+OlE96T7NMNP14fCs5WfGuRcLZ7+GLKp8R/zoWS5dDfqluD3/SIABtJsngDhQgVeAGwgHB8EZcBsMw/tfELKAYqEKaBBBgzCCd34HEoe0R55BfkFZoKrQeDQV/QbjBO92G+wAjoz7iS8kqBMmaU7S6tGO0CXR89N3McQzSjJOMJ0h+pEkSN+ZH7KUsSaxebLrcUhxsnPRcCO4V3mWeVf5gQAWfgPlEZYV0RZ1EAsS3y9xUvIGnHfPyzLuUJBzld+nUKHYo7SiIqHqrpav3q/JrOWuXaEzp6etf8TgjZGicbbJuJmWeaHFFys760u2tHZh9o8dJZ2ynT+4WrjVeuA9KV4PvUV3HfSZ9DMkVwYgA/2D7lFEQzJCZ8KtIuojWaISqGMxRrGX49kT9u35mOQG71OVlKpUjrSj6aiDyRlfDntkXs1az3E6UnV0+Zhj3uXjhALKiQdFUsU5J+dKXU/dKRM9kwef/f7nuy9oVlZVM9Uk1k5ddLzUUi96JffqUoP39QeNMk3Hmudv2d++fIfQGtjW2k7sCLjXeB/1wO5h6aOJxxJPKN2VT8d7OHvt+w72X3/+doAwKPfCYYj68uhwzat7IwOvp0YX3qyOQ2+xE5h3mEkwuTz1aXp05un75g/lHw/PRnyy/iw1h517M9+8kPnF46vE1y/fWhbTloy+Y753/kj5qflzYfnCiscqYbVxjfyL7te1dfeN+Y8OVFTYvD4gWgMA0KPr619FAcDmA7CWt76+Ur6+vnYeTjZGALgbtvWdafOuYQTgLNcG6ruydOzf33i2vkH9I4/5dws2b6JNrfBNtNnCtxL4H3dc5NlVTEuOAAAAYmVYSWZNTQAqAAAACAACARIAAwAAAAEAAQAAh2kABAAAAAEAAAAmAAAAAAADkoYABwAAABIAAABQoAIABAAAAAEAAAPgoAMABAAAAAEAAAGiAAAAAEFTQ0lJAAAAU2NyZWVuc2hvdGc9mWQAAAI+aVRYdFhNTDpjb20uYWRvYmUueG1wAAAAAAA8eDp4bXBtZXRhIHhtbG5zOng9ImFkb2JlOm5zOm1ldGEvIiB4OnhtcHRrPSJYTVAgQ29yZSA2LjAuMCI+CiAgIDxyZGY6UkRGIHhtbG5zOnJkZj0iaHR0cDovL3d3dy53My5vcmcvMTk5OS8wMi8yMi1yZGYtc3ludGF4LW5zIyI+CiAgICAgIDxyZGY6RGVzY3JpcHRpb24gcmRmOmFib3V0PSIiCiAgICAgICAgICAgIHhtbG5zOmV4aWY9Imh0dHA6Ly9ucy5hZG9iZS5jb20vZXhpZi8xLjAvIgogICAgICAgICAgICB4bWxuczp0aWZmPSJodHRwOi8vbnMuYWRvYmUuY29tL3RpZmYvMS4wLyI+CiAgICAgICAgIDxleGlmOlBpeGVsWURpbWVuc2lvbj45MDA8L2V4aWY6UGl4ZWxZRGltZW5zaW9uPgogICAgICAgICA8ZXhpZjpVc2VyQ29tbWVudD5TY3JlZW5zaG90PC9leGlmOlVzZXJDb21tZW50PgogICAgICAgICA8ZXhpZjpQaXhlbFhEaW1lbnNpb24+MTQ0MDwvZXhpZjpQaXhlbFhEaW1lbnNpb24+CiAgICAgICAgIDx0aWZmOk9yaWVudGF0aW9uPjE8L3RpZmY6T3JpZW50YXRpb24+CiAgICAgIDwvcmRmOkRlc2NyaXB0aW9uPgogICA8L3JkZjpSREY+CjwveDp4bXBtZXRhPgoS5TXaAABAAElEQVR4AeydBZgjN8/HfWVmZmZmvjIzMzNzr/SWmZmZmZm+9srMjHdXZubXn37qq6kzm0yyu9lcNpGeZzcDHo/nL4MkS3af337/I4ZeRk8+8Xjo27dvLyt1axd34MBBYeKJJ2rtj+xlX+c8aT6GOU+cJ82HQPOVyNtJ8/GkWUvkdaX5OOM8cZ40HwLNV6Ihmq9IXiJHwBFwBBwBR8ARcAQcAUfAEXAEHAFHoPUQcAW89XjqX+QIOAKOgCPgCDgCjoAj4Ag4Ao6AI9CECLSlAn788ceHxRZbLFx++eVNyBIvkiPgCDgCjoAj4Ag4Ao5AsyLw008/haWXXjqsuOKK4auvvmrWYnq5HIFuIbDffvuFKaaYIqyzzjrhjz/+6FZe3Xn4ySefVL1tm2226U42TfVs2yng33//fTj00EPDWGONFdZbb72mYoYXxhFwBBwBR8ARcAQcAUeguRE4//zzw8MPPxx23nlnlSebu7ReOkegawgceeSRYaONNgqPPvroYDU0zTfffGH55ZcP5557bnj88ce79jFN9tRQ9S7Pjz/+GJ565tnwxBNPhQ3WW0csJ5PX+xUV87v99tvDM888E7744ouw5JJLKrOGH374kvQPPvhgmGqqqcIMM8wQhhxyyJJ7dsI3nHPOOWHEEUcM2223nV0ODz30UHjuued0Abi5555bZ9A/++yz7D7pp59++rDoootm19r1AOvw2WefrRjvtNNOYaih/qlqTz/9dHjkkUeUP7PNNltVeN58881w3HHHhbHHHjscffTRVdNXSoC3A7xaf/31wwQTTKDJPvnkk3DllVeG8cYbL2y44YZadxhQjYYZZpgwzjjjhFVWWSXk65Gl6U2/3377bbjgggu0yKOOOmrYaqut9PjPP/8Mp5xyih4PMcQQYffdd9fjDz/8UHm1zDLLhIEDBwbSzT///Hov/ffCCy+EBx54IMw666xhqaWW0lt//fWX8v+3335TDFdbbbWa2lSabzscW70s960TTzyxWp1jjGHfffcNX375pfKMgagr5HyqDbUffvhBB3lLTZsYbbTR1Po++eT/jmeXXnqpjjVY5EceeWRL3q3f7777LiDYjz/++GGDDTbokBfvPPHEE3X8Ov3008MYY4zRIU0rXsBwft5552WfBk/owxZffPGQ8iRL0IWDSy65RNvYtttuG0YaaaQu5NDxkVdffTWcdNJJys/DDz+8Y4LcFRsfkSHmmmuu3N3un5522mlhjjnmCAsuuGD4z3/+o4L11FNPnWX86aefalmzC/87qFYvSVavsTr/7s6eV+tTqS/IIN3BmD6ZGbkFFlggjDLKKJ0tYtumR4ZAxkJOp67BA2R1w7BSPfvvf/8bdtlll/Drr7+Ggw8+OEw0kS/4291KVK2dMOMN3XvvvSo3brHFFpns3N13V3oevaFPnz6qe1lfyILb6FvQZJNNFuadd95w1113adurlE+vuc4q6PX823Pf/8Qzzj4/brX9rvG1N96qa95Wzv/7v/+T/q+UNt10U1ZzL/kToSg+++yzWUJp8FFmvqN0wJpOlK/sXnogiofeH3fccdPLUToAvS6KoF6XAbLkffb+lVZaKf7yyy8lz7b6yYABA0s+URS2DBtx+c/uiTVNr4sgkF2rdrDnnnvqM/3796+WtOJ9acCahwy8WZrHHntMr80555x67ZhjjtFz46P9Ul/SepRl0OQHeZ6IgJR9nwiw8euvv9YvAFf7VjGUZF8100wzRdoAacUYEUX4z+6lByJg6vMiuOplGSzjxhtvrNdESFbsam1Tab6teJznSaU+BH6IcKIQ0H5kUIoy+GjfJQpil6BxPpWHLc+T999/P2sP1i74HW644eLJJ5+cZSIGRE33wQcfZNe6e/DWW29pnvPMM0/FrK6//noty913310xTW+/kefJe++9V5EnYjysy+eKAVHf8dFHH9UlPzJZd911oygXUYxfNeUpSrqWIR0za3qwxkRXX311pE/mW8WtNIpCpE+KwTTutttuccoppyybUy31kgfrMVaXLUDBxXxdqdan1gPjevXJBZ/Vq2/lecLH/P777xHZOO1TOUbmuP/++/V733nnHb2PvJbSDTfcoNeR0Zy6hkCeJ9XaCW+pVWfqWolKn4LHMjkWn3rqKb1husKxxx6r58ivI4wwgspAyEMy6VOaQS88q/sM+MEH9NPZzn32/Y+0rcbQgAEDwsUXX6yzpMzwMWt5wAEHBGnUAavzTTfdpAVhFg+rL67nWFCwtNSDmJGYZpppgghu4Ygjjgi33XZbkA46HHjggfXIvtfngcUSa1pXrZbSABXfv//+uyFYMOPNrBazLmeeeWbo379/wPr3/PPPB2ZeWoGwKOPRscYaa+jsdblvYtZ17bXXDu+++27AW4B1E2qhvffeOzBTh0fInXfeGcTAEUSoreXRtkvDjBT1TIQT9bQAAFGsFAeb3WSmTwanMPvss2vfMmjQIPW06S5YzqdiBMH/iiuuCHhx0FaYcd5jjz10xmbGGWcMuOaJEUvHneKc6nuX2aKXXnpJ+8T65tz8ucETZm6YKaFfPuOMMzKe4NXWbIS3iii2oRZvr0aUnXGYGfDXXnstLLvssplnGngyUz/JJJN0qxiNHqvLFbZan8qMXnepp/rk7parmZ9H7kY2pu9ETsbLBE/T6667Luywww7h5ZdfVm/Eyy67rINLvyheKlPgCu1UHwSqtRPe0lM6U7kvwGMWOdNo5ZVXlq2NJ848gfCYEANMkMlW9Vylz+rtVHdtwlyNGwmMLYCBgoZbOQPMWWedpa7L5kZBeb755ptw8803qxsDSiEuU7jEdJdwiVhhhRUCrtYYAiDe7/QPAjSUXXfdtSwcNDgWMaEzlhnXcNBBB4Vpp502yEyTpr/ooovCwgsvrNjixoxijLKCgYN0uKcbbb311noNw0t3CBe15ZZbLsjshSpDMgusAm+rxJ2Ye6XhhPs47UZm+DLYaBfE/MCTmWeeWQ0QKCPVCH7AG/K69dZbW8NNqNpHd+M+Ajou/izmA2EU5Jw/3K7o0z7++GONM4QPCDDWx8rMq9Z32gQhFLhJTyYuWigo1cj5VA2hoGEnKCmrrrqqhmgw8MMPYtAgfg877LCAyzpEX7XQQgtp3UdRtL5Kb+b+8ex0000XECwxbF111VUlKQiDEi8Sdc1kAZxrr71W72Ns3nHHHcP+++9fkr5dTggFom9ea621wqmnnqoYEe5i7umvvPKK8ouQJbDFRVhm1RQeBDr6Mwwp9PG0ly233LKDDIBSjyIKD7fffvtA/uUIAwwhOYQqTTrppKrAWjorBxMAuNmm5cDgRvgPYQaUk3HmjTfesEf1F2OveEHoNyyyyCJq3C9J8L8T+ghceBlfxxxzTP2ua665Rs8pP+F2Vnfo0/kemYVU/AiXs74CbCD6GsZVwl3KUaV6SdpKY3Ut/dQ999yjihlGW8oCXyiHzLyXK0bhtWp9qj1cCWPqFe+28Y6JFc4tJKSoT7a8/bcUAVzLkb0h6hyTHEsssYQe058xwUEaZHT6VAuVszpL/d588821fludLX2Dn3UWgVraSZHOhMJMu0ApRgey/vbtt9/WotBOmIQkxJM/1t4iTJH+O0/II+KRqpfXXHNNNbYgb1MX7Dr9MPWCPpM2SjiCUa19u6Vvml9z66737y6792uYC7o00mguxgJsxPUc1y9RADKnBJnBiMMOO6y6csqApm5hpBXLW5bGDsxdFtcYUf6yP9wjeAYXdBkw1CWUc5ltj2K1izJoqes51/gTxdOybPnfvHuLuaCLIKMub+Ahs6HR3ErMBV06YcVKGnKUBRb0mLQiYEaZ5YlDDz10nHDCCaMIDlGsYXr/xhtvjBKLr8cSv6bYimCgbpnw/ueff+6At9UPUWIyfprLIS7ouLfIbK/mKcqP8lMGaM1HDAR6XQSMDvk284U8T8wF3eq/CGdaR8FYOtAoniPqDsY3HXLIIfrNpJWBL3NDx1UxT+baDH9wDYJ/q6++ekmyWtpUyQMtepLniX2mDCaKG/ildMIJJ+h1UayjDEzKH1xHZTVSrbNgzR8uy9znWJSUSH55cj7lEfnnPOUJuBnmoqBpP0B/A0mMsOJLPwWlLuhFfZUmTv6JQqT50FeJIhl5DyEeEi8czdUXPopyF2XWSNOK0SzKTHys5KKZZN8ShylP+CBzQWcsSOnCCy9UfOijkQPgCW1IBPpI3wWOYAjR93NOWI0owJkMIDNwet/GAxHwIuE0o48+uqYXxUHvp/8IAyAvwkTEmK+yAO8lrKlaOeA5zzJ2mUsu7qD0reYeTV4y2xcZm0gra5ekr8+OcW/nvhhzoiiIesy5GARK+gMRhgv7dHuWMAsRkKMI3tk7OKhWL4vqv407lKtcP4WsIMK78o138y2k5e/FF18sKUe5k3xdsTSV+tRqGCPP8W4x1GhW4i2g5xI3r+fWP5Trk+3d7f6b58kdd9yhGIKZkazVFOG9/SG35fu3zsghlq//lkcgzxNLVamdVNOZRKFWntJW6D9mmWUWPUeOhkRB13PGOZkIzfpbk9nt/fzKuidRDIaannEP3c10BVzQqRfob8g26Hb04bz3iSee0Gyq9e3pu5rpONRb8bb8GqmAA6hYz6K4zEYUPhhjfwyOEBWAaxZDYgM6A10+ptKUBdIj+NgfCjnXUMBlxip7B4MWA4gsLKGDqKWrZ2ygfkQT/8s3blPAGXDFjVuxQnEQi5geo4CL54Iey+yr8o/PQ3EDYxRwOmRZ6EQVcVk8L6IYc0+sZYqECUwoyjKDpPdQFsuRKeA0YOMnDZr8EHLoLFBEOac88LNfv36alSnmFotSLv9mvJbniQlCsnBRFI8N/Vbx1NBfvjVVwGXBuiiueir4yoyK3gMb2kaeTLHjPoqE1X+L6yJ9LW0qn28rnud5Yt9YaRA0YZR4X9oLAio4c278RFGwNSdQULhfLo7V+WRol/6mPPn888/VkAeG/NEPSHiRPoCixjWUJShVwKv1VfrA//5ZP4byCIlXg44pqQJOnC51AkJo5b30qXkBVRO04L+UJ3yejdd5BRzjCNgwzrD2hMwkR1nkSY0ZjP12jzxMSDPDvMyq6f38eHLLLbeQPO611156X0LM9Dz9J7Ojeg8jJgob68nAH6ioHMgalCkd8xA06YdlZjxTwBFoIWQK0stslZ7n/5kC/vrrr+stMxogPEMmqMrMdizq05GfeA/yUzkyBbxSvSyq/9X6KZMP6Nsg8rKxuScV8EoYV1PAi/rkcti147V8+xVXc61fMlOZwWHGJeodf6TJ929FdTbLyA9qQiDPE3uokuxRTWcyBRxDISQz1spH+mJIPLv03MY5k9HLKeCklwV8NX25GHDTG2RRbJWDTLk3eb9a307+zUh1d0GXhtRwIiaSFfM22WQTjTXFbUkGTy0HrszEuxIzB+H2AuHWhxuaMCXI4K7X8v9wPcblyv6IUzHCZUoEMT3FhVcGDT3n3bhKiDLX5Zhne0er/OKKiYsKrly4jhgR0wHhvkdMFUT4gBF8g3+42bHarbmi4JYE4ZIE4XJHHBGE22YRwTfjJyviG1FG3AUhQgng51FHHaXnxMtB1JdWIYvntnUKcJNMiTYlC+oEWZRHV8rFPQyiblci6jx8sFXUcbMEx5SK2lSazo//QcBi53GFZutE1q6AcEU2Ym0FXHMh1r+ArI3oSe6f8ykHSHIKfqLM6BVR9rT+0qdD1g8wduSpWl+Vpjee4o4HEYKzzz77qAuupaOvsZAQXIkhQm+cShHAZRpiDBFjuq7YiwsjruYyU6n38m2B9VqgSm0F12zIcGcNgDzhNk5oFOtjMG6wuwbnyBJF5TDep2Mea22w8jqx/UYWz25lqMZ7XM0hG0dxDYVw/YTAoCt9uj6c/KtUL2up/5X6KXYngWQGTX/F6KXhGXrSg/+qYcw3Qfkxz3hY1Cf3YLF7ZdYmK4sxJis/688gdyFjVKJ61NlKefv1YgRq1ZmsP8U1HLL+1uR7a9dicCl+YcFdk3cI7UUOor+E7Lo9amWp1Ldbumb5HaJZCtKdcsiq6BpDaQs0wARTlok/RgmwzlZWs9ZXsVWZdaQyw9Cd15c8izIIsWCSzASW3GvXExYuY7EN8CD+zUgsySp0ECMGP6D+srCOEYtEyKqtGtOHoLXffvvpLVsITSzYGn/Hgl8oJvBR3A7t8br8igVe49CIke5OB1KXwtQxE1O4WT8BhYzY1ZRQnlkUhVhVlG8WToEQLisRxg9icVDqiW+Er8azSs/49WIErM6xkCTCi7i+BnHn08Xz7EniJo2op9XI+VQNoY73GUfAHcIgmKdqfVWa3rZBpG+BZMZVjYlmXOEaccVG1t/Zuf/+gwBKqcWDEouN8stWRWDHOE+ML5Tvs6y9VGorMvuqzxXhznglM+wBgy6KPoZj8fLRReGKykG/CJHWxkLxPtKY7VSYrKUMmpH84/vowyH7VjPe2Dn3ivp0S0fcZhFVqpe11H/DnfxT7GXGTF8pM1/6S9ypGbv0Qg/9q4SxyW1mPBavmJIS1NInlzzgJ2pcwcBEfLCtoYHhiQkWFtqqREV1ttIzfr0+CNSqM2Ewg6zd2NuZdIOsXbP1XxEV9UE2MUd9QA5iKzvWTWG9jpSsj0n7l/R+sx33mAJ+zFGHhikbtAc4qysyK8HegijfWMBNSEIhkxiETGBlZnyzzTZThQMLJ5ZsFmPpDrHKKYsoUWFZaICKxMroTv8iwGwPwlFKNFj2jcYLgVViGdgQaIxMAGJAZjVtFs+BmMGGWHQGhQ9Lm7jR6EytNWJN0MV/KDviDqeL4CDYYQFnVnzyFpoBx0Bk9Z62Yh2XQWbYi1ulrljKHtKQYW/p0l8TAsXFP7AaLgTPWmXxuvRbG3Us8cb6Kgl70QXY8PpgZXraRFfJ+VQbcixERT/APqTMMDK+MFvDokF5svZSqa9K0zPzAzHrjaGYhbEuvvjibEY2TevHpQgYT/CImkwMrgh3qcGd/h/FnEXQzAhf1GeV5l77GQuO4U3H7DfjkCkRpmBXKgdpMX4ie/ANLBxKX8m4Z4aZ2kvRuZRWR8v16eZBg2GBBa8qLcJW6Y2Wdy31P58HeGAwYCIFZRwPhPysc/6Znjw3bwIURRYUzbf3nuiTe/J7miFvZD0WA8SAw6w3cjlyOjIVfIeQG/Jk9apcnc2n9fP6ImDjVFd1JsZOiP6Evg6+F5Ep8uhOqTGaZ6zNIZszCcHYid5nO8YU5dvM93pMAW/kR2PtkCB+XZFPYkh0yx4GXVz7mEGFcBHDfQErHMIOs3OsHMxKfnkyJc5+7b6d539xf7/vvvsCllJWO6WSyIId9lhb/uYxAgRZUCPb5sTuwxMaF/ziGgIJhHWalTGZmcXFH2HK3KbNokY6jClGRe7n1pFbWn6tDOk1jvGMoGFLTKa6NjLTYe7o+bS99Rw8cJmEDNcUD3g1mQi4rEIpi0+poYS0Kfacp5Q+j3cCbQBBE6XRZlbSNDxr5/ab5teOx3kcdt55Zx1omM1jIMSFX2KqVCE0fNJn0mO7n/9N0zif8uj8WydloTvtBwh9wWiBsZZ+wWYX0z6llr7K3oQgQpgGM6Bsc4jygxKGAdJ4Y788U+nY8munX+MJsykI9QhhGGcR7DGOYAzHGMu4gGGXMAJCn/D0SfkFZnZu+Nqv4Wn37deu88sWfqzUTXjCpptuqjPu8JX2Wq0cyB8oILRp2jL9JPJLOoOUL0v67vQ4n87Kar9p2qI+nfrNav+4j2I0xfU3JXuP/XIvPa6l/qfp02OMv+zuQNgAs1sY5c1l2Wap07J09jh9V/pspevgwJiIjCjx4Jnwb8/W0idbWv/9FwF29mA7TVbtp+5zjJcBWKNwIaPneVJUZ//N2Y/qgUAe+1p1pnxfY/kwUYA3JEZH9DLaElSpTaPwkxcKdjppQ34YxfCipX8iH/oJiQfX/pY882WwcysLaZqR+rBoWjMWrKhMTz7xuM5KlEvz7bffqsssMVbGhHw6tr6iUlSqCPn0fl4dgYEDB8kswETVE+ZSoJzBC9t2BAEKtyS2G7AYb6zxGE7K8Yu0PMNMddpoc69py9Ou8sTAQoClrTAz0+wdmZW52X+7yhNm9Zhdshm2Zv/O3lS+rvKEbXXYBxzF3DxIivqqPCYIE8w4oiQ6lSLQVZ6QiyxIqEo440pPE30k4VHEN+epWjkwwGCglIXT8o/22DnlxZsGQ56Nr+nL+Bbizm1GPL1Xy3Fn6r/lR6ypLBCpXowI1xhr8WrATZ8t/vBgLKLu1JWifGmbxNSXkzt4zvvkyuhV4wkeDsT+0/dVky1cDqmMc2fuVONJUV5d0ZmY3CSMEYOLLK4cZMVynaDEEFNp5po+kXZlMdz5Mll/ixzUW9zM89+QnrecAp5+nB83DoGuNm5cu7G4M8iyuAJWZ1xRsHCZW1+5r+A+llNbwIXFv3BpcvoXga7y5N8c/KjeCDhP6o1o9/PrKk+YsWYmhxnWyVsoPKX7iHY/h67ypPtvbv0cMGYz82heSYP7i/FqYIYLN2MMGXgwYNhifE8XSq1UTq8rlZAZfNedJ4MP+0pvbjRP8FIifAtFmRBh1rhAucbr1RZRq1TWdrnuq4S1C6eb9DuJoZOtT9Q6xkCMOzqW+SLlm0/BAmaLPMheqq58Nyl/vViOQKsiwK4bxLbZytOt+p3+Xa2FADGZCMLNQoQPMCPGjBkL2GGAl22Fshj+Zimnl8MRcARqR4AwG8IMZKtINagRnst4aYtl155T66b0GfDW5W1Dv6zR1rWGflwvfZnzpPkY5zxxnjQfAs1XIm8nzceTZi2R15Xm44zzxHnSfAg0X4laYhG25oPVS+QIOAKOgCPgCDgCjoAj4Ag4Ao6AI+AIlCLQR7YA6HWLsPEJU0wxZemX+Jkj4Ag4Ao6AI+AIOAKOgCPgCDgCjoAj0MQIuAt6EzOnNxXNXY6aj1vOE+dJ8yHQfCXyduI8aT4EvES1IuDtt1akGpfOedI4rGt9k/OkVqQal85d0BuHtb/JEXAEHAFHwBFwBBwBR8ARcAQcAUegjRFwBbyNme+f7gg4Ao6AI+AIOAKOgCPgCDgCjoAj0DgEXAFvHNb+JkfAEXAEmgqB5557Ltx6663hu+++C6effrruwdtUBfTCOAI5BH777bew8MILhwMPPDB3Z/Cc7rzzzmGdddYJMfbK5XQGD2j+VkfAEXAE2hyBHlPA//vf/7Y5tP75joAj4Ag0LwIff/xxmG+++cKxxx4bxh577HDmmWeG4YcfvnkL7CVzBASBCy+8MAwaNCjstttuTYHHLrvsEu6//341ZDVFgbwQjoAj4Ag4Ak2PwJAHHHjgwfUs5bPPPR8uueyKcP1Nt4aPPvooTDP1VGHYYYet5ytk8B0YJptssizPv//+O5x44olhjDHGCGONNVZ2nYOTTz5ZhcrxxhsvXHvtteGuu+4Kjz/+eHjiiSfCyy+/HPr06RMmmGCCkmf+/PNPHVDvuOOO7Nk0wWuvvRauvPLK8NVXX4Upp5wyDDFEqR3jyy+/DGeffXZg4/l2oR9++CGMOuooNX3u22+/HR544IEAjunft99+GyaZZBLNA2z32GOPsOKKK2Z5VsIVnj7yyCNhjjnmCNQFWdk/3HnnnWHCCScMo4xSWqZqvONlZ511VhhnnHHCaKONlr37hRdeCFdffXX44osvwsQTTxyGGWaY7F6lg3L5VCtfmhcYXHPNNeGll17SOjriiCNmt6vVURJ2hidZxn7QowjkefLrr7+GU045RfuQiSaaqOTdzEijEI877rgl1+t1MuSQQ4b11ltP28ziiy8eLr/88g59WbV30c4efPDBMNdcc3VI+uijj6pSMs8884Svv/463HDDDWHWWWcNr7/+eqA90Xd2hX7//fdA3pdcckl4+OGHtY3Tv9OXd4XyPLnqqqvCPffco+MEY0X6N3DgwIBx+bLLLsuuP/300+Hdd9/V/maEEUbQItx4443hnXfeCdNOO21JkcCLb59xxhmz69W+h7GG8lAPGONSou+75ZZbtN/M93Vput52nOdJWn5wHX/88cNSSy0VqMODm0YaaSQ1CNCWF1lkkcFdnLZ7f1FdaTswuvDBb731lspM9Mv2R1/C3x9//BEuvvhivT/99NOH4YYbTt/w008/hR133DEstthiZWWhduFJORmvmmxWJIMW3XN5sLbK3VmeFNV/3tiTPAm//f5HrNff9z/8GLfeYbf4wkuvxO9//Ckedfwp8bobb6lb/lZOUbDE2+tfkoEP368ogsq/F/93JB1GPOOMM/RMhMwoAkyce+6542yzzRZFWdfnxH0silClaf766y+9L4NqXHrppeNQQw1Vku9RRx2lz0jHo3mtueaaJe+UjimKe5zmXXKjxU8GDBhY8xfCD1Fwsz+ZfVNMV1111SwPUQZi3759s/MiXFdZZRXl8TfffBNFSNU/+DP00EPHfv36ZXlU4x0Jjz76aC3LQw89lD13zjnnRDGyRBGmoxgI4uSTTx6lM8zulzsol0+18qX5SKOPYrjSd84888xRlP4oBi1NUq2OWj6d4Yk94789i0CeJ2LQ0fomCkWkfqQkBqB47rnnppfqfizus1qnRx111HjRRRd1On8RzrT8ohR1eFYU77j22mvrdTE8xRlmmCGutNJKWpfFuNkhfS0X6AfEsBlF8dJ+lr6W4+WWW66Wx8umyfNkyy231DGAcUKE0AgfOOZvm222iWJc1W+2a2JUiOAnxpL41FNP6TvEcBhXW221Du/baKON4qKLLppdr+V7xEtB37fnnntmz3HAmDXppJPqPTGClNzr7Sd5ntj3UI/ogyuN95aukb+iiCgfqCtiFGrkq/1dgkCluuLg1IbAdtttF5GTU5nspptu0oe33nrruMQSS0Qx1MZlllkmy/Dwww+Pq6++enaeP2gHnpST8arJZkUyaNE9lwfzNaz8eVd4UlT/e5ondVXAB338abzz7vsyhfu6G26OZ593YXZuCnR3f7ujgG+wwQYlnEMZlJmTKLNNel3cMFXg+vzzz/V8//33V4GRhiWzH9pRyeyH3nvxxRdVEHjsscf0nF+Z1dFrKPftRN3pcM8777woM8pRZoYyyDbccMNI5YeKcBULbRx55JGjzEBpeoQzsUDqcwhDMmscv//++6q8Q6FmQEGw488UcJmdihhjKA8CL3mjWHBejirlQ1q+p1L58nlhQKA81DvKgBIuro6arKiOpvl0hydpPn5cPwTyPDEFnDqHcpZSTyvgP//8czzppJPi888/H1HgUCw7S+SB4nHwwQeXPPrGG29oO7r33nuz6xhKUbzff//97FpnD5Zffnk1bg4YMCB7VGbBtQ/vigGBTPI8yTKWgxVWWKGDoAlOGPdSgo/ilZUp3bUq4LV8Dwo4YxTKdkoyM5/1V+2igFOfMIpj2MH4MrjJ2hBjl3h1RYy1To1FoKj9NrYkvfNt888/f0TOLUcY/u+++27pIweojPbjjz9G8VTUyadXX3213CN6rZV5UiTjFclmRfpD0T0AdXmwYlXTG13lCQ9Xqv+N4Emp77RIgd2hscYaMyy+WF/N4qeffg6PPf5UmHfujq6J3XlHvZ/dfvvtgwhB6jJO3qLsBRG61AWZ84033jgII9Q1RwRVdXljwRUId8pZZpklSAel56LMhwUXXFDd4fWC/6uKANjiai4CfBCvBE0vbSKIoBWWXXZZPS/CFX7hmok761RTTRVOO+20IAKaPjfNNNMEEZCCKAOhGu/EqBM+/PBDdY1PC/3ee+8FmaUKm2yyibq4kvfKK68cWLyqHFXKh7RF5cMtFXdV3M35fkIkeCculri7i8CZ1bOiOlquTH6t+RGA17g1syBaOSJeWzxEJMxj1DDTTDMFmZlQ93HS0ufIjEX22CGHHBJkplbdvnEbxE3ZiHZFn4W77C+//BJwn5YZDl1EirpHe4FkljaQjxh+Am7VpBEhzLLJfrm37rrrhiuuuCK7xgHu4aKQhiWXXFKvi5Et4IouRiUNFaHfJRyDMCDaPe8iFIgQol133VXbQEmGciIeAvothBsRBmKE2y/x68SxDy7i3WD16aef1lyEznwPuIE//DIiJIaxqp3oggsuCAsttFAQL4XQv39/dQ9Mv18UYF2gDbdw6jB1uha6/fbbNYxCjLlh/fXX17Hn5ptv1kcrtS9u4r5IqBohHIxXhAsQjgCxtgLlFK+PQHmmnnpqDRfQm/7PEWgCBAinoQ8mfE8mlLQ9IX8Y4YZOP02YDLIP8shxxx0XxOOoJIzG0rfDb5GMVySbFcmgRfdcHqxeq7rKk6L63wie1FUBN5hk1i6cff5FYY7ZZw3TTz+dXe7xX4Q8BM/0jxiWajTvvPMG4pIpN0pYKtxZXCaC1QcffBCINZTZjyxL7pvQhXCA4JmP08sS+0EHBPbdd1+N59t7772zeyijxHNi4ICKcMX4Ia5Rmk7CAVQ51hP5h6COUE8+1XiHkIRSzaJUKU0xxRRh9NFH13hOu45Cj2LOwJSnSvmQrqh8DHQIccSdU59Y6Tethxx/9tln+rqiOpovj5/3DgQ222wzVabou1DM8oQCxsJT1113XRAvHl2ICuMVhMDP+glG4r0TUNjHHHNMbVssWmV0/vnnqyJAbLl4cWg8Mn0WbQUlxNqhzFKHE044QZVhjALEBh5xxBGWTckvSgZxuaYcMqgRT77FFltoOyaGCoMBRqRnn3020OaJ08IYgCEAJYk1IWQGO8hMjMbEc54n8kcYKRdnu+222w42ZVSs77q+CN/DNxoxgKdjEcdPPvmk3Va8av0e2j9rirCOCQTG1AVi+NuFaBcoxRjFMQgx9rLWihH4szAbfTBx8azNwtjACv9FhBKNUZ2+n8XUiF8l5l48p/SxSu2Lm+K1onX8vvvuUyMYcoS1E9ohYxeKN/lJCIa2CXjn5Ag0AwLUbYyum2++ufYvGHcxmpohlnFnv/32036MiQeZAVdjJxMm7UpFMl6RbFYkgxbdc3mwek3rKk+K6n8jeFJ3BRyB4qJLLgvDDztMWHONVasjV8cUKNvM6qR/tWSPcMOzDLwsFpQudoWgijJIx8M9W2TH8iUt9yBboMLu+W8xAuB5/fXXhx122KFkMR1TqsEdKsIVwcZmyu1tCDhsDYPicOmll+rz1XhXaVE1FhBEqD7ooIN0lo58WWCJhTYw2OSpUj5punLlYwYfpUTcTLWekT6taxwzE0/7Kqqj6Xv8uHchIPHeanihjqWEMozySR2UdSlUgRW3qTRJxWMEq9tuu02VEBQR2gTKPso8bQcFYrrppgsYIVFCUMaNWGQHJRqBjAGOAakcSSy0zv7aLDjKM0ID74EwBKA4oVxzjCJCOzHDJWlYiA5lCQWKWf5y7zIDFEaqwU20f/on/pj9Bjtm+FEOjWjn6VjEMc8ZdfZ7eAf9JcTicxgAMdq1CzG7zCzcWmutpco1WOM1YsrC8ccfr3UIIxIKOt5QKMGpB0g5rBhvwJKZPdqBhGWUS9bhGv0/z2A4og1hqKUfN77yAOcYt5hFpz3Rd5u80CFDv+AINBgB2g5jCjIN8gXjA7OJxxxzjJbk0EMPDbSrnXbaSb2cJMZWJxJYpJY0e+21ly623OBiD9bXFcl4RbJZkQxa7R4f7PJgZbZ3lSdF9b8RPPnHV7fyd3X6zjXX3SCW4x/CLjtt3+kVdTv9stwDKHL5GQETWHJJS06xWuF6xsw1whSKuBHHKD0o6Z988knJPdIg1OLS6dR5BBD28SbA/TYlBCJmtKoRgg6z0RIfkyXFVQoXQmYkELzsXp6vPFAr7yR2W/NnkGL1YgalU089tUur+1cqX/YBcsDgBqX1kLKyqrsJ/Om9tI7qg/6vVyKAtwb1CsUCJcOI2WUIRdeI2TrCFMoR/ZXRGmusoQYuZktRCFFeMVjZTOyRRx6pSoSlpz0y8EDm/cMxHhrlDE7cg1DUyQtlg3bNO6ivEP0qyj7GAGbqUcApC39GtbzLQlRo83lPFbxXaBu4UjaCcMVEUIUY/GVtB/WO0gv/+8fK8CiIKcFb81zo7PfgQYN7PsYY3M+pIxZuk76jVY/x5EBgYgV0iL4UgwaK+VZbbaXhY4QyGNFXoxRjbCoiZsBJi7EdYsYaT7dKZO0L7PF+wAhCG2WM4RqziEbIDUa0IaioHVla/3UEGoHA7LPPrn2zvQtDq6ytoDs82DULI6Id0QZxWacfwiMFD0FkbnaKcApd1h+K5FOXB7tXs/LYpvJyUf2XxZ1LZHBKYTpDvXhS1xnwz2WLpgf/r394/8MBYc9+B4Zd9uinf8SDNysxiOMuaW6NzEDiMmlkx7Lytc5OooTDBIiBGGGQe06dR4BtiRAqTTAhBxqHrCSsVtlqOSLUM7NgHgvMMBETyWDADJEp3+QDX7vKO1wbcZvFVRZhD8WfmY3OUlH50rzoMBAGre5xDxdgq2dFdTTNx497HwLMSOPqhwHKZspQNlGMaRdG5u7NOcogrtxGuJ8bUY+I0WY7O/5wO0dJsK3NLr74YlWKUYxfeeUVnS1HaYHy2ytanuV+yZd+kRkU4tFxSzdiJhJPFBRz2jeu2fSdqQJey7tQkmjrlDklvp3BUlbmTS/36DHlJRaZP2a+ixS2SgXp7PegeDJOsU0afWfe2FzpPa1wnbAk/nDpZstJ/mgPuOWbGzoGH+JYjfAcoV7nt4Kz+/aL4YtxnLAfCAMU200aVWpfbLOK8RgjF/H5zLbTVjtbr+09/usINBoBJirwVEo9c2gz9E15on/FgIixEZmIdTwOOOAANeam7SX/XDudF8lmRTJo0T2XB7tXg4p4UlT/G8KT7q5IPjiel5kHkd/+JRHAmPIp2S7M7rK9AiudQ2Kp1i0VeF5ivXTLEBFodLsnEWg1DddF2NXtf2RQjiJg6XZk3JQBOoqgFVlJXWbN4z777KMrcLNCZEoiIPo2ZCkgFY5Z5VmE85K7MsscZeao5Jqd5HEVxSLKQjd2O4o7lNYDsdJGeGx/MqDUzDuZYdE8bBV0MpfZvMgWaaymzorLYjCIIgBn7y13UC6fovKJcSCKq1fkF2L7D3Fr1G2N2BKE7fNYLR4qqqOa4H//Wnkl0vQ7e9Nxnie2Cnrap4lrtvKbPs22IWMLmDnnnDOKV0cU1z9dCVqMT/rpXGeVVFEAosRxa3/G6t1GMtut2+iJ0hht5VpxuY0yU6dtTRQb3SVAZo+zvk5m7qKERFgWURZK1HdkF8ocSKhGZDs1+kgR6LIUMjOuO0tQt9l2S9zMtY3JbH+kbHwnq5ga8W5Wky1H4uau6WlL7EIhA2hkG0Jxz8u26Sv3XNG1PE/StOAocZDpJV0tnjGiiGpdBb2W7xGlLsqMk74OnsBHdlMQRS9a/Wn1VdDZ6ou6Rb1NSYw6Wh/Y/o06wZhCf8mYzDjNDha0J5m90/6VNpInMXRqe2LLSuooW/NRJxlvoErtS+K9dXV6MS5puWh7YvDKVmfffffdVeaw95Wr63bPf7uOQFH77Xqu7fGkeOPo6ubi1afbYCKPUfdlMbESAGTNG91qkbYEMfaIF04U7xGVgZGNU2oHnpST8YpksyL9oegeuLo8mNauysed5UlR/W8ET+q6DVmjlPFUWIUVpoDLzEAHzjAgmjAnrjTaudDB8CfxiJFrYk0veQ5hU6zemoYl6iUeMbsv7tH6HM8jBJV7JwO3WK2yZ9rhoLMdLh05GKaKLjjR0YhVtSxkKa4IYvBPZqWztGxHZrxNf++8805NUwvvZJZa80jrmMzY6R7A4uKqe2WKm2P2zkoH5fIpKl///v31vQiSEPhQ9/gOmfWL4mJZ8qqiOmoJO8sTe85/ew6BPE9MgcKwk5IpZqaA0wdhQETRZEs6iVXNFGLqN4oHdQXlF2MRCmBKshp6B8MWioe4YOlz4katxkkMixB9W6qAswe1xNWmWXY4Fo8UzQtFJiWUHtu7m/dQPoxsMvOSKeAy65g9kn93duN/ByjuPE8fLWs06FZhXd1XnCzzPEnfB44yw5leUgWc9xaRuHJmW5Kl6WTGtGQfcO5V+x6wMwWc+sJ3S5yzZmv1p5UVcLaaxACZ3wcdABC4MIhKCEQUjxHdrxgDBW1Bdp3IxnbGGa5JqILilv+HIo+yThraF/w1BbyofbE1JM9Rr2XXjbjppptqW8QAhQKethlXwPOo1+e8qP3W5w2tnQuGfZnx1rqPvMxeynlii0wMXEZsxSgeJzpJgMEqT+3Ak3IyHjgUyWZFMmjRPZcH8zWs/HlXeFJU/3uaJ31QmmXQ6VX05BOPh759+/ZomYWRuiiF+fqnL8PFTBpEFuOY3mvX44EDB0mc/ETd/nzijHBJT93Sy2UqzU+3gGHxm85Qd3iHiyHuQLifNopEwNb1CXAlzlNRHSVtvXiSf6+fdx2BrvCEMJnDDjtMVxIX5VRfzsI5bNlFSATEIlLWJxELnRJ1nvAFFkFjNfI84XJLHDPrYPQkES9LPbaQke6+C3d22iJbPHWHusKT7ryv0rP1+p5K+fem693hCf0i4RsWZsF3M14QLsA6Hun1FBNis+njcWWnn2fxKVufpKh9yUyJrpheKd/0HX5cfwS6U1fqX5rem6N4f2jbIOQiT4S8sLAha4gYiVFYQ4pstxq7zm+786RINiuSQYvugavLg6DQNSriCTlWqv89yZO6L8LWNWia7ylWHExXHUxLiNBnCwyl1/24+wikizEV5YaS0Vnlm/y6w7vBIWCVMwAZLkV11NL4b+9HgJX4WfhmtdVW07hfYrVZ4yBd3RmhqVzbIT6WFchREti+rByxMnkjCINBPamaka6e72pEXq32PY3ArNw7yvWLEnoR2DmgqA8fStZGqDSuV2pfvJ9dOop26ihXRr/mCDQbAqyFUIlY5yBPtiZN/rqf/7NieVf0h2ryqcuDXa9d5caFNLdK9b8nedK4qbz0S/3YEXAEHAFHoGYEUKRZAIcFBlkkja2+xCW96vNYb9nWS1y06zbzXPWlnsARaDIExK1cZ7RrLRar+kvYRq3JPZ0j4Ag4Ao6AI9ApBHwGvFNweWJHwBFwBBqPANZZiTfVv868nZVq+XNyBByB2hFgv2MnR8ARcAQcAUegpxDwGfCeQtbzdQQcAUfAEXAEHAFHwBFwBBwBR8ARcAQSBPqw2nNy3msOp5ii8/sw95qP84I6Ao6AI+AIOAKOgCPgCDgCjoAj4Ai0HAK+CnrLsXTwfFC7r3o5eFAvfqvzpBifwXHXeTI4UC9+p/OkGJ/Bcdd5MjhQ753v9LrSfHxznjhPmg+B5iuRu6A3H0+8RI6AI+AIOAKOgCPgCDgCjoAj4Ag4Ai2IgCvgLchU/yRHwBFwBBwBR8ARcAQcAUfAEXAEHIHmQ8AV8ObjiZfIEXAEHAFHoBcgsOuuu4a11lorxNgrl1LpBQh7ER0BR8ARcAQcgdZDoMcUcPafdXIEHAFHwBFwBFoVAbaGe+ihh8JNN93Uqp/o3+UIOAKOgCPgCDgCdUag7vuAP/Psc+Hue+4L33z3fZhx+unChuuvE4Ybbrg6F7s0u7///jucdNJJYcUVVwzTTTddyc2TTz45LLbYYmHWWWcN1157bRgwYIDe79OnTxhxxBHD3HPPHeacc86SZ/7888/w4IMPhjfffDMsuuii+mya4LXXXgv33XdfmGqqqcJyyy0XhhxyyOz222+/He65554wzzzzhHnnnTe77gelCGCgufXWW8N7770XFl54YeUDPDH66quvwoEHHhjOOussvVSE61133RU++eSTsMUWWwTqwsMPPxzeeOONsOqqq4YJJ5zQstTfIt5999134bbbbtP6Sl0afvjhS57lhPIsv/zyYdJJJ+1wL3+hXNo//vgj3H333WHgwIFhiSWW6FBf0zzAgPKAC+8cZ5xxsttffvml4sf3Ugcnnnji7J4f9B4Efvzxx3DOOeeEddZZp0d5+NNPP4Wzzz67IjDUxR9++CF8/vnnYe211+6Q7pFHHgmffvqpljN/M+1XuTfssMOGKaecMiy99NJhqKHqPsTkX1/3899//z2cdtppWb7076ONNlpYYYUVStogCSaaaKKw7rrrhldffTWsvvrq2TP1OnjppZd0rKFvG3300bNs6T+uueaasNNOOyne2Y3cwWeffRYuv/zysOOOO/b4OJx7dY+c0t+9+OKL4dFHHw3vvvtumHbaabX/o75B5b6XfvjXX38Nu+++e4+UyTN1BHozAm+99VZ45ZVXSj5hvvnm074NeeWyyy4L33//fdh88821HyQh4wnt6cQTTwwjjTRSybPtdFJOxnvggQfCt99+m8GA/LbGGmtk50UyaNG9Inmwms6SvbwNDjrDE/QKxpM8TTDBBGGhhRYKRW2DZ7rNk99+/yPW6+/rb76LW++wa3z5ldfiDz/+FA8/5sR47/0P1S1/Kydbp6Ukgyv+f/HKK69ML+uxKP/xjDPO0OPFF188jjHGGFGU7jjbbLPFscYaS58T4TeKQqhp/vrrL70vnUoUATKKAFmS71FHHaXPiFKvea255prZO9dff/04zDDDxCWXXDKKsBRnmGGGKB1Ydr+VDwYMGFjz54H1sssuG6VjilLJIzwSAbPkeREaY9++ffVaNVxXWWUV5fE333wTxx13XP2DP0MPPXTs169flm8R70SJ0PRzzDFHnH766ePII48cRenInuXg6KOPVt7LjFfJ9XIn5dKKgh/HG2+8OMUUU8QFF1xQ68r1119f7vEoHXEURSaKgBlnnnnmKAp2/OijjzStdBpRlPE4yiijRBko4xBDDBHvvPPODvl0hicdHvYLPYJAnicffvih1ikZtHvkfZapDBTar9H3icFR30k95Jy/6667LopAFekjy9Gee+4ZaVPlKO1X55prLm0/orRG2tLPP/9c7pGmupbnyddff634iFKn2NCP0x+IQS5ecsklJWUXF/Q4ySSTxFFHHTVecMEFJffqcXL66adrWTbaaKOS7MQArNdF0Cu5nj95+umnNZ0Y7PK3mvo8zxMKK8p3ZLylX19kkUWiGD6iGMHjCCOMEOm/oXLfKwZZfSbfn+sD/q/XI1CurvT6j2rgB2y33XYqgyFT2J949GgJtt566yjG2bjeeuvFZZZZJivV4YcfHsXgmJ3nD9qBJ+VkPHBAr2A8MCz5Ra+AimTQontF8mA1nUVfLP+cJx15gm6Y8mnsscfW8VIm7xS2orZRD54EU2rr8fvd9z/GN956J1O4zzr3wnjJ5Vdl5/V4B3l0RwHfYIMNrD7qLwxAEUTQgc4888wosx1RZoL0fP/991flh0ousw7aUYlFUO+J5USZ9dhjj0WUIhQhsczrPYQ4BLarrrpKz1v9X2ca980336y48QuBHTyQGfEMpg033FA7q2q4YuBAOJbZEE2PMCzWQM0HYVm8HKJYbwt5R2KUBXEnzd4vM+DZAIPywmCDkYe/IgW8KK3M6GtdsvIhVKMMlSOUHd5JvZMZOVXCrXwYJOgoTPg+8sgjtcPHEJVSZ3iSPufHPYdAnieNUsDTL/rll1+0Huf7piIFHKOZGSnTvDhGAc/3q3fccUfZd+SfbYbzPE9MAbf+iTLStjbeeGPtT8RrR4sNjuJ5FZ9//vkoHlNRPAzq/jmmgNPvpP1jrQo4BUJx7W2U5wnll1l8NXo/++yz2efQl1L3xh9/fO0nuVHue8XrKKKIO7UeAuXqSut9Zc990fzzzx+Rc8sRhn/ajniO6oSBeGyp3MFElnj9lHtEr7UyT4pkvEGDBum4h26QpyL9oege+RTJg0U6S1oG50lHnqT4cHzeeedpPX/hhRf0VlHbqAdP6hoDPtxww4bJJ5s0PPHk0+Hsc88P77//YVis7yIiOzQvbb/99urea+6ZokyXuBqK0KXuwq+//noQQUvdzXEXhXBrn2WWWdSlGBe3Y445JsjMpt7DXVCUpCDCgp77v38RwK1yzDHH1JABrk499dSKo2ElNT/ce++9QWbJ1XWwCFf4JbPe6vJKSACuo+b2Os000wSZgVN39CLeiSAdxMKrbppWSsr0zDPP6KkYfIIoSkFmKe12xd+itJtuumkQxSQrH25cuFRC0uDVnRJs+P4nnngibLLJJlrfxKtC3YJxXYdefvllda/HLRaSWSF1EcMl06l1EKA94GJL/TSSASGIYhhkVjbceOON4YgjjghbbbWV3dY6SxgObtRdoS+++ELbJeE5M844YyC8Azr++OO1Ptaap3ivaN3Fbb0ViDAqMdYG2iIu3RBumbjs43qOGzp9DCEFEKFLhxxySBDvlSAztBpuYuFPtO99991Xw1jEIyawkBt8FsFOn83/YxwhBGWbbbYpcW1M04ngoH0o5WTsYVyjb8G1VDx6Kj6X5tHMx7hYnn/++RqWlIaM0dfLTFQQY6aGUOS/13ARL6nAn+HCuE78vhHtZfbZZ9f+2a75ryPQ6giIUVXlCZmAUFdcXKDpn4zEy077EdoHbY1wnOOOO07DPhgf2pGKZDzcmemDxbtMw2QIiTEqkkGL7lWTB4t0Fnt3q/92lScpLoR17bHHHuHggw8O4iEditpGvXjSIwF6I444Qhhj9DFEaRkYvvjiS4mbGzv9zh47ZrCFESkRw1KNiNUmpltmG1XRIibZiBg/CEHygw8+CAhM4gJntzVOhnso4vwZiUunxpsTn+tUigACFPHWxDGD52+//SbGmveDzHZrQpRR4mYwcPBbhCtKqbhG6XMooikRn0QsB/kQZ1uJdwjI4mKbPYoSgpCNYA2ttNJKGsOTKkJZ4txBUVo6ZYgyH3vsseHJJ58M4oKu1xjoZCZRY6yoT2CSxnVzbJ05+L3zzjv6HP8wDkHgN9NMM+mx/+v9CFDf4CkDgRFGFhQ/4u4QiqgTYnW32xqbR9ySGXayGzUeEMtMnyWhG+Gwww4LGI1QMmkTDFCVyIQ2fnk/7Y3jfJus9HyzXGcMwMAFsT4FfREx7Rg8wByh09rbAQccoIYy+hli/jiHZ8RM0p8hVLE2CetFoCBiLAGXE044IcishfYB4q4Y9tprLx1bKo1V9IHnnnuutu2dd95Z80/xQmgWV1HlF+teSDhK2GeffbTfwtBJHepqfUjfMziP4QN9oriedygGYzRGWsjGEb63CJcFFlhAhS14Al9ZawOcyuXf4YV+wRFoEQQYT5ikIL6b/oeJJOQQ1ufBCIsMtN9+++mEycorr6wGRvoum5xoERg69RlFMh4KODgir4El/ZB4KIa99967UH8o0i2qyYNMDlXSWTAAtwN1lScpNhjFxZNKecX1oraBDFYko9fKk7rOgP/22+/h088+D7PMPFNYe63VZTZ4vvBw/0fTb+zRYyo+AlD6V8sLaSw8yyJE4n6oHY89x0JcCEDMbHAPZS0lOimb9bDrzBohuCIssbiRUykCKMwIhjSaU089VX8ZBOiwIFOqwT2lcriy4B0z5SmhsIA9g8ill16qFslaeUdnx+JRCMYm1DHrVSvVkpb6glCORZkFrCAWEWLxCK5TViitaxwzY45SgzDPQnPMkGON3m233TQ9HYJT6yNAPyVxSx0Wh6zHl0822WSqGLIACTOzKN4MNtVI1t/QflLCcHTGVVyndZY3NSJVy6MZ7oOtLdZFe9x2222DuGdmRZPYviBrTahRAiMd91ZbbTUVYPFEELf+zPuAhc9YPE3WBNE+DiELuvrqq3U2lhltFucB52rEYpKnnHKKGgbp11KiL8UrgrJwjLGAfoi+rFUIgQbCG8Bos802034TwyZ/eISkVIQLHguME7Z6vYQrKS8knCnNwo8dgZZGALkLeYe2g3xB38Iklsk+hx56qHo/sdjjFVdcod4mGFUZf0iD8VDWpmlpjPIfVyTjMT6AD8Y8xk6JIVZjNkbdIhm02j3KbBa9JQAAQABJREFUUEke5Fn0EKNUZ7Frrf7bVZ4YLmDIZNgOO+ygXh5cL2obpIe6y5O6KuAosUccfbwq4Qxun4kyPu64/67crCXuwX+Ax+xD+lfEGCsKgzsDr8S16ACPEGbEMUoPgiSDf3qPNMzk2iw557IQjwpbKIAITE4dEUDxZMYBPBF8ZBEotbTaSramgKdPlsOV2T9WO5dYjCwps4Lsy3vxxRer+6wZQGrhHaves/ondaZ///6BzrQniPJddNFFKqzz/czupMTgBqV1jXqGEI5RAgs1rvbMNIIVAyFlthn2NC8/bi0E6FfpV3CVQtHKE31Vdyhd3d+UHdpUNVpqqaW0zdBuEDZQUmWhnmqPNd19xoD7779fy4Xb/VNPPZUpaVxEiWZW4bnnnlNFO5154JgZD/NUSccFPFyYXYfwXkndqOlzaiHcpjFaoriDrxFlxhCJ0ZA+Au8F6gl/rUKMEVDaV8o6IeGggw5Sl0GUgLwhvAgXwneY3UNWQFCmH0Whd3IE2gkBwi7oO5ApMJ7Sv9CPPf744xkMGBDxrGGnmQsvvFDDQDAaEiZHf0f4ntM/CGB0ZXcKZDjkR7yiILAqkkGL7lWTB/PPpjrLP6Vq7/9FPDFkkMPxbGZSy6iobdSLJ3VVwEcZZeSw2sorhFPPODvs2e+AQNzWUkssbt/TlL8Il8xkmOsZAiiua0Z2PPnkk+vsJJ0QyhCEsIsCyD0IV0RcARHciEtzKo8AGCKEEg+NIIsbIPGuKOB0Hgi9WGWNKuHKwEHMvVn/8HxgqyAGD2aIU8UcvhbxDtchBh6UGragY/ak3vSf//xH3U8tX2LUoXzsNh0qVkyre6TB7dXqmaz0q+6ouLATl863YfwyAwbpnXo/Ara9IfUawkMEV2e257O6jdBkniOk+fjjj/npMtk70wxqUeoZkJg15w8FtRVnEulX6O9lpfdse0PczI3ow2i3pnjDm3JEP5O6cNKeayVc2Gnr5vXCcxjj8PRBiKD/pEzwrJUUcPo+wolYqwW5AsK4ilGCv3JYV8MFhZu+njzh2aKLLqr5+j9HoF0QIPSSdmBtiu9mjCkX341BlbYmC93qGj2sp4CCiRyCEcspqCyLV6cRugJ9MXgWyaBF96rJgzybyop2bPKilaVdf9EvKvHEMLnhhhvUcwFDuVFR26gXT+oeA77E4ouGxRfrqw26ltln+9hG/TI7gXLGbATCKjOrxFDiOgjhOk4MJPHkCErE0qEMAri5TmNRgam4KOKeSWwMSiNxxLgHYznhHRAxBaZo6QX/p67XGCpw8QAv3Khxn2ZmGIWSmG9mc6AiXJm1SN3PWTyB57HSIogaD4gBL+IdAi0L69H4mFnEKAChjKBQ1IvwokBwxmiAwIfLKIoKxh/cRXHjlRXOtc6ACzPbGAQwHCBgm1sYyjjlBBusrBxTfuqoU+9EAANQqvzi2oTCAWEgxDKLUS+vDJOG+k6dZfGtk08+uXcC0ISlZkEvZkrpp/COwbBK22WfdJRbFmrEOMjijwhaeLWgxKV8LPdZuKzj5s74wboUqXBQLn16jfGE9Mz+GtF/Yb1nVh0PGWbAmZmqxXPB8ugNv7jusxid7FChhm4WrkPYRNHme6n/KVXDBQWefpi1DohzzYc8pXn5sSPQigiwQCNyB95zyLW4mePBRN+UEmsr0P7oByFClVDUWTiSNRR6ylswLUNvOKYPwi2fvhh5DxmPPoZxg/6IiZ1y+gMG7Er3MC4WyYNFOktvwKyny1jEE3s3MnXek6OobdSNJ/XaGqyR+UiMisih/5LMAOF3WXbLL5mR0K3FSM3+3KSzP6nwei2/P6goNFGEKE3HMvTidpi9TJS+yHPkwZZXtpWPLGKR5Wv58yvWxezZVj7o7BYHbP8myoNuPyYzZrqND/iw76RYVTOoKuEqnY7yQVYNz9KKMluWB7ZHdiXeSWx52efILyWZidR0+fqXprHjcmlFII7sKyiukZqPdMxRVnvXR8R1V6+JUq3nopBH6h51SGb4o8SXWta6zZooAbrNHXuFi1AaRQHI7ttBZ3liz/lvzyGQ5wl7u6f9hR2zFz3E1nPS2Wsa+i/2PZaZzqyAbJcog73eF4NntPYiSmOWJn9gddP6LrvPNmSilNhplFlazVeMlrFoH3DKld+GLMukFxzkeSLu3SU8YSyQnRaixEFm21PyWeIOHWVmQ9OyN7UY+bKtARkbRIjNvh78DFsRxJSvInRpvrI6t+bB9jZ5Yhsy3p0n9imlrtDuqQOyqJiOWdQB7rEfO2NPuX2x83k143meJ1bG/tJPitE1irFUv19WHNYtesTFU5Ok31uEi+UnXkk6BtnWcnbdf3sPApXqSu/5gsFbUplsyvox5GX2t86TKIBRFMvsMlsuSrhLlB03ooRbZtftoB14YuNoKg/KRJLKsKYjiKEiiueUwaJbutm9VH8gQSX5lHtF8iD3i3QW7kPOk3/0tjxPwJaxtNz2wkVtox486YPiLC/vVfTkE48HtrnpSZLGpYtSmK9/+i5mPwT8zA0xvdeuxwMHDhKL30Sd+nxwxIKaYow3AjPRqStIuUylP9EYaLZc6gw1A++whLKydC0LVOHaxSw5rq15YmYOHLBAl6Ou8KRcPn6tfgh0hScsjoOHiHmFlCsNnj3M1rIFSk/Qo48+qm6GtjNAT7xjcOXZFZ6kZaWNEgZjoTDpvXLHeLOwdSJeORDba7HIETHMQ8n6GF0l+lL6iVrL0dX3NOK5ajyhH8eDDQ+Qah4HRbjgicCMn8X9N+Lb/B31RaBaXanv21o3Nzzt6JfKtSdcdPEYsa1PQYH1MPA0xMMwT+3OE1z62eXHvNhSfIpk0KJ75FEkDxbpLDzrPKnME/ApoqK20R2edH20LyptC9zDBTRd4S79JNwPWOzGqXsIgGOqfJMb7jq1EO6CnVW+ybcZeEdoRi3KN+XN48M1o1YQtO1b/LcyAhhYKhlZ7ClcmXuSCNUhbrkVFfDu4lbURsvljbs4q3DjiogBjRhkQnKG6obyzXuKDDTlytGbr9GP19qHlsOFuFVCN4ibt5XQezMeXnZHoLsIlFMWLU92a8iTxxjnEfn3nD6+Ep5FMmjRPXIvGmuKdJZ/S9a+R0U8qYZKJV7yXHd44gp4NeT9viPgCDgCbY6AhIy01KJeg5OdrHWBAZFFJIldJraf7cqcGocAniJ4IRE/Tly5kyPgCDgCjoAj0EgEXAFvJNr+LkfAEXAEeiEClbyBeuGnDPYiM9PNDDh/ToMHgdlmmy3ccsstg+fl/lZHwBFwBByBtkeg/D4pbQ+LA+AIOAKOgCPgCDgCjoAj4Ag4Ao6AI+AI1BeBPqzgV98sG5PbFFNM2ZgX+VscAUfAEXAEHAFHwBFwBBwBR8ARcAQcgTog4Kug1wFEz8JXWGzGOtDuq146T5oRgeYrk7cT50nzIeAlqhUBb7+1ItW4dM6TxmFd65ucJ7Ui1bh07oLeOKz9TY6AI+AIOAKOgCPgCDgCjoAj4Ag4Am2MgCvgbcx8/3RHwBFwBBwBR8ARcAQcAUfAEXAEHIHGIeAKeOOw9jc5Ao6AI+AItBgCu+yyS1h77bV1T+8W+zT/HEfAEXAEHAFHwBHoAQRcAe8BUD1LR8ARcAQcgfZAAAX8wQcfDDfffHN7fLB/pSPgCDgCjoAj4Ah0C4EhDzjwwIO7lUOFh1948eVw1LEnhDlmnzWMNOKIFVJ17fKgQQPDZJNNlj38999/hxNPPDGMMcYYYayxxsquc3DyySeH4YcfPow33njh2muvDXfddVd4/PHHwxNPPBFefvnl0KdPnzDBBBOUPPPnn3+G+++/P9xxxx3Zs2mC1157LVx55ZXhq6++ClNOOWUYYoh/7RgvvPBCuPrqq8PPP/8cJp98cs0/fbZVj3/44Ycw6qijlP28L7/8Mpx99tlhgQUWKLlfhCPY7rHHHmHFFVfUZ95++23FnJOJJpqoJB94+sgjj4Q55pgjUBdkZf9w5513hgknnDCMMkppmYre+d1334Xrrrsu8K4pppgiDD300CXv4eSss84K44wzThhttNE63MtfKEr7zTffhDPOOEPLPJTsC1yOwOCaa64JL730ktbREZN2BKbUs2effVbLM+qoo3bIoognHRL7hYYgkOfJ77//rn0UfRJ/Tz31VHjzzTe17qb8pnDU8QsvvDBMM800Hep1Vwp/1VVXhXvuuUffa++334EDB4aZZppJs7300kvD7bffHhZeeOG692f0z7/99ltJf27fcsEFF4Svv/5a+1i71hO/eZ5UwwWMaLOMKdBII40UBg0aFH755ZfQt2/fbhXxo48+0nGHb3/++efDX3/9peOIZXruueeWvNuut9pvniedrScXX3xxuPfee8OCCy7YatD49+QQyNeV3G0/rYLAW2+9pTLT66+/HuwPuYm/P/74I9CWkKmmn376MNxww2luP/30U9hxxx3DYostFoYZZpgOb2hnnlSTzYpk0KJ7RfJgNZ0FBjlPiuVlMKKuQza2F7UN0nWXJ+G33/+I9f775rvv46577Bs33mK7+OFHA+uev3QGMaVff/2VrdSiKMXpZT2WDiOKoqPHiy++eBQlPc4999xxttlmi6Ks63PrrLNO/O9//6tpRODR+yJUxaWXXjqKoFWS71FHHaXPSMejea255prZOzfeeOPIc8sss0wU4TlusMEG2b1WPxgwYGDZT5SOOorgrlinCYpwJN3ll18eRZjVR9Zff/0onXxccskl4+ijjx5nmGGGKAOD3uPfKqusojwWpTaOO+64+gd/RIGO/fr1y9IVvVOMM5pelPgoA00ceeSRoyg82bMcHH300cr7hx56qOR6uZNqaak31NnPP/+83ONROuI47LDDxmmnnTbOPPPMceKJJ44inGtaMRBEMQJEGSDjfPPNF8UAFMXg0CGfSjzpkNAvNAyBPE9EwdR6IIY87Xeo29Q9MRrGSy65pKRc33//vdbNnXbaqeR6V0+23HJLfSf9IXVJjErZ+TbbbJNl++KLL2p/dsMNN2TX6nWwwgorxNlnn71Ddh988EEU42gUg1iHe/W+kOdJNVzE+JuNKZRl5513jpNMMkkUI1i86KKLuly8K664Qr+ZOrDuuutqvwkGm266aZZn/t3ZjRY7yPOkM/WEfpK+nzHEqfURyNeV1v/i+n7hdtttF5GTkSns76abbtKXbL311nGJJZaI6623nsq19ubDDz88rr766nba4bddeVJNNiuSQYvuFcmD1XQWY47zpFhelskulcVOP/10gywWtY168KRHFPDzLrwkXnr51XGLbXduOgU8rxSjnCPkGOhnnnmmCqKmGO2///6q/FDJZVZIO6rLLrtMGYRgihL12GOPRZml1Hz69++v92699Va99/7772fMbOWDco0bXFAswAhjh1ERjpZmww03jHRIdGgomI8++qjeQmFBOZFZKj1HEUdheffddzU9grBYA/UeCgyGEBSXau9E8RZXUnt9lJn3bIARK5ce8x38FSngtaQVK5vmQ15Wz7IX/+8AAwIDHPVOZklVCbfyYZAYe+yx47fffqupjzzySBX+MUSlVI4n6X0/bjwCeZ6YAi7uy1lh4CPGPOrue++9l13ngPPzzjuv5Fo9TlBwigSqhx9+OIqnST1eVZLHjTfeqG2BwSylQw89VOt4amhL79fzOM+TNO9yuIiXTWawFU+neNJJJ0WZrY7ihh7F0yd9vOZj8bhSpfHYY48teeb6669XfB544AG9nr67JGGLneR50pl6wliMMcOpPRDI15X2+Or6feX8888fkXPLEYb/u+++Ow4YMEAnQX788UeVO5jIevXVV8s9otfalSdFslmRDFp0D0CL5MEinSVlkPOksrwsHmw6oYpMbrog2BW1jXrw5F/faXlzPejNt94Or7/5dlhllX9ch+uRZ0/msf3224fll19eXaR5jyiNQYQudevlXAThII1DXXNwCRxyyCGDzJhzK8w666xhlllmCdJBhUknnVTjABdaaCG9h4sOhEt0uxIu1rgAEh6QUhGOpJN6r+6Dyy67bBBlJBxzzDGZK6HMgAdRPtX1mrTwS2a91U11qqmmCqeddpq6aHIPV11CAd544w1156zEO1xHxcKrLlU8B0099dThmWee0WPcrz788MMgQrCeF/2rlpZ8ZMYsHHLIISXZELogs93qbs73EyKxySabaH3DxYtFnqhnEKETq666auYGL7PpQYwMQYwQJXn6Se9EADc/2g58l1k8/Qjqx1JLLRXmmmuuQJ+16KKLZvzm+MADD1SXcUIRttpqK62rM844o/ZjhHJ0hQhvoE7SPhZZZJFAe5QBSWOdqYPiRaT1mBAeQn923XXXbCGyjz/+WOso5cGVXWZStI3ly0GICSEdojCV3MLtnfpfLgykJOFgOBFPHA0N4dVg8/TTTweZJdJxgXAR+hwIvtDOxYMljDDCCJpGBFm9l/93/vnnB/FECHvttVfJrTXWWCMcfPDBmetn+m6rE4ReUVd4n/UBRe+mf9l33311zMLVDr7BZ9zpmpVqqSeiHIRtt902rLzyyjpuE0ZECA9hDLjPEqpkhHs6Yzfji5Mj0K4IiOenyhOE78mEUhBDaNaHgwlu6MiwhEoRdoMMddxxx4XlllsuML44lSJQJJsVyb1F96rJg0U6S2np2vOsiCcgAr7iZSY66yoloXBFbaNePCkffNpFPhEvctmV14QN1l0rDCsCQaNJZobC/4mylBJlqkbzzjtvuO+++zTeDgWJWEcjizf+9NNPg7hFamxAKhRyn3sImgg9n332mcYuEzMp7gsBpbBdiThGlAmZiS6BoAhHEiJYEpuPgYNfBCUjYrQRYhkAIJRScfnXYxTRlFD8UQ7I55xzzqnIO4TjPffcM3v0iy++UMVHZgT12korrRQQhBG2q1FRWgayjTbaKIgXhhp9DjrooCw7BjoJkVClmvpEXKxYn7P7HFO3oDnnnDO888472T3itiBi1y1uN7vpB02LgHg3qPBDAWVmW+u9hB0EcUHWuGIEHOMt9Ya6TD9FPUDJPuKII4K4PAfxslElkHUpqDso6OJCGE455ZTAIIIRUdyqVQnpDBjUd+oUeRih4GHsQXFB2aTeUgbKufvuu+uaDSiJtB3qO+31ueeeUwOBhEtYNtkvfSnlo+zi1qjtHYGC92yxxRZZumY6gFes4QCJp04gbps+Dlz2228//QYMKPAFwUpmyFXZhYfwjL4oTxjcxO08f1nP034ifXe1OlHp3SeccEKQWZMgs+1qOEHpp0+uZawsW8AGXKylntDfsy4GSjdGicMOO0zbCWt7jD/++Lp+go0bGDwwsrI+jJMj0K4I0M9iMNx88821/dOvI4eIB2dgDRL6cfq0McccUw1bGLnoO2xyol1xq/TdRbIZE3kYPMvpD0UycTV5sEhnwfjb7lTEE+Rl1hdhXBUvqxJdo6htMNYXyei18mSIejLn/x7uL9bmb8Ld99wXjj/xFFVoL7jk8jDo40/q+ZqKeSFAIDSmfxUTJzdQbniWRQqwltPxGDFAowTS8XAPZS0l0nLPiGNmaJkRErdpZazda7dflO9yVA1HU6rBPSVmMLBUMYPMjBPEIlLMzKWEwkAaBhFm0ihHtXfa83R2Evuv/GPmHWJ2qVYqSkt+4nIejj/++A7ZsZgfi7bhSUFZobSucYxXBZY3BG9xCdYZQqzRu+22m6anQ3DqPQjQ36C0QvCe2TtxBcw+AKMeih6KOnxG0Z1uuukCXiDUFzPI8ABKN14RGP1QPhCcMPRQV+iLWDisJwglHwMYdZDyIkiYQQDFkbbEbCsz55UIRZsBC8UbQpnFk4hvbWZi4TX6HzCmrBhy8Y5KDY4sVMT3YZTAOAc+eYK/eAwwbhhhuIDHzOLyhwdBSrXUiUrvRknF2i9x/mpYZAa8N1C1esLMN/wAa8ZlDFiMx6Zg3HbbbQFlnD/Ghs0226w3fLaX0RHoMQRoG/TRKB/IF7QLJrFM9pFQIJVXZN0R9VKStW0CEx14LZEG4x0GSKd/ECiSzYpk0Gr3yL2SPMizlXQW50solJcljCIccMABqidIKGsJXEVto5qMXitP6qqAzzfv3OGAfnuGdddeU/+GHHKIsMKyS4lgUboyeclX1vFkhx12CBKfXfJXpBDZqxH+AB/BFSEIwdiIY5QelPT8PdIwmNssOedY1bGo4MqDgMYssFMpAtVwNAU8fQocEWBRrBH6IRQQ3MslFiNLiqvUWmutpasZorCbol7tnWTA6tPM0lFn+vfvrwpFlnE3D7CmoZDgko9RAAEbshnMNHsGNyith9QzVnXHKIGFGld7VmgEKwZCyoyg7tR7EKC/YbcFCKMMK6Azc22EsoYFG9c/3IPhO/3UaqutpkpuOjON4caIVblxDzfCAFWvUJj0neSf9n3MhqMYmncGLtVG5Wa/7R7KK+0CN3SMSOxWwYx9sxPjBiRrMIR55plH/5hZZYbDBuhy+OhDyT/4i5cOnj9GWO3pLw4W93NCbFDQU6qlTlR6N/whf6Mi3liaZvitVk+o5xh7EEb5PtsWjvEbDya8S+h3mSFnF4u84bYZvtHL4Ag0EgFZAFONVowt7OaDjIUHaGqwxaCFcfeTTz5RLxLCnTDa4bXDuEL4ntM/CBTJZkUyaNG9avJg/tlUZ3G+hEJ5GaMuhm4UcXZqAjt2myFEqaht1IsndVXAEcAmmmjC7K9PnyHCeCI8DA539ForHgobcZbEOEIIsijPRnbMlmLcoxNCGYIY2FEAuYflnThdBFAIYUAWBMti8vSi/1MEinCkAaCIYJU1wrWQGSCUFCywRmCO4G7WPzwfiN9n8GCGOFXMi95JfsQ/MfDg/suevrhc1ZOwphG/i5LPDBnbpEEIhMwYpkSHiueF1T3u4eJLPYOIOcV15sknn9RYX74NDw46EqfWQIA6TN9CnWGGgXholAjCL/CiQGlKleHUrQ0E8t4jXUGFeD+IdgXhnigL/+mx/Uu3YLRrlI3y0I6NqLNFxEBIW2AmBsKI1uyEYgxdLFuXgAt/r7zySmCmFS8FqBw+eiP3j76H/gyXfwhjGq75/E022WR6Lf1XS52o9G7elbqQVuNN+t7BfVxUT5jRZjyn3jGbZ677tBP6U1z8Ub75I3QAI4aTI9DOCBDSRLthGysj+rFy8d2ECNEfIdeioOB1xewhcghhe07FslmRDFp0r5o8yLOprGjHJi+2O1+K5GWwRX9AJuePcYP0eIEUtY268aTeW5A1Ij8BR3Tff0kEQ10ptpZtyNhSgedZdVYAj6J463ZPArpmaKvRyn6rUQTgKK6Quh0ZN2V2JkoMh24vJrMfcZ999tEVuFkhUhRzXSFdYvyiKOhRXEq1TCKc/VvQFj4qWmERDNJV0ItwZLVbUToypKRz19XlpeNXvsE7/mT2V7fqSVcNFncoxVz2Si5JKwNKIe9EaIuyYFsUoTdKo8uelVnwrBwciBKt+Retgm4PVEsrArDmZaugU3/EwKD1iDzY/kNmfKIIk5EtQWS2NFv9mu9jOzZWiOd56ihb6eWpiCf5tH7eGATyPJGZUq0HEq+q9e6OO+6IEqMbJWZV+SoGPeWzKNRRPCeizDhEWV9CdwIQRUoLLd452t/YF7ATACujGslMaJS4Yzst+1tutW+Ji9KyiYdFlL1No6yToOe0Z9qlDOyRVf+NKIe9l60YZRZSV07neVF2ohjLLGmHXxn4tC/lu9n6o5GU50n67nK4gC+7Z8ALMYRpfyWz17rTArspiPFQs8jzRRbD09Vs0/ztmD6Kfo/vZyV18hMhV7EAO3Ft1KT2btp+Z+pE+m6Zpddt5+AV/a14bSkvZZbdijPYfyvxpKiesLWoGKm0rxcDRRSvAv0u8ZTS76HOilFC/4pWcB7sH+8F6BQClepKpzJp08Ssvi3ec5FdJ9jGVTzrtM1IOFAJIowFEmIUJURPr9OXSyiLymHsQoNMl1K78qRINiuSe4vugWuRPFikszhPYiziSYoPx2LszlZBr9Y26sGTHtmGrKeV8EoKuG1NlYIqlu9MKBRXGu1cEBz5k1lO3Vs6v98zworM/mgalqEXV9AsS3H51ed4HmEofae4E0exHOpzdGpiHcyea/WDog4XgV0sRiUQVMKRSp3iJouDlPDMeCex4MoHtpwxYiCw++mv7ZFd6Z1sr5Smt2PyS0lmAjVdvv6laey4Wtq8At5flH3ei8INMdBR97gmFrooi25Z1rrNmnhbqBLGXuGyir8afbIE/zso4kk+rZ83BoE8TxB6rL7xS7/DXvbs9W3GGUrGFnTiWq7CEsYi6j/7drPlHv0QBj8jBpH0vBYFnG33UF7yxHtRWigb/acsKqmGS1PAMSAYpeWgzxR3vChxa7qFnsRHV1Q+7Xn23+Y9smibXWrIb54n6UvL4QK+KOCQzDboPuaUmz4fAy/GWSjFg3MMGNyvRCjh8JX8yQ8FG17DSwwxUPruztSJ9N3iLaP1SdzotK5JPLi+LzWmVCpjo64X8aRSPbnllluizAYpH+gz+/Xrp3XX+n/KLquhlxh4G/U9/p6eQ6CorvTcW1snZ7a1NLkVeVm8DDt8HAZAJjiMMBJKSJxOEkhYoF3OftuVJ4zHRbJZJRkU4IruFcmDPFuks3Afcp4Mr5OtleRlMBKvgWxs57yobdSDJ31QlmWw71X05BOPh759+/ZomXG7xB3BfP3Tl+HSJuBrTG563Y5Z7RD3ROJy24UGDhwkcfITdepzy+FI3DyhDPwVkbQNjYEmLrAzVO6dnXm+0Wlx7SLuFxfKPOHWDg7E/JajrvCkXD5+rX4IdIcnYiXXlbbN9bl+pSrOiX6Qd7OYWy2EGzArUIsxTd0VeYaQEp5ntfNmo+7wxL6FmG/6e9pqPYh2z6I7ldq2vaMrdYI1KKhDtnsEcessssSCZUM1iVt2d3jCGMKq5xZCYVjR9+OWyUKH1E2n1kCgO3WlNRCoz1cQXkm/kG835H7DDTfoejqsnWDEGiWEDLJ+RZ7anSdFslmRDFp0D4yL5MEinYVnnSfF8jIYVaKittEdnngQVAXEEX7SVQfTZMTWsSBWJWLBNqfqCJTDMV04qCgHYlw7q3yTX7l3Fr1ncN8rZwCyMlnsu537b2sjwLoS/DWaUAKrKYJpmVjsir03WSyOBXqIi2ZNhnQf5jR9KxzXe82Ionaf4tWVOkF8PvHQrJKOAY/FZ1BIh2oS5Tv9vq4clxtD+EYWZcNgwe4ATo6AI1CKANtcViLWH8mTxxjnEfn3vEg2K5JBi+6Re9G4UKSz/Fuy9j0q4kk1VIraRnd44gp4NeT9viPgCDgCjkCnEEDhYVE1FG9xxdbFAtlazGnwI8ACdxgwWfSNVYxZ2JLFzVqZmFlimzxZYyFbtLOVv9e/zRFwBBwBR6C5EXAX9ObmT68pXbu7tzQjo5wnzccV54nzpPkQaL4SeTtpPp40a4m8rjQfZ5wnzpPmQ6D5SlTXbcia7/O8RI6AI+AIOAKOgCPgCDgCjoAj4Ag4Ao5AcyDQhxWdm6MonSvFFFP4nsedQ8xTOwKOgCPgCDgCjoAj4Ag4Ao6AI+AIDE4E3AV9cKLfQu92l6PmY6bzxHnSfAg0X4m8nThPmg8BL1GtCHj7rRWpxqVznjQO61rf5DypFanGpXMX9MZh7W9yBBwBR8ARcAQcAUfAEXAEHAFHwBFoYwRcAW9j5vunOwKOgCPgCDgCjoAj4Ag4Ao6AI+AINA4BV8Abh7W/yRFwBBwBR8ARcAQcAUfAEXAEHAFHoI0RcAW8jZnvn+4IOAKOgCPgCDgCjoAj4Ag4Ao6AI9A4BIaq96uefe75cOkVV2fZTjj+eGGfvXbPznvi4O+//w4nnXRSWHHFFcN0001X8oqTTz45LLbYYmHWWWcN1157bRgwYIDe79OnTxhxxBHD3HPPHeacc86SZ/7888/w4IMPhjfffDMsuuii+mya4LXXXgv33XdfmGqqqcJyyy0XhhxyyPS2Hl988cVhttlm078ON9vwwsMPPxx++eUXxSv9/C+//DJceumlYY899kgvh6+++ioceOCB4ayzztLrb7/9drjnnnvCPPPME+add96StHfddVf45JNPwhZbbBGoC7zrjTfeCKuuumqYcMIJS9IW8e67774Lt912WxhuuOG0Lg0//PAlz3JCeZZffvkw6aSTdrhnFyg7+VDHSDvOOOPYrcD33nrrrVpO6s7EE0+c3csf1CuffL5+3jwI/Pjjj+Gcc84J66yzTsW6QJ2l76K+zDfffN0q/E8//RTOPvvsinksscQS4Ycffgiff/55WHvttTuk++yzz8Lll18edtxxR20naYIrr7xS2+Fqq60WppyydJcK2ijfse6664aJJpoofazpjmvhSaMK/eGHH4brr78+LLvssmGmmWZq1Gub7j1XXXVV+Pjjj8uWiz6U9mNEH80YvvPOO+ulojprzxT9PvPMM+H2228Pm222WZhsssmKkurYU6ntFD7oNx2BwYTAW2+9FV555ZWStzPO0E//8ccf4bLLLgvff/992HzzzcNoo42m6RhHdt9993DiiSeGkUYaqeTZdjopJw8+8MAD4dtvv81gQA5cY401svMiGbToXpE8WE1nyV7eBged4Ql6xYsvvtgBlQkmmCAstNBCoaht8FC3efLb73/Eev7devtd8fSzzouff/GV/n319bd1zZ+ysnVaSr/++itbqUURANPLeizKVDzjjDP0ePHFF49jjDFGFKU7inIcxxprLH1OBu/43//+V9P89ddfel86lbj00kvHoYYaqiTfo446Sp8RpV7zWnPNNTu885prrtE0p59+eod7rXphwICBFT/thRdeiCOPPHLcfvvtS9JIJx4XXnhh5UPJDTkRIT/27dtXL6+//vpxmGGGiUsuuWQcffTR4wwzzBBlYMgeWWWVVZTH33zzTRx33HH1D/4MPfTQsV+/flm6It6JgqPp55hjjjj99NNreR955JHsWQ6OPvpo5etDDz1Ucj09kQ40DjvssHHaaaeNM888cxThMH700UeaRBp7FGU8jjLKKFEGuDjEEEPEO++8M308O65HPkU8yV7kBw1FIM8TUbC0TsmgXbYcIvjEqaeeOs4yyyzaTqwulU1cw0UZMLR/ow8Uw6O+e4oppsiuXXfddVEEq0hfWY6efvppfUYMSR1uU6fph/fcc8+Se/StYrDSe2LYLLnXDCed5Ukjy7zbbrspbmLUaORrB/u78jzZcsstszpK/ymKQHa+zTbbZOV99dVXtV8VA2h2rajOZokKDhZccMEoxtxMRihIWth2ip7ze11HIF9Xup5Tez653XbbReRkZBP7u+mmmxSMrbfeOopRNq633npxmWWWyQA6/PDD4+qrr56d5w/agSeV5EH0ilFHHTXDEkzRK6AiGbToXpE8WE1nMd44TzryBN3Q6jy/Y489to639PdQUduoB09CPZVv8pLZ73jNdTfG9z/4KP7y6291V767q4BvsMEGVh/1FwaIhSqasnzmmWfq4C5WbL2///77qxJFJR84cKB2VGIR1HtiOVFmPfbYY1megwYNUsUcQdTyzG628EGlxn3ccccpZmCcKuBgJrNkih8dVp423HBD7axQWlFUH330UU3y9ddfR5mZjjIjouco4ij37777rqafZJJJolgD9d4ll1wSxcshosRU4x2K9y677JIVQ7wpsgEGpYXBBp7yV6SAo/iTlvry+++/qxJu+WJIoIGLdVTfc+SRR2pHjQEpT/XIpxJP8u/y88YhkOdJNQWcPka8e6LMykaZuS6se539CvFI0fpsbcmeL1LASSNeJpa05BcFnHaOsp3S448/nrUdV8BTZIqP6dvoL+g3xMsqMra0C+XbSfrdK6ywQtY3p9c5Rtm+4YYb8pcr1tkOCXMXaCO0P/GOyt0pf1qt7ZR/yq92B4GiutKdfNvl2fnnnz8i55YjJhDuvvvuKJ6jOgnCOIT8wkQWxq5K1Mo8KZIH6aORERm381QkgxbdI58iebBIZ0nL4DzpyJMUH47PO+88redMGkJFbaMePKl7DDiuKnfec3846bQzw777HxxeernUtUUqZ1ORKIXqJmxumaIYBhngM7fhjTfeOEjjCK+//np4/vnn1d3c3N1wa5eZqSAdlH6T8CtsuummQWZkq7qqNRUIPViYY489NvCHC2VKYvgIMrOgLkzpdY7B8d5779VnRDkNxxxzjKblnsyABxFKw7PPPstpgF8y660ur4QEnHbaaUG8FvTeNNNME37++Wd1Ry/iHa7xYuFVt1p9UP7JrGPA9RASj4uAKyiuRUVEuZ944omwySabaD2RWXt147X68fLLL6tbvLlxifeEunaJ8SBIgw8yax5eeukl/f6u5lNUPr/X+xAQhSJceOGFQYxUQbw51BWdMAuI8BjCNHBNFot72GqrrbSOzjjjjNp/5cM6OvP1X3zxhYZhEKZDfriQQ7gqiodIiYtdmq8YnzTMh3IbXX311dqn2nlv/6XPEUNukJnYQB9z/vnnZ58ETw455JAg3i9hhBFGCLj0W9gT/cO+++6r4SvjjTde2HXXXbXN48ZWjghjEa8e7f/o90Q4yJLRlxDixLtwl6N+kB/vaEc64ogjtP4TUkYdpO8mHE2MoIV1FhdDEbI0nAJXdvE4UPd1MARvwp1od7ieIytY2yNMYaONNtKxh/ccfPDBGeyV2k6WwA8cgSZBQLyTAn2JTECoK67M6pX0IfRx1HnaEXIV4ZYyqaLhUIwL7UhF8iDuzIQwildZkEmjQPiLUZEMWnSvmlxZpLPYu1v9t6s8SXFBz0Nmoi9nbC1qG/XiSd1jwNdYbdWw5uqrqqJ01933hnvveyDMOsvM6Xf22DEDJoxIiRiWasQgS0y3zFqqoiVu0dkjFq/46aefhg8++CAgOIlrc8l97kHEm7/33nvhxhtvVMU8S9TGB2IRDCiipoQaFBdccIF2VDJLbZeyX5RR4mYwcPCLkcNIXGRVoCUeFiJfcY3SYxTalIhPQjglH+JsK/EOQVncZrNHEaCIc0WQg1ZaaSWN4UFRLyLqwW+//VYSy4tQZ50waw288847WRYYdSDiUCijuP1qjFV38mnnONEM2BY5QBgSF8Bw2GGHqeFGwhXCPvvso/WR+v/+++8HFF1ir6kzKAjiOhhOOeUUHTwwHorrrirMnYVEZjdUyEL54P0YFoltxSBGfTVFJJ8v9X2BBRZQQwHrNTCI0WYR2u6444588l53TvumX6Ct8j0oyRg+xH0trLzyysoThCnWJBFPAFXSUA7pf0444YQgsxVqkERh3muvvXRMqTRG0UcutdRSGosps+Cq6B9wwAEqCMMHjHUIyBdddJEaiInJZB0UCdXpdbh2t8D0sYw1RsSoolxTT4vqLJgRw/rUU09pvcYQS/wr/WhR22MtA8Z6DPeMUZxjdIEqtR0rm/86As2CAMZ/JimI76Yfoq3Qt7FODcZX+rr99tsvjDnmmNq/YXiiD7PJiWb5jkaWo0geRAEHR8ZBsKT/EU/HsPfeexfqD0W6RTV5kMmhSjqL9UmNxGdwvKurPEnLinF8/PHHV15xvahtMNFcJOvXypO6z4D/+tuvKhTwAbPOOnP44KMBKoRx3tNExUdJSv9qeSeNhWdZfEhcnLXjsedYiIsBlo6HeyhrKdFJcY9BF+GIBcXEJTpN0tbHKN/lCCthJTKlGtxTYhYORYDFdZhZgliYLT+7jtBPGgYR+MG7iniXvoPOTmL/dUaJmXeo0jekz3HMO6C0jnCMMIjFjBkTFohjhhyFhNkWiIbMolUsHoHQ3p18NEP/1xIIIPTcfPPNQdwDVQCStQ+0LlJHjVC6WWxQYpWCuAWqwMTsLHUNJU/cvy1pp34nkxk/PFdYiISZVYxSDDq1EB5CLBwGUd8RQhDqWoEwzIEDs94IPWCERwCLbhqxQB0LQqIIIxggXEF4AuAdJTHLatAD10rEopL0bSz8BSEgswgZCn9KGFswQNKX4AVh70rT+HFlBCS8SQ26zALivYBSTXsqanv054xR8I8FB0mP0R05AupO26lcUr/jCNQfAZRv5B3qL/UamYlJLJN9Dj300HD88ceHnXbaKVxxxRVB4p4DEx0YHEmDEVHWJal/wZo4xyJ5kD4YfDBSM2YyLmPEpn8pkkGr3QOOSnIlz6KHGKU6i11r9d+u8sRwAUNklh122CFbVLuobZAe6i5P6q6AX3/DzeH/Hu6vCseLL74cpptm6sAg1wgCPFZsTP+KGGNlwlqB0owAi3szirgRxyhPDK75e6Rh5WxmyRG4UKJQxLGK85ws4qWu1JaX/9aGgCngaWpmgxBmUawROiFmPVjtXGIxsqS4Sq211loqEKOwm6JexDt7mFXvmf2gzvTv318FWrtXyy+DEpTWH+oHK7FjTEAJwUWemRm+kQGMd+GulFK98knz9OPehwD9EUoYijR1iIEc4xJ/RhhsjJjJw3XKCMNTpZlqS1PpN82XtgPRtmohBBDcuZidR+mkPVpYSC3PN3Ma3P3wVkkFHhTxdPbVvKb4Dmao8ayC8H5Jd9ygr6lEeAbBO4x1jE0YQiCMdClVeleaph2PGbNrIfpjFGbGbzykMPBi/Chqe/TftEE8PYzY7QKPD6g7bcfy819HoBEIzD777DrGIJsgpyNj0Z+lhlsMiRiZaBeEQxH2hPGJMDn6KLxGnP5BAOOrLMKsBgqUcSblILAqkkGL7lWTB/PPpjrLP6Vq7/9FPDFkGG/xbGa8NSpqG/XiSd0141VXXjE88+xzYdc99w2vv/FmWGH50thf+7hm+UWoZFZjkUUW0SIxeOL6aWTHk08+uQ6sdEIoVRCDPAog92gECGUwkj+siQigWBOdakeAzgN3QKyyRriS4w6IJRYLrBHKCXHkJgzj+UD8PoMHM2+pYg5fK/GO/HAdYuBhlpEt6JgB6SxRB7A+Wp3hedzMqR8Q9QHXxieffFJjdSkTnhf5LZvqlY++1P/1WgRQDvDgoD+hXeDaTJ+TKuBpOAwfmvca6erHl9tasValBjcu+lO2jpIFsVpKQMMQQpum3RqxHgWx4EaVDM70L6nrJv1BJULQxa2ZvgxDLn//+c9/wv3336+ucfZcpXfZ/Xb5BQdcPo0qbVlm9+2XdISuEYePHIAR9qCDDlJDaaW2Z8IXs1pGpCUUAOpO27H8/NcRaAQChF7iZcM2VkZsoVUuvltWPg+ENclCtzqxhPcVCibyDLO9TiEQbnTqqadmUKArMG6CZ5EMWnSvmjzIs6nMaccmd2aFadODIp4YJMgpTBxgMDcqahv14kndY8AnnXSS0G/vPVRAqWX22T62Ub/MmqKcMSvB4MvMKrMXCIsQFnDiKxmUEZiIuUQZBHBc/VDMsKjAVGYjcEck9o/Z95So/MQV56+nafy4IwIsdEbMN7N+EMo4OOJSi0UK3kEI+cwip+7nLJ7A8wivKCyWlhmrIt4hTOM2S+NjEYbnnntO34EgZTNPeqHKP4RAysnMNoo8Cj+CmblzIbiTP9+EdZRj3kvdwq2YWF5iPfm2ruZTpYj/z95ZgMlRNH28A8EluEsI7u4S3N3d3Z0geQnu7h7c3f3DkuASLDhJcHeC9Ve/gp70zs3M7t3t3a1UPc/djvT09Pyrpay77XaNIoABKBbcCW2iXqJg4zVFscYDjsehUk90V34q9Zq+Dw8tnsK8hca6sozl3p3FE/p65vShpOEFIiScNSsYE8oR4crMOWbcwNsaC2rxsyjbzD9jbKLPC4SnlpB35pMjLBiNRIC1Puj36btZsI71WCohxgzaFv004z0LZGLQLWp71OmwrshCCy2kU4iIzMJgZmQI1BMCTJ9B7iAKjz6MMHMMS+lIG9YbIZoJAxVEX4SiTr9O5BXyjNG/iwQTls+YTdQs08foL3AU0afk6Q8Y9fLulZMri3QW40kxTwI+yObpSI6itlE1nlR7G7LOyE+8ymJUGkli+SbeLNmaauQdr1tWsUw/xD7SpAt/UuH1mgg88SNeFCPd9oV0LEMv8+qS+6L0eZ7jHltepbfwCQlFAU/2Hw/XGvm33BYHEqJXsg1ZwELmTupWO+GcfSfFqhpOvcx9TPgV+MavdDrKB1mIKEnLdmRxmnAc9trO452Eqmc+R34xiYdd06XrX5xGFGmtM7xbBDkvCzQlt9kebeONN9Y6yV7hYCIWUr0vIe+atyjnet7WfJKXyUE5nsRp7bhzEEjzhH29Qz2Nf6Xz92yFKMqr9kVizNS9iEXg9+Kx0MLS/4iglBRchKKScxn4vShryf30QajP6T6MrZTY+zWQeG21jGK81G2eKGfWPuCUVZRSfUw8IlpuWXwmOee5etiGrIgnfAyYh75GlD0vSpx+I//SPGFP9IClCGC61aEIW152bvAyH1xxFSE2eZ4D+AsvJdKh5DonIiRov8e2jOApc9GSNOl3Jzfq8CDdTuJPYIvIDTbYIL6kbUWEXsWEthLGDZnHV1hnGT/EyKHb54kirn03Wy6Va3sy1Uy3mIQHonx4xi0xjuk+4IHfFDBuOyUFtpOqIVBUV6r2kgbOSJxNXjy02nbY4pX9rdMkDgEvimVymS0xJRrIyw4AXoxPyfVw0Aw8CeNnLA/Kej7aFwQdgX5copgCLLqlW7iX1h/y5FMeLpIHuV+ks3AfMp78q7eleQK29OOPP/644hT/K2ob1eBJNxRmeXld0aCBA1zv3r07tMyEMxNGHsLN4pcRAirg67zM+HozHw8bNlwsftO0GwKiEfBEx6EgWZlKI9G51GwB0xrqLN4RksXcTULS08TiDpQfy3E5ak8+1eJJuTLa/coRaAtP8DJQj8JUi8rfVv2UtE+mfuCBbRSvR1t4Qj9CBBUh6VjDKyG8rGyZGHZtYCE3FjdiEc/u3asejFZJkWo2TVt4wscQ4YYXu2iRz6yPZjynjYUtIkOacm2P/pl2IAbV8Ij9djICba0rnVzMmn8dEXv0T3EkVig0IbqspxO3DxZ8JNKQaJA0NTtPCOkXI7XuwpPGpkgGLbpHPkXyYJHOwrPGk3yegE8RFbWN9vDERv0c1AkBjVe4i5MhcCF4GVUfAcJ1KiHCBlurfJNvZ/Euy3ATvqs1ilS18gnvtt/6QyBMx6iFkrMPOFubsXdyoyjgbcGVfiSsel3p80wnYF43oZ4Y4Fisk7UtupvyXSmEZdMR2t8WYtpPFpVre0X9c1Z+ds0QqFUEmMaRRxJx0uKWzTFuAUlygb4+D88iGbToHpkX9TdFOktSsCY+KOJJOVjyeMlz7eGJKeDlkLf7hoAhYAgYAooA62Ew96+Zle+2VgVWg8dwSAQBc/lZUJLVt40MAUPAEDAEDAFDoLkQMAW8ufhtX2sIGAKGQJsRIDwxDkNsc0ZN+CCebjzg/BkZAoaAIWAIGAKGQPMiUNnktebFx77cEDAEDAFDwBAwBAwBQ8AQMAQMAUPAEKgKAt1Ywa8qOXVyJr16zdjJb7TXGQKGgCFgCBgChoAhYAgYAoaAIWAIGAJtR8BWQW87dvZkhECzr7AYQVEzh8aTmmFFUhDjSQJFzRwYT2qGFUlBjCcJFHZQBgGrK2UA6oLbxpMuAL3MK40nZQDqgtsWgt4FoNsrDQFDwBAwBAwBQ8AQMAQMAUPAEDAEmg8BU8Cbj+f2xYaAIWAIGAKGgCFgCBgChoAhYAgYAl2AgCngXQC6vdIQMAQMAUPAEDAEDAFDwBAwBAwBQ6D5EDAFvPl4bl9sCBgChoAhYAgYAoaAIWAIGAKGgCHQBQiMekTfvv2q/d5XXxvsrr3uRvd/Tzzpll5qyWpn74YPH+Z69uyZ5Pv333+7008/3U000URukkkmSa5zcOaZZ7qxxhrLTTHFFO6mm25y999/vxswYIAbOHCge+2111y3bt3cVFNNVfLMn3/+6R555BF37733Js/GCd544w133XXXua+//trNOOOMbpRR/rVjDBkyxMmq8u7NN99M/sYff3zHX6PTjz/+6Hr0yP7Or776yl144YVuiSWWKIHhnXfeURy5OM0005TcA9sDDjjArbnmmnq9KC08ffLJJ90CCyzgqAvw4L777nNTTz11C+zzeMdLvv/+e3fzzTc73tWrVy832mijlZSJkwsuuMBNNtlkFe2FnJW2XN2KXwgGN954o3v11Ve1jo4zzjjJbTC94YYb3AsvvKDl6dGjR3IvHBTxJKSx385FIM2Tn376yZ1zzjlu2mmnlfbTkoeUjv7k3HPPdWOOOaamyyrx9ddf7x588EHt2+jf4r9hw4Zpv0gbpI10l/2oq0VPPPGEe+6559ycc85ZNsvbbrvNvfvuu27WWWctSUtbffnllyvKo+TBKp2keVLpeMLr6Xcuv/xyN8sss7Toa0LxfvvtN3fWWWfpOJHu5+Ar49Pkk0+uyekfTjrpJPf222+7BRdcMGSh7xk0aJCba665kmuNfJDmSfjWxx57zF111VXu9ttvFzlguJtuuulc3C+GdP3793cPPfSQW3LJ8vLHRRdd5EYfffSEByGPSn6//PLLkvf/8ccf7sQTT9R6Tlsz6ngE8upKx7+5Md5QJLdSn2lLyFSzzz67jkF89c8//+z23HNPt9xyy2nbSSNhPHHu22+/deedd17JmFuENRgWyadF8mAlcqXxpCVPkPUfffRRxR3sw993332nYws8ydM9fv31V3fnnXcmuh5y2g8//JDIaJXwxP0+4g9fzb9nn3/R77b3gf6ue+73X3z5dVXzDuWUzsDHJAIOW6l5UYrjy3osQquXRqDHyy+/vBcl3S+88MJ+vvnm86Ks63ObbLKJ/+effzTNX3/9pffHHXdcv/LKK3sRVkvyPeGEE/QZ6Xg0rw033DB552677eZ5nyhoyZ8ICsn9Rj4YOnRY5udJR+2XXnppxTpOsPnmm3sRevyKK67oJ5xwQj/HHHN46eyTJNdcc43v3bu3npdLu8466yiPpcPzIsjqH/wRBdr36dMnybOId2Kc0fQiNHkZaPx4443nRbhOnuVABCvl/eOPP15yPeskK225uhXnIx2BH2OMMbwoK37uuef2oqD5jz/+WJNIh6D1Sww7frHFFvNiAPKixMSP63EeT1oktAudhkCaJx999JHWKRkEMssgg6YX5c7PM8882oZIn0U77rij9lv0bdSLCSaYIDnfZZddvChv+h4ZxLMeb/O1/fff39OvVkJiTPPrrbdei6RbbbWVX3bZZVtc76wLaZ5UOp5QPhlwtb/Ya6+9cosrSppiP+WUU3r6qJjg08UXX5xc2nfffb0olV6MMf6yyy5Lrh944IGePq1ZKM0Tvvuggw5SHBkrVlppJT/22GNrv/jWW2+VwEI/Sd/PGFIJ0beKsbSSpCVpnnnmGQ9PYxKlxE8//fTaBq+88sr4lh13EAJZdaWDXtWQ2RbJrTvvvLNfYYUV/GabbeZXWWWV5PuPPfZYv/766yfn6QPjiffoBuglX3zxRQJPEdZF8mmRPFipXGk8ackTdMNYX5t00kmVZ+uuu67yrEj3EGOwpo2f33777fW5SnlSdQX8yKOP97fcfpf/8KOh/pdff6s5BXyLLbZIGgMHMEC84F48EXr9/PPPV+E1NJrDDz9cB3kAFU+SKthXX321pn3llVeUAQzE0OKLL+5J34yU1bjBRSIEFCOMHYFQIFEan376ab30zTffePECefHihSR+yy239HRI5dKitKMsv/fee5oe4VUsT5oPApB4R1RILsc7FO999tkneT/KQhhgUFo4pjPlr0gBL0pbVLeSF/93gLDNO6l3I0aMUCU8lI9OgY5CrHSa+vjjj1eBHcUhpiyexPftuPMRSPOknAJOH3PGGWd48ZR78dR5Ov1ytMYaayR1N6Q1BTwg0fI3zZPWKODk9v777/tLLrmkZcb/XSU/C1MAAEAASURBVAkKOH0HxoaYYgVcLOrK65deekn5LBELSVIMxMFInFxs4IMsnqBwH3PMMclXS8SSjtVp44dEDPlrr702SVfuoK0KuEQgqaId8v/ll1+UfxLN4TGo0V6NOh6BdF3p+Dc21huK5FbaxgMPPOCHDh2qDhPGIeQOHFmvv/56LhDNzhOJGkjkxaBLAFYe1uXk0yJ5sFK50niSzZO4EjOO4xikDy+ne0jUtTpH4ufDcaU8qeoccHm5Gzr8Uzdg0HPu4kv7u0P7HuXeenuIyB21S7vvvrtbffXVNUSaUorS6ESA1bBezrfeemtHCCfhBSIYuVFHHdWJx5xbbt5553XimXLSQTkRjjSknbAzEZo1lAE8mpkIvyEEkOkBMYmAq2GWITxQPOBOFEoNpyYduBE+uOqqq7pyaeEX4ZtMBZhpppk0nDeE2BIWKkKREw9JIe8IJRELr4ZUhXLOPPPM7vnnn9dTwq9EUdJQlXA/77cobVHdIgSX0FzCzfl+pkhss802Wt8Ij9x44421nvFepk6IhS4JgxdLq4a+iBEir1h2vU4RINSP8HLax6mnnqp9UXs+5X//+5+2F6bkHHLIIUlWMvBoX0aYO+2RfpFQbEi80+6oo45yEonhRAly4hFxIpAlzxKGy1QRQoEJRWdKSDMQbVY8sW6hhRZSvMCpqA3SnsV46+66665MeAhfE2HNieHNbbrpptpnMUUBgvc836xEOB9/v//+ewIBUzZoGxKpptfAatddd3Vrr722jttMI2IKTyAxZGn9nHjiiZ0YQjSEPdxjyhl1lzpMftTpIiKUVKIVNBSXfluMyI5rTFuTiBAdu5imFurDySefrGMMdUSi67QNUX+MDIGuRKCc3Mr0ScYBcQLo1CXk31NOOcWtttpqXTZlqCvxquTdyIp77723jplx+iKsi3SLcvJgkVwZv7+Zj/N4EmOCnse01379+jmJkC6re6Dnoe999tlnKq+jRwSqlCejhAeq8YuwSGPddsvN3JF9+7jlllnKPf5/T1Yj64ryQIiUcMuSP+awlKNFF11U4/zF26iKllj9kkfCnD1A/vDDD3UueTw3mPvcY6BF2ZMQBJ3rzFw9Ca/Wa0lmTXYgIZROvNA6Nz/+dIwWElKZXGLeNQI9nTqEYMLc/GDgKEqL8UNCo/Q5FFGEr0Ao/szvJ58i3qFU8A4UeAjhS8IX1TDD+VprreVefPFFJ+HenBZSUVo6gby6xUCH4CYeMa1PCJpxWo4///xzfTdzQ5lLGwjjECQWu3DJfhsAgU8//VQFeYxLzFPCCLPttts6jDxtJQYN2tsee+zhUAqYw8y8Jwk11PxZU+DQQw/VtQ4wgkEffPCBO+2001ThQHmkvh133HFJEcQT4iQsWOeg0x9SxjxC0Ej30cxtrkUqN56gxNFPPfzwwzonmfYX45L+pu22206Nu3w/8wPTdMQRR6hyTr8l0T/u7rvvVsWedPRJCAjNShLl5GS6g+JLe5BQTnfrrbeqgTesEwJurIvBnG4MmIzBO+20kxrHmccq05HUiIGSjLKMsBWIun7kkUfq84w/4mkPtzJ/WYNmv/320zmxtCeMAUX1AcMKZWMeLfPYUfQxogYDS+ZL7KIh0MEIlJNbMQYedthh2mcjW1FfxbunSkoHF60us0f/oR+QSNtEfgwfUoR1kXyKflEkDxbJleHdzfxbxJMYF+QemVLkDj74YL1cTk9BlrrnnntUb2B9K/SHZ599Vp+tlCdVVcBRZMaRBWVQJqCZZprRffxx5wkNKNtYIeI/LUiZfyg3PMsiBViyGRwDsUAOQhYdD/f4xphIyz2UbyznLDSEIQJBFUGZBXWalfCmlSO8ZQjsWAzxrEFBqQb3mLLSsvAUnvKYsDSSHzxgwR7KUcS7+Fk6O/jIYn6Bd3igK6WitEV1C6GSRdtk/qCWlffFdY1j6hXWUDp4Fr/CI4Y1GkEQir1DesH+1TUCCOz0ZSgeeMDhN4ouRq22EouBLbPMMipUoTSgNOIRvOOOO5xMn9Fj3kE9pi0EYsGdHXbYQY2KGJkQGAKhjKDML7XUUqqkoyzizc0i2mbcP3OMZ7MWqWg8wVhL27viiivcbLPNplEDtOFgJMv7Hpnvre2U/ikmFDSMfvBA5smrIRflEQ8v3icjp4uboSjTP2P0wOBKlJNMZVJ4UBAYDzB8My7j0Q5j8y233KL1E+EKQyptCOUiEJ5zDFzUbRR6FPQikvU5tK8m2gpBDSpXHzAinH322W6RRRZRAwtG51o1PhV9u91rHATKya1HH320Rt/INA8n0zq0DdLuWIgW+UjWZRAZ/+PGAaSdXwIm9OVELKWpCOsi+ZR7UJ48WCRXpsvQjOdFPAl4gCFjBI4JojzSlKV7MPYQRcjizUTZIqOhy0CV8qR6y+HKSyn43HPP4Z546mm3/rpruxdfelms0LNrgTrjH+ARShwToJYjrBUMjqyiDogo4oE4RulBSccjFd8jDeAzAM8///w6+IfnGMhl8TFdjThcs99SBPCQ4w3C+8zKsYFQwBGIYspKi7BLxZf5MUlShFWZI60CGo0m3EvzlQcC78LDrDyMN52QdjyOKCjVpHQZ4roVv4fBDYrrGmVlVXeMEnjKWTmbcFZWAqaDkTnzunJ7nI8d1zcC9EsorIQ5x0RobVsJAw9EX01/h9GGXxQXondY/RMFnPfyFyhEAnGOgRUFNFDIk3PqOJSnNBKuTb2NKUzzia/VwnHReILixaq0tEWiUfhurpVbpZyIHJQwvnmjjTZKPpMIGzBjzAjEMdb7ckp9SN/Iv9TLTz75RNtCaA/0/UQVYBhCYcbQilebHQDoJ3uKYQhi/CZqg3EhEJ5o/gKFtJzT/xL10RqqpD6geIfouRDuTt0J39Oa91laQ6AaCFQit2LQgpA12PGBKXBMvyCKh7EImZs21+yEh5soGmQxHD/BSI2Rlr6+CGtZSLhE3gPLIJ+WkwcrlSubkT/leBJkKQyy9M1Z07yydA+wJPIpEEZ4dBlkBtpFpTypqgecwqyy8oru1cFvuH0PPNR99dXXbsUVlg9lrMlfhB48D3iFIIRJQjIDheMZZphB76GE0zAgBnaEAO5hkUcYiL05CA0MtEYtESBckLBXLIWx8o3SSRgHXo5AeWlRGphHHiIW8KYxf5/BAA9xUL7JB77m8Y77hJMg8KJ8ECKIV7DaVFS34nfReIm8CHWPewiQ1DOIbZ8Q9PGeYCggX7x1eOCMGgcBDEHMF0XwoS/hj34GT1tbKWyZGD+PMQeBgUGI9keYOH1brIBnPRfyyLIY83wjE14fBusNNthAp8/g9cCzGmOW9/1EsOCtxciIhxbCuAaBfSCmA9APxMaPcK/ZfunrmZcXz81GgWYMwVBF/8f4y3jO+EG0EMIwBE8QYgcPHpzAxrQJvHchaqioficPFRxUUh+QFQJh7MUjxlojRoZAVyHQGrlVVj5XwyFb/xGJwjohTJtBDonbZVd9S1e/l/aMgZm2zVjK9poQihoGvSKsi+TTcvJgpXJlV+PTFe8vx5NQJqYzEdkRorfD9TzdA1mMcTysE0V6FG/GcdbQqZQnVfWAU4ipxcJ//NH/04GQMK1aI7wJKGd4cLCoY91AwCXUDyKEgLnIzP9DISPEAGWQRoB3FMWMcEzm+hEyTKglwhQWdxZdwaLCfcJ1sBSSxqgUAQQkvN5UYKyC8ANi/gVKJxEFYT/3orR4yuPw8379+qlCipUWRSLkyxzwIt4hvLGwHo0PDwreKAjFgrDaalFR3SLcl/qDlwYcwAbPNgYBDAcoSJxDKOOUE2zw0nNM+amjRvWJAAagWJEl3IwoGpQI5ib17dtX+xMWjGRxw/Re2u35auo/1l/WFqAfY64sntc8L3Z73tUoz4IZhBKIV5t5xUTcIIBVQsxTxjgLzhDtHGWMAZ+5ZBh58ZywaFdcLyrJuxHTMCbTPzNNCUWA+o/XW3aAUA8yUyaorxgh8UYwtgfDLtcJK2eaBPPq8UQzroNruWlSGDhRrokOSRPGMQQ85oxjKIGK6gP9ONEPGG34BgxslMXIEOgqBKivlcitKJBMiUK5hIgYQQkhCoh2UO1owa7Coz3vRc5k7YlAGFBlW1BVxDEAomfkYc3Ym6dbYBwskgeL5MpQlmb9LceTgAsydTp6ukj3IPwcfmLERdfD037ppZdqpAMyVMU8CXtr19OvzK0WB8tICtvGiBI98uJ/RzIwepaEhySUBrdM8icVXq+l93sWhcbL4Kzp2DZAQkn0ef6J0ud5jnzY8ip+pyjtXoQqvcd72Qu6WahoiwO2ZBDlMIGCvfJiPoRj8WB49p0Uq2rZtFLBlQ9sOROI7chCXvFv2CM7j3ciOGc+R34xiYdd06XrX5wmHOelzatbTz31lOYtjV6zEIVct6zgO8TD72U+aMhat1mT+Yq6dRt7hYtS5kVgT+6HgyKehDT227kIpHkiwn1m3RPBSAtG22GrKuoB/Y6EOJUtsCgbXoT8knTipdA8ZG5Scl0iKnT7RfHeellERPs8UWQ8e2CKIulpjxD9XLxPshjPdG9Y7rEPOPvEBhKLsL5HDJ3hUvIrBoXMfcDFk1yT+4DHfXv4iHg8YVtAET512xIZkD19ErySKKiQXH/FO6SYiEGw5DpbZcHXsA+4KHLJ+CEGEd13V4RcfQbM2YqmWSjdTvhutoWRKAMv4d6KG7ygnoe+78477/TieVB+0GeKIUm3u6T/R0YQIVbPRaDVOiseaYUzXb9FOfe9e/fWe7Q3UTb0OP1PBDDdBxweirCt21jm1QfaCXuGi9KtZRdDgadNGrUfgay60v5cmyeHSuRW2o4oGwkobJEo3j4vxi4v61kk18OB8cT7MBYyvgYqwjpPPuXZInmQ+3lyJfcCGU+yeQK29OHp7YWL9BQwZbwWB6COR4wpbP8qXvAAd0U86YbiLS+vKxo0cICTAbJDy0w4M2FsYf5F/DJC2vBYhrDB+B7HWLqxbjeT52LYsOEyT36aNBStPseqhKcjHQqSzkhquXpA8Ha0hsrxrjV5tTVtUd1K50loF+sTiLCZvqXeF3DAAp1F1eJJVt52rW0ItIUn8BiPHp7W9obKFpUabwb1LEzpKErbSPfawpPw/YQwEwVFf18tImqK6SZxdE+18q6XfIp4AuaMsYTCdpd592liDCGKKGv8pe/lL0RYpZ9Nn7PyPN4nMbqmb+k5bRM5gT4aomxELjBFKJ7PT5QSUS6EoRKFR1s2qg4CRXWlOm9ojlyK5FZCdIk+YZeWQMxxJtIQL2OajCdpRErP87AuJ58WyYPl5ErjSSkPqnVG6DkRhGEMiPMtx5OWo1f8dBMfEwIarzoYQ4EQnKd8k84G1xit1h1XOt+RMI/WKt+UpBzvWlfatqUuqlvpHLMMQCFNsylK4bub7Ze6Xmm7aA82lSol7XlHoz1LCHO5MObWfvOZZ56pBuZmVsCLMAPvsHhOVrqittKavpe8WcSVKRl5RNuMBS/Kdu655+p6ALECHp5n/DH5IKBhv7WEQFG9ZNpEmsKaNOnrdl4egTysy8mnRfJga/u28qW0FJUgwCK2eVSOJ6aA5yFn1w0BQ8AQMAQMgU5GgLmDWNSNuh6BsMVja0rColRp/rFYaM//VmVvTV6W1hAwBAwBQ6AxETAFvDH5al9lCBgChoAhUIcIxB7VOix+0xc5i3/xnuNND5ABYAgYAoaAIeCqvg2ZYWoIGAKGgCFgCBgChoAhYAgYAoaAIWAIGAItEejGis4tL9f+lV69bM/j2ueSldAQMAQMAUPAEDAEDAFDwBAwBAwBQyAgYKugByTst10I2AqL7YKvQx42nnQIrO3K1HjSLvg65GHjSYfA2q5MjSftgq+pHra6UnvsNp4YT2oPgdorkYWg1x5PrESGgCFgCBgChoAhYAgYAoaAIWAIGAINiIAp4A3IVPskQ8AQMAQMAUPAEDAEDAFDwBAwBAyB2kPAFPDa44mVyBAwBAwBQ8AQMATagMC+++7rNtpoI+d9XS5v04YvtkcMAUPAEDAE6g0BU8DrjWNWXkPAEDAEDAFDwBDIRGCfffZxjz/+uLv99tsz79tFQ8AQMAQMAUOgqxEY9Yi+fftVqxADBz3nTjn9bHf/g4/8+3f/Q+6hhx9zq6y8guvWrVu1XuOGDx/mevbsmeT3999/u9NPP91NNNFEbpJJJkmuc3DmmWe6scYay00xxRTupptucvfff78bMGCAGzhwoHvttde0XFNNNVXJM3/++ad75JFH3L333ps8Gyd444033HXXXee+/vprN+OMM7pRRhlpx3jppZf0Pd9++62WcdRRR40fbdjjH3/80fXoMX7m93311VfuwgsvdEsssUTJ/ZdfftndcMMN7pdffnEzzDBDSR0B2wMOOMCtueaa+sw777yjmHMyzTTTlOQDT5988km3wAILOOqCrOzv7rvvPjf11FO78ccvLVMR777//nt38803O97Vq1cvN9poo5W8h5MLLrjATTbZZG6CCSZocS99ISvtH3/8ofWK+kXZ0vU1zgMMbrzxRvfqq6866ug444yT3AZTsHvhhRe0PD169EjuhYMinoQ09tu5CKR58tNPP7lzzjnHTTvttNJ+WvKQ0r355pvu3HPPdWOOOaamyypxyIe+LfRvQ4cO1bbCc7Sx448/3lHHZ5tttqwsSq5ddNFFbvTRR3eTTz55yfWsk7hf5d0vvvii++abb7RNx31j1rO1cC3Nk7hMDz74oLvjjjvcQgst5Nrbl3/88cfa9i+77DLHOPHXX38pRuF9F198sevevbuOVeFas/6meTJixAgdy0P9fvbZZ93bb7+tfXzcL4LXuOOO6z755BOt87179241hE888YR77rnn3JxzztnqZ3mgiI9ffvllST+e9YJFFlnEHXvssQ45ZMkll8xKYtciBNJ1JbplhxUgMGTIEJWZGGfCH7IJf8gr/fv31/uzzz67jkFk+fPPP7s999zTLbfccjpOpF/TzDwpJ5u999577tprr3VjjDFGi76+SD4tkgfL6Szwp1l4kiV3l8MnT7/4559/3J133qnjNmMzcnisy7aXJ+73EX/4jvq76577/VnnXlj1/EXBkuiykfTbb78Ra+ZFKR558b8jET79eeedp2fLL7+8FyXdL7zwwn6++ebzovzoc5tssokXoDWNCEV6XwZxv/LKK3sBvSTfE044QZ+Rjkfz2nDDDZN3nnXWWV6EVr/SSiv5SSed1M8888xeGJ/cb+SDoUOHZX6edNR+6aWXVqzjBFtvvbUH41VWWcWLAOW32GKL+La/5pprvAhPem3zzTdXXFdccUU/4YQT+jnmmMPLwJCkX2eddZTHYvTwojDoH/wRBdr36dMnSVfEO1EiNL0o8V4GGj/eeON5UeqTZzk48cQTlffiXSm5nnWSlVaUHy+GIC/KvRfBSr/plltuyXrcS0fspYP2s846q5977rm9KGheBHhNK52FFyOAlwHSL7bYYl6UHC8Ghxb55PGkRUK70GkIpHny0UcfaZ169NFHM8sgg6afZZZZ/DzzzKNtiPRZFPIhLf2bKNl+7LHH9mIg9MOG/ds2jznmGO2zRFnPyqLkGvVNBrKSa3kncb8qiqq2H1FWPW1JFP+8x2rmeponoWBizPPTTTed8idrbAnpKvkVgcvLwK1916abbqp9Iufbbrtt8rgYlZOxKrnYpAdpnohBR/lAfaZ+MwbQR4tx3V955ZUlKEkIuvJNDFpejB0l9yo52X///T11uq2Ux8dnnnnGTznllGWzpc0vtdRSKn+UTWwJfLquGCStQ2C33XbzyMnIFOFPokc0k5133tmvsMIKfrPNNlNZLeQsBiK//vrrh9MWv83Kk3Ky2cEHH6xyHToC8luMYZF8WiQPltNZAnOagSdZcnc5fPL0C3TCVVddVcdt+mPayA477BDgLJTRy70zZNJhCvjPv/zm99m/j3/zrSE1pYCnFT2UcwQh8TApJueff74X76b/4osv9Pzwww9X5QdAEWRhwtVXX633XnnlFRUKGFhR/lAoTzvtNL2HsoWAENLqxQb+l9W4wQWBCeMIxo5A4tFVzJ966im9dNddd2maDz74ICTxW265padDokNDwXz66af1HoIYQtf111+v5yji4CxWRU2PwByMHghmKPc//PBDIe/ICGVBQhc1T/6J5z3pHMXKpcd8B39FCnhR2r59+2pdCuXbaqut/IILLpi8Mz7AgEDnTL0T748q4aF8dBgYeL777jt9RDybHmETQ1RMWTyJ79tx5yOQ5klQnPMUcPqYM844w6M0i1faP/bYY5mFzspn+PDh2jZoRxADyiWXXOLjdpaZmVxsrQKe7lclekjbSminee+phetpnoQyPfTQQ2qA3XjjjVVhDtdb+yvRLmrcO/nkk0sexfhGfxJ4j8IfDMElCZvwJM2ToIBLNEKCBv0dhlz6+Pfff1+v//rrr9peJMJA24pEXiXpKz1oiwIO3+iroTw+SsSSCt3lyoHRCoON1YVySP17P11XKnvKUgUEFl98cY+cm0WMAw888IAYOYaqw4BxCLkDR9brr7+e9Yhea1aeFMlm4EZfFYyCEoWr/f9bb71VVj4tkgeLdJaYQY3MkyK5uwifIv2CsYbxOYw5pEVXRF+BqsGTkbHT8qZq0nPPPy8h4RNIKO8M1cy26nntvvvubvXVV9cQaTIXpdGtscYaGtbLuQzwThRvDc0hbJAwRPGYc8vNO++8TjxTTjood8899zgZMN1+++2n4ZekI+QwpNUHmuyfGDc0hI7pATFNP/30ThQJJ1YlvUw4E0T4OCR124nw68T65ETIcieddFISiicecCfKp4ZekxZ+ESbLVICZZppJw3kJFYHEG6hhiNLBachnHu9EaHNi4dWQKn1Q/kn0gnte6jAkERdOFBwngrKeF/0rSiveriSUhTz47vDNhOOLt1vDzfl+pkhss802Wt8IBRYlQOsZzzF1Yt11103C4CUKw4mRwRHaZNRYCFBHRInVOn/qqadqX1TpFxIuxVQJwq8gQtJPOeWUJJR62WWXdUcddZSTCAsn3nInng5NE/JnmgRhuCI0OIkGcoTPVkqE/tLePvvss0ofqbl0hIrTR+24447uqaeecoQHBhJlWq+vtdZaGvJMf0GoWhZdeumlTry27qCDDiq5vcEGG7h+/folYZ0S4aNTTkhEfyBeEp1WRfuHV6F9F72bvuPQQw919LFMu2JBMvoVQuUajcQY7hhjwEcipvTz6AfFeO7EeOkk0kD7faZnZBF9rAhRTgy4TjzeOm0ppKOuM/2Juk8bYJpTIKZnSFSX8p16zhQh+EgdgGI+hmcI84UXtGf4wRQN8iCMlzYaFo2jjc8111xup5120jLFdS7kxS98Ji1TpSgj3xHSUj/EU6NyDeH4iy66qOKAXMO3rr322jqexfnZcXMigMyKPMH0PTH2ah2ibgUiDB0ZhSkgyFX06Ywhq622WpunaIS8G/G3SDYD199//z35bELQIULWi3QLniuSB4t0luRlDX5QJHcX4VOkX9CvTzzxxMk0WPp39D2mfVaLJx2igFO4hx5+1K24wnKdynbx7rhddtml5I85LOWIAUqsGzonD0VLrH7JI2G+MYLkhx9+qEJNPDeY+9xDSWdusIRUq7BMx4UgRIfVrIQAK15oFSJjDJjrikD5+eefO/GcuV133dVJGJQq0KRD+BRLU2LgOPDAA5PHmaONIsEAAGH8AHMIRRThIhCKP0oIhpIi3qF88A4UeAjhC4EOwwyEkM28Vgn31vOif0VpEZZQdigzAh+/xx13nGZHfeEawhj1iY46roccgxckXnP37rvv6jH/mLcFUYeNGgeBTz/9VI1QGJcw/mCE2VaMOAw2eXT55Zc7ibTQ+ozySN3ebrvtNDlCFHUk9IniCXcSsaOKgVh1tR6F+sgDGMGOPPJIXWuANikh7Hmv1QGJm/T9zM094ogj9Jg2WY/EGh7M/cYAi2GCfp51LAKh5NG/MSgzT1xColXpQaBNE8ITylYWgW9YG0O8uI73QhIdo33gww8/rIuJwbfAm6J3w0+x+LvDDjtMlVP4GvM8qwy1fk08y6okUE4woi6GPg8FEwU5nFPv+Gb6fon8cHfffbfDyJ4mxmsUbIy51HOZkqa8Fi+VJhXvnvIU3sJ72h1EWozs9PPUD9Y4wBjKeMYaNFDMR70g/yQsXZ/DaMAYxhhI+7viiivc0UcfrQo4bVemTGl7ZA0TDAuMQQiJaSpKS/3g/vzzz691h3GDMQOcWNcGrK666qp0lnbehAhg1GN9kO233177IYw/GJC4BmHIoi9Brka2wphF/4LByaglAkWyGc4j+iSwxKCN0Qx86f+L5NNy8mCRztKyhI15pUjuLsIHhTpPv4CXrJmDgQRCJqfPZjytFk+6dwQ7Br/+hhvx519u/vnm7Yjsc/NEsMSb2VpCueFZFinAMo1FORALuKEM0vFwD4E2JtJyj0EPRi+zzDIqgCIwM/Dj+cAa3YyEsFFE4IYAxEJkEmKuggvKRlCqwT0mvBAIQnvvvbcKxdxDQEorBgjBeBsQxBA4KEcR7+J30LBQ7ikTnncIQahSqiQt342HCksaC1ghZPHdLB4BDR48WH/jusYx3hMUHIRzvGN4yBkww3OxdVUzsH91jQCL7NGfSUisCuzwG6EfoxYCfxah/DJgUBeIwIG4FgyJ6WfwwIX+iUEMQSAQhjGUfghlBS9eHrEoJX+B8JZggIyNSOFePfzyLXwDnkmULBRxvK0yxywZH2izIboHHOlvaNsoV4FQHlkQjH4uEAoYihZtGULgZeGuQDyDlwnhAIMchhPeFQxwpMt7N3VG1sRQIY90vJtVweuZGJdpAxB9HQtTYlgNq5yDN4YLxmAMpyif6623nqanDWC4IAoheJy4QQQWyjbKBH09i+zRl4Y+FIUZTzLEWEIfjXcdrzMGX5nLqfeIMsCoihKNMTmPeDd9PnUKvgZCRmA8gyQUWP+CcZn2g5AuU54SY3B4ju8hfVZa0shUrMRgQyTZrbfeqsI/DgGEf7xCRoYAijb14ZBDDtExBXkJgxKyD3WaP2RaZA8UcJQVjKo4m0hDZA19H3Xb6F/DaZ5sxthA/4xXFbxQ5nAm0UcXyafcg/LkQe7n6SzNwpMiubtSfNL6BeMwvEIuQubGmEt7wSBaLZ50iAL+4EOPuBWWW6ZkdfDOqAh77LGHhhLH75J5dvFp5jGKM6FZWLARlBjwA3GMoIQgiUcqvkcaLCQMqHgwEdQYoMmD8GcGSRTxIOCGPO33XwTwHrFKPUItAhUeJVZqRgFH+I+Je1gOGQBIDyGQEl6OkBIIYVXm4Tg8RzSocC/NV9IH3oVnUVQQrghph2+xIB3SVOMXoZ4/BjIUGwRkvBWBGNyguK5RVlZ1xyiBp5yVs2V9AdkRYLgOhDJnXsMRQx72W/8I0C9hTGJAj4lIijxCaaB+QAwg1DEE/OAhTD8XK+b0YTwTCCUkEHUSgSGPKOP//vc/vU274Vn61HollDgGW1k0Sz+BfoVQfhRzwoOh2LgAdlCMH+coXETg4LUNhGUdzzeEQokAFhPPINjCRyJd6Lu4hoIYKO/dpEdYCFRJ1E5IW6u/jMtMh0AYYnzFwBATRiOUTKKU4FMcbcAxIbSMFbGSwLjB+IPyDRHVhhcwUJwW/CHyxlCMUhIInmAkof/GM95aitsy7R1DAqugBwoRUeE8/JZLG5efuomRIETj4VTIitQIedtv8yBAvcWJEQhlgzbDbgOBMBBCyBr0i4RZY5SirlJ/mb4Xpw/PNeNvkWyGcYMwf/orDGQ4/ejHmdKCIS+W98AuyKfl5MG0bBvrLM3Ig/Q3V4JPln7BmIvS3U+iPXB6oBvQH8O7avFklHRh23v+4Ucfu2GffOaWSm051d58O+p5BlWs5lj5IAauMJeK83DMNlncQwmnYUAo5gzk4R4KeGyJ4n5HKXFagDr9R4ePZy0Iq3ioqdSEQ9F5sMUMVtlAeJlkNU4VvoLyzT3yYZuWgDneQua5MRiwlUxQvklbxDvu0zEy8BBKincEYa/ahIJCiGggjDRQmNsZrtNhICSFusd1FCjqGcQWOQh+gwYNUkMB30ZnjlfMqHEQwBBEiC2CD946/jAs4R2thBhAUMCoX6GtpZ+jz8qjonvpZxiQCHnnD2G/npVvlGX+GJTZ3pA/+iRCBeMw9ErxoV+hryJ0DUJoxaPOX2zkCJjitSXagTnieEjw7MLHWGnKezfvCmtXkB99RSMTfT1jMB5sDJQQ8ykDEWVEXxobmrhHH4sgjGcPAlu82uHZoKzqzf/+MZ6TD2NFIIxSyANhGkG4XukvbTQQ7R3jQmjrRLIQLYFHMk3l0sbT5NLP2rkhEBBgPGGKUlgnhOvUP6YrpImt8eizkNWYikH0BlM+kENasz5IOt9GOi+SzXDw4GgCPwivLWMlU1aK5NNy8iDPxrJiOA7yYiPh25ZvKYdPnn6BrodBG8MJxl0iqRhPkLOrxZN86astXyrPzNBzenf26SdJ2O8YbcyhYx/DEo5yhoeTeVAoegi4wSNBiDOdEvPJaTCE5pAGwLGAoJgRcoOQRIgYYWmE5jCXA6GTUDmUSJR6hLgQItaxX1VfuRMxgGUJbx34IdSy4AHKM3zhfvBMIPji9cbDi7UW3vGHMIunHM9HICxVPI8XHR6EtAhIRbxDeWWxPDwF7D1OY+NZvB3VJKyd1DMGLOqcrDyqdQbjD6HvKOf8IlzjxSLEiw6dsGPqKhhAKOOEWNI5MPBRZspPHTWqTwQQ6kN95RclCm8E4U70Mwjj1G0MTiwIlkchH4xIKJAMLsxhjgX9vGft+r8I4OXB881YQJ8T/ojAQUFrrVJLm0fRXnbZZdXbAY8YYxBgidBKG/vojyD23UVgQwAgmgdjcTmiX6BvxbNOiPbZZ59d7pG6us/0HNoHc6Sp20R40CYw6GI8xavNdYRQwqyZYw3uaYWacRmlG6WCaANwArMgHOeBAr7wA2yZR45RFeMTho9yhDGNqArkgrD4ZvwMyjfTGKgTjF+MD8gVWXPAW5M2focdGwIxAvQxRPXg2EDxlt2A1MOdXjwYQxPh08wHh+jPSE/boV6bo+lfVItkM7zjyH1MZaJN33bbbe7//u//NKKqSD4tJw8W6Sz/lqq5/xfhU6RfIDPh+EMXhF9MdWWKUpiWViSjF72zhBsdtQd4R+YrlVaM0SNJwGEyXbI11cg7XresYhl6SEJpNB1p+RPBR6+l93sWhcbLgK1p2KJBLOX6PP9E6dPneF4G65J3itDrxQqvz0mn5GWF4eS5Rj8o2uKgf//+um1WjIEIRl6srIqVWAK9WFL1NvtOhmMuSFigpgk8C79SwZUPbGkWSAwgmWnDHtl5vBPhNvM58otJPOyaLl3/4jThOCutCNCePTfZwoPvEG+KF0uyPiJKlV6TDkHPRRH31D3SiYffS9hryFq3WROBU+s2e4XL/EQvRobkfjgo4klIY7+di0CaJ2LIUx6Heh1+2Yseou1I2JOmob+SaTaZBU7nI4O27jkvXlQvllx9RuZwaz5icddz+i9ROpL8xNCle75yIX1PDJFeVnxO0sYH9Kvpbcji+7V+HPNElF9tn2CRJlGedBspmVLk2aqK/XEDiVFNsRWBNFwq+RVhVff8FsFV08lUEt3fHfwlOkHTck+EMz1my0HGEPpG9nanv6MesIVh0bspP8+KUujFS+pFUSssV0kha+gk5gnFknBX/Y7QPhif+b699tor2TKUdKLcJuOKeIF172KwzyIxtCg/yROMxcipydL4ijFM3y3Ge90OUJQT3RqT52ThTh/67PCOmI/hGr8ifOs+4DwnnhSVFWTuf5KEMUO8kYnswV7nMt89uR8fFKVNl5+6LEaI5HHkG5kykpzX+0G6rtT793R2+dmaMshiEi3iRRlvUQRRNrzs4pBcZ3s/ZN3ZZpvNyxSn5Ho4aFae0D8XyWZsKSpzuXU7K/qweDzPk0/BtEge5H6RzsJ9qBl4kiV38+15+OTpF/TDEOOxGMGVXxKtULINbDV40g1FWQaEuqJBAwc4tv/oSBJGanhaiPWP34XlHE9lCHmL73FM6ALeyGYKAxs2bLjMZ5kmDUXZc7wIhNOFRRSwEOKJDnMq8zKQtqGLQskAkJck83o53mU+VOWLeLgIK43ncea9Ag83kRWEUaYJbwo4YIHOorbyJCsvu1YdBNrCE3jMPGG8oXmhx9UpXXPm0haetAcp2jQL6uS125A31nYihOgfKyUiZUiPRwViHRJRUnVxuO5RuHOl+XVVuvbyBIyZmhSmJ+V9R1vHA+QDvNTM3WwN0ZYJe6dPzyP4jncxrD+Ql47rrUlblE8932tvXannb69m2ZFb6TvS0SK8g0X8iKRiDmwgpnDQBljjIk3NzpMi2YzpYIznYJ1eqLhcf1QkDxbpLPCn2XlSDp90HQ7n8IRIjyxdkDTt4Ykp4AFl+20XAs3euNsFXgc9bDzpIGDbka3xpB3gddCjjcQT9owntJ1pUih7TO9hde6zzjqrg9DrmGwbiScdg5DlGhCwuhKQqJ1f40nt8CKUxHgSkKid35ErgNROmawkhoAhYAgYAoaAIdBKBJifxk4JLPrGPGPmdtouHK0E0ZIbAoaAIWAIGAIdjIAp4B0MsGVvCBgChoAhYAh0BgLdJcx800031b/OeJ+9wxAwBAwBQ8AQMARaj0DVV0FvfRHsCUPAEDAEDAFDwBAwBAwBQ8AQMAQMAUOg8RHoxorO9fiZvXrZnsf1yDcrsyFgCBgChoAhYAgYAoaAIWAIGALNioAtwtasnK/yd9sCD1UGtArZGU+qAGKVszCeVBnQKmRnPKkCiFXOwnhSZUAbODurK7XHXOOJ8aT2EKi9ElkIeu3xxEpkCBgChoAhYAgYAoaAIWAIGAKGgCHQgAiYAt6ATLVPMgQMAUPAEDAEDAFDwBAwBAwBQ8AQqD0ETAGvPZ5YiQwBQ8AQMAQMAUOgDQjsu+++ju3Y2AfdyBAwBAwBQ8AQqEUEOkwB/+eff2rxe61MhoAhYAgYAoaAIdCgCOyzzz7u8ccfd7fffnuDfqF9liFgCBgChkC9IzDqEX379qvmR7z19hB3yeVXuZtvvcMNGzbMzTbrLG700Uev5ivc8OHDXM+ePZM8//77b3f66ae7iSaayE0yySTJdQ7OPPNMN9ZYY7kpppjC3XTTTe7+++93AwYMcAMHDnSvvfaa69atm5tqqqlKnvnzzz/dI4884u69997k2TjBG2+84a677jr39ddfuxlnnNGNMsoo7p133nGPPvqo4178991337npppsufrwhj3/88UfXo8f4md/21VdfuQsvvNAtscQSmff79++v1+FRILA94IAD3JprrqmXwBfMoWmmmUZ/wz94+uSTT7oFFljAURdkZX933333uamnntqNP35pmbJ4F/L5/vvv3c0336y87NWrlxtttNHCreT3ggsucJNNNpmbYIIJkmt5B1lpqSMvvfSSe/PNN/XvrbfecnPMMUdmFmBw4403uldffVXr6DjjjJOkA9MbbrjBvfDCC1qeHj16JPfCQRFPQhr77VwE0jz57bff3FlnnaV9SLpen3vuudr/TD755B1WSPq6k046yQ0ZMkTbT2tfRDt77LHH3EILLdTi0aefftrdddddbpFFFnHffPONu/XWW928886r9f7ll1/WvrPFQwUXRowYof05/Td/zz//vHv//fe1b4/bRkEWmbfSPKl0PCEz+p3LL7/czTLLLC36mvCyruZxKEc9/aZ5kub9s88+695++23t49O8H3fccd0nn3zifvnlF9e7d+/cz/7jjz80zRhjjJGbpjNu0DbGHnvs3Fedf/75btCgQW7RRRfNTdPMN9J1pZmxaMu30/cjMwWZhF/kJv5oI8hn3J999tndmGOOqa/4+eef3Z577umWW265TPm+kXny66+/ujvvvLMErx9++MFNO+20ik1b9IfAtyL5tEgeLPdO8m9mnhTpBUX1H9w6kifu9xF/+Gr+HXrE0f6+Bx72P/70sz/h1LP8nXffV9X8Kat0BhJdNpJEwCHWzIuCNvLif0fSYfjzzjtPz5ZffnkvSrpfeOGF/XzzzedFWdfnNtlkEy8ee03z119/6X0ZxP3KK6/su3fvXpLvCSecoM9Ix6N5bbjhhvoc7xDFLPmbdNJJNd266677X0ka+2fo0GGZHygdtV966aUV66wEomAqTqJslNy+5pprvAhPem3zzTf3YsTxK664op9wwgm9KKxeBoYk/TrrrKM8/vbbb70oK/oHf0SB9n369EnS5fGOBGKc0fSixHsZaPx4443nRbhOnuXgxBNP1LKKd6XketZJXlrqnCjLST2hzlDn0iSN3otg6GeddVY/99xze+nc/ccff6zJxBihz8sA6RdbbDEvBiAvilA6C5/HkxYJ7UKnIZDmyZdffql1asopp/TU35jEyOMvvvji+FLVj/fee28vBkKtk1dccUWr8xfhTMv/7rvvtnhWFG+/8cYb63UZALXdrrXWWlqXxbjZIn25C6Ko6LvE6Kl9NO1UFBcvBlZ/5ZVXlns8936aJ5WOJ2Qogpf2F3vttVdu/l3N49yC1fCNNE/SvGcMoI/O4r2EoCd1+rLLLsv8SsZ7+tYHHngg835nXTz88MP9DjvskPs6cRJo/96W9pKbaYPdSNeVBvu8Dv+c3XbbzSMnx/KrRI/oe3feeWe/wgor+M0228yvssoqSVmOPfZYv/766yfn6YNG5okYnHUcivHafvvtFYK26g88XCSfFsmD5d4ZeNOsPCmnFxTV/47mSVUV8N9+H+F33esA/9rrb6rS3f/q6/zFl11ZUwr4FltsEeqj/qI4ixfcBwVQrM0ewfeLL77Q+wyQKD9UcvHoa0d19dVX671XXnlFG+IzzzxTkicnl1xyiSqN4ulpca8RL2Q1bnBBWMY4guKZpuHDh6sRg/sB/5Bmyy231A4JZRMFU7xpegtBDKHr+uuv13MUcQSx9957T9OjTIg1UO8hlIt3RIXkcrxD8ZbQxfB6L573ZIARy6MeU07+ihTworR8L89Tb8oRBgQGOOqdeH9UCQ/lwyCBgUeiKzSb448/XhUoFIeYsngS37fjzkcgzZOgnFEvttpqq5ICdbQCLh5Cf8YZZ3iJyPAIFRKlUvL+Sk7IA0NQv379SpJLZIfW9Yceeii5Tv1Ekfjggw+Sa605CErYHXfckTwm3gi/+uqrazsXb3hyvTUHaZ60RgHnPbyX/j6PupLHeWWq9etpnmTxHj5tvfXWJbynPlRSpzEI0ea6WgGnjy9SwMXT72+77bZaZ1eXli9dV7q0MHX48sUXX9wj52YRsi9tZOjQoSrP/vTTTyp34Mh6/fXXsx7Ra43ME4m29RLxlPntbdUfysmnRfJg0TvjQjYrT1Ci8/QC8Mmr/53Bk6rOASece+01VnWidLvzL7zEvfzya2755XrLOFe7tPvuuzsR4DREmlKK0ujWWGMNDevlXAZ4DaUnLIfQ4VFHHdWJx5xbGk45zzzzOOmg9Dz8E8Zp+LQIpU487eFy0/2KccMtueSSOj0g/fFS7922227rxHtdMp2AdNwTwd2tuuqqToQsDZElH0g84E6UTw295hx+EaLLVICZZprJnXPOOU6iFrilYaGEIRLmXcQ7QorEwqshVfqg/Jt55pk1xJVzwq8++ugjnWIQ7uf9FqUVxVtDuAhvJzz3888/T7IhJFc8MhpuzvczRWKbbbbR+sYUDvEkJvWMqRMSWZGEwUsUhiMESowQSX52UF8IwGsx7GnIdlbJCamF50w1mGuuuZx4JrTOkpa2Ec93Peqoo9wuu+yiYd+EDTJFIxDtij6LdkW9f+6555x4OLRPY6oD7QVadtllHflI9IWGx5JGhLCQTfJL6Oymm27qrr322uQaB2L80nYtUSt6XRRUDUUXhUND3el3CQujLtNH8i6mAjGFiEW0aAOVENOLmIrB90jUTCWPVC0NbXallVbS8Hu+B8yK2mA5Hof8mEpFm4/zO/nkk50oajpWEWJNODJ9GmOVGCDd2muvrX1U1T6uDjIiHJYxBqwC7+kHxXjuqGfUSzASpaHF14AbBKY8K0Ka9rf0wfTPEm3kqLO0Fd7DuBPqLM/Bm7z2UdRWeTbQ2WefreMcU+PE+Cby0svaNqgnvI/Q3xdffFH7hfCM/RoC1USAtZrog5m+h3xCuG3c9xKGTj/NFBDkKuTfU045xa222mpuzjnnrGZR6iYvcAKvzz77TOU0xtFAbdUfiuTTcvJg0TtDuRr9t4gnRXpBUf3vDJ6MUm3GfPDhh26KySZxU081pRul+6iiZHxR7Vfk5seAieAZ/zGHpRwhzDDHWLyNKsSEuRw8F+Zl0tg+5NtknnI8N5j73Ivp0EMPdRJS6g4++OD4ctMdS/ifCuIIlGlibj7zN5n/miYEEYw5zBdFADrwwAOTJMzRRhFgAIAwfkholB6jiCKIBmJdAIR68iniHUoE76ChQuKxUqEMwwwkYbMqCEm4t54X/StKSydBfaR+odBQdxCsIQY6mSKhSjX16ffff0/mFHGfZ4LCvuCCCzoJ+eWyEsYhiDpsVJ8IbLfddqpM0XdJyFSLj0ChkAgKXaNAonh03jGGPgilj7UmAqGAoARMPPHE2g8xRznQpZdeqsYlFFeJMlGhH2WZtnLPPfckfZZ4qd1pp52myjDzuKljxx13XMim5HfHHXfU+ogyDzGoodSg3NCOEeowGGBEYs0C+kfWR8AYgOKM4s/aCBIC78QTo30C55USCijCYGgHlT5XLl258QSlie97+OGH1QBC+8vDiHeV43FRfvAUPs4///z6LvoC+gG+m7VK+Parrrqq3CfV5X3GZZQEiDGD8SHwGmNEzPsjjjhCjVjUZ5Tqu+++WxXn9IdzH6K+MZaAL/hxTBtEac+rszxX1D6K2irPBqI9sD4CRqp+/fqpQYxv4xs5D2snYPw1MgQ6AgHGDoyuEkKta/Rg3KU+BkMsdfmwww7TNoFsRbtgTQLqZ7MSchxjJfIi6xrxy5oUEG21LfpDkXxaTh4semez8KiIJ0V6QVH97wyeVFUB/0YEx+dffMXttstObp2113Srr7qSe+jhRzqtDqDcYI2K/yp5OQ2GZ1mkQELdXLyoC4IqQhYdD/fSi6WQNrawk+aWW25xe+yxh1oLK3l/o6bBc5BFErrkEJQQeBCe0xSUanCPCU8eXnOZt6oKLPcefPBB9ZTH6VAASIPiwDsoRyW8Iw86O5n7r544FqeC8LBUSkVp8V7SGSCoo+TL3BMnc9RVuMSDj1Iy/fTTa1l5X1zXOGbhE6yhCOpPPPGEemywRu+3335aPJR2o/pFQOZ7q+GFuhsTwj7K7ZFHHql1EwVWwqbiJLnHCFYoISwwyB9tAkUQZZ62Q12abbbZ1KNKZA/KeCAW2UGJRiDDsMSAlEWypoZ6yoMXHOWZdsR7IAwBEjauyg7HLDpIOyFNIAxxGNKoy7STvHeF9Olf+nAWJqwmFY0nKIW0PYwG4IfHkjYcjGR55cjjcSX5sZgnCj5ed6KDwBIlc5llltF6gSekEYlxef/999dPo4/cddddtS6Fb6W+YLRCicbwg1K93nrrqVKx0047OZmupB68kJ5fPN0Q3m5whOh7MQwfcsgh2v+Xq7NZ7aM1bRVjPot5YqCm7gTCOMBK7nmLc4Z09msItBcBFG3kHZnmoPIF48P/ScRfkH2OPvpod+qppzpZ40KjnGRtG5VhZP6zpjnooIM0WqS95ain51lwkz6C8ZToSiIykUuhtuoPRfIp96A8ebDonfpgE/wr4kn4/Cy9oKj+dwZPuofCVeN3fFGmqCR4X2aeeSb36aefJWGy1ci/XB4ovYQSx4QyXI6wIKEIMhDSmBjwA3GM0oOA9+mnn5bcIw2NEC9tIARYPOSEkRllI4BQj8CBIs4fGLOaMGHfDAYo4AhZMeFNxzOBp5pBAELYpQOU+TFJUkKlZI60eqVQ2MO9NF95IM07VtVFCSCkHSUCwa6ahMDGXyCMEIRQEm4e1yEGNyiuh5SVVd0xSuApJ9SekGUUKQZLvJkIk0b1iwDRGoSlMu2FfYwDhWgHFN1ARGNQb7IoDiHcYIMN1BhI5AgDEAI/yhurKkOyfoAqkiEf+q4w4IfoH+4RoYGSmEe0afJCeaAP5B3UV4h+FWUfYwCeehQLysJfoNa8KzwT/9KHVxKhEj9T7rhoPCEck1VpaYvwh/6Fa3iQiiiPx5Xkh4IYCH4wPYCQUAhDcYxnSNcIv9QfdiVBUUYZYNpSTBhrqG+Ea9P/y6KfyW2OCaFlrIjxSxJEBzPMMENy1tY629q2mrwwOrB+PALDDjsUASJq6JsDYWilzbDLRKAwjQhZgygcolGYJoTRi7qKzB2nD8816i9jaSCMr8iljBXgkZYzK9Uf0s+Rf5BPy8mD6Wfjd4ZyNvpvEU/oy/P0gqL6zzgTy+AdwZOqesAR3jbZcF139fU3uf0PPkwV8HXFE17LBGOwmuNFgBikCZkMFI4ZnLmHEk7DgBB0UQDjgZutdvByIiAZZSNAh0HkAII6f3h28fBheaXCE86DIh4IoZ5wQISvoHxzj4GD+a8hYoHIB+b2MRjgIQ7KN2nL8Y4QFgYelAO2VQpeEZ6tFuG9QsEKRD2iDqXnUoEPAnWoe6Qn5DLUM7BC0EeJwlDAt+Gti70o4R32W18I4JEm1A8DVIisQbGkbw1hbnxRCPfmGCWMUO5AGEADUY+YC8t2dvxhqEHZC1ub9Zd5pijF/A0ePFi95XhzIbZXrJTIl/qMB4X56ISlB8JYRCQKbZ32zdwq6n2sMLbmXSHf8Et7px8u2nIqpK3WL3OEMbJi4GBKDN5X+BR/U967snhcSX7UAaNSBALv2QYvGHyoX4GY8kAbiA084V76N8a3rXW2XFtNvzPrPC5H1n27ZghUCwGmzxCpxDZWgRgL0jIJ92TlczUOE4nD9CHWRMCJgBxCRF8zENjQf7MFZiAUb/oexs226g9F8mk5ebDonaGMjfxbjidFekFR/e8MnlTVAw6TF1t0Ef0bIQrBGKOPXnN8xxKOcoY3B0EVzyqWPcLUIEJJmAfG/D8UMkJNUAZpBHhHUczwYqJMEQ7Hoi/xvGMUpbQXvuZA6OICMX8mJhRLPNtYERHe8QazGBOE0sE9Oj2sVfAOYo49nnI8H4H6ybwkFFKstAj6IS1zwIt4h/JK+C1GE/Yex5MCodgstdRSIft2/9JBE7LF3E0iKgiVRDDEiEA4Lvuc473n2/hePNsYBDD6oMCEsDDqGOUEG7z0HFN+6qhR/SNw0UUXqQCE5w6Cx3hajznmGMeexXggUDzCvsB4VTH84TVHMEA4Cl4Lng/z+zhGsYAw1mDEoU4xh432hsWX39gjookr+Ee/yCJxtGHakewikDxF+0KpoN4TwcG0i7CwT5KoFQcYCvDkEz5G1AqGOQTGzux3+SaIRe7An3nYRNxk7Yee9WlpHrc3v6x3NOK1LN7TfzKfGuMHUVQYbKnTGISYIsCCaSFSIGCCwYdoPdYfCO0o3OO3rXW2XFuN38ExkXeErWctcJhOa+eGQLURoP9C7sCTjVzLNCLGF2TbmKijLHZJfwv17NlTjbZEAbEOQ7WjBeN319IxMhz6AnIcWDGHmHVVGHsZ29qqP+DlztMt6KuK5MGid9YSdh1VlnI8KdILiuo/8kqH86Sae4B3Vl7iKRUHykgS7w9L5iZbU42843XLKpbph0Qo1XSk5U/A1Wvp/Z5FofEyYGsalqiXEDd9nn+i9OlzPM/S9mE7LO6JEqXPFG1TRbpGpKItDsTLpttm5X23KODJXu3i6fZiVU2SivJQwrPAO+l0lA8sqdvvAABAAElEQVQiQCVpRZjJTBv2yM7jnQjOmc+RX0xiSdN06foXpwnHWWlljrbn+6h3fIcMYl4UKX3kqaee0muiVOs5dYm6Rzrx8HuZyxiy1m3WRODUus1e4WzDJMJmcj8cFPEkpLHfzkUgzZOwRZUYi0oKIoO78j7sA04fJEq47nvNvvCiNHi2JoGo32xZRl2ReaVeFGHdRi/OUAYaL8phfMlLhIUXo5Y+J3Oydb9XCeXWNPRtIoQl6cUIpveTCxkHorhrXqJgl9wV77CXxWq0T+U9lI+yiOfFi/dEn5Gw9+SZ9LvDDfE0aNrQB4gnX7eIJB/e0VZK86TS8YRtAUX41O152JaGPgk+hG0QQ3kq5XFRfjIHugR/+CGKZXiFZ8ySueHJeb0fpHmS5j3js0RxePZfj3kvi5h5McZoPRGjj+5dLB6STDhknrimEyO7bkEphvYkXVGdJVG6jsbto6itJi/474AtTfkWxkCZw6/liftyMfRrG00/Z+cjEUjXlZF37KgSBMTZlLQZiRbxEmXY4jFRAL0oncl1tqwUr6+XEGwva5Yk18NBI/OEPkYcP57xR5RjL1GXnv4pUFv1hzz5lHyL5EHuF72T+1Cz8qScXlBU/zuaJ91QmkWgqSsaNHBAh4cbErZAaHSYfxEDhKUdj2UIeYvvNevxsGHDxas7Tbs/H+siHrRyIfzSn7ghQ4boAkiteWkt8I5wLxaMwnNWjgjtwktCGGWa8ACCAxboLKoWT7LytmttQ6AtPGGaDN5vpmGI4K8vJioHbzXeCwiPcuiT0osXUueJMiHigjzSxJxvFkWjnnUk4S2hHocpIx35rtbk3RaehPxZ+JAoqBDSH6639bfa+bW1HF39XHt4QtnpN6ln5eoaXnLqfdpDHr6/tXW2krYa8g6/9OO02XiRpXDPfssj0N66Uv4NzZGCSDv6say2QIQVO7cQeRRIDE0aaUiEYZqagSeEnhPZlTVutlV/KCefFsmDRe+EP83Ok3QdTZ/n1f+O5Ikp4Gku2HmbEGiGxt0mYLrwIeNJF4Kf8+q28oRpLkyZIcyaMFzCAQl5JjS9iMRToSuQs70RYYTlFJKivBr1Xlt50qh41MJ31TNP2tpWawH3eixDPdeVesS7kjIbTypBqXPTGE86F+9K3lb5KjuV5GZpDAFDwBAwBKqOAIo0q6Mz95s5T6x1UE75phBYb5mfxxxlU76rzhbL0BBogUBb22qLjOyCIWAIGAKGQMMiYB7whmVt536YWdc6F+9K3mY8qQSlzk1jPOlcvCt5m/GkEpQ6N43xpHPxrue3WV2pPe4ZT4wntYdA7ZXIPOC1xxMrkSFgCBgChoAhYAgYAoaAIWAIGAKGQAMi0I0Vnevxu3r1mrEei21lNgQMAUPAEDAEDAFDwBAwBAwBQ8AQaFIELAS9SRlf7c+2kKNqI9r+/Iwn7cew2jkYT6qNaPvzM560H8Nq52A8qTaijZuf1ZXa463xxHhSewjUXoksBL32eGIlMgQMAUPAEDAEDAFDwBAwBAwBQ8AQaEAETAFvQKbaJxkChoAhYAgYAoaAIWAIGAKGgCFgCNQeAqaA1x5PrESGgCFgCBgCTYgAe71ff/317quvvnI33nije/fdd5sQhY755BEjRrgllljCrbrqqu7BBx/smJdYroaAIWAIGAKGQAUIdJgC/vfff1fwektiCBgChoAhYAgYAiCwwgoruDPPPNPNOOOMbvvtt3ejjjqqAVMlBMYYYwx3++23u08//dRdccUVVcrVsjEEDAFDwBAwBFqPQPfWP1L8xEsvv+JuvOUO99NPP7kF5pvbbbv1lq5796q/pqQQKPtnnHGGW3PNNd1ss81Wcg9hZrnllnPzzjuvu+mmm9zQoUP1frdu3dw444zjFl54YbfggguWPPPnn3+6xx57zL399ttu2WWX1WfjBG+88YZ7+OGH3UwzzeRWW221EiHpvffec/fff79beuml3XzzzRc/1rTHeHOuuuoqd8ABByQYDBkyxA0ePDg552CxxRZz00wzjV77+uuvXd++fd0FF1yg5++88456LRZZZBG36KKL6rXwD7wRqnbYYQdHXXjiiSfcW2+95dZdd1039dRTh2T6W8S777//3t19991uzDHH1Lo01lhjlTzLCeVZffXV3fTTT9/iXvpCVto//vjDPfDAA27YsGEqbKfra5wHGFAe6irvnGyyyZLbYHrXXXfp91IHp5122uSeHdQfAnjnBg4cqHWX0q+11lpu/vnnV95zftFFF7nFF1/czTPPPJy2IOrVKaec4qaYYgptBy0SlLnw888/uwsvvDA3FYrhc889l1uGJ5980n322Wduk002Kcnjvvvu07q+yy67lFzn5Omnn3avvPKK23PPPVvc68oL8OKcc85JioASPMEEE7g11lijpA2SgO9+9NFH3c4779yirwkZ/Pbbb+68885zSy21lPZx4Tq/5557ruvdu7ebe+659TJjWJ8+fXRMufjii12vXr3i5E17jDxBG6B+xX3dgAEDHH/LL7+8yhxffPGF23jjjXNxuuOOOxyKONi2lb788ssW9aCtedlzhkBXI1AkizGuXH311e6HH35QgyD9IMR4sf/++7vTTz/djTvuuF39CTX5/m+//dZdfvnlOr4hU0JFWHO/SD4tkgfL6SzkbeRcmifoFcggaZpqqql0vOZ6nu7x66+/OuSbmNA3kNOginjy+4g/fLX+fvjpZ7/9Lnv5pwcM8sM//cwfdNiR/vkXX65a/qGcbJ0Wkwg4bKXmr7vuuviyHkvF9yL86LEM0n6iiSbyonR7UY79JJNMos/JoO7/+ecfTfPXX3/pfelU/Morr+zFeFCS7wknnKDPiFKveW244YbJOw8++GAvg7tfaaWV/Pjjj+/XX3/95F6jHwwdOizzE6Wj9mKMUKzjBLvttpuHN6JUJn/inUiSXHPNNV4EUz3ffPPN/eijj+5XXHFFP+GEE/o55pjDy8CQpF1nnXWUx9K4/OSTT65/8Ge00UbzIswm6Yp4J8YZTb/AAgv42Wef3Y833nhehOvkWQ5OPPFE5f3jjz9ecj3rJCutKPheFCQvQrVfcskl9ZtuueWWrMe9dMRal2addVYvwrkXodN//PHHmlY6BMWMOiZGCz/KKKN46Qha5JPHkxYJ7UKnIZDFE9qIhMZ6UfS0rdBeOBbDSlIu+C8GneQ8fSBKrBejkPY7V155Zfp22XMZ3LXfo28Ug6TWc+op5/zdfPPNWgfzynDggQd62lya+vfvr3lJKHX6lhdjmhdlqcX1zr6Q5sk333yjZRYvtH47/Q39gRjkfBpbEUy1v9hrr71yiy0Km+Y35ZRTevqomESg9aIMJpeOOOIIHZuoD9tuu21yvdkO0jz56KOPFEMxdiRQcAxPxFjlxWjiRSHwjPF5JEZ17ePnmmsufSaM+Xnps64/88wzHj4a1Q4C6bpSOyWrj5IUyWJiWPRifPWbbbaZX2WVVZIPOvbYYwvlW+OJ9+gG6CViFExwK8K6SD4tkgfL6Szh5caTljxBN4x1kEknnVR5Js47ha1I92A8gb/x8xK1ps9VyhMXlNpq/L7x1hC/294HJAr3Tbfe4a+46trkvBrvII/2KOBbbLFFqI/6CwPEw+jFE6Hn559/vkcoCo3m8MMPV8ETQMVrqUqjWAQ1rVhOlAEMyt99950Xj7q/7LLL9J54s/SeeGL1vNH/ZTVucEGIpZJi7IhJrEQebPNoyy239HRIKJsomOIt06QIxwhdMk9Sz1HEEY4l8kDTTzfddF4sT3oPYRmeICQX8Y7EKN777LOPPsc/8UQlAwzKCcYUvoO/IgW8KK149LUuhfJttdVWquwkL40OUGZ4J/UO4RIlPJSPToGOgjoHHX/88b5Hjx4eQ1RMWTyJ79tx5yOQxROJbtD2IdE5SYEkikP7JQmV1WtFCvgvv/ziJQLIv/zyyx6lRDyFST5tORDLrtbz0MZCHkVlQJnJUmgoG4aifv36hWz0l36RtvTQQw+VXO+KkzRPggIu3tKkOLStrbfeWvuT999/P7nOAeeXXHJJybX4JCjgfC9tPqa0As69559/Xo1/WXjGzzbycZonaQWcej722GP7DTbYIDHGllPAMbLyRzujvQwfPrzVEN5www1an1v9oD3QYQik60qHvahBMy6SxejzJWJP2wxOEIlEUbkDR9brr7+ei0iz8yQYnunzgy4BWHlYl5NPi+TBIp0lZpDx5F9nQJonMUaM49RzZKlyuodEf/hZZpklfjw5rpQnVZ0D3qPH+O7XX39z30u4CiSlcZ988qke1+q/3XffXcN7Q/ilKI0loYYidGkI5ZtvvuleeuklDQ0MYZaEtRMSSkgx3/r7778nn0mYG0SocLMSYZfi6dUwpRgDESzda6+95kTp1fAPwm7ALxDHIpjrYjmEb5500kmaD/fFA+5E+XQvvPCCJodf4vXWOZNMCSB0NEx5kMbhRAHQcPQi3hFKIhbeklDYmWee2YkgrO8Qg48TAVBDTfVCwb+itOLRcvfee29SPsK4wloJ0uCdeLvdq6++qlgQjrzNNttofZMOQcMqqWcQ2BFeH8LBxNKqIWJMfzCqLwQIiWIKBaF8IuwkhV9mmWWcdOJa18PFRx55xM0555w6dUaicxyhsBBhbdQrwnBZYEoigVyoC8cdd5zbaaedQhZap5n2QJh1WyivDKeeeqrW13SeoiS5TTfd1F177bUlt8Q45nr27OkkqqXkeq2eEEJIf0ZblOgcLSZtVqKd3EILLeQYR5iuFHDP+g7aM+GcTB3JopAfvCXkX4SuJL+TTz7Z7bjjjjo1gZBP+qc777wzyYapKkzN4R59g3ir9F1JggY6EAOo4rD22ms7UYidRDolX0ebIIyf6WW0FdoWRAi7KO3uoIMOcjPMMIM7++yzdQoE9xhL6HsZBwIRRki4eky0s3333VfDb0kvhhqdasYUCvrijTbaSN+z6667at1mHGIKAYvpQfTbTEs76qijHCGOYpTW/MLYxwJ88E6MqU689DqtgXHJyBDoKATKyWJiPFUZhfGC+sx0HKY6Me2N9mXUEgFkxb333lvbeXy3COsi+ZT+oUgeLNJZ4vc383EeT2JMmBbKNFlxFmg/XU73IHQdHYapd/AnHj8q5UlVFfBJJp7YzT/v3O7YE05155x3obvvgYcdDbizSKwXjrmG8R9zWMoRggtx/uJtVEUrFoTDnGRA/vDDD3WOZTzgc597KIbisdV3I0AhPIkHU1ddLff+Rr0v0QAOQVuspSWfiJCKYswiQ6xKi7CBIM41CEGUec/BwCHhrcnzEgqr8/gZACCUUoRNCEUUoSwQSg2CDvkU8Q4lgXegwEMIcQjZzLuGmI/74osvtpi/qTdT/4rSIowx15Myoyzxi4IE0U64hiBHfcKYE9dDjj///HNNy5oF8erIGIcg6rBRfSHAvGoGWBTuNCHIM+84EEapI488UpUO2sgxxxyjt8Srqu2FdSlYZIp6EOoVdUY8fSELVR5QJILhJ7lR4UFeGWgzDGBZhOJIfeVbIQQR2hdrNtDOa4kYA1CUIPFsa18U2hfKLUJnOC/CPeubtttuO+Un4xOGlzQV5cfcZvpTFG9W8JaweMUPLFnvAiMHyh2GGAg+Zb0j/c56O8fAiYItUU+6rkgwtobvEK+cYgNGjM0YPSHGApR15pEjLDHmYJgCPwQn2gzHgRijmPcaEwaj/fbbT9cIYRxCUf7ggw90Qbejjz5aFfCi9yDQYWDFECCRLU4iwNxZZ52VGHaRF2ir5C2Rejp/NK9NxeWyY0OgrQiUk8Wok4cddpjKtchWGLIwDKOkGLVEgHGVfpz2G+THkKoI6yL5tJw8iHIZy4qxzhLe3cy/RTyJcTn00EOdTC9yMpVYL+NcLdI9UMDvuece1RvQY9Afnn32WX22Up5UVQHnzTvtsK3bafut3fLL9Rbr7wxu8skm1QJ1xj+UbQbT+K+S91J5efbHH39UqzbW80AsxIWQSMeDxRtlLSbSco8/BviJxQjBAl1Yt1nwDat2s1JYeCL9/SjaGCluu+02VQjwCCFY4emGglKdFs7xZiBQYV3EQwQhaOH1iwlBijTky+JvlKOId/GzdHaUDf6F8uD1qpQqSUtdoY4gPLIwIMSqxyzaxnXKCsV1jWM85ihrdPAsNIdHDWs0QiEUR2DoBftX8wgEo0qIZigqMAo5C0xh5EEJQZFGYaQOINDj2cYQSF0K+Rbl15Z7WWUol4/MIVfDU/CCo4DQzlBIa40YA1hcCKI98r0oSoFQulBs24o7i3/RTumfYqokP/iKgkdUEV5X+gn6Evo5PFNhQTcE5HTfGb+rno8xOmHcJrJMpt60+BSUZKIFWPAObzWGIRRplAfGCgy9wTsOdsHo2yKjjAtEtYV+G+EsKP9EP8BP2mYl70HpxmhMv019QvhGkcdAhYGN8QdhEC+8kSHQkQiUk8UwLBHdJGtcaBSTrG2jjg4WhEU+IqJE1qbpyCLWVd5ggrEUzNJUhHWRfFpOHuR+ns6SLkMznhfxJOABhrIek9tjjz10LA3Xw2+W7kGE7SGHHOJYvBkjOJG56CdQpTypugKOIDDJJBO74aJ4ypwD8ewspQXqjH+AR4hf/FeJQoS1Aos6nlpARAgLxDFKD0p6+h5pAB+LE54HLCIMonji8ZKggGNxNypFgNWdEYbw+Mr8blUoWDWe1WyhoIDHT+H9QfFA0EGAgVAyqPgIZIEIlSIUUObgaPhhUNSLeBeeZdV7VmKnzjz11FMqHIV71fylfChM7PdLhADezJgY3KC4HlLPWGERwRrcCLVHAQMrOhjKjIfdqL4QCDslUI/TRNQFoWmBUC4CUUdCWCCro1In6MPWW289FeZjb154hl/6svZQVhkqyQ9vNwZKrNHUeYxm6R0KKsmno9MwBhBmDyFEYdEmqiAQyhJRLChfrcE9PE9EDuHPGCPiEPJK8ou9HCGyDMWd6AIUwhCZxTtkLYzwyob6ZYzH64Dgj3Lwf2K4jQkFORB9PkQ7wQiLUougSgRRCC/Paw957SfkHf/G/W4l7wkeKvKAj4GHnGOsCsRYZGQIdCQC5WQx3o3RiqkR7DTDqt7sToNxi0gS+nObJvEvh/BwY0DDQIrjh0gWCFkPA1sR1kXyaTl5MP1srLP8W7Lm/V+OJwEZZBLGT5xaacrSPUgDf2XRVH0O5weRbegQGOgr5UnVFfDPPvvcHXvcyW7wG2+7g/ff203437YF6Y+qlXMGZ8IhQwgoAzhzkgOFY+aNcY9OCGUIYvBGcOYewMeCDwoRghphjEalCBAqi/eLZfoDyYJiGt5J54HQixcgEF4ftvlBIMYCGwglns4uWP+IfCBkF0UeD3GsmBfxjvwwnmAEILSTLeiIZKg2/e9//3OnnXZaki0WNIhOIiYaL5EXoe5xD4MO9QzCyEMI5aBBgzR8kW8jggMPmVF9IRDmdGMwiolwVVnd38lqs8lljFVpwvvAoCGLUanBD+s7gntQIHiGvAK1NyInqwwh76JfWVRR+028tSi0hKXXG9Gv0N8z57sc7kXfRgQLnlK863hhoUryy8Oefov+K0y3wjCJ8bcRiZBYCE84xitCPeN1VnAApIlxmvGGsZ6xhUgiBGWIdhKeYfyAaC+MR5VS8ISTvug9Ib8sPtJmEQBDCCNpw5SN8Jz9GgLVRqBIFku/i7GINZEw7jHFhcgPFBDkECJNmp3wcDM2oAug0IUtqlDUUMCLsC6ST8vJgzwby4rhOMiLzcyXcjwJ2Nx6660a2REM2+F6nu7B+MA4HtaJIj2KN04FohAr5Un38KJq/U455RTujNNGKknVyrda+SCcoJxhdUYYxbrBvCu8kRAhBMwvxouNYEOIAcogjYCwMRQzwv+YY0mIYghvwzPC4ios1MPcZkIWsM6jJBqVIiDbfOlCUXgOwBJvEPMuwZPwVLw5hIBDCCTMw6CyY0GEdxBzNfD+xuHnzEvieay0KPIhLXPAi3iH4MrCejQ+FmHA8wghmBHKWC3Cg0XYIUYDvCCEtuK1xPhDSC6LZ8kK5/ptfC+ebQwCGH2wqHIOoYxTTrAhhJFjyk8dNaovBBC6CUtGkaD+BYWCcGI6+TPPPLPwg4LSRZvCAEgkDn0PggDENdoDdZqBoVx+hS9rx036TbwoeDD5TkLoa50GDx6sazIwiCNUYQCk7RJqjEAF5eFe7tuIjML4ggcJKsfHovyIDMKgQZgo3ijqTp5ntyiferpHu2HcwJuNUhCE3bxvQPnGQImngnE/GHK5zlgC9RcjGGM3/WwefqwDQH0gaolxKk1F70mnjc/px4liwbBAqDvjIQYf1qcxMgQ6CoEiWSx+J/0dEUz0gxCRUIxPRAHRJqi/zU7ImUQFBGJxRyJa6JvwYqNnIONlyb30Y3m6BQa7InmwSGcJZWnW33I8CbggU6cjOYp0D5xn8JNILMYhnGiXXnqpRt8SpVoxT6q1NVhn5iOKrYyPI0ks1sRVJltTjbzjdcsqloSHJJRG05GWP6nwei2937MoNLoPL2nYNkCUa32ef6L06XPcY8ureKsetjaRubq6fZAob16EzeS5Rj8o2uJABBvdNivGgOX+RQBVPrCtGPtmQ+w7yV64gdhXL/Ar/pUKrnyQRW1CUt2OLE4TjsMe2Xm8E4Ul8x2iHCd5cyAeEk2Xrn8lif47yUorwplnH0i28KBsooQn2zBJyLtek0avOYhCrnWPdOLh97JgUPIatjFj/2RwY995trGSqIzkfjgo4klIY7+di0AeTyQs2YvSrP0OPJVIDi/KdFI4+hoxUCXnYhj0vXv31nO2pxMhSLfPkIFB94+WOeW6HR9boMjgrnVLonJ8aE+iRCR5pQ9C3Y37NtIUlUGMZJn7gMd5izFSy9GnT5/4cpcfp3kilmwtZ+g/6MtlpwXPXt/gGagI95CGX/EOaX5iEIwvexm49XrYB7woP7bYYj/eQOJ10mfZ9hCS+WteVubWvoKtuegbwrgXnqmn3zRPJEJAv5e9V2OiTcAniSzSfcBjjNjOjXtidPcS7u/FK6FthP6UOiiCrQ9jA9hzTnrkBFlQp8We77xXhC7dB5x0ImB78XiU7ONe9J7AM5kfmHxC3KaQM0QJVxmCbSdF+S7bppKMmvggXVeaGIo2fXqeLBZnJgqgF2UjuSS7BmndF4OWl2mByfVwYDz5dztJ+ol4zCjCOk8+BdMieZD7RToL9yHjSTZPwBY+pbcXDrIS9+I/iXJSPMUI68UB6CUCSscOZDZkh0CV8KQbirNkXlc0aOAAJ8Jnh5aZcDRC1cL8i/hlhK3hscyawxg862yNlbcIWZxXoxwPGzZc5slP0+rPwbsLViEMEKsSHjL+ikgquc6BxqPRGiriXWvyaU9avF2ECsdzOvPyI7QLLzkh6WnCEwMOWKCzqK08ycrLrlUHgXI8IXIDi3ceT/NKwcJeROPQlrKIyB8WeuuoPunpp5/WMMQQIpxVhlq9Vo4nReUuh3vRs1n32pIf3limzRAJAxGSTYQNHivWBKhHag9Pir6X8QWPdxhv4rSM9+Afoq/ie/ExfS5p6ZfzqOg9Wc/gOcf7zVQrUco1SVgMFK+ZUT4CHVVX8t/YmHfSslj8lYTosp5OvFgoUZ+MV3gZ02Q8SSNSep6HdTn5tEgeLNJZeLvxpJQH1Toj9JyIrKzxoBxPTAGvFheaPB9r3LVXAYwnxpPOQoC5r8yHYhuoeqN6byesSYIxjxB/wqKZc4hgzBzicobMWuVVvfOkLbiyLgDh8YRCMv0BAwrTSQhNN8pHoBnrSj4atXHHeFIbfIhLYTyJ0aiN45ar+tRGuawUhoAhYAgYAnWCAGtfsBiPUecjgFeKldvxejNvmDnhEk5Xt8p35yNYG2+UsF6dzw4PWa+B9UxM+a4N3lgpDAFDwBCoNgJVX4St2gW0/AwBQ8AQMARqG4F4z/raLmljlo7FumzBrvrmLQsmylx0/avvL7HSGwKGgCFgCJRDwDzg5RCy+4aAIWAIGAKGgCFgCBgChoAhYAgYAoZAFRDoxorOVcin07Po1cv2PO500O2FhoAhYAgYAoaAIWAIGAKGgCFgCBgCbUbAFmFrM3T2YIyALfAQo1Ebx8aT2uBDXArjSYxGbRwbT2qDD3EpjCcxGnZchIDVlSJ0uuae8aRrcC96q/GkCJ2uuWch6F2Du73VEDAEDAFDwBAwBAwBQ8AQMAQMAUOgyRAwBbzJGG6fawgYAoaAIWAIGAKGgCFgCBgChoAh0DUImALeNbjbWw0BQ8AQMAQMgRIE2Af6+uuvd1999ZW78cYb3bvvvlty307KI7Dvvvu6jTbayHlfl8vblP9AS2EIGAKGgCFQ9wh0yjZkf/31t+vefdS6B8s+wBAwBAwBQ8AQ6CgEVlhhBdejRw+3yy67uL///tsNHjy4o17VsPmyldfCCy/sbr/9drf++us37HfahxkChoAhYAjULwKjHtG3b7/2Fv+nn35yTz0zwF173Y1u2mmmdhNOOKFm+fXX37jTzjrP3XjzrW7AgGfddNNN6yaeaKL2vs4NHz7M9ezZM8kHQeX00093E0nek0wySXKdgzPPPNONNdZYbooppnA33XSTu//++6UsA9zAgQPda6+95rp16+bYfzOmP//80z3yyCPu3nvvTZ6N77/xxhvuuuuuc19//bWbccYZ3Sij/BtI8M8//7g777xTn+vevbvmS/7NQD/++KMIjuNnfirenAsvvNAtscQSJfdfeukl5cm3336r/Bx11JFGGrA94IAD3JprrqnPvPPOO4o5J9NMM01JPvD0ySefdAsssIAKrbKyv7vvvvvc1FNP7cYfv7RMebwjw++//97dfPPNjnf16tXLjTbaaCXv4eSCCy5wk002mZtgggla3EtfyEr7xx9/aP2gflG2dH2N8wADvGCvvvqq1qVxxhknuQ2mN9xwg3vhhRe0PAjtaSriSTqtnXcOAnk8GTFihHv66afdlVde6Z544gmtG/RZof+46KKL3Oijj+4mn3zyzIJSr0488UT1mNIOWks///yzO/vss7VvpH9M/9GH3nXXXblloP0NGjTIzTXXXCWvph0+9thjbqGFFiq5zgnfS56LLLJIi3udeSHNE3jBuBEwePbZZ93bb7+t/UncBikj33355Ze7WWaZpUVfE77ht99+c2eddZaOE+m+69xzz9UxJvD1o48+0j5m//33d+OOO65ba621QjZN9dsenoAbkQS//PKL6927dy5utBnSjDHGGLlpOuPGN99848Yee+zcV51//vnatmyf92yI0nUlO5VdzUNgyJAhDpnpzTffTP6QTfijjfTv31/vzz777G7MMcfUbBgv9txzT7fccsvpmJDOu1l4kiXjoY/cc889KufRF4W+PWBUJMsWycRgisw3dOhQlU9jebkSubLWeZLGErnh+eefd8js8R+YBvm7SJ5/77333LXXXqv9O7JUFrXlnZXkQ5pHH33Uwc/Qrt566y03xxxzlD7++4g/fHv/Djz0f/68Cy/1O+2+r3/jrSFJfudecIk/+7yL/Lff/+BvuOlW36fv0cm99rxTOguJLhtJIuAQa+ZFKR558b8j6TD8eeedp2fLL7+8FyXdi3XczzfffF6UH31uk0028aI8a5q//vpL7wuT/corr+xFkS7J94QTTtBnpOPRvDbccEN9judXXXVVLwKzX2qppTzv3WGHHf4rReP/DB06LPMjpaP2Sy+9tGIdJxCB1ItC4VdaaSU/6aST+plnntmL4SNJcs0113gRnvR8880317QrrriiF+OOl0rspcNJ0q6zzjrKY1HkvXR2+gd/RIH2ffr0SdLl8Y4EYpzR9KK8eBlo/HjjjedFuE6e5UAUHOX9448/XnI96yQrrSj4XjoCL8q9X3LJJfWbbrnllqzHvXQsXgRDP+uss/q5557bTzvttP7jjz/WtNKBezECeBkg/WKLLebFAORF0WmRTx5PWiS0C52GQBZPaCNinPIyoGpbob1wvNpqqyXlgv8yWCTn6QMRhvz000+vdUKU+PTtsudi7NF+j75xwQUX1HpOPeWcPzFMaR3MK8OBBx7oaXNpEuFN85JQ6vQtL4q333jjjVtc7+wLaZ6IQqRlFuOqfjv9Df2BGCF8GtsffvhB+4u99tort9hffvml5jfllFN6+qiYRJDwF198cXLpiCOO0LGJ+rDtttsm15vtoD08kRB0P91003kxSvrLLrssEzrGa/rWBx54IPN+Z108/PDDC+UEcRJo/y7OgM4qUt29J11X6u4DurjAu+22m8qryBThT6JHtFQ777yzl6gcv9lmm/lVVlklKemxxx7rJbokOU8fNANPsmQ8ZFj0DGRaZFv0h4MPPjiBp0iWLZKJn3rqKR1/GIuRldFdPv/8c823UrmylnmShSX6V6iP/IqRUsdRUar1u4vkeTBHfoYHyMlZdbUt70wYGR1k5cNteMQYFH8D+mVMrj2KcHj2519+VcV6n/37lCjgB/Tp6wc++7ze++jjYX7rHXbzP/38S7uV8PYo4FtssUX8/aq4oTSLJ0Kvi7XZIxR98cUXes4AifALcMOGDdOO6uqrr9Z7r7zyilaIZ555xt9xxx16zC+EkkS+4uHR80b/l9W4wQUhFuMIlTEQQigGjtNOO00v0YEg4AZcubjlllt6Ghg4omCKt0zTIhwjCMs8ST1HEedZsXZpegSvoMgjLIvHyiMkF/GOjFC8JXRR8+SfeN6TRotyQgPmO/grUsCL0vbt21frUijfVlttpcpO8tLoAGWGd1LvxCOnSngoH504Hfx3332nTxx//PHa0DFExZTFk/i+HXc+Alk8WX311bV9iGU7KZB4wbX/uOKKK/RakQIuXjx/xhln+JdfftmL1dWLtzzJpy0Hv/76q9bz0MZCHkVlQKEJRsyQnl/KxgDYr1+/+LIXa7C+46GHHiq53hUnaZ4EBTz05ZSJtrX11ltrf/L++++XFJPzSy65pORafBIUcPoO2nxMaQWce2L1V+NfFp7xs4183FaeUHdpC+J58OJB8RJ5lQmTeKm0/nW1Ak4f///snQWYHEXTgDu4u/54cHc+nODu7m7BPUFCCIQQ3N1dQrAPlwCBIMEJ7kk+3DVo//VWqEnv3Mzs3t3e3e5t1/Pc7Ux3T09PVUtpd5GiXrwv/MCBAzO/ISaOxkC6r0S8NA8Dyy23nIfPzQLmfMYIaxMGE/F2Vb4DQ9awYcOyHtG0zkyTIh4P4RBBUTymFA9isdY1A563iJctxxNvsskmauCjUuYulO0nnniivqNSvrIWaVKES/244B8COYZTeP4ifh6+GL7flK/i7axzPTwH0NJ3Bk0pW8/IkSP1nciIRVCVTdhwt86Cn3/+xYmgoFnTTTf6F9eVWoLu3bs7YYDVRZp2idDo1l9/fXXr5V6YLifEVjcC3Alw+xCLOVlu0UUXdYsssoiTCUrdhKeeeurEZVq0VJqHi3CjgngeOLH0anhAiAPcc4S5dIcccojD/Q6cinU3wat0WCeMuROPAof7Zv/+/bUe6iC8gT5leIVeuPgQCjDXXHO58847T/YbGN0fcQvFxRDXjyLaCdPmRMOrLlXWTuiH+wsgCh+HayguJeWgqKxYtJLwBOphLOCuBIjw5MQio/2I7ydEYuedd1bc4HoslkLtZ5QldEIm5MQNR7wwnCgZHC43EeoLA7LwalgMITTC7CSNX3nllR2upzZ/kkHYwoILLuhwg5bFyIlgp+VxISRcRjTvOmYIj7G+0LdvX7fnnnsm9dKn55tvPoebdUsgrw2nn3669td0nbjWbrPNNuoKFubhaj+7hBGJV0uYXLPXuF4ynzEWxTtH28mYFQ27utezjnTr1i3Be9aHMJ5Fyahu91n5Vh+0JRZclHBJfaeeeqrbY4891CUdFzzmJ8KdDO655x6HizJ5zA1irdJ3WX5n/M2iCfOgKM819pt+x7xPiFwaWOMBEX6VnqLs1f7LHEz4EeuRKFV0Dec9rDvQ2OZraH3CCSc48U5S93HohWsogPs7NCAsiJAMsSLq+qKZwT9CPljnCI0TxYyuAYSP0E94H66/L774YqenY4CSeNnOGIAPg5+g34mwoK6+8B8GuKHT51kv4Kvg1U477TQn3lm6Flm5Rvot4vFwEYcfYx5hHth00011XsBluoiXLccT86wBYWmER9r6X8RX2jO1+luEy7DNIkxraB5rL99exM/Tf0eNGpU8biFGhG0CLX1nUuG/F0X1MJZYN1hLCLUTb4X043pfFQE8s2ZJ1IH872Cm0yjYb95DrUhnwWTzmvCP2IhyAOMi2ikn1kYVtEJG2GL2PvvsM/fRRx9pLHkYG0w+eeK2qTHERmQ6wIcffqj1lnt/Z81n0MBoE5sfAgoNcctQJhEBg0m+Z8+eOrlTDkaU/mIKDnFvTR4nRhtGhwUAQPkBswkw8W200UZ6zT+EGuL7qaeIdggJvAMBHmBiY6CjmAGIw4QREndvvS/6V1SWwQjDRpsRlvhFQALAAWlM1PQn+k/YD7m2QUxfC3dHJsYEoA9HqC8MPP/88zpPInCnYZ999lFloKXDrB9//PEaB8YYEQ24ZsG8M14efvhh3XiKfmD9ij4j2lirQpU+COwmSCQZFV7ktYExw7jOAgRH+ivfCsD0Mb4QfpJ1IevBDkhjDYAhBcSyrXORjS+EWxQgdl+E96ym77rrrkpP1icUL2koqg+hkvkUwfvBBx/UWDLwBy5RMCJsinVAFTHUC52y3pF+Zz3cN4cm4sKvCg7mfoRqFBMIzmkgHxDLn64l4Pfaa6/Va+iD0I7gjOITZS/rE/GC4BVgbRcPLseO6+xjQJ+wMSdWbR1zrFXicad7BGSNDepm/wOUUL1793YoghnX9DvuyUNBjfI3QsRAW2AARS1Git1220336EFhRH8kDaAvH3300cpTw1sxLlAM0z8bFYp4PMY58y5yAX/wueIxqescxro8XrYcTwy+mYfEBd0Ri8/6bfNaEV9Z6zQqwqW1nXkRvLEvCusvUMTPo7xk7mceR5mNIpt+bHtQtfSd1h77LaoHARzZE74d5Sx9ASV6GtpUAJ9kkondF/9aab78V/swSbCRVLoxrb3ngyFW+FdJnSCJZ9mkgAUv3GiHzYdgEpl4yENYC4Gy5CEEYgGHKGi2+WUSCzVX4XONcI0GKAtgdmAqJCZSNzfCssQmU+Juq8VNqE4z52y2hrbvwAMP1E5NYZhRLOUhwJRSBsYIpop2FNEufBbhl0ErLvNqeScPq1elUElZ+ou4EKlGGesHgAUfBo902gqEfY1rLOYotWDU2agLSwnaaDwJgFDrpwnxX81jwJQqKF7KAQI5TDtzC5sTIkgjnNAHGDtYtll86EtWb7k6m5uf1YZydcA0oHhiQxQATxLGGQJprQFrAAs9wHjkexHSDLBqwmC1FO8S763jlPkphErqg64IjngVsQES8wRzCfMclik2dGPTMRjk9NwZvqveriulCesKih3oheUJoQLvD451S3t8YKECYF5ZtwHmXjbfO+qoo3T+lxAErYt8Ns9hbqffGkADlCAILIxJmEIEcxRNKMpYRxDcxcXXHin5ZWMgxj0KamhrAI3Zyb3Jhj1WIP5GDFQJA/Co9FMJc1D+grkEyx5eh0CfPn0c3k2yx4XO3xLvqoYOBEvKHHHEEeotUqXm1EU1RTwecxDWbLxj2LgTuQAv2vR6nOZly/HE0AX+b3bxGkOYw9OH9T+ELL4yzK/F6yJcWnvZiJhvN4UD6UX8PHjAE4F5mzkdXh6jHR4JQEvfqQ8H/4rqgU/AIIgxBOOE7LPgZD+qRLlv1bSpAD7HbLO6l1951UnMq1gQXxaBa4bMnaWtMa393W+//dRdCzc/+ytCkr0PYVDiiHUhxCLLgm/ANUIPQno6jzLsnM2AwD0HbTtlsPrCdKJ1CRdWq7PRfxkY7BzPxI6bOJ0TFyhz8TYBPMQT1h+YHBhXdhQGmNSw/qDhMoDR4gxY3PeY5NA+AUW0s2eZMLFy02cGDx6sLoSWV81f2ofABGNIX8HqEQKLGxD2Q/oZu7rDWGMpx9WeCRhcsRDSZpjJCPWFAayWAP04DXhd4GplwOJrQB8xt0CJadI+wRyG4IEQgBIqC9QrKSujwrSsNlTyKIIKiyKae/o8SjP6c60BwhBu9gDzEzugc5yVAUIWygTm++bg3Z7HIwcFLcqI0IW8kvpYgwzwmAEQ3PEuwLpinlm8Q/bCsKJ1/1spTRgvjAnZxDD5Zq7pc2kGOCkQXMwxxxzJHe9EuQvzRj+FeWJMheOKdd8AehgtSGP9N6jEc8rK8hvn8RAb8botMbD44otrP4engCeDx2LMcAKEAQomQio+/fRT9eaQmGP1/CBMjrFF+F6E0Rhg3gCXrHco+WR/HjUIgiuDLF62iCdGSSL7WqhVF68a1qfNN99clR9WJ7/l+MqwbD1do7SWjZZVzrJ2F/HzhONhgUYRilc03kkI4Bj5KoWsd1b6LOVQzqI4gE9DGMczCwj7AfdtKoBvtOF68uH/cwcf3tM9/NgTbtutNuedNQUs2GjNzQUUjQlb2xvYNYszeUxCCEMAzCyMM3mkwwhBfBgB3NFwGYkCuGFyzC94ZLIPPQ3AJR0VoROmF62sARYB3AFhiNHAGsAgYQ2yevB8ILaPxQMLcSiYF9GO+hiwLDxYHTj+gAmx2tCrVy91W7R6UT4AFq9r6UwueF5Y3yOdScQYRCYWXMU49gmlBd+GB0fsa4bB+vm1mG4URiHgOcOiI7vNJsmMmTQQq4onBAsyiwyadBh+ExR4JvTCMS1wup5K77PaUMmzsqmizpto8hFocUuvN2BeYb7nSLVyeC/6NjxYcOfEuo62HqikvjzcM2+Zyxt1IWzSFxoBQpqYQidUWrEGM5eGwnIeXkyBQT4KTrynUBaxJlEna5SNK8pk0YOxRz2sYQYWemH35X7DdpQrG/MjBlqDAcKW8ETCSGYgm1glrr6Wxi9rEdZclHuEYmCRRLCAD7F45LB8I16joEYRngbzcMvjZYt4YtYGvBtDRR5hiISWIb9Uylem21QP98hV9C+8mUIo4ucxpIVKaIxTKM0J7akE8t5ZybNWBvkPRbsBMiPrh7nQW3pTjs5yWvDbv18fN2fXMVrk6UX679P7GHfaKSe6M0/t6+abd7TA0YKqq/YIzAnCGYILCyyCHh0ZlzEAF2cmJTQnEBJ3NMogFJmbOdoNBgXuZbiCwExhwUBI5DkYXuIzGTRopSKUYgDPACYpXD1hblCAYAUmrhu6YM3B8gDAyBD/AQOPthba8YdrB9bf0P2cOBmeR+tIvVaWzl9EO4RXNtbDisHZ4yhQeJbNE6oJWLDoZ0wo9DlcJcEDyh9cG4kp5BfGDiYdyzbMG66Q9FVwACCMY+lE4cPCR5tpP300Qn1hAGYbbSvaWTk6QzfhQ8ONVQFGCJfYIqDvAsSFseigAMTzg4UZII3+zB+W8XL16UNt8A+FFlYUvJQYZ7jQ1zq8/vrrOg9wljmMEy5lKPwIAyiH93LfBr2pAwsS0Jr6sFpBb9xEH3/8cdW+s9h3RiiiCcpTYuShFcpLNujE06hbt27J/iKGE+ZYwnpeffXVRKFuefxCD8YmjC5eR1jAoZWNq7BseI0SGQsY6z/rE3F/oTUxLMs18z/jslEUJunvj/cdiwHWDTbtxLDBekMYC3tg2EbD1jr6KB5MxIMDCJqUxwuIvTHo9xGcKpZZg1Eygxtc0QkLY5+pIl62iCdmTkOBiFBH+BNzIOFRKEPYYKyIr6x3mpgRink4hCJ+nvkX/prQVmQxwitYF8PNaMO60td578R4AY9eibIJmiMfsgYxt8PrQ0P4hxKwo8Tq6VeQKfzFGBAkw20kR1ONyfF6ZBVHiwHiSqPlKMufMIWalj7vWQQaPYeXMhzRIG6H+jz/ZFHV58jjyKvwqB4huBeGV48PEo2LHoOSPNjJL4qOOBDrnh6bFaKAI2LEYqF0kAncy0Sl2aLE8JyFayCarxKaGe1EUaJ0EAbKiupxZJYf/toZ2Xm0E4El8x3CHCV1cyEWdi2X7n8lhf69ySorzJvnzE1xU9J6ZEB60STrE+LyrmkySeu9COLa9/gOsfB7mTyS13CMmQgB2rc565BjrETJkOTbRRFNrEz8bV8M5NFEtKVeLKs670BT8eTwspAnjWOukUU3uRfFoJd4X73neDrGkGh6vXhV6PnRonHX4/jEIp6c602+jSdxa0vqSl9Y3w3nNsoUtUGUZJnngId1i8eK9nERZsLkDr9O00SYHG2nzSESX+3lpAXPWd/g06AI71aGX1mwtT5R6oXJniNreIcoYDS9qD5RVup5vFaBKPH0WWHyNGnAgAF6rjVzhXhDlKx79kw9/baUJqLI9WJlUNyIAK1nF4ugkPnposTUcowlcC+K9qQcdOYsdmjPuBHlkY5PsRZqmfRYoP9LuJPmwS8IE6jHEcEHCPOdOzYkVE7fId5NXpg1bU84lwvT7UXxnLQrXjTFQLqvNC0RU4owIEajZMxwxCvnGqdBDAJe4r2TZI73g3+TfUe8hAUm6XbRCDSxdTLkB8VDxouRRc+gZm5nnmBcA7b22rpivzan5PHEPAtfyNouykCdI5hTxAhIlh5Tm8dXaoF//9UyTbJwSbPhi8QYF35Gcp3Hz1OAoyhFwar4Yg4XxX/ynF00950cPwzNxJhhVehvVj1ifPXIMsiYPCMKKy+K2JLnuOmC4C0F6gqefWaIbjbTlo0WpGrgv8Xjhu/CDQ1Lpbm8pfPQfGU9F5brbNcjRowUTdyYmLhKvw93Dyy35naH5goLGX9FIH1XY6DZeKo5UES75tTTmrJYV3AVDmM68+pD24aVBDfKNBAbBB7QQGdBS2mSVVdMqw4GytEEzw2sc3k0zWsF3jZ443AkXxbg+YMbXN7GiFnPNCcNbxH6Kpr8eoNyNCn6nnJ4L3o2K68l9eE9RNgMnjAAJ3GgbcdihadMPUJraML30hcJTbLwpDwc4B3F/MomdlnAWs7cW64eexYLOdZvvOGE+dZkPOjw6MLSmAXM41jZw003s8rFtGwMtLavZNfaeKnwYqwfWWPh9ttv1/10zJUa7IiiST0NOWUmDY1OE1z64fGYh5sLaZ44fB65A5fqrBDJcnxlZ6RJET/PnhxYrenT1eB74LVXXHFFtajn8VkhrbimH7Ae44mYBVEAz8JKTGs2Bjrj4G42EmrsgUiTGiOINKez0oQ4Qs4YHzZsWO0hvUyL6p0mCJEo83DxJ3yHjXpQ5BC+Uk6RWQY1HZZdzzQhJA3GjzAS3EVRhBAWgmtkhOpjoJ77SvWxURs1RprUBh3CVkSahNho/jVzOXuCsBdVtaCqMeDValSsJ2IgYiBiIGKgfjBAvBV7G0RofwxglWLfAKwtxBsTE87Zs/UqfLc/Bqv7RnHP1fhMaEEsIPuSROG7ujiOtUUMRAxEDLQnBtjIrZrCN20fpz0/IL4rYiBiIGIgYqDzYSC6z3YsTdnkh78IHY8B3A0lplz/Or41sQURAxEDEQMRA7WIgWgBr0WqxDZFDEQMRAxEDEQMRAxEDEQMRAxEDEQMRAx0Ogx0YQe/evyqrl3nrMdmxzZHDEQMRAxEDEQMRAxEDEQMRAxEDEQMRAw0KAbiJmwNSvhqf3bc4KHaGG19fZEmrcdhtWuINKk2RltfX6RJ63FY7RoiTaqN0c5bX+wrtUfbSJNIk9rDQO21KLqg1x5NYosiBiIGIgYiBiIGIgYiBiIGIgYiBiIGIgY6IQaiAN4JiRo/KWIgYiBiIGIgYiBiIGIgYiBiIGIgYiBioPYwEAXw2qNJbFHEQMRAxEDEQANigPOjb7rpJvfVV1+5W265xb333nsNiIXWffLBBx/sttxyS+d9XW5v07qPj09HDEQMRAxEDNQFBuIxZHVBptjIiIGIgYiBiIHOjoHVV1/dTT755G7vvfd2f//9t3v99dc7+ydX/fs4AmzppZd2d9xxh9tss82qXn+sMGIgYiBiIGIgYqC1GKiKAP7TTz+554a+4J555jm3/bZbu65d59B2/fnnn+6VV19zQyR9vvnmcWuvuUZr25v5PIzKWWed5TbYYAN5z3wlZc4++2y36qqrukUXXdTdeuutbvjw4ZrfpUsXN/HEE+tCveSSS5Y8Q7sfe+wx9/bbb7tu3brpsyUF5AYLxbXXXusOO+ywkqw33njDPfzww26uueZy6667rht77LFL8hvxJo2rd999173yyitNUMH5qSuuuKKmf/311+64445zF110kd7zzIMPPuiWWWaZJufd3n///e7TTz91u+++uzKtTzzxhHvrrbfcJpts4maaaaaS9xTR5/vvv3f33HOPm2CCCbQvTTjhhCXPckN71ltvPTfbbLM1yUsnZJX9448/3AMPPOBGjBjhYLbT/TWsAxzQHvoq75xuuumSbHB699136/fSz2aZZZYkL17UHwZ+//13mT+fcfRdYMMNN3SLL7640p77Sy65xC233HJukUUW4bYJ0K9OO+00N8MMM+g4aFKgTMLPP//sLr744txS9NXnn38+tw1PPvmk++yzz9zWW29dUsd9992nfR2BMg1PPfWUzgP7779/OqtD76HFeeedl7SBOXyKKaZw66+/fskYpADf/eijj7q99tqryVxjFfz222/uggsu0Llt2WWXtWT9Pf/8890qq6ziFl54Yb1nDevRo4euG5deeqmspV1LyjfqTXNoMvPMM7ttttnGDRs2rFAAZ8yMGjXKTTbZZB2K1m+++cZNPfXUuW248MILdZ4/4IADcsvEjIiBlmLgnXfeaaLoY55iHDFGrrvuOvfDDz+43XbbTedB3sN6ceihh7ozzzzTTTLJJC19dad7DrkBvi0N//nPfxKesYgHLcor4gcrkVnSbWqU+0po8vLLLzs5EUzXYXgdeG6gaGyQ32qajPr9D9/av8N79vIXXHy537P7wf6Nt95J6rvo0it8v1PP9D2O6+PvuOu/SXpr38fRaSEIg4Ovmb/xxhvDZL0WYcoL86PXq622mp9qqqm8aMf9Yost5qeZZhp9TphG/88//2iZv/76S/NlUvFrrbWWH2eccZrUK5OPX2mllfT58IX9+vXT+kTg1/dsscUWYXanvh4+fETm92XhCnqIMJn8TTvttIo3EZiTOq6//novjKneb7fddn688cbza6yxhp9yyin9Agss4GVhSMpuvPHGSuNvv/3WTz/99PoHDcYdd1wvzGxSrog+opzR8ksssYSff/75/aSTTuqFuU6e5eKUU07Rdg4aNKgkPesmq6wI+F4EJC9MtV9hhRX0mwYMGJD1uJeJ2I8//vh+3nnn9cKcexGw/SeffKJlRRmhuBPG0ctC6ccaaywvgk6TevJo0qRgTGg3DGTRhDGy/PLLexH0dF5hbuFaFCtJu6C/KHSS+/SFCLFelEKePnHNNdeks8vey0Ki8x5zoygktZ/TT7nn77bbbtM+mNeGww8/3DPm0nD11VdrXeJKnc7yokzzW221VZP09k5I00QEIm3znHPOqd/OfMN8IAq5JrgVxlTnCxGOcpv95Zdfan0zzjijZ44KQQR7L4J2knTsscfq2kR/2GWXXZL0RrtoDU3EBd3POuusXjwJ/BVXXJGJOtZ75lZRhmbmt1fiMccc40VxnPu61157Tef3e++9N7dMo2ek+0qj46O537/vvvt6+OSQJxPvEa1GFIteBBK/7bbb+rXXXjup+qSTTvLiXZLcpy8alSbIDCEeJ5poIp37b7jhBkVREQ9alFfED1Yis/DySJPRMkeaJjvttJNH3qN/i1HWb7/99kl3Lhob1aCJa60wzPM///KrCtcHHdqjRAC3dITzWhHAQ+SCZYRB0XZ4sUQo0kXb7GGKRSELowAAQABJREFUvvjiC71ngYT5pZMDTz/9tIcxQ+BHgDcQi6ZOYqIt1CSx8GoZyjcCZA3uPFyl8XHZZZepMCpaqCRrhx128ExICJsImGIt0zyYYxhhiZPUewRxmOP3339fy8N4iTZQ8xBEGFAwyeXog+AtrovJ+8USlSwwCCcsNtCcvyIBvKisWPS1L1n7dtxxRxV2kpcGFwgzvJN+J9YfFcKtfSgkUFp89913+sTJJ5+szCaKqBCyaBLmx+v2x0AWTcS7QecS8c5JGiSWcJ2XrrrqKk0rEsB/+eUXLx5AnvEj1lgv1vKknpZc/Prrr9rPbYxZHUVtQKAxJaaV55e2oRTo3bt3mOzFQ0Xf8dBDD5Wkd8RNmiYmgN95551JcxhbLNTMJx988EGSzgX3zGF5YAI4cwdjPoS0AE7e0KFDVfmXhc/w2c583VKa0HcZCy+99JIXy4cXr45MNInXnPa/jhbAmeOLBPDnnnvODxw4MPMbYuJoDKT7SsRL8zAgnlUePjcLmPMZI6xNGEHE21X5DgxZ4mGS9YimRZqMRg0COcY++NQiHrQoj5qK+MFyMsvoljSuAG7fb78hTV599VXlswYPHqzZ4lWq68KHH36o90Vjoxo0qcombGIlFt6iKeSlNy3ZcSndu3dX915zvxShscTVUJgudaF88803tZG4Eor1Ul1vwlbLgq9ug+aCics77qK4Gzcq5OEqxIdMPOrGLwy6k4lKs6TnO2HM3TrrrONw3+zfv7/inEyxgDsRPt0LL7ygZaGXWL2dKEXU7R/XUet388wzjxMBQN3Ri+gjTJsTDa8LXWHnnntuJ4ywvgPXlI8//lhdTTWh4F9RWbFoObFkJO3DjYvwCQAXGLHIOJkQdPMg3JF33nln7VOy8DmxFCZ9Sawi6l6PWywgnhbqIiZKCL2P/+oHA2IRdYRQ4MonzE7S8JVXXtnhekpfN3jkkUfcggsuqKEzsog4Eew0Czcp+pV4+OiYEU8gZ32hb9++bs8997QqtE8T9oBLb0sgrw2nn3669td0naJtVndgsQCUZIlyzM0+++xOvFpK0mv1hrAU5jPGonjnaDMZs2uuuaZbaqmlHOsI4UqG96zvYDzjzknoSBZYfdAWNzhZ4JP6Tj31VLfHHntoaAIun8xPd911V1INoSq4OZJH6I1o8/VdSYFOeJFFE1xlRXmurue4oTPvEyKXBsIJAMKWoKcoe7X/Mgfj9i/eRk6UKrqG8x7WHWhs8zW0PuGEE9RlkT4OvSy8jY30oAGx/AsttJCGJ7C+pOHcc8/VdY7QOFHM6BogimBtB+8T7xH34osvdno6pvES79sPA6Lkc/AT9DvCAnGBhv8yIDyDPs96AV9FOA6hToS9sRZFyMeAeN9oSBnzi3hj6lwE/rJkhCL+FHoU8YPlZJb8FjZeTpomhJLiom6hr/DkAH2+aGxUiyZVEcBrhYwsmMQahn/EsJQDGBdijMXaqIJWyAgTBwMQ3whAQJhH0QDqvf376KOPNP6SgWbAs/acpTXSbx6uQhz07NnTiWumO/LII5NkGFFiMEyJIe6tSZ64wiqjwwIAoOCA2QQQRDfaaCO95h9CDXHl1FNEHxgo3kHcPoBgw6RJ3DVAPC6MUDp+UzNT/4rKwtgR60mbEZb4RUACWOhIQ6imzxCbGPZDrj///HMty54F4e7IphyiD0eoLwwQV81kjsCdhn322UeVgZaOUur44493N998szLrJ554ombBvDNe2HuCjafoB9av6DMjR460KjR2D4HdBIkko8KLvDYwZlCmZQGCI/2VbwVY2BhfCD8Wa5X1XEeksQbAkAJi2VY82/hCuIXptPsivGe1fdddd1V6sj6heElDUX0IlcynCN7shSFu8Yo/cMl+FwibKDBRxADQKesd6XfWw31zaCIu/KrgYO5HqEYxgeCcBvIBsfypMAF+2dOFdQX6ILQT14/iE2Uv6xR7eoBXQCwk7owzznDsuI5ChT5hY06s2jrmWKvE485deeWVmWODutnTBCUUCmgUwax99DvuySM+HOVvhIiBtsAACkOMFMR3S9iLKozoj6QB9OWjjz5axwS8FeMCxTD9M0I+BhjL8JTEyZuioogHLcorxw8yP4S8YlpmyW9lY+Vk0QQlKcpU+CTmangucTtXWaBobFSLJuN0JhIgbIPk5gKdl2d//PFHXfDYnM2AjbhgEk2LjjY8C1goEeRCoB57LkxvlOs8XNn3gzOJgVaNKppBAxOq08w5lsJdxIp84IEHqsWB8jCjJojY8zClxhjBkNKOSunDwIIJk/ACtbxTJ1avSqGSsvQJNG8wdlg/EPSx4MPgAbbzcdifuEY7h7AGo47lDYsaFhZ7DqE9Qn1hwJQq5s1Q1HoWB5h2gM26EKQRTrBI4G1DHVgq6EtWb1F9LcnLakO5eiSGXBVPWMERKti0jHGGQFprwBoA0wQwrjgKDCUeig2ABRvBtqV4Z2M1GDLmMJQQBpXUB11NcMRbB8GPuYRf5k82dEMBjJCeZ2W399XTb6U0QYgGpwi8m266qX4ilmwE48svv9zJnhrJZ2PpBlCK2gZozMls2gowfiQEQRW6XKPwYG6n3xpAA5RIAIpXmGgEcxRN4B9PBv7YiJB5Ow1smMiYxdodjllozDgBxP08/Vi8jxioGgYQtOmjRx11lAoi8Et4b+B12KdPH/1DOQzvgQCOUImhgw1hKcMmVIwDxk6EMRhg3QBnofKviActl0fNefwgzxbJLGNa1dhXWTQxjLCO4m0I38/msChBi8YGx1wCraVJp7KA77fffuquhZuf/VUiEKFBkjhitWpDBBZ8A65ZPEMNk+WFv+nnyGNXbdNGhWXj9WgM4EkAw4ggGYIJ4GEa1h+YHBjXc845R7NgjLD+4KppgADC4Lha3PcQ2HENBCqhD7veY+Wmz0hMiDLbVm81f2mfxPbqeb/gAKtHCCxuQNgP6Uvs6I5SAks5rvYIYOCKhZA2w0xGqC8MWNgF/TgNeF3gmmYwu7hsG9BHzC0QJog+wRyG4IEQgBIqC7IEgaxyeWlZbcgrG6YjqGC5x/JOnye8JH1CQVi+o67xbMLNHsCtXmJwE+GbNIQsvFhwx2wO3nkWQJjH9RhlROhCXkl94RqExwyA4I53AQoY877iHbIXhuZ3hn+V0oTxwpiQTQyTz+aaPleJQmqOOeZInuOdKHdhyOin7EzPmArHVbi2Qw+jBZWgdDKoxHPKyvIb5/EQG/G6LTHASRv0c9YP2WtHeSzGzJAhQ5LXYhFHKOekGZRbnE6DgQO3aMZWVnhF8nCDXqBolc2BS/j/Ih60KK8cP5h+tlKZpdFIk0UTwwFKa5SvhGDgMYi8UTQ2qkWTTiWAGzKb88uCjdbcXEDR5EEEA7sOF2fLC395jgkKQQmA0YWpLvdcWEejXd9+++2qTTVmku9n8oDpRStrgEUAd0AYYtld3JJ14SAe37R/eD8Q28fiwXFOoWBejj7EP7HwYOkgJsSsIsnLqnDRq1cvdVu0qohRB9Jxo0yoeF5Y36MMLo7Wl7CwYPl+9tln1ZrIt+HBgRUlQn1hAGso/ReFUQjsfcACLrvNJskwSGnAwocCa/PNN9fQDKyAMPwmKPAMdRkQn9oayGpDJfXJpoo6N2IZxJqMW3q9AfMKczox3+XwXvRteLBgTcKbwDykKqkvD/fMW8xfFm6FsGnxyEXt6Ax5IU1MoRMqrfAyYi4NheW87zYFBvkoOHFJR1nEmkSdrOk2riiTRQ/GHvWwhhlY6IXdl/sN21GubMyPGGgNBghbwhOJY6wMZHPXxG3a0vhlLWJPJJR7hGJg3SXkAz7E9iMJyzfqNXIAOMGtP4QiHrQorxw/yLMhr2jXxi+GbWjU6zyaoHzCqxDlKYC3LP0bnrxobFSLJlV1Qe/fr08mfXffdafM9I5IhDlBOAPhMKNoOtB4yI6/2hxcnHFBJp4cxgbXHIRBEF4ExCEjtOGOg8sb7otsCBPGJBc934h5CJVp7SnuqVhzsDwAMDK4PcG0opGyc5KJG8f6iyXNgLgknkdLC9NkZYkBL6IPjCsbY6AI4Fx3LCkAbp22OYO9ozW/WLAOOeQQ3VAOhpD4Q6yWKH9wbWTzLNnhXGPi+V4s2ygEmDxgBrkHwBvtBDe4xHJN+8v10da0PT7bNhiA2UYzS/wR/Y9fznjHnRhGyFxi895uQpccnafWVVwI8fxASASwhjIe6NO4uparL+89rU1nbsSKgpcS34kLfa0DoSC4COOKhncMCkAUfizYeBkAeXgv922c647yxWLxy9GxqD48g1BocE408yl9p7WeDkXv68i8IpogHGPJQGHLfh4ow/E06tatm87lYbsRnnEfZNNL9oBJA/RgbLLfBl5HWMChFQr7ImA+xppIWBQu7+wngJIg6x3Uw/xPX2oUhUkR7mJe+2OA+Qu+A68LeFc8c+izFtZmLaKP4sHEPAjgCcX6hBcQe2PQ7yOMxoAJwMwdIRTxoFhU8+QH5qoifrClMkvYts5+nUcTZA32CWGTU3gT5EDWBPj0orFRNZpU4xiy9q7j8ZxzwNPH5ggTokdWsU0/IK40BGIlf9LhNS193rMINHoOL2XZhl7cDvX58J9YrPQoqDBNBEJPnTzHcVhZ7QnLd6bromMnsnAlAqfiKX2kF+dOchaugWgRE3qFtJNJR3HNMQIGwsxklrUzsvPoIwJL5nPUF4JY2LVcuv+FZew6q6wwb55zBcW9UesRIdyLJlkf4RgEvk+Ear0HP/Q90sRC6mUna6taj1kTIUD7NmeFc4yVMJtJvl0U0cTKxN/2xUAeTcQt2YvQrPMONBVPDi/CdNI45hNhipJ7UQz6VVZZRe85nk6YID0mRrwq9PxoERy1n4hFPDnXW8IUvI0nESqTutIX1nfT81dRG0RJlnkOeFi3aJu1P4swEyZ3+HWaJhLjre20+UYUcV5OWvCc9Q0+DYrwbmX4FeuQ1icKwTDZC7Or6aKA0fSi+iQuXc/jtQrEwqLPCgOsSbKXhp5rzVwh3hAl6549U0+/LaWJhPN4UWwobkSA1rNd7bjG9PdLuIaWYyyBe1G0J0WgM2exQ3vGjSiPdHyKtVDLpMcC/Z/zkgH4BRHCvQj4enykCN+5Y0NC5fQdYq3SI07pc+FcLsp8L4pnrTf+y8ZAuq9kl4qpeRjgCEUbMxzxKl6GTYqKAOiPOOKIJJ3j/cTjxMuJGl7CApN0u2hkmrCWiwHJUFHym8eDUqgor4gf5NlKZJZIk2yacNSr9X/m+lD+KBob1aBJF4RnmfTrCp59ZogT5rNN24w7M5somK9/pS9DCy+Eqcn4xkq/oSXlRowYKXHyo3eMb8nz9gzeCFjI+CsCmXM0BpojlZoDtUAfrCu4CocxnXnfgGsXVhLcKNOAZQ48oIHOgmrRJKvumNYyDJSjCZ4baFfzaJr3Vjbgw+OGI/myAM8frLnlNkbMeraSNDYuoa+ya269QTmaFH1PObwXPZuV15L62EOCsBk8YQA8KPCwwWJlm5FlvauW01pDE76LvkhoB39FgJWc+RVvpyzAwsfcW64eexYLOdZvQqZESNdkPOjw6MLSmAXM41jZww19ssrFtGwMtLavZNfaeKl42rF+ZI0FwgXZT4c1xEAUTeppiIdhGiJN0hgZc1/EgxblUUMRP1hOZok0GUODrCtOcaH/s59SGorGRmtoEgXwNKbjfYswEAd3i9DWpg9FmrQpeltUeWelCXGEQ4cOdcOGDWsRXjryoXqnCUIkyjxc/HGp4/grFDnEHpdTZHYk3oveXc80IeyM8DbCAXCZRxFCWAiu6RGqj4F67ivVx0Zt1BhpUht0CFsRaRJiozaux6qNZsRWRAxEDEQMRAzUKwYuuOAC3XimXttfz+3GKsXO7Vi9iTcmJlxCe+pW+K5nWtB2cc/VzaqgBfsusC9JFL7rnaqx/REDEQMRA9XFQFU3Yatu02JtEQMRAxEDEQP1gIHoPtuxVGKTr7yNvjq2ZY33djY+lJhy/Wu8r49fHDEQMRAxEDFQCQaiBbwSLMUyEQMRAxEDEQMRAxEDEQMRAxEDEQMRAxEDEQOtxEAXdnRuZR0d8njXrvHM4w5BfHxpxEDEQMRAxEDEQMRAxEDEQMRAxEDEQMRAizAQN2FrEdriQ2kMxA0e0hjp+PtIk46nQboFkSZpjHT8faRJx9Mg3YJIkzRG4n0eBmJfycNMx6VHmnQc7vPeHGmSh5mOS48u6B2H+/jmiIGIgYiBiIGIgYiBiIGIgYiBiIGIgYiBBsJAFMAbiNjxUyMGIgYiBiIGIgYiBiIGIgYiBiIGIgYiBjoOA1EA7zjcxzdHDEQMRAxEDEQMJBjg/OibbrrJffXVV+6WW25x7733XpIXLyrDwMEHH+y23HJL531dbm9T2UfGUhEDEQMRAxEDdY2BdjmG7J9//nFjjRVl/bruKbHxEQMRAxEDEQNtioHVV1/dTT755G7vvfd2f//9t3v99dfb9H2dsXKOAFt66aXdHXfc4TbbbLPO+InxmyIGIgYiBiIG6hwDYx973HG9W/sNP/30kxv89BB3w423uFlmnslNOeWUWuUnw0doGunD3njTTT/9dG6qqUbnteadI0eOcLPPPntSBYzKmWeeKXVP5aaZZpoknYuzzz7bTTjhhG6GGWZwt956q7v//vvdkCFD3DPPPONee+0116VLF8e5nSH8+eef7pFHHnH33ntv8myYzzUWiosvvtgtv/zyJVl56SWFOuHNjz/+KIzjZJlfloeT999/391www1u/PHHV/qED3/99dfusMMOcxtssIEmv/vuu+7GG2/U65lnnjksqjR98skn3RJLLKFMq+zs7+677z4300wzuckmK23TG2+8ofVQ/5xzzlmiGPr+++/dbbfd5nhX165d3bjjjlvyHm4uuugiN91007kpppiiSV46IavsH3/8of2K/kXb0v01rIM2YgV79dVXtY9OPPHESTY4vfnmm90LL7yg7YFpT0MRTdJl4337YCCPJr///rt76qmn3DXXXOOeeOIJ7RvMWcxPwCWXXOLGG288mUOnz2wo/eqUU05RiynjoLnw888/u3PPPVfnRubH9B9z6N13353bBsbfs88+6xZaaKGSVzMOH3vsMbfUUkuVpHPD91LnMsss0ySvPRPSNIEWrBuGg+eee869/fbbOp+EY5A28t1XXnmlm2eeeZrMNfYNv/32mzvnnHN0rknPXeeff76uMUbXjz/+WOeYQw891E0yySRuww03tGoa6rc1NAFveBL88ssvbpVVVsnFG2OGMqw/HQnffPONm2iiiXKbcOGFF+rYiue8Z6Mo3VeyS8XUPAy88847Dp7pzTffTP7gTfhjjFx99dWaP//887sJJphAq2G92H///d2qq66qa0K67kahSRaPh8Fx0KBB7qGHHnKzzTabS68ZRTxoUV4RP1iJzBJpkk0T6HXXXXcpXz7OOOMor218F/26LWniRv3+h2/t3+E9e/kLLr7c79n9YP/GW+8k9fU79Uw/YOBd/udffvW3DLjD9z3l9CSvNe+UyUK8y8aAMDj4mnkR0MYk/nslE4a/4IIL9G611VbzIqR70Y77xRZbzIvwo89tvfXWXoigZf766y/Nl0Xcr7XWWl4I0qRemXz8SiutpM+HL8xLD8t01uvhw0dkfloeTo488kgvjI9fc801vUz0XiwVJc9ff/31XpgnTdtuu+28CB9+jTXW8KLc8QsssICXhSEpv/HGGyuNv/32Wy+MrP7JwuBFgPY9evRIyvXr10/pTR79YIsttkjyRDmj5UV48bLQ+EknndQLc53kcyECjj4vk2tJetZNVlkR8L0IVV6Ee7/CCivoNw0YMCDrcS+DXvEz77zz+oUXXtjPMsss/pNPPtGyoiDwogRQvC277LJevEu8CDpN6smjSZOCMaHdMJBFE8aIKPL82GOPrfMKcwvX6667btIu6C+LfXKfvhBmyMtir31ChPh0dtl7Wdx13mNuXHLJJbWf00+5508UU9oH89pw+OGHe8ZVGoR507rElTqd5UXw9ltttVWT9PZOSNNEBCJtsyjo9NuZb5gPRAnh07j94YcfdL444IADcpv95Zdfan0zzjijZ44KQRR5/tJLL02Sjj32WF2b6A+77LJLkt5oF62hibig+1lnndWLUtJfccUVmahjvWdufeCBBzLz2yvxmGOO8bvvvnvu68RIoPO7GANyyzR6RrqvNDo+mvv9++67r4dPhqewP/Ee0Wr22msvL145ftttt/Vrr712UvVJJ53UhGdLMuWiEWiSxeMhP8w333yeuR7+Fb71uuuuS1BTxIMW5RXxg5XILDQg0qQpTVgH1llnHS8Ct19xxRV1HITzcVvTpCoCOAI2AvVBh/ZIBPBffxvlB971X//td99r3quvv+EPPeKYDhfAt99++2QwcIFwDvLFEqHpom32MEVffPGF3rNAwvzSyYGnn37aw5gh8CPAG+SlW35n/80a3Hk4+e6777xoBRPmSLwRFJ9vvfVWgqYddtjB0/kRNhEwxVqmeTDHMMISJ6n3COIwx2JN1/IwXqIN1DyYZd4DkzxixAgdXDYZvvLKK/pO2gggeIvrol7zTyzvyQKDcIKCAJrzVySAF5U97rjjtC9Z+3bccUcVdpKXBhcIM7yTficWORXCrX0oJKaddloPHoGTTz5ZmU0UUSFk0STMj9ftj4Esmqy33no6lwwfPjxpkFjBdV666qqrNK1IABcrnj/rrLP8yy+/7B999FEv1vKknpZc/Prrr9rPbYxZHUVtYCEzJaaV55e2oWDr3bt3mOwZ64wlsRKUpHfETZomJoDfeeedSXMYWzvttJPOJx988EGSzgX3l112WUlaeGMCON/LmA8hLYCTN3ToUFX+ZeEzfLYzX7eUJvRdxsJLL73kxfPCi5daJprEa077X0cL4MzxIcOXbqx4X/iBAwemk+N9gIF0Xwmy4mUFGFhuueU8fG4WMOczRlibECbF21X5DgwYw4YNy3pE0zozTYp4vNtvv13xRBlAPJn8IossotdFPGhRHg8X8YPlZBZ9ufyLNGlKE9Z41mVb65E3kAfFM6+szFANmlQlMBuzfRqI+V5vnbXUtUpo7x586BH3n2WWTBfr8Pvu3bs7YYDVnZzGiEDm1l9/fXXr5V6YLieDQ11zuBeB3Yn1Ul3euTfIS7f8RvzNwwn9YdSoUQlKzAUQt2qAfNx3RDPlcN/s37+/4pw8whtE+FTXa+6hF+6buJPPNddc7rzzznPWH3ELxcVQmH0nDJkTq6ITbwcec4suuqiTidHJ4uKEaXOi4VWXKs2Uf3PPPbcTRlhvcc/CNVSEG8vO/S0qKxatxM2FCsTyqS7zXIvw5MQio+7mfD8hEjvvvLO2WRY+J5ZCbStlCZ3YZJNNEjd4seQ7UTI4XPoj1BcGxCKqIRSE0AizkzR+5ZVXdrie0tcNCFtYcMEF1aVNvHOcCHaahQsh4TLi4aNjhlAN6wt9+/Z1e+65p1WhfVo09A4365ZAXhtOP/107a/pOnGt3WabbTTUJMzD1X52CSMSr5YwuWavcb1kPmMsineOtpMxKx486l7POtKtW7cE71kfwngWBaC63WflW33QllhwWeCT+k499VS3xx57qEs6LtbMT7jNGdxzzz0OF2XymBvEWqXvsvzO+JtFE+ZBUZ5r7Df9jnmfELk0sMYDIvwqPUXZq/2XOZjwI/E2cqJU0TWC97DuQGPC3QBofcIJJzjxTlIeB3qJkKJ5uL9DA8KCCMkQK6KuL5oZ/CPkg3WO0DhRzOgaQPgI/YT34fr74osvdno6BiiJl+2MAVHyKT9BvxOjhLrbwn8Y4IZOn2e9gK+ChzrttNOceGfpWmTlGum3iMcjjDEE1gtbp4t40KK8cvxgOZklbE9nvW4pTQjvnHrqqZNQV9ZV5AJCO9uDJlURwMsR9a67/6uC0PrrrVuuaKvyWTDZvCb8I4alHMC4EPcr1kYVtEJG2GL2PvvsM61GXNo0TpN48xDy0sMyjXadhxOYCxge6ASzCaMploAknh5GlBgME5LFvTVBHTHaMDosAAACNMwmgCC60UYb6TX/EGqI76eejz76SOPMw7huaAtdERJ4BwI8wIQJk41iBiAOE0ZI3L31vuhfUVkYOxg22oywxC8CEsBCRxqx5bQJBUXYD7n+/PPPtay4CJfsjkzsFkAfjlBfGHj++edV4YTAnYZ99tlHlYGWDrN+/PHHa+w/Y+TEE0/ULJh3xsvDDz+sG0/RD6xf0WdGjhxpVajSB4HdBIkko8KLvDYwZlBUZgGCI7t5860ATB/jC+GHdtcSsAag4ALEsq1CkY0vhFsUIHZfhPesb9p1112Vnsx7KF7SUFQfQiXzKQzCgw8+6MQtXvEHLlEwImxKWJUqYqgXOmW9I/3OerhvDk3EhV8VHMz9rDEoJhCc00A+IJY/XUvA77XXXqvX0AehHcEZxSfMWM+ePTU2H7wCH374oTvjjDMcO66zjwF9wsYcaxljjrVKPO50j4CssUHd7H+AEqp3796qCGZc0++4J4/4cJS/ESIG2gIDKGoxUuy2227Kf6Ewoj+SBtCXjz76aOXV4K0YFyiG6Z+NCkU83uabb+4khEwVb/C17CVi80IRD1qUV44fZH4IecW0zNIIdGopTeClUZqY8Q++m7kdHqo9aDJOWxNn0ONPuqEvvOyOPPxg0aCN3aavQ9jGmtlcoPPyLJsUsOCFmyaw+RBMomnR0YZnQV56VtlGScvDCbhkAzE0T2xSQYdHqMZyIC7kiVCdZs7ZQA8r8oEHHqgWIvAIM2qCiOEVptQYIyyDtAO6pje6gc5GV3uWyQ7hns3RsLwDaDErhUrK8k6+G8YO6weCPhZ8NvQAbOfjsL1cYzFHGwqjjuUNSwkLpj0XehVU2t5YrmMxYEoVFC/lAIEcph1gc0IEaYQTLBJobakDSwV9yeotV2dz87PaUK4OiSFXxRMbLiJU4EnCOEMgrTVgDWADNIBxxSaIKPHYURvAqolg21K8S7y3CvHMYWZJp95K6oOuJjiyARKCH3MJv1im2NANBSNCOmmdBSqlCUI0OGVTvE033VQ/H0s2DPDll19estkalm4ApSjrEMCcDMMMMH7ELVEVulyj8GBup98aQAOUSAAMIAwbaxmKJvCPcpk/NiIMrYr2PJssMmZRSIdjFhozTgBxP7fi8TdioOoYQNCmjx511FHq1QG/hPcGvE+fPn30D+UwvAcCOIYKDB1sREsZcbVWz0HGTqNAEY/HZp0oNRCC4WUx3GBJRcFRxIOWywO3efxgOZmlEejSUppgvGP+Z/6Gr0Zhy5jA87Y9aNKmFvCXXn7FPfDgI+7gA7vn7pBdzc6x3377qbsWbn72V0QYezcaJIkj1l3UcflkwTfgmsUz1DBZXvxtGQaY5HF3glHBawHrAQI4Oz0DoVXb3oD1h0EC48qOwgCMEdYfNI0GCCCcAYv7HgI7roFAmq6kofkybSH3TJ5YuekzgwcPVmab9GoD7ZPYXj3vF1dcrB4hsLgBYT+krezqjlICSzmu9ghg4IqFkDbDTEaoLwxgtQTox2mwxdvSZxeXbQP6iLkFwgTRJ5jDEDwQAlBCZUGWIJBVLi8tqw15ZcN0BBWUblje6fOEl9Cfaw3wbMLNHsCtnh3QTfgmDSELLxbcMZuDd54FEOZxPUYZEbqQV1JfuAbhMQMguONdgALGvHt4B8xfZ4FKacJ4YUxggTLgmj5XiUJqjjnmsMeUF0C5iyKWfiqbeeqYCsdVuHZAD6MFlaB0MqjEc8rK8hvn8RAb8botMbD44ourEYP1g7BReCzGDCdAGGARRyj/9NNPVbkle9mogYMwOcYW4XsRRmOAUCHmX8IXWedQoBG6BL9bxIMW5ZXjB9PPRpmltDcW0YR1F6EbHEIv5m28PlCIpvFKrSYzVIsmbSqA33Tr7e4H0dCfdMrp7qDDeujfK6+Odu8rRVHH3bFgozU3F1A0eWw7b2DX4eJsefG3ZRhA0A2ZRIRHmFpc75g8YHrRyhpgEcAdEIaYo5YMYJCIxzePBbwfiO1j8eAop1Awh64sIAwgAEEEocfoygTJwoOlg2OTzCpi76rGb69evdRt0eoiRh2weF1LZ+DjeWF9j3SUFNZWFBdYvjn2CWsi34YHB5NGhPrCgMV0ozAKAQ2s7O7vZLfZJBkGKQ1Y+PCEwPUNJRZWQBh+ExR4hroM8DJpDWS1oZL6ZFNFHXtYBhFocUuvN2BeYc7gSLVyeC/6NjTtWJPwJjAPnErqy8M98xbzl4VbIWzSFxoBQpqYQgeLkwFeRsylobBseelfU2CQjoITl3SYMtYk6mTNsHFFmSx6MPaohzXMwEIv7L7cb9iOcmVjfsRAazBA2BKeSBxjZSCbu2bGd7MWsScSyj1CMQjtIOQDPsTinK2ORv2Ft5VN7ZLPJ7Yeowm8bREPWpRXjh/k2ZBXtGvjF5PGNOhFEU2QCVBgYxREgYu3FGsGvHR70KSqLuj9+/UpIfFp/U4sua+FG5gThDO01TCjWFaJ15Idf7V5uDjjgoxlFsYG1xyEQQZBhOpgAG0rG9igGcQ1B0v1448/rppYBEqsOVgeABgZ3J5gWtHWQjtAjnlQ6y+WNAPikngeF0SYJitLDLi5muA2yCDDvZQNe2CEYVzZnA0rBmePMxAB3DrlaAKrvtW/WLAOOeQQVRrAEBJ/iNUS5Q+ujWyeJTuc67fxvVi2UQgwScAMcg8gjNNOcINLLNe0P/bRVpOo3SuA2cYtmVhR+h+/xCPhTgwjZC6xeQ0zoYszWlFqsZAwnuzcbdIYD/RpXF3L1Zf3ntamo9DCioKXEt+JC32tA6EguAjjksYijgIQhR9hAHgZAHl4L/dtePugfLFY/HJ0LKoPqxUKDTkKTa1R9J3WejoUva8j84pognCM+z0KW/bzQNmKp1G3bt10Lg/bjfCMSyeb8GSdrw09GJvECMJAYwGHVijsi4D5mPWNsCg2F2U/AZQEWe+gHuZ/C8EqqjfmRQy0BQaYv+A78LqAN8Izhz5rYW32TvooHkzMgwCeUKxPeAGxNwb9PoLTsQ8OWccR4DC6sEkwczRzMutgFg+KRTUvj7mqiB+MMktxz2M+zqMJawTGPdZ4cEw4H6GceKnCp7Q5TVpzHndHPSvCmvTlMSAWHt1KPn1sDiU4sopt+gFxpdFyQi79FeRqWvq8ZxFo9BxeynFEg7gd6vPhP7FY6VFQYRrXeenpcp3tvuiIgyyccFSMMEC65b8Iul4Yc0WJDAbPWbgGIqCX0MxoJ5OOh37CQFlRPY7M8sNfOyNb3LX1GfJEi5scZSYCS+Y7hDlK6uaCI254Nt3/Sgr9e5NVVpg3z5mbHOFBPSKEJ8cwicu7polQrTWIQK59j3IcpSY7WSev4RgzEQK0b3OWOsdYyUSS5NtFEU2sTPxtXwzk0UTckr0IzTrvQFPx5PAiTCeNo78KU5Tci2LQryLnjAIcTydMkB5/Il4Ven60CI56HJ9YxJNzvcXTxNt4kgVHn836Z303PZ8WtUGUZJnngIf1i8eK9nERZsLkDr9O00RivLWdjD3+mJ+EifKc9Q0+DYrwbmX4FeuQ1iMKwTDZC1Og6XYOeFF9HGfDebwGYnXSZ4UB1qQBAwboudbMFeINUbLu2TP19NtSmkg4jxfFhuJGBGg9u9iOa0x/v4RraDnGErgXRXtSBDpzFju0Z9yI8kjHp1gLtUx6LND/jT7wC8L06fomnl1ehO/csSGhcvoOsVbpEaf0t3AuF2WxF8Vz0q540RQD6b7StERMKcKAGJuSMQO/zPnWaRDhxB9xxBFJMsf7iceJnnktYYFJul00Ak1snQz5QTH8JEfWiuJOjxe1M9XBTR4PWi6viB/k2UpklkgTp/IGx0eHNBFDoBdDheYxX3N8pUERvapBky4I0TLp1xU8+8wQJ8xnm7ZZBpduPGG+/m36sk5Q+YgRIyVOfuZmfYl5IaAhtA3b8EZA88RfEcgA0RhojlRqDmAlwdps7orNebZaZbGu4CocxnTm1Y1rF1YS3CjTgNYOPKCBzoKW0CSrnphWPQyUowmeG2i882ia1xK0tnh0MJayAM8frLk2zrLKtCbtqaeeUjdE4qfqDcrRpOh7yuG96NmsvJbUxx4ShM3gCQPgQYGHDRYr24ws6121nNYamvBdzJuEJll4Ut63YgFhfsXbKQuw8DH3lqvHnsVCjvUbq4oI6ZqMBx0eXVgas4B5HCt7uMlSVrmYlo2B1vaV7FobLxVPO9aPrLEg51vrfjqsIQbsh8F6hYdhGhqdJmxax2ad8HiM7RCKeNCiPOoo4gfLySyRJsU0Ya7PkvfakiZRAA9HRrxuMQYafXC3GHFt+GCkSRsit4VVd1aaEEfIxjPDhg1rIWY67rF6pwlCJIweLv6E73D8FYwxscflFJkdh/XiN9czTQhrIryNzalwmUcRQlgIrpARqo+Beu4r1cdGbdQYaVIbdAhbEWkSYqM2rseqjWbEVkQMRAxEDEQM1CsG2M+BzXgitD8GsEqxcztWb+KNiTccNGhQ3Qrf7Y/B6r5R3HN1sypowb4L7EsShe/q4jjWFjEQMRAxUO8YqOombPWOjNj+iIGIgYiBiIHmYyC6zzYfZ9V8gk2+8jb6quZ7Yl3lMcDGhxJTrn/lS8cSEQMRAxEDEQONiIFoAW9EqsdvjhiIGIgYiBiIGIgYiBiIGIgYiBiIGIgYaHcMdGEHv3Z/axVe2LVrPPO4CmiMVUQMRAxEDEQMRAxEDEQMRAxEDEQMRAxEDLQTBuImbO2E6M7+mrjBQ+1RONIk0qT2MFB7LYrjJNKk9jAQW1QpBuL4rRRT7Vcu0qT9cF3pmyJNKsVU+5WLLujth+v4poiBiIGIgYiBiIGIgYiBiIGIgYiBiIGIgQbGQBTAG5j48dMjBiIGIgYiBiIGIgYiBiIGIgYiBiIGIgbaDwNRAG8/XMc3RQxEDEQMRAxEDORigPOjb7rpJvfVV1+5W265xb333nu5ZWNGNgYOPvhgt+WWWzrv63J7m+yPiqkRAxEDEQMRA50KA+1yDNk///zjxhoryvqdqufEj4kYiBiIGIgYqCoGVl99dTf55JO7vffe2/3999/u9ddfr2r9jVAZR4AtvfTS7o477nCbbbZZI3xy/MaIgYiBiIGIgTrDQFUE8J9++sk9N/QF98wzz7ntt93ade06h6Lhk+Ej3MC7/us+/PAjN+ccs7ktNtvEzTzzTFVHEYzKWWed5TbYYAM333zzldR/9tlnu1VXXdUtuuii7tZbb3XDhw/X/C5duriJJ55YF+oll1yy5Jk///zTPfbYY+7tt9923bp102dLCsgNFoprr73WHXbYYSVZ7777rnvwwQfdMsssE89l/RczWbhCKXP33Xe7Dz74wK200kpKB2hi8PXXX7vjjjvOXXTRRZpUhNf777/fffrpp2733XdXpvWJJ55wb731lttkk03cTDOV9rc33njDPfzww26uueZy6667rht77LHtle77779399xzj5tgggm0L0044YRJnl3QnvXWW8/NNttslpT7m1X2jz/+cA888IAbMWKEg9lO99ewMnBAe8AL75xuuumSbHAK/uj7fMcss8yS5MWL+sPA77//LvPnM46+C2y44YZu8cUXV9pzf8kll7jlllvOLbLIItw2AfrVaaed5maYYQYdB00KlEn4+eef3cUXX5xbir76/PPP57bhySefdJ999pnbeuutS+q47777tK8jUKbhqaeecq+88orbf//901kdeg8tzjvvvKQNzBFTTDGFW3/99UvGIAX47kcffdTttddeTeYaq+C3335zF1xwgVtxxRXdsssua8n6e/7557tVVlnFLbzwwnrPGtajRw+dly699FJZS7uWlG/Um+bQZOaZZ3bbbLONGzZsWKEAzpgZNWqUm2yyyToUrd98842beuqpc9tw4YUX6jx/wAEH5JaJGREDLcXAO++800TRxzzFOGKMXHfdde6HH35wu+22m86DvIf14tBDD3Vnnnmmm2SSSVr66k73HHIDfFsa/vOf/yQ8YxEPWpRXxA9WIrOk29Qo95XQ5OWXX3ZyIpiuw/A6JosUjQ3w12qajPr9D9/av8N79vIXXHy537P7wf6Nt95J6uvTt7+//Y67/S+//uZvuvV2f/5FlyZ5rXknR6eFIAwOvmb+xhtvDJP1WoQpL8yPXq+22mp+qqmm8qId94sttpifZppp9DlhGr0IhFrmr7/+0nyZVPxaa63lxxlnnCb1yuTjRWjU58MXbrfddn688cbza6yxhp9yyin9Agss4GUCC4t02uvhw0dkflsWrsD1Ouus46WTe2FKPTQS4bnk+euvv94LY6pp5fC68cYbK42//fZbP/300+ufKF38uOOO64WZTert16+f0ps8+sEWW2yR5IlyRssvscQSfv755/eTTjqpF+Y6yefilFNO0ecHDRpUkp51k1VWBHwvApIXptqvsMIK2lcGDBiQ9biXidiPP/74ft555/XCnHsRsP0nn3yiZUUZ4UUY98I4elkovXiXeBF0mtSTR5MmBWNCu2EgiyaMkeWXX96LoKfzCnML16JYSdoF/UWhk9ynL0SI9aIU0j5xzTXXpLPL3stCovMec6MoJLWf00+55++2227TPpjXhsMPP9wzrtJw9dVXa13iSp3O8qKk9FtttVWT9PZOSNNEBCJt85xzzqnfzjzOfCAKOZ/GrTCmOl+IcJTb7C+//FLrm3HGGT1zVAgi2HsRtJOkY489Vtcm+sMuu+ySpDfaRWtoIi7oftZZZ/XiSeCvuOKKTNSxBjG3ijI0M7+9Eo855pgma1/47tdee03n93vvvTdMjtcBBtJ9JciKlxVgYN9991UeDJ7C/sR7RJ8UxaIXgcRvu+22fu21105qO+mkk7x4lyT36YtGpQkyg+GQ34kmmkjn/htuuEFRVMSDFuUV8YOVyCy8PNJkdP9O02SnnXbyyHv0bzHK+u233z7pzkVjoxo0ca0RhO3Zn3/5VQXrgw7tUSKAvynC+I8//ax5jz3+pD+mV58OF8BD5IJlhHMEQbFEKNJF2+xhir744gu9Z4GE+aWTA08//bSHMUPgR4A3QChCEBKrjibBxMGwSTyfFenUv1mDOw9Xd955p+KPXwDcQQOx6CY42mGHHTwTUjm8ouCAOX7//fe1PIyXaAO1HphlBhRMslicdZERba7mieVN20AbAQRvcV3Ua/6JJSpZYBBOWGygOX9FAnhRWbHoa1+y9u24444q7CQvDS4QZngn/U6sPyqEW/tQSEw77bT+u+++0ydOPvlkZTZRRIWQRZMwP163PwayaCLeDTqXiHdO0iCxhOuYuOqqqzStSAD/5ZdfvHgAedHierHGerGWJ/W05OLXX3/Vfp6eu4ragEBjSszwnbQNRVHv3r3DZC8eKvqOhx56qCS9I27SNDEB3OYn2sTYYqFmPhGvnZJmcn/ZZZeVpIU3JoAzdzDmQ0gL4OQNHTpUlX9Z+Ayf7czXLaUJfZex8NJLL3mxfHjx6shEk3gOaf/raAGcOT6tfA4b/Nxzz/mBAweGSfE6hYF0X0llx9syGBDPKg+fmwXM+YwR1iaMS+LtqnwHBgzxMMl6RNMiTUajBoEcYx98ahEPWpRHTUX8YDmZZXRLGlcAt++335Amr776qvJZgwcP1mxkENbpDz/8UO+LxkY1aFKVwGyxEkubm0JXcUXHDf26G25yd9x9r9tow/WbFurglO7du6t7r7lfikBW4mooTJe6UL755pvaUlwJxXqprjdh03Ez7N+/v+aRLhZwJ0KSe+GFF8JiDXWdhyvp9Opyh7slMPfcc6trreFKer4TxtyJldyVwyv0Equ3E6WIupXjOmr9cZ555nEiAKg7ujBk6tZpLrKEJODOizu4MG1ONLwlrrC0SRhhbR+uKR9//LG6mmpCwb+ismLRcmLJSNqHGxcu5AAuMGKRceCG78cdeeedd9Y2y8LnxFKobaWsWEXUvR63WEAs+eoiJkoIvY//6gcDYhF1hFDgyifMTtLwlVde2eF6yhxi8Mgjj7gFF1xQQ2dkEXEi2GkWblL0K/Hw0TEjnkDO+kLfvn3dnnvuaVVonybsAZfelkBeG04//XTtr+k6Rdus7sBiASjJEuWYm3322Z14C5Wk1+oNYSnMZ4xF8c7RZjJm11xzTbfUUks51hHClQzvWd/BeMadk9CRLLD6oC1ucLLAJ/Wdeuqpbo899tDQBFw+mZ/uuuuupBpCVXBzJI/QG9Hm67uSAp3wIosmuMqK8lxdz3FDZ94nRC4NhBMAhC1BT1H2av9lDsbtX7yNnChVdI3gPazn0Njma2h9wgknqMsifRx6WXgbG+lBA2L5F1poIQ1PYH1Jw7nnnqvrHKFxopjRNUAUwdoO3ifeI+7FF1/s9HRM4yXetx8GRMmn/AT9jnAgXKDhPwwIz6DPs17AVxGOQ6gTYW+sRRHyMSDeNxpSxvwi3pg6F4G/LB60iD8txw+Wk1nyW9h4OWmaEEqKizrhYQA8OUCfLxob1aJJVQRwbXHOvwnGH99NKYLChONPIILsyJxS1UlmwSTWMPwjhqUcwLiIpdWJtVEFrZARJg4GIL4RgIAwj6IB1Hv7hzAnbph268RlUxdkJqpGhTxcEXNPvDVxzABxeKJxUhpwDyNKDIYJyUV4RYCG2QQQRDfaaCO95h9Czf/93/9pPR999JHGxzIRGkBb6AoDxTuICwcQbJg0ibsGiMeFEUrHb2pm6l9RWRg7Yj1pM8ISvwhIAAsdaQjVtAmchP2Q688//1zLgr9wd2RTDtGHI9QXBoirZjJH4E7DPvvso8pAS0cpdfzxx7ubb75Zx8iJJ56oWTDvjBf2NmDjKfqB9Sv6zMiRY+ZdFhgEdhMkrO5Kf/PawJhhX4MsQHCkv/KtAAsb4wvhh3bXErAGoOAC2J+CucjGF8ItTKfdF+E965t23XVXpSfrE4qXNBTVh1DJfIrgzR4j4hav+AOX7HeBsCmWFlXEUC90ynpH+p31cN8cmogLvyo4mPsRqlFMIDingXxALH8qTIBf9nRhvYY+CO3E9aP4RDHcs2dP3Y8EvAKsV2eccYZjx3UUKvQJG3Ni1dYxBw8gHnfuyiuvzBwb1M1eMSihevfurYpg+hv9jnvyiA9H+RshYqAtMIDCECMF8d0S9qIKI/ojaQB9+eijj9YxAW/FuEAxTP+MkI8BjDrwlMTJm6KiiActyivHDzI/hLxiWmbJb2Vj5WTRBCUpylT4JOZqeC5xO1dZoGhsVIsm47QVCWAqR/7vUxGAZpTOMbObZ+653PkXX+7WX2+dNmO6ELZBcnOBzsuzP/74oy54bM5mwEZcMImmRUcbXg6waGHtPPDAA1UzXq58Z83PwxUCM5vOIKzCdMIkMeFj7QZMqE4z51l4hRk1QcTwCFNqjBGWQdoBI4OgHQJ0NrpaOgMLJkzCC9SjgXSsXpVCJWV5J5o3GDusHwj6WPDZtA2wnY/D9nKN8MS4AmdY3rCoYWGx5xDaI9QXBkypYt4MRa1ncYBpB/AeQZBGOMEigQKQOrBU0Jes3qL6WpKX1YZy9UgMuSqesIIjVLBpGeMMgbTWgDUApglgXHEUGEo8FBsACzaCbUvxzsZqMGSsDSghDCqpD7qa4MjGdQh+zCX8YllhQzcUjAjpeVZ2e189/VZKE4RocIrAu+mmm+onYslGML788sud7KmRfDaWbgClqG2AxpzMpq0A40dCEFShyzUKD+Z2+q0BNECJBLCWwUQjmKNoAv94MvDHRoTM22lgw0TGLNbucMxCY8YJIO7n6cfifcRA1TAA30UfPeqoo1QQgV/CewNvzj59+ugfymF4DwRwhEoMHRLfrGXYhIpxwNiJMAYDrBvgLFT+FfGg5fKoOY8f5NkimWVMqxr7KosmhhHWUbwN4fvZHBYlaNHY4JhLoLU0aTMLOMLTNdde74bIzujA/z79zM0w3TRtJnzzjv3220/dtXDzs79KBCI0SBJHrFZtiMCCb8A1i2eoYbK8rF+sFCzGMFjnnHNOVpGGT8OVCaEbXONNAIOOphUmBDABPERUFl5hjLD+4KppgADC4Lha3PcQ2HENBNJ0JQ0rvGkLuWfXe6zc9BmJCVFmm/RqA+2T2F4975fvx+oRAosbEPZD2sqO7owrLOW42iOAgSsWS9oMMxmhvjCA1RKgH6cBrwtc0wxmF5dtA/qIuQXCBNEnmMMQPBACUEJlQZYgkFUuLy2rDXllw3QEFSz3WN7p84SXpE8oCMt31DWeTbjZA7jVSwxuInyThpCFFwtzWHPwzrMAwjyuxygjQhfySuoL1yA8ZgAEd7wLUMCYdw/vkL0wNL8z/KuUJowXxgSnahhwTZ+rRCE1xxxz2GPKC6DchSGjn7IzPWMqHFfh2gE9jBZUwppmUInnlJXlN87jITbidVtigJM26OesHxwVDO/KmBkyZEjyWiziCOWcNINyi9NpMHAQJsfYygqvSB5u0AsUrbI5cAl/WcSDFuWV4wfTzzZXZmkUEmXRxL4dpTXKV0Iw8BhE3igaG9WiSZsJ4HzY5ptt4gY/9bQ75LAe7nk5pmzLLTaz762ZXxZstObmAoomDyIY2HW4OFte+hfNNW5rMG6yC3Y6O97/iwEmcphGtK0wTVgosAYjgDN5wPSilTXIwysLB/H4pv3D+4HYPhYPjnMKBXPoynsRZAEEEYQeoyvxTyw8WDqICTGriLWhGr+9evVSt0Wrixh1IB03yoSK54X1Pcrg4mhtxcKC5fvZZ59VayLfhgeHKTAoH6E+MIA1lP6LwigEvEFYwGW32SQZBikNWPjwhNh888015AUrIAy/CQo8Y54lPEt8amsgqw2V1CebKurYwzKINRm39HoD5hXmDGK+y+G96NvwYMGahDeBeeBUUl8e7pm3mL8s3Aph0+KRi9rRGfJCmphCJ1Rasa4wl4bCct53mwKDfBScuKSjLGJNok7WDBtXlMmiB2OPeljDDCz0wu7L/YbtKFc25kcMtAYDhC3hicQxVgayuWviNm1p/LIWsScSyj1CMbDuEvIBH2L7kYTlG/UaPhOc4NYfQhEPWpRXjh/k2ZBXtGvjF8M2NOp1Hk2QIfAqRHkK4C1L/4YnLxob1aJJVV3Q+/frU0Lf+eeb183f4wj3uwgH4zfDjbekkirfwJwgnIFwmFE0HWg8ZMdffROu47ggE08OY4NrDsIgCC8CFlzcc2Cu0JzYeb5y9IwzQavo+UbKw9qDogIXD/CFCy3u01iGcU/FmoPlASjCK9ZfLGkGvXv31ufR0sI0GQ2IJTe3d9ylEPhxL2XDHhhhGFc2xsCKwbnuKAUA3DptcwZ7R2t+sWAdcsghqjSAIST+EKslyh9cG9k8S3Y4d/QZ8IJlG4UAkwfMIPcAwjjtBDe4xHJN+8v10da0PT7bNhiA2UYzS/wR/Y9f9kbAnRhGyFxi895uQpccnafWVZRaeH4gJAJYQxkP9GlcXcvVl/ee1qaj0MKKgpcS32kbMLa23rZ8nlAQXISZp/COQbGKwo8FGy8DIA/v5drFue4oXywWvxwdi+rDaoVCg3OisUbRd1rr6VD0vo7MK6IJwjGWDBS27OeBshVPo27duulcHrYb4Rn3QTa9ZA+YNEAPxib7beB1hAUcWqGwLwLmY6yJhEXh8s5+AigJst5BPcz/9KVGUZgU4S7mtT8GmL/gO/C6gDfCM4c+a2Ft1iL6KB5MzIMAnlCsT3gBsTcG/T7CaAyYAMzcEUIRD4pFlTUyiz9lririB1sqs4Rt6+zXeTRB1sAbl01O4U2QA1kT4NOLxkbVaGJHidXT7+M554Cnj80RJkSPAmObfkBcaXSLeels+isdXtPS5z2LQCob2f0AAEAASURBVKPn8FKObejF7VCfD/+JxUqPgrI00XaV1G3vEO2iFenUv0XHTqRxBSI4/k2EAz0CgHOuOTIG4NxJzsI1yMOrTDoe+slgsaJ6HJnhPfy1M7JFYNdnyOO4MusvIrBk0k6Yo6RuLsTCruXS/a+k0L83WWWFefOcK8gRHrRBhHAvmmR9gmMQSBOhWu9FINe+R5pYSL3sZJ28hmPMRAjQvs1Z4RxjJcxmkm8XRTSxMvG3fTGQRxNxS/YiNOu8A03Fk8OLMJ00jv4qTFFyL4pBv8oqq+g9x9MJE6THxIiyT8+PFsFRj+MTi3hyrreEKXgbTyJUJnWlL6zv2viw/KI2iPIx8xxwe5Zf0TZrHxdhJkzu8Os0TSTGW9vJ2ONPFHFeTlrwnPUNPg2K8G5l+BXrkNYjCsEw2Quzq+migNH0ovokLl3P47UKxMKizwoDrEkDBgzQc62ZK8QbomTds2fq6belNJFwHi+KDcWNCNB6tqsd15j+fgnX0HKMJXAvivakCHTmLHZoz7gR5ZGOT1vP02OB/s95yQD8ggjhegYwa5sI37ljQ0Ll9B1irdIjTulv4VwuymIvCv2kXfGiKQbSfaVpiZhShAGOULQxw9G54r3ZpLgIgP6II45I0jneTzxOvJyo4SXcMkm3i0amCWu5GJAMFSW/eTwohYryivhBnq1EZok0yaYJR71a/2euD+WPorFRDZp0QfCWSb+u4NlnhjhhPtu0zbgzs4mC+fq36cs6QeUjRozUzfaa8ylYLNCghjjGGwELGX9FIHOOxkBzpFJzgHdibTZ3xeY8W62yWFdwFQ5jOvPqxrULKwlulGnAMgce0EBnQUtoklVPTKseBsrRBM8NtKt5NM1rCR4keHRwJF8W4PmDNTdvY8SsZ5qTxsYl9FX2cqg3KEeTou8ph/eiZ7PyWlIfe0gQNoMnDIAHBR42WKxsM7Ksd9VyWmtownfRFwnt4K8IsJIzv+LtlAWsT8y95eqxZ7GQY/3Gw0uEdE3Ggw6PLiyNWcA8jpU93NAnq1xMy8ZAa/tKdq2Nl4qnHetH1li4/fbbdT8d1hADUTSppyEehmmINEljZMx9EQ9alEcNRfxgOZkl0mQMDbKuOMWF/s9+SmkoGhutoUkUwNOYjvctwkAc3C1CW5s+FGnSpuhtUeWdlSbEEQ4dOtQNGzasRXjpyIfqnSYIkSjzcPHHpY7jr1DkEHtcTpHZkXgvenc904SwJsLbCAfAZR5FCGEhuKZHqD4G6rmvVB8btVFjpElt0CFsRaRJiI3auB6rNpoRWxExEDEQMRAxUK8YkJAS3XimXttfz+3GKsXO7Vi9iTcmJnzQoEF1K3zXMy1ou7jn6mZV0IJ9F9jXJArf9U7V2P6IgYiBiIHqYqCqm7BVt2mxtoiBiIGIgYiBesBAdJ/tWCqxyVfeRl8d27LGezsbH0pMuf413tfHL44YiBiIGIgYqAQD0QJeCZZimYiBiIGIgYiBiIGIgYiBiIGIgYiBiIGIgYiBVmKgCzs6t7KODnm8a9c5O+S98aURAxEDEQMRAxEDEQMRAxEDEQMRAxEDEQMRAy3BQNyErSVYi880wUDc4KEJSjo8IdKkw0nQpAGRJk1Q0uEJkSYdToImDYg0aYKSmJCDgdhXchDTgcmRJh2I/JxXR5rkIKYDk6MLegciP746YiBiIGIgYiBiIGIgYiBiIGIgYiBiIGKgcTAQBfDGoXX80oiBiIGIgYiBiIGIgYiBiIGIgYiBiIGIgQ7EQBTAOxD58dURAxEDEQMRAxEDEQMRAxEDEQMRAxEDEQONg4EogDcOreOXRgxEDEQMRAxEDEQMRAxEDEQMRAxEDEQMdCAGxj72uON6t/b9P/30kxv89BB3w423uFlmnslNOeWUJVV+++137rgT+rqJJ5rIzTrLzCV5LbkZOXKEm3322ZNH//77b3fmmWe6qaaayk0zzTRJOhdnn322m3DCCd0MM8zgbr31Vnf//fe7IUOGuGeeeca99tprrkuXLo5zO0P4888/3SOPPOLuvffe5Nkwn+uvvvrKXXzxxW755ZcvyXr55ZfdzTff7H755Rc3xxxzaP0lBTrpzY8//ugmn3yyJl/37rvvuhtvvFHTZ565lPZvvPGG5n399dduzjnndGONNUYfRNphhx3mNthgA322qB5o+uSTT7ollljC0RdkZ3933333uZlmmslNNllpm4re+f3337vbbrvN8a6uXbu6cccdt8n3XHTRRW666aZzU0wxRZO8dEJW2T/++EP7Ff2LtqX7a1gHOLjlllvcq6++qn104oknTrLpf/SzF154Qdsz+eSTJ3l2kUcTy4+/7Y+BNE2YO8877zw3yyyzyPhpSkNa+Oabb7rzzz/fTTDBBFouq9VWD3ObzW/Dhw93jDmeYz46+eSTHX18vvnmy6qiJO2SSy5x4403npt++ulL0rNuwnmVd7/44ovum2++0fkvHNNZz9ZCWpomv//+u64bhsvnnnvOvf322zqfhGOQtjPvXHnllW6eeeZpMtfYtxltimhsZbN+v/zyS5d+b1a5zpSWpslNN93kHnzwQe3bRhf7HTFihFtooYWSz2feZX23c9E///xzXatZH8YZZ5ykXKUXQ4cOdZdeeqn253Lz/hNPPOGef/55t+CCC1ZafSzXSgyk+0orq2u4x9955x3lmVhn7A/ehD/4lauvvlrz559/fl1LQNDPP//s9t9/f7fqqqvqOpFGWqPQJIvHgwf973//q3zeJJNM0mQNLeJlX3rpJZVTvv32W5Vxxh577AS14BSej3Ud/jTMq4SvrHWapHH52GOPOeZeePbwD5zaPFzEz7///vvuhhtucOOPP77Kfwkig4uWvDN4PLlM10PGo48+6qCnjam33nrLLbDAAskzejHq9z98a/8O79nLX3Dx5X7P7gf7N956p0l9p515rt9p9339Q4881iSvJe8WAcuH8Ntvv3GUmhdBL0zWa2E+/QUXXKDXq622mhch3S+99NJ+scUW8yL86HNbb721/+eff7TMX3/9pflCZL/WWmt5WbCb1CuTj19ppZX0+fCFO+20k+e5tdde2wvD5Lfffvswu1NfDx8+osn3bbfddl6YeL/GGmt4Ucp46XxeJgot169fP8W9TOBKky222KLk+euvv96vssoqmlZUDwU23nhjpbFMWl4EBv2jXhGgfY8ePbQO/hW9U4QILS9MmpeFxk866aRemOvkWS5OOeUUbfOgQYNK0rNussqK8ONFEeRl8vQrrLCC4mbAgAFZj3uZWLxMHH7eeef1Cy+8sBfm3X/yySdaViZwL0oALwukX3bZZb0IOV4UDk3qyaJJk0IxoV0xkKbJxx9/rH1KJuvMdsii6UW484sssojON5TPAquHssxvImT7iSaayItiy4uAoo+ceOKJOtZEIMyqoiSN/iaLSkla3k04ry611FI6foQ58IwlEfzzHquZ9DRNRHmgNAF34JJ5i/lAFLn+mmuuKWn3Dz/8oN97wAEHlKSHN0abPBqHZdPXTz/9tJ9xxhnTyZ3+Pk2TPfbYQ2kBPZj3hAFL7vfee+8EH8OGDdP58J577knSRCBWeorSMklrzgVz9SabbJLwCEXPHnrooZ7xEKH9MJDuK+335s7xpn333dfDJ8NT2N8dd9yhH7fXXnv51Vdf3W+77bbK19oXn3TSSX6zzTaz2ya/jUCTLB5PjHc6/qeddlq/5pprqvxw5JFHJvgp4mXPOecc5Ql5jufnnntuT33A4MGDdf1h/iMd2UUUi5pXKV9ZyzTJwiXyl/VHfuFnkPNEqNbvLuLnwTn8M7hkvcjqqy15p7449S+rHopAIzGqlHwD8mUIriUCcPqZn3/5VQXrgw7t0UQAf2LwEN/rhL7+lNPOqgkBPC0UI5yLFdyLhUnxcuGFF+ri/sUXX+j9Mccco8KPIQ6GCMaMjgCCDcRKqfUwUIC7775by3z44YdWpFP/pgc3QiKC4VNPPaXfDVMLAyuWDBUImPCvu+46zXvllVcUV+DWYIcddlCBuageyiLQwxyLtkvLzzrrrMmkBbOMIgQmGSGk6J0ICwcddJC93ovlPRm0YonWa2jOX5EAXlT2uOOO075kk+qOO+7ol1xyyeSd4QUKBCYN+p1Y5FQIt/YxiTNBf/fdd/qIWDZ1oKOICiFNkzAvXncMBtI0KSecMTbOOussj9AsVmkvWuHMhmfVM3LkSB0bLFQASsbLLrvMVzInNVcAT8+r4j2kY4XxXuuQpokJ4HfeeWfSdMYWClbmkw8++CBJ54J78JoHWbTJK5tOF4uHMhDp9M5+n6ZJ+L3rr79+MjeH6VwjbN9+++3pZC9WqSZplST8+uuvOv5gciuBKIBXgqXqlinqK9V9U+esbbnllvPwuVnAOvDAAw94sbqqcMg6BN+BIQtlVx50ZpoU8XgIhwiK4jGlqGH+Zs3AOFTEy5KP8e6MM87Q55hv4GuNR0YBuM4662gec9lss83mUagDlfKVtUiTIlzqxwX/EMgxnMLzF/Hz9E9wfsUVV+jT4g2lvIhYoPW+pe8MmlK2HngvZAX4tyIY4/MrpVsKeW5dP4mbym0D73I77rBdiXtxS9/TFs91797drbfeeuqiRv0iBDpZ4NWtl3thuhwubrgRACKwO9GIq8u7Jvz7TwaEw2VixRVX1BRcdADcURoRhGF1/fv3V1zx/YQliNCoLtO4ZeA+I54HippFF13UiYXPyUSv99Jh3UMPPeRkwnFF9VAYeuEmiwv7XHPNpe681h9xC8X1FtePoncKk+VEw6suVdoA+SdaRnV/4V48Lpww0epSYvl5v0Vld9llF3VLsvbRR6x/ELog1m51N+f7caHceeedFU+4Am+11VYJfgidkAk5ccMR7wEnSgaHy02EzoUB+gjut4yd008/XeeiSr+Q0BpctQipAXBdO+200xLXtW7durkTTjjBiYeFE6bBiaVDy1j9hEngSiuLmZPFz+EKXSmI94q+57PPPqv0kZouJ8o7nfsZi+Kdo21lzIqG3YnV37GOgM+WjEGrhxAq6rd6cA09+OCD1d2TuQG3/gjZGOjbt6/bc889nViInCgude4m1IJwgtdff93hPiuMWZOHwbEIIEl4xyGHHJKMF1GqqBu7eFGpOyg0tvmasAJRoOraw3t69+6d1M04IXSKccP4IUQqQsRALWJAlLIaikl4hggL6uoL/2GAGzp9nnEE3wLfxhqy7rrrNmyYRRGPh4s4/Bjz9f/+9z+36aab6prKOlzEy+KyDi2Yf5jnwbN4PCY8Ms8aEDZLeKStx0V8pT1Tq79FuAzbLMK0I7yHtZdvL+Ln6b+jRo1KHscFHSBsE2jpO/Xh4F9RPYwleAZCBcQI6QiDyoLmB0Rl1ZKTdsutt7vll11a48JzilQ1mQUTpIRAbEQ5IFbs4YcfdmJtVEFL3MuTRyxuGUYSRpWOAGLFupqU4YL4TRgnEE3sMgNKXHtUKCwp2CA3CNT8GRBbjQDAxC2aU43JCGOswbMx6zCkTDII5vzm1UPdCO3i8q+vYeILgX0BEEKoh5hW9gHIeifCx+GHH548ysTGQIeRAzbccEO3+eabOwT1clBUlsEI0OZTTz3VPfvss05c0DWNhU5cF1VgAg9MIKJ91jz+cW2DWKzm7r333kvyTDkkGtaSWMikQLyoSwx8+umnqoSiT4kVXPc1YLEVLw+da7I+inhk8dDQxR4lDn1711131aIwUfQRmxPFEq4LGXWjQESgQJBhrAAowS6//HLdB2O33XZzonFXBZdmpv4Z08YvQg11cJ0ek6nHau6WNQAFFyCWbcdcxAJO7BaxZwhUNt7AF/MLawdjEwEQ/F111VXN+q68ethjBIYMJQnzZ94eAc16WSctDP7F6pB8HYor+iHCA8wr/d6E56SQXIjFWulKnD9lUMRKWI/Oo+J+q30eZSd7ihx11FG6FrCGbbPNNto/oBFrFPfwBwDrG2UQ3BkzjFnxqNO8+C9ioJYwgMIQIwXzO+sCYwU+RDw4VYEED3T00Ue7qaee2m200UYOxZN4iSbGiVr6lvZqSxGPh7GOdQ9+FgGcORuZAf6xiCdm/hE3a+VlUXwDzD/gGkDBx3tRMEID5jIUgkARX6kFavhfES6t2fDd8OfM1ba3xkcffZTLz2PsE68/J6FJGjPPnhz0Y9uvq6XvtPbYb1E9COCMJ/h2xhT0Yg8ecY23x/V3rJK7Kt58/Mlw9/wLL8ki+K47/cxz3IcfD3cPP/K4e/a556v4ltKq+GCIFf6Vlsi+A0k8yyYFaJ/QXBuwgRsLLJ0eQPguAsphrRL3dNV8wMQ1OmABgAk58MAD1coGjhEMQgDnhmMTqsF7COl6yGNjHizlIaBJ5F0sItdee63SrNw77XmEX6x90A8LPoBVqlKopCzficCDRpkNrAAs+GzkQDptBUIccQ1TyeQOw442EAs52miYdCDU+mlC/FfXGECbzlzGwsOcAr0RBNPKv/Aj2SyMBYfNS9Cg02dIywM20tl9992d7NOgCzwLm8E+++yjnhcsNFj0EGjygI0WGa9suoa1kU3jevbsWaJEynu2ltJZA8A3wHgEB+KemTQRhooNchDUGXsI21hAWfQZw6YkSx4oc1FUD4K/zRMwb+Y5U6bKmN0MDNBfUQyjdOkmCnTWawRuBA4JQVDac824Y25nfWBMsUbhnYCFi/IDBw5M+vrsskEsCla84SiDQhcPpQgRA7WGAYRv+B36L/0angkjlvE+ffr0Uc8r2eNCN7SSeFdVqiIsUuaII47QdabWvqst21PE46Fow/iG0pR1F+MQXrTpdSHNy/Lcx+JlKft96HN42qLENmUudIE+zC0I98wn6fU4i69sSzxUo+4iXFr9bETMt5vCgfQifh48wDsxb7N+wsszx6MQAVr6Tn04+FdUD3wCxgeUusz/GGNRyJpy36ppMwF8xhmmd72OPtLtuP22bputtnD/N8N0bsklF3MLLjC/vbvqv/vtt5+TmImSvyIkWQPo+BJvobuow+jChBlwjdATWiMtL+sX12V2Xmd3PjTyaL8aGfh+GHgEYtlkQlGRxjGJEvOiEwvXJoBzbZBVD5Ma7uXsxGmAlW/LLbfUnTuZ5HCrBcq9kzJMmFg/6DODBw9uM4sT7WNixbUYYQorWwgsbkDYD8EPu7oj5KChZudsJmBwxUJIm00TGtYVr+sXA8xLKJNwc15mmWX0j0XEFDRZXwbjj1IKBQ3P4x7N2MsD8/AhHy8MBEIDFnsD+iRjKw9oI2OGPxYZhFTZqCeveM2m4wZuFghc/rFMyIZESXtRUGDpRBiWWDIdi6wdCGJ4FECv5kC16mnOOxuhLGt2JcA8Sj9HCYWHFIpiPE/oB4wjmDfmXZgnaMsf8y6/ZlHhPYSxMUYBmD4D1h2gaOxY2fgbMdDeGFh88cW1n8NToIyCV8MDlBMGDFDOomRiXOBhJTHHqljCwwrLHl4jEUZjgHkDXDKf4IaO1RMlOrgyyOJlERbBP2sOoZMIbIQFsJM2ShK81LDq4gnF+oRFHeVHCOX4yrBsPV1zAoVstJzIB7S9iJ/n9Cos0Bgi8IrGYw0B3Dz7Kvn2rHdW8pyVwbCB4gC+CWH82GOP1aywH5DQZgI42vuZ5Ugy+8NyPNWUU6iga42shV8WRtyNV155ZW0OiyfCs4Fdc6RYEbBYE6drDCzfi6toS2ICi95TT3m4gONGw6SC5tQAHDOZI1QCMEsI0uAYoROmF62sQV494Jx4fPNYYKIjfp/FAwEkFMyL3sl7GLAsPFg6iOVnQqw29OrVy8kmG0m1TLRAuo8wueB5YX2PMkwi1geZWDh2Bxd2Jmi+DQ8OLHAROg8G2NsAt2cUecSv8oe7M5bXSgDhDoUS/cvmpfRzLPp5UJSXfoaFBosffwioCKWdDZhXmKdQauBdgEcCjBCLOxYMcN1cAbxa9XQ2XDf3e+irYZykWTvK1UM5mDSUKfABKGGPP/54VXDiPYWClDWJmEPWKehrCtLQmkFZs1YRv5mGShUC6efifcRAW2KA9YQQJdsnhHexzpirb/huFKpYc+FrCU/CIolgAR9i8chh+Ua8RpmXtfbZsVl5vCw8HHOY8bLgjjkD4Y01Au9G1hcDwhDhC5BfKuUr7dl6+kVOoH8RIhFCET/PHE5oGP0UwDgFT1KpN3LeO8P3l7smFO3cc89NiiHrQM/0uMrnvpJHK7/o36+Pm7NrtqB64P77upVXWrHyytqoJFZThDMEFxZNBD06MosugAacSYlFGUIS90UZ02TnNQsXQTn6RF3PcA8hNozzmxEIGxEQoonbkN3MHVpWcM4fLhm45SDgoiVicsFVFZwRYwRdwCWWB6CoHqy/ofs5cTI8j9YRpsneSecveifCKxvCYQEkfp9zjHmWzROqCXhR0M+YUOhzuLYyWaP8wbUR4ZxfJmLczLFsI2zjCklfBZcAwjgWN+LAWfhoM+0v10er+S2xrupiAAWQ9Vd+cSHHGoFQwfhgAxH6NgonrMx5YPWgRELTzoKPF0h0X87DWH46m3dBC+J/wSMuZeAfRStzBoC7PYs9Wnc8boosnUYbozM0LlcPChgsIHjJZMUw57e+sXKgAfM2f3gi4IVWCbBmyBFnaqVCAQujDBMMXdgvBEYXryMs4OAf+uI1YvuKwCNAV7xM4hirBOOxTC1hgPmL8CEMJAjehA6hWLINcq2tjCnceokHBxA0KY/iijkKQTGC07mEtQCvKXCDKzrhSewzVcTLEqMML0j4E7wrykDmfPaSwKuWOQehDs8y1iXCo1CGYOgs4ivrnSZmhGIeDqGIn8cDAf4aN374J8IrHpewCvZoqQTy3omyFh69EmUTNIdvY5NoFPTw+tAQ/qEE0keK1cO9IFOUCWNAkIy/mR5xNSZ19BVHX3G0GMB51JSzPxECNS193rMINF602FqOIxrE7VCfD/9dffXVehRUmCYacC8aDn1OtC5etINhdqe+Hp46B1w0VgmeDd/8irZV8SDCswf/pImmKqEd506GeMurRxQl+jzHvxnIBJb5TjsjO++dwjhnPkd9IYiFXcul+19Yxq6zygrz5jlzU9yUtB4ZkF40yfqICFWaJpO03osg7ul74EcYQi+Th1Wtx6yJEKDHuskE7MX90YuSIcm3izRNLD3+dhwG0jQRBZTSOBwjXAtjpI1knhGhQMswXiTMJrPx6XpEiaNnzouF1otGV58R11mtRzTBes+4C8/6FoWZnvlKZjpPFJFedjbX59L/mFfTx5Cly9TyfZomHAkT0oO1QLwRPGd9i6U7+RSOBRTmU4/n+X/2zgJMjqLp4x0I7u4Qgru7BHd3d3nR4AQIENydoC9O0ODuHwQSAsE1OEmA4BYkWH/1K96e9M7Nzu7t7d2tVD3P3Y709PT8q6Wsu9l/nT4JXok3KUnDQZo3Ie/A47x8RJDQfcB5ZsiQIQX5NvJJmifxt7JFJPU6JvgiQpryjbE3jBtivNCtycAvax9wxg8xEOsWoqJoa58rApPyWULMVQ4gPwnB9exxH8YvtmASr4q+T5QPz7glCroXATppQ5RPjCyaRgz/cXHtuIoI5NWVKr6mYbMSZ1MityIvs69xmsQh4CXkObksDiYvUzO8rH/hxfiUXA8HzcCTLBlPImS8OFl0D2r6HMbRsL1u6JNC/x9+Q5/CFqNgynXGFVHeA5weuZAxhj6K+6LQ67hCgjy5MslADmqZJ1lYUnbxIhds9xx/TzF5njRs3SrrJilejN9ZclNr3ymL2yr2YuSNi+Gz8pGIBR0Tgo4jBisvEXQFz3HSBYVbGFpX9PyggY5tbtqTBFSd+B/CzVrzLlZCJHyU0IdmoeHDR4glbuZWfS7hfHh8mWMXCMsVnmj+8kjqrs7FYwGk1lDWO1vzfDXS4l0hZLWcdQWwtmEZJSQ9TXjGwAELdBZVwpOsfOxa9RCohCfwGOsrXj6iI4yqi0AlPAklIDSQ6B36+7YQ+RDCzNSSeBcO8oT/LEJDP9AsVClPiHDDi11qsdQ0joxD9LE8GxNeLK7HoaHxffpnvH94oow6B4FK60rnlLZ230roLf1Y1hSKO+64QyOp4vbBehh4a4kGSVOz84SQfmQ8vJ6tJfhANGO8Y0/Ig34KvUIUu3Ap+S0lVzYiT/LkeabdITdRp1s7HiSgRgeMw0yxw6Ne7nhPPSB6Edkti0wBz0LFrrUagUZs3K0GocYeMJ7UGEOkOMYT40kxBJgfxjw/pg40O1k7afYaUP73W10pH6uOSmk86Siky3+P8aR8rLJSEvrPmiCsaVUt6lqtjCwfQ8AQMAQMAUPAEKgMAdaGyPJ6VJabPWUIGAKGgCFgCBgC1UCAhdyqqXxTJlPAq8EZy8MQMAQMAUPAEGgDAs0UYt4GmOxRQ8AQMAQMAUOg7hGwCYV1z0L7AEPAEDAEDAFDwBAwBAwBQ8AQMAQMgXpAoAsrOtdDQdNl7N7d9jxOY2LnhoAhYAgYAoaAIWAIGAKGgCFgCBgCtYuALcJWu7ypq5LZAg+1xy7jifGk9hCovRJZOzGe1B4CVqJyEbD2Wy5SHZfOeNJxWJf7JuNJuUh1XDoLQe84rO1NhoAhYAgYAoaAIWAIGAKGgCFgCBgCTYyAKeBNzHz7dEPAEDAEDAFDwBAwBAwBQ8AQMAQMgY5DwBTwjsPa3mQIGAKGgCFgCBRF4LPPPnM333yz+/rrr92tt97q3n///aJpm/XG77//7lZaaSV37LHH1gQEBx54oNt6662d93W5nE5NYGiFMAQMAUOg2RCwbciajeP2vYaAIWAIGAI1icDqq6/uJptsMrf33nu7v//+273xxhs1Wc7OLNTVV1/tRowY4Q4++ODOLEby7p49e7qll17a3XvvvW7jjTdOrtuBIWAIGAKGgCFQDIGqKOA///yzG/ziEDdo0GC3/bZbu+7dZ9f3/fDjj+64E04pePfpJ/dxE044YcG1tp4gqJx33nlugw02cPPOO29Bdueff75bddVV3SKLLOJuu+02N2zYML3fpUsXN9FEE7mlllrKLbHEEgXP/Pnnn+7JJ5907777rltllVX02YIEcoKH4vrrr3eHHnpo+paeX3vttW7RRRfVv8wETXLxvffec4888ogKKMsss0yLry6G4zfffKMejksvvVSfycvnoYcecp9//rnbfffdVWh9+umn3TvvvOM22WQTN9NMMxW886233nKPPfaYm3POOd26667rxh577OT+Dz/84O677z43/vjja12aYIIJknvhgPKst956brbZZguXiv5mpf3jjz/cww8/7IYPH+4QttP1Nc4MDCgPdZV3TjvttMltcEPgo+7zHbPMMktyzw7qD4HRo0dL/znIUXehDTfc0C222GLKe84vv/xyt9xyy7mFF16Y0xZEvTrrrLPc9NNPr+2gRYISF0aNGuUuu+yyoqmoqy+88ELRMjzzzDPuiy++UE9gnMmDDz6odR2FMk3PPvuse/XVV93++++fvtWp5/DioosuSspAHzH55JO79ddfv6ANkoDvfuKJJ9xee+3Voq8JGfz222+ub9++bsUVV3TLLrtsuKy/F198sevRo4dbaKGF9JwxrFevXtovXXHFFTKWdi9IbydOebH99tu7iSeeuCbgoO/FA46xxBTwmmCJFaIVCAwdOrSFoY9+auaZZ3aMKzfccIP7UWT53XbbTdseWTNeHHLIIe7cc8+tmXbYik9ut6ToDchtaUL2DTJjngyady9PHixHZ0mXqVnOy+HJK6+84mRHMB2HkXWQuaG8tsH9NvPk99F/+Lb+HXbUcb7vZf/1e+57kH/rnaFJfu++94E/+Ihj/JdffZP8/fb76OR+pe9l67SYRMAh9svfdNNN8WU9FmXKi/Cjx6uttpqfcsopvSjdXpRjP/XUU+tzMnj6f/75R9P89ddfel8Gd7/WWmv5rl27tshXOh8vIXD6fIsXygUJHdR8RbjKut2Q14YNG97iu7bbbjs/7rjj+jXWWMNPMcUUfv755/fSoSfp8nC88cYbvQimmrZUPiL0KI+/++47P9100+mfGF38OOOM40WYTd532mmnKV+4Rz3YYostkntinNH0iy++uJ9vvvn8JJNM4kW4Tu5zcPrpp+vzTz31VMH1rJOstKLge1GQvAjVfoUVVlBs+vfvn/W4l47YjzfeeH6eeebxIpx7EfL8p59+qmnFGOFFGfeTTjqpl4HSjzXWWF4UnRb5ZPGkRSK70KEIZPGEdrD88st7UfS0X6Fv4VgMK0nZ4L8YdJLz9IEosV4GeK0T1113Xfp2yXMZSLTfo28Ug6TWc+op5/zdfvvtWgeLleGwww7ztKs0iSFS85JQ6vQtL15Dv9VWW7W43tEX0jz59ttvtcxzzDGHfjv9Fv2BGOR8GlsRTLW/OOCAA4oW+6uvvtL8ZphhBk8fFZMo9l4U7eRS7969dWyiPuyyyy7J9WY7SPMkfL8YHP2ss86qeGaN9yFdR/62te11ZFkb8V3F6kojfmt7fNM+++zjkZORKcLfXXfdpa8Sw6IXhcRvu+22fu21105ef/LJJ/vNNtssOU8fNCtP0BkChvyKs1H7qn79+ilEeTJo3r08ebAcnYWXG0/+rd9pnuy0004efY/6LU5ZL8bdpDrntY1q8MRVqgTHz4365VdVqnse0qtAAR/84kv+5NPO8sNGfOa//+HHNive4Z1tUcBjcEEZ5VysHT4oy5dccolHKPryyy+VCcccc4wKnlRy6LnnnvMIZij8KPBpktA4Ve64H/JMp2nE83TjRklEMRQvl34uQi0CrMxv1PNSOO6www6eDqlUPij0CMcffPCBpkc4E2ugvgNhmQaFkCweZx1kxJqr98TzpjykHBCKt4QS6jH/xBOVDDAoJww28JS/PAU8L63MWdS6FMq34447qrKTvDQ6QJnhndQ78cipEh7Kh0Fimmmm8d9//70+ceqpp3oJW/UYomJK8yS+Z8edg0AWTyS6QfsSic5JCiWecO2XrrnmGr2Wp4D/8ssvXiKAvFhxvXhjvXjLk3wqOfj111+1noe2GvLIKwMGzGDEDOn5pWwYivr06RNf9hKhou949NFHC653xkmaJ0EBv/vuu5Pi0LYYqOlPPvzww+Q6B5xfeeWVBdfik6CA03fQ5mNKK+Dce/HFF9X4l4Vn/GwjH6d5Er6V+oJRHMMNhqrOpmq3vc7+nnp8f7G6Uo/f0hlllsgqj5ybRfT5ErEnytswdRhItKvKHTgw3nzzzaxH9Jrx5F9oUMhx9iGn5smgeffIKU8eLKWz/FuS5lXAw/eH35gnr732mspZAwYM0NsSVapyyUcffaTneW2jGjypyiJsMiCKbNGSfvjhR/feBx+5s8+7yB151HHu/gceapmok6/su+++Gt4bwi9FISsINRShS0Mo3377bS0poYTivdTQm3TRhWNOvBYahtatW7f07aY6J+zyjDPOUKz4cPGAO1Ea3ZAhQxSHUjiKoOXWWWcdVyof+CVebydGEQ0rJ3Q01Me5557biYCk4egvv/yyhnUSKggxJYFwXsLBReFwYuEtCIWda665nAjCmpbQlE8++URDTfVCzr+8tNSNBx54ICkfYVyEkEOEwIi320mHoIv5EI688847a5klisCJwKllJe3rr7+u4fWExULiydcQMTFC6Ln9qx8ExCPqmEJBKJ8IO0nBV155ZScDq7aZcPHxxx93CyywgE6dkUHEiWKntwiTol5JhI+2GfEMulAXTjnlFLfnnnuGLLROM+2BMOtKqFgZzj77bK2v6TyZbrTNNts48QAU3BLjmKOPlOiYguu1esK0FPos2qJE52gxabNrrrmmW3LJJR3jCNOVAu5Z30F7JpyTqSNZFPKDt4TByQCf5HfmmWe6PfbYQ6cmEHpN/3TPPfck2TBVhTBH7jH1Rqz5+q4kQYMcXHXVVRrKDxYiNDlCNmNiqgYLtIED/KA/LYfuv/9+5aMYc50YOLUdiQFGH2W8F49gks0JJ5ygc/S5kNf2SvEsydAODIFOQkCMfCpPiANCpwPRnpBjA4nxVGUUxgvkKqbjMNWJaW+MRUbFEaCvYkoZ44VEY7o8GTTvHvzIkwdL6SzFS9h8d9I8YVoAIepMD4OQySHk8ry2US2eVEUB1xJn/FtqqSVcn9693Jmnnuh6Hrive+jRJyoW/DKyb3FJvBA6MDLfMPwxh6UUIbgwx1i8japoxYIw82Ag5jdCMBDhUSyAeh7/Y765eEPcBRdcEF9uymOUWwlLTb5dQlh1/j0dN5SHI4IoczCCkpyXDwo0wiaEIrrRRhvpMf9QamaccUbN5+OPP9b5sXSEgeAtfEVJ4B3MC4dQbOg0mXcNMR/3pZdeajF/U2+m/uWlZT4ncz0pM8oSvyhIEAMd11CqKRMr/cb1kOORI0dqWtYsiFdHDsYh6rBRfSHAvGo6cxTuNP3nP/9RY2C4jlHq+OOPd7fccosabE466SS9JV5VbS+sbYCiQD0I9Yo6w4JVgRhgUBqC4SdcL/e3WBloM6xrkEUoS9RXvhViYKN9sWZDmGuV9VxnXGMMwMAF0ZfTF4X2hVKH0BnO83DPKvuuu+6q/GRswvCSprz8JCJL+0wUb9bUkLB4xQ8sWe8CIwdrjmCIgeBT1jvS76ync74HpRijOAYK+u9gOA/fzMJs9MEYJyQCS8cG1vbII9oDhlnmvWJg+umnnxRj5r1CGFUk2ijJAl6wWj1UKc+SzOzAEOhEBKjbOCmY3y3TXtyCCy6oRlGuQRKF544++miVp5GtWO8Jw7BENOl9+5eNAE4dZErmyQdDRZ4MmnevlDyIcyiWFdM6S3YJm+9qFk9Y8BRDLXIS64ogc0nYueoCeW2jWjxpVwWcD5588smU03PIwmwTjDeeGzZ8jDBY7SqAss07479y3kHl5VkGXgk/VA9TeI6FuBAS6XggPCFZJOE4Tubv6cJsWNGNxiCAhw/vL9u1IDhBxXDkXlCq08J5Vj4Io3jKY0Io5V14mlgoj3fBVxTtmFiEL/A1XKdh4YGS6QXqwec6Xq9yqZy0vBPLGxZlFgaE8OCzaBvXKSsUl5djlCeUNYQ+LKt41LBGh9WAUdqN6guBYFQJ0Qx5pWdwIBICBYPFulAcUBipAxKqrgv6EWlCXQr55uVXyb2sMpTKR+aQq+EpeMFZtIx2hkJaa8QYgNAE0R75XgnPTIrJgI0iWCnuLKxGO6V/iqmc/OArRkU8sixcRz9BX0I/h2cqLOiGgJzuO+N31esxkR30mVtuuaUq1yjiRBQEZYEoDIyxRxxxhI4zREOhLDNu5BHjDQYp2hHGeBZ0LYfawrNy8rc0hkB7I0DbQd658847Vb6gL/k/ifgjehE68cQTHe1K1rjQKCZZ20YdHTK/WdMcfvjhTtamae9i1l3+bCGJvEZkVKA8GbTUPfIoJg/yLLJsoLTOEq43+28WTwImjKNE6CL3szgsxve8tgHmUFt50q4K+ItDXnY39LtFPR7vf/Ch+1MGudkl7LC9aL/99tMBmUE5/JWjEGFBQmnGqw0TEMICcYzSE1uYwr34F28OAhKKOFZ5nmOFXDwRzUx4ulEYEDjLjQwICniMW1Y+KBl4fwjVDESoFAKaLP6kgldQ+NN8JT2ekWAt5JxV7/GCUGcIb0TYbg+ifChM7PdLNAVetpgY3KC4HlJWVnRHsMZTjnCJAgZWDJaU2VZMjlGsj2O8lhD1OE1EXRCaFoiQ7UDUkRAWyEqc1An6sE033dTJ/CXtc0Pa+Je+rC2UVYZy8qN/xHOPokOdx2iW3qGgnHzaOw1jAF5QCMFz8ODBBeHHeCqIYkERbA3uodxE5Fx44YUqzMYh5OXkF49BRMxAKIFEFxBxFKJ7eIeshRFe2TC/bD+GUCSL2WldR2HGS41iDhGKiXEiEJ4nDFJxBEi4F//Sj5IWwRUiyoDdBIpRaENt4VmxvO26IdCRCLDTBk4Mxg8iRpDVmMIxcODApBhME2JaCzvN0AZlLRt30EEHaVg0/TnT94wKEcDQyo4IsXyZJ4Pm3SslD6afLVdnKSxx459l8SR8NX0+EcxMwWC8QN/IaxvV4km7KuCrrLyiCgiHHimeYVHEt95iExFcxg7fXBO/CLGEQ4YQUDyQ8byycDz77LPnlpdGgBUK4ZI/rF+EXGJNbFbCW8P2PAiyWE7LIToPhF6ssoGK5cPAgcAVrH9EPrBVEIMHHuJYMYevDCAhHBEhCqUn8JXtkBh4CO1kTshUU00VXl+13+OOO86dc845SX7MUYfS80apSwiDoe6RhrDXUFbqFaFizz//vM5L59uI4MAAZFRfCCD4U38xGMXE2gcM4LLabHIZASlNeB+IhNh88811igceP4xIRIFAPENegULobDhv7W9WGcrJQxZV1LaHh4UwecLS643oV+gzmPNdCve8byOChXBOvOshAqec/IphT79F/xWmW2GYDNtt5pWjnu5hpOQPwQjDNn+ME4TNhjB0DDrgEAhDFKHjrK2RRxgs4GuIIMK7EdZX4DmiC7LaUFt4llceu2cIdBQCTFsiEoltrALRZkLYdLjGL2MRUScY93As4d0l6hM5JG4v8TPNeIycCSaE9ceUJ4Pm3SslD/JsLCuG4yAvxmVo1uNiPEGHIKoQQzZEtCz1G5k8r21Uiyddq8mQM047sSA7lIj99tlLBYNyPNEFD7fTCcIJyhmAI4wyoGPxwBsJESrNPGXmkyPYHHnkkaoMAngesYhLTFR+5oDglW9GQjji+xE2sSSBOYT3IiieWbgQnoo3h1AQKC8fvL9x+HmfPn1UIcVKiyIf3slcckITUaoJ3WR+LOGleE8QhBFcmQOIV4l93fE8QgheYXEGvdDGf3iwCBfHaIBllNBWvJYYfwjJxZPDAkBgBG54tjEI0HkQSh/CwlDGKSfY4KXnmPKXqqNtLL493g4I4LXEMsv8I+ofv+zxTjgxghBW2TwKSpdsnafrHTAHmJBblEQI5YL2QJ3GG1gqv7x3teUebQ8vCv0h30kIfa0T+zozNQCvK9ExGBJpuwzYKHdQMdxLfRuLhSHkhrn4pfiYlx9eKwwahInijaLuBC9t3nP1dI86TL/I+BwbIphPjwEKoyT1i3GbeeKsk4HBk3n7st2djvVEYNCvBu9F+H7mubKwGn9EamEsDgYs0tCG7rjjDo2sYmFOlA+8gm3hWXi3/RoCnYkA/RdyB9FzyEZME2INDOSjmOjvaD/0gxCRUIxPRAHRxtorWjAuQ70cBwWYPiimPBmUPqmYfEp/lycPVqqzxGVr9ONiPEHXYAFTFsxENkEPZOFO5PS8tlE1noStverpV7zKIl+MIbFO69LxAt6Yi/87EiOAZ5l+iP2opaIlf1Lh9Vp6v2dRaHQfXtKyDL2EHerz8T/xWOlWUPG1+FgU8GT/8fh6ox6nt50Q61+Cc4y5WFsLIEjjyL6T7IUbqFg+0ul4+CeNJSTV7cjid4XjsEe2KOz6DNfZrizUF1FYMssqynGSNwfiYdd06fpXkOh/J1lpJdrCs68gW3hQBlHCvQhz+gTbIHBNlGo9F4Vc6x7XxEPqZSXr5DVsYyZKgG7rxl7hbGMlnv3kfjhI8yRct9/OQ6AYTyQs2YvSrP0OPJVIDi/KdFJQ6qsIRcm5GAZ9jx499Jzt6UQI0m1ixLil+0eL4qjb8YlHPNnXW4ygPrQnUSqTvNIHoe6G9hHu55VBjG2Z+4CHZ/kVa7PW8V69esWXO/04zROZ463lpO3xJ4Y4LzstePb6Bs9AebiHNPyKd0jzEYNgfNmzNyz5iwFGr+flJ/PSdT/ekIF4WPRZtj2E+vfv78XTq32FRENo3xDGvfBMPf3GPBFFV/tM6liaqMdi0PEyxcFLNIHuVyzCkWIji2rqdm48w9aRYC2GqHQWei5Ra9qGSCNTDDxtkLEJYvygPXFPQtO9KPq6TSX32sIznjdqOwJxXWl7bs2XA1soijFQ6zfyshigWoAgCqCX+d7JdYk68RJx4mVHDS9Gq+R6OGhmnjCWZ21RDDbFZNBS9/LkQZ4tR2cxnrTcNhrs2Oo11H9kpFj/yGsb1eBJFxRvGVjqip4fNNCJ8NmuZSacmTDytLW8XV9ax5kPHz5C5sn/u2J8Wz6DaAQ8ZPzlkbQbnQPNlkqtITwbeJs7c/4pnhNCheM5ncW+gdAuvOREk6QJzxw4YIHOomrxJCtvu1YZAqV4QuQG1tViPC32VsJniehgS74sIvIHb27e4odZz5V7jYVLqKt4E+uNSvEk73tK4Z73bNa9SvIjNJtpM0TCQERQEGGDx4o1AeqR2sITxm5C++O2QD9JNBOLTcXXY2yIiqNfZmwgmoiIB7zrEJEKYdxIL3BXCc/i99px2xBoS11p25sb62ki7WgbRP6liQgQ1tNhDAnEehiMV0QYpsl4kkZkzHmeDJp3jxzy5MFSOovxZAwPso7YxYX6nxWtndc22sKTqoagZ31UvV5jdbt4hbt6/Y56K3e8aEVe2RGCWqt8kx/KTWcq35SBBl6O8k3aPANQmPtOOqPGQKCU4anYV6JY5ynXeYtKFcuzNdeZykN4bj0q4K35znTaUrin05c6ryQ/pjsx/Yb5z4TUseUj18IClKXe2Wj3s8ZuFkeVaLaiyjcYdO3atejYgFJSbGyqhGeNhrl9T/0jwFSLYsQaI2mijzFqPQJ5MmjePd6UJw9m9XutL13zPpEnk+e1jbbwpOWqPs2Lv325IWAIGAKGQAUI9O3bVxeeqeBRe6SNCOCVYuV2FEQWimNOuIRcl4wiauNr6+pxVq7Ho10usWo/cwCNDAFDwBAwBAyB9kDAPODtgarlaQgYAoZAEyFg0UKdy2z2r+bPqDoIlLtrR3XeZrkYAoaAIWAINBsC5gFvNo7b9xoChoAhYAgYAoaAIWAIGAKGgCFgCHQKAl1Y0blT3tzGl3bvbnsetxFCe9wQMAQMAUPAEDAEDAFDwBAwBAwBQ6ADEbBV0DsQ7EZ+la2wWHvcNZ4YT2oPgdorkbUT40ntIWAlKhcBa7/lItVx6YwnHYd1uW8ynpSLVMelsxD0jsPa3mQIGAKGgCFgCBgChoAhYAgYAoaAIdDECJgC3sTMt083BAwBQ8AQMAQMAUPAEDAEDAFDwBDoOARMAe84rO1NhoAhYAgYAoaAIdAGBH7//Xe30koruWOPPbYNuVTv0QMPPNBtvfXWzvu6XE6nekBYToaAIWAIGAJlI2AKeNlQWUJDwBAwBAwBQ8AQ6EwErr76ajdixAh38MEHd2Yxknf37NlT92G/9957k2t2YAgYAoaAIWAI5CEwdu9jj+2Tl6Ccez///LMb8NxA1++mW90sM8/kpphiiuSxL0Z+6W648WZ32x13u6WXWsKNP/74yb1KD0aMGO66deuWPP7333+7c88910055ZRu6qmnTq5zcP7557sJJpjATT/99O62225zDz30kBs4cKAbNGiQe/31112XLl3cjDPOWPDMn3/+qQPqAw88kDxbkEBOvv76a3fZZZe55ZdfPrk1dOhQJ6vKu7fffjv5m3TSSR1/jU4//fSTm2yylt/53nvvuZtuukk/f+aZZy6AIe/eN9984w499FC3wQYb6DN5aeHpM8884xZffHFHXYAHDz74oJtppplaYP/WW29pech/jjnmcGONNcYG9cMPP7jbb7/d8a7u3bu7ccYZp6C8nFx66aVu2mmndZNPPnmLe+kLWWn/+OMPR716/PHHtWzp+hrnQRlvvfVW99prr2kdnWiiiZLb1L9bbrnFDRkyRMsz2WSTJffCQTGehPv22/EIpHlC33nRRRe5WWaZRdpPSx5SQvqTiy++WPtO0mXRqFGj3IUXXuheeOEFt+yyy7ZIQj/48ssvu6WWWkrbyvPPP+8WXHDBFuniCyNHjtQ+jnbVtWvX+FaLY/Lu16+fow3NNddcBfc//PBDh9L066+/arsquFkDJ2melDueUPRXX33VrbLKKsrDueee280555z6RVdccYVixrgT0+jRo3VMYgzi78UXX3TgQ7q4fcfPNONxmicxBu+//76bYYYZ3JprrunGHnvs+FanHE888cRqEPjtt9/cyiuv3CllaOaX5tWVZsal3G/Pk1uRV6699lqVqeabb75Efme82X///d2qq67qxh133BavahaeZMl4jB/333+/ynn0DdNNN10BPnmyLOMoesp3332nOk7cv4EpMt+wYcN0HI3vlSNX1jpP0lg++eSTOj4is8d/YBrk7zx5/oMPPlCZZLzxxtPxtYAJ/zup5J3l5EOaJ554QmWuoA++8847bv755y98/PfRf/i2/h121HG+72X/9Xvue5B/652hSX4jv/ra77XfQf6Gfrf6Dz/+JLne1veJgiXRXmNIBj5iv7woemMu/u9IFH7ft29fPVtttdW8KOlehFC/6KKLelF+9DkJH/P//POPpvnrr7/0vjDZr7XWWl4Ezxb5SufjJQROn49fuM8++3jeJwpa8nfXXXfFSRr2eNiw4S2+bbvttvPSOfs11ljDi1HGS+Xz0lFourx7JLjxxht9jx49ykq78cYbK4+l0/LS2emfDAxeFGjfq1cvzYN/p512mvKbe9SDLbbYIrknnZ6mF2XDy0DjJ5lkEi9KfXKfg9NPP12ff+qppwquZ51kpRXlxIug7UW59yussIJi079//6zHvXQsXjoOP8888/iFFlrIi+LlP/30U00rHbjWLzHseFG2vBgRvBgcWuSTxZMWiexChyKQ5sknn3yidUo668xyyKDpRbHzCy+8sPY3pM+i4cOHaz70g4MHDy5IIsq23qO/gw477DBPGyhF4TkxBJVK6sUAqu+YbbbZWqQVQ5reo3+sRUrzpNzxJHyLCE1ejIv+rLPOCpe8GIiTcSe5KAfffvutYiHGPx1n6GsmnHBCL0Zif91118VJm/o4zZMAhgi3ftZZZ1UMs8b7kK4jf0UR8dR7+mPjYUci/++7itWVji9Jfb4xT27da6+9/Oqrr+633XZbv/baaycfePLJJ/vNNtssOU8fNANPsmQ8cd559IxpppnGi4FQ9YcjjjgigSdP7r3gggtUJuQ5nhdDtic/aMCAATpGoLtwnbFcDOR6r1y5spZ5koUl+lesSzFOIt+IoV+/O0+eB3PkZ7CkX86qq5W8U1+c+peVD0ngkThVCr4B/TIm11ZlmOdH/fKrKtc9D+lVoID3u+V2f+oZ5/jPv/jSf/f9DzWhgG+//fbx96uQJF5wLx4mvX7JJZd4sa74L7/8Us+POeYYVX4CcM8995xHeKIiBIE2ZLjccst50jcjpRs3SiKK4bPPPqtwIHgiZN58880+717AbocddlCFuVRaFHqUZbF2aXqEs9BpIQyJV8n/+OOPHgUF48gNN9ygrxDPlfIQfkIo3hJKqMf8E8970mhRQGjA8Jy/PAU8L63MWdS6FMq34447+iWWWCJ5Z3yAgsQ7qXfiNVMlPJSPTpwO+vvvv9dHTj31VG3oKA4xpXkS37PjzkEgzZNSCjj19LzzzvPiKfeXX365F6twZsFjBRwFO6aDDjqooL/C2BgMjnG69HElCjh9aWwA4D0Yj2g3jaqAYywbIAJSTCiKWRgHBfzuu+9OkktkgF9vvfW0rxJveHK90oPQv1T6fC08l24noUyPPvqoCrVbbbWVGsHD9c76/eWXX7R9vvLKKx4jGm3UqGMRKFZXOrYU9fu2PLmVvvvhhx/24nVV5ZBxCLkDB8abb75Z9KMbmSd5Mh7KIYriu+++q9iIx1r7dZxDebIs93H6nXPOOfocSjVybZBXN9lkE7/OOuvoPcYWDH4nnXSSnpcrV9YiT/Kw1I+L/qGQ4zhF5s+T56mfyP1XXXWVPi3Rzip/iAdazyt9Z1SUkvnIFCl9J/JbHo2JvxUJqVIqFp7IvnOfj/zKXXy2uMYNAABAAElEQVTJFe6YY090jz3+ZKWvaLfn9t13XyfCj4Za8hJRyNz666+vYb2c77TTTk6YrWGgnIs33Yn3UkPeOQ8kwpaGtBOuSVgioRECfLjddL+E451xxhmKFR/PtARRGjVkOu8eacFNBC0nHY4rlRZ+EeJDODnhn4TzhvpISKgISI7QD0J7CNlhsRxokUUWceJVdDK4aGisWHg1pEpvyj/CaAkPhSTiwomipCEleiHnX17aXXbZRcOSQvkI4yJcCRIBzom3W8PN+X6mSOy8885aZkK8RODUspKWqRPSISdhOOLJd2JkcITcGDUWAtQRMVpp2zn77LO1L8r7QuoC0ygC0S9xTp8WiHyoW9CZZ57p9thjD7fhhhs6Qruo9/fcc09Iqr/HHXectjHCpI888siCe/EJUz4IfyeELhDtk28QIS9caphf2ixh0CuuuKITr4eGooc2KFE/On2knI9lihShhfR1EvmjjzDGSPRU8vgJJ5zg9t57b3fIIYc48UrpdbAVg7JOZaGv++9//+tEKNapM/R39CNHHXWUE2FNQ/DEEKN9jAggSb71diBCleJNnR0wYICOs/E3iAKsC7RRl5kawPSdcoiQ0SWXXNKJ0OvEwKljjxhJ9NFivOAm4btMKYL/jFdMtwp1oJy2VU7ZLI0h0F4IlJJbmT6JjMLUGeQWZCiJ9HHrrruuW2CBBdqrWDWdb56MRz/OGIws99lnn7lNN91UQ8YJmc6TZel/4AXrWoiRVnGWiMdEXuXZQEybZXrkV199pZfy5MrwTK3+5mEZl5l+/+mnn9bxkW/Pk+cZ91ioMxAh6BDTNqFK36kPR//y8kEHZLo1U1nFCemYzpdFVVHAszLmGvMBe6y0vDuu95Fu//32dg8+8phWsmLp23r9yiuvVCEFQSX8MTeiFC2zzDI671e8japoxfMsw7zlL774QrOhIohnVeebx/ky6KLs7bbbbjovnPmVCGFca0ZCuRVPXPLpKAHMXaHjzrvHAwi2dDJBSS6WD2lRoCU0ikPt+DbaaCM95h/rAjC/n3w+/vhjFULjed3wFr6KxVLLGuZv0rEhCGOYgVBOXnrppcy5tZog+peXlsYo4eRaZgQ2yn7KKafo0wx0XKOjpkx0IHE95Dg0YvGaO+ZBBmKOCSQW1nDJfhsAgc8//1yFeoxLzCfCCMNgS8dfjLbcckttZ8wFh+j8qUsoioGo3xgVIYn0cfRpKN6PPPKIzlHafffdC/ppBhPa73777acKO+stFCMMXDKtIrmNQLL55ptnzhNMEtXoQanxRCJYtJ967LHHVFmm/YX2zLxu5vGVSyh+CLShLTOeiCU/eRw+IdDRn6FAw1OJkFE+oQDKNBy355576vhFPhg8xZviJKLLHX300Wo4ZpEwyljOmJi8uIYOwBOlGKO4hMU6+m/WYQmE0RYBlj4YIxLrezA2IIfkEUo09RbjEWtzMFeStoBREyrGC+7l1YFy2hZ5GBkCnYVAKbmVPob+A3ka2Yo1S+hT+vTp01lF7vT35sl4jKv0U/RN/LFekERM6jiRJ/fyHGnpr3BUIQ9iPA3zvMGb9X5Yw4W5+BhFcB5CeXJlp4NVogB5WIZHWTsGHQDjczD65MnzjH0Snq51Vrzmuk4B9Tis11XpO0N5wm9ePshMjLPI7WGswiCbpnZVwCVE20026ST6ztm7zSZCw2gRHr5Nl6Fq53wwzIr/yskckHiWgRfrU7wYDt4JlEE6HgirRhahaMPsO++8Uz0+CDsIyniBm51YJA3Fge1aqIwxZd0LSjW4x5SVFkEJz0NMWBJ5Fzy4/vrrlWfwFUU7Jvgc+Bquo/zCR+pu4F3WIiMhffq3nLS8E68UFuXgLUTJYkEIrlNWKC4vx3gSse4h9GENxIuJNTqsBhxb/dLlsvP6QwDllb6MgYdBGX6ziAcGwGLEoI/HLtSrYJGPDU/pZ6l7GKt4joV1qH9xu5C5abq4FIIYC8XlGXowACBMYABASEAZJ7qkHilvPMFYS9u75ppr3LzzzqsKLzgGI1kl38s4FKz0Wc/T9ukzMMBhIERBxOvNllyUBcGMaAXymX322dWrjmKO8IwRBA94PRPeZb6fOoZyjSIuIZqJkZvIDgRYmf+n4wzRUCjBjBt5xHhDXQVDjPEy5SMveXKvnDpQqm0lmdmBIdAJCJSSW0888URHuzrggAN0QSuZ76qODpRF5KPDDz/c4altJsqT8ehv8GYTsSRh6Nof0U+lx4W0LMtzn0iUJYtL8hyRtkTzML5AyLLIf91k8WnGePp+DIcxZcmV8f1aPM7DMpSXhYj59mBw4HqePA8OyD1TTTWVytPI8jj/MGBDlb5TH47+5eWDnEQkBLISDg+ZfudkPSqNXo2ycO2qgC+6yMJu0AsvqRD58iuvCSBTipVnmvj9VT3GQ8OAHP/lgRReTsXHA8Eq6gi6KOKBOEbwQajJo8UWW0yt5ngxEQ6wjiAYsdJtMxPeNbBAIUaQj6nYvaCAl0pLp0Z4ucyXTpISKoWAxsqddHJB4U/zlQfwjNCZBaLjwwtCnSG8sdiq1CF9pb+Uj46V0GKUKTz+MTG4QXE9pKyE+GKUoI4hXNIBgxUDIWXGEmrUOAjQL2FMwnu99NJL6x+DSDDQFPvS4IVGQShHAY77NizvEM8GwigEYY2nj8wz9OChJSQbAwAGSPrCVVZZRZ+vt3954wmKIJ5o2iJjB6GGH330UUHkQGu/F34jYGURYxDRDAheGELon4jsiY3F4I7wEUKniZJBWQ9E31bPxEr6KAwIqWCOwgweKOYQIfkYkQKFSAC2LMsj+lHSYmyHiAZJr14fPw8voHLqQKm2Fedrx4ZARyNQjtxKJCdT3ojIog3KnGM15jFNDsNVvRpY2wNrxkfGBKLICEOX9XlU/wGrQFlyL8oiYyXGDqYTobAxnZXIN/o8jIJ4dYlEI0oHgyrGj5hKyZVx2no6ZkcRDMmxrJ4nzxMRhgcaJwBRbESVoYBj0CiXst5Z7rOkw5GB4QBZHj2id+/e+nhcD7jQrgr4kkss5sbtOrY7rFdvDT/favNNtBC19A+FDW9C2D4EYZP524HCMR6FPCIMcdddd3WyAE6SjBDCEDKRXGyiA7xqzFekU8FyGlOxeyidsoiTeqFD+mJp8X4jcAUhFG8hc10xeuAhjhVz+MoAEsIREaJQ3gNfabAYTPAwsv0BHWK1Ce8UYaGB6GghwsBionNBGAx1j3t0IqGsdCxMcWArKTpovg1vHd4Wo8ZBgLUNmMuKAkFfwh/9DIpHHmF5xQsdDDOhbyv2DAN/HpW6n342GACwQhM239rn0/nV4jleHyISEIQY3PFgoOBiMKmE6LPoj2TnB30cY0c87w/DC/3T8ccfr0Y4FDv6BNp9IKbJILSFOW+kD+tYkCZMSwjp6+kXIyV/CK9MgeCPcYKwwhCGjoGSfjwQBhHaDIJwHmE0AvtgWMLAFeZX8lwWL7heTh1oxLrPtxs1BgKtkVtl5XONOpGFbnWNHjySKBbIIXF7aQxkKvsKDKgYB9MUts0qJssiw9FXBFmW55FRUd7oZ+ibYgMqhlXkAvSXcuXKdJnq4RyZnfrF1N6Y8uR5HGn06dRTCOcUUz+ZFlYOFXtnOc+GNExFY1vYQOgd8DOtD+ZLXuHpMn/POO1EN0f3MYoq4doH99zfnXfWae64o49wCy+Uv+9sma9pUzK8pihnKC6EJxNuTEVGsIEIlaZTwnICI1l0iDQoRXlE+B+WeBRNBn327WWxLITRZiSEI+ZtyGrmDisrmPNHSEbePfjCXBnCRqC8tHh/4/DzPjJPhuexOqLIh3dS+QlNRKnGMkWHxvwavCfMa0KIhU94/9h7HEGWZ/E4VZMQmqlndCjUOVkxXztrFCRC31HO+aUjJswcBQqhGY8WdRUsIQRvPG54uBj4KDPlL1VHq/ktlld1EUBxCPWVXxQnIkdQwqirhCZTtzE44f3MI7x3KHIMzNSL9FSOvGercQ8DAPUbb0mjekeC4ku/z2CP1Z2IGwSicuiNN95Qfsv2gRr+D2YMzgEv8qTdw3fSML85JvotPCPwGOWfUHQUVOa6BaKPuO+++3RqCwu6xQJBSFMvv9QlPN+Mz4wn4Y/wehbkoZ/ESwcfwA0DFNhgwCJ6BAMG/WuWogBmGM4JG6X/Jew2NqTAizvuuEOfJf/Ai7bWgXrB3srZuAiUK7dizMKgSvQNhKKJnEsUEG2svaIF6w15Foekj6C/BRv6FOYkM7UlT5alD0JxZ7oZsitOQfpz1kwiIgfvL0od88sZO5iuSGg7xtY8ubLe8EuXNzih4kgu0uTJ80QgIH8Qxo/8xLRgovFYI6UcKvbOvDEknS88R24jKgsDPbI+PIwjtPSZamxD1tF5CJhiTBhDAjIxYbrF1Zir/x6JJ9GztRjEftSkC3+ikOm19H7P7FsrVm9NxxYNMuFfn4//SYizbgUVXxOl3YsQpc/xXvaHaxYaltoHXCxWCc4Bb34lSsDn3WPfSbGqJrAVSyuCmId/ssptklY6sMx3hj2yRWHXZygH25WxJRokgnPmc+QXk3jYNV26/sVpwnFWWhHOdSsmtvCgDNIgvQhz+ogoVXpNOmk9F0HQU/dIJ1ZRL51HyFq3WWMbHuoYex2yhZEYGZL74SDNk3DdfjsPgTRPxBikPIbP8Z8IRlpI+hm2ReQe9V3CojMLLwOOphFPqt4Xr6CeiyKv5zIYJf2VGMaSfcBlwNd9XkOmYhzS50R48OFYPILhtpcojGTLxuSiHIhlX+tzuCZTPzRtOGdbvWJlD2k66zfNk3LHE7YFFOFTt+eRaBZPnwSv2AZMBNTMfcBFgFJ8A68ljFm3aaNfFEU6gYA+K/BdDCqebWjYGjEmxjXeT14y4Os2jPF9URB1a0UJg/MSTeEljC/hbZyuFo9jnvAd9JnU2zSJEUL3eZWQT92qTwwYuv0lmMiimj6M7WwdyTUxrqaz0HO2rAxYirdE+1XaHpTHi7w6kNe2NGP7VxUE4rpSlQybLJNy5FZxCHgJeU6QYXyRiBMv6194mV6YXA8HzcCTLBlPDHdenCzaf9DfIGeKEqawFJNl6fshthgFU56jLxLlXa/zD7mQMUaM6XpfFHqP7ADlyZWa4H//apknWVhSbDEat9juOXxTMXme+2zdKusmKV7oclmyR2vfWWwMycpHIhY8ugwyG/xEHgiyWSg/v11QniVBXdHzgwYmoXrtVXABVSf+h/m4rXkPIQyEjxK61iw0fPgIscTN3ObPxXKFJzrMRS2WodRdnQPNAkitITwbeDkIV+wswnOC1yqeH1isLHhssIwSkp4mPGDgIJ11+paeV4snmZnbxYoQqIQn8BjrK544C2mtCPbchyrhSciQ0EAiaejvq03Mrwx9VbEoBvoz6gb9WbpuEDVDufAWQHjJWUyJeeJdZQ57LVNbeMLYzTfGPKENMUceb0h8PcaAdQ/ol8GSaCKmTjHNAMrjRXvWgbh8dpyNQFvqSnaOzXk1T24lAoT1dEIoNQixEjXeWtaiSFOz84SIGvqSeN5yGqNi5/CB/idr4VTGA0KqRbFr8XgpubIReZInz9OfMzbS3xdbPLsFiDkXyhlD0o9TD4hiQ3bLotoehbNK3EHXWHU6XoW6Na8tBnZr8mjWtOV2WAikrVW+wRQhtTOVb8pAB1qO8k3aPANQPF+ItEaNiQB1vdx20ZgI1O5XMbBXY3DP+kIMuKX4Tn9WrC9BgNtmm2102g3CA3OlWZOja40r31lYtOZa1tjN/ujsRV9M+SZ/cCk2NuTxoj3rQGu+29IaAm1BIE9uZa2LNIU1adLX7dyp8lyq7y6GUx4fmIZTjFojVxbLo96u58nz9OfMFa8WlTOGpN/FGJzHT1PA04jZuSFgCBgChoAhUOcIsCouxhsWq8SDy/okrM7bjMQiPHi0yyVwYn6skSFgCBgChoAh0NoxpBzETAEvByVLYwgYAoaAIWAI1BECeADwgPNn1DoE0rt2tO5pS20IGAKGgCFgCOQjUNVV0PNfZXcNAUPAEDAEDAFDwBAwBAwBQ8AQMAQMgeZFoAsrOtfj53fvPkc9FtvKbAgYAoaAIWAIGAKGgCFgCBgChoAh0KQIdJ13/oXq7tPfffuNqqy4XXcfXsMFHj68Oqug1/An1l3RjCe1xzLjifGk9hCovRJZO6k9ntRqiayu1B5njCfGk9pDoPZKZCHotccTK5EhYAgYAoaAIWAIGAKGgCFgCBgChkADImAKeAMy1T7JEDAEDAFDwBAwBAwBQ8AQMAQMAUOg9hAwBbz2eGIlMgQMAUPAEGhCBD777DN38803u6+//trdeuut7v33329CFOyTDQFDwBAwBAyBxkbAtiFrbP7a1xkChoAhYAjUCQKrr766m2yyydzee++te3e/8cYbdVJyK6YhYAgYAoaAIWAIlItAVRTwUaN+ca+8+pp76aWX3aabbuRmm3VW9+2337kLL+pbUI6/vXd77Laz6zbbbAXX23ry999/u/POO89tsMEGbt555y3I7vzzz3errrqqW2SRRdxtt93mhg0bpve7dOniJppoIrfUUku5JZZYouCZP//80z355JPu3Xffdaussoo+W5BATvBQXH/99e7QQw8tuPXyyy+7AQMGuLnmmsutueaabpxxxim432wn7733nnvkkUfc0ksv7ZZZZpmCz3/llVecrMLv2OAewROeBPrmm2/cscce6y699FK9lJfPQw895D7//HO3++67q9D69NNPu3feecdtsskmbqaZZgpZ6u9bb73lHnvsMTfnnHO6dddd14099tjJ/R9++MHdd999bvzxx9e6NMEEEyT3wgHlWW+99dxsZdThrLR//PGHe/jhh93w4cP1m9P1NbyHXzCgPODCO6eddtrkNvXv3nvv1e/lO2aZZZbknh3UHwKjR492gwYNctRdaMMNN3SLLbZY0iYuv/xyt9xyy7mFF1448+OoV2eddZabfvrptR1kJsq5OGrUKHfZZZcVTUH7fOGFF4qW4ZlnnnFffPGF23rrrQvyePDBB7Wuo1Cm6dlnn3Wvvvqq23///dO3OvUcXlx00UVJGegjJp98crf++usXtEES8N1PPPGE22uvvVr0NSGD3377zfXt29etuOKKbtlllw2X9ffiiy92PXr00D6QC4xhvXr10n7piiuucN27dy9I36wnRAUQHZBF9H1xvaPfZQw/8MADNfnIkSPdjTfeqPWMvr219OKLL7r777/f7brrrq5bt265j9N+v/zyS7fVVlvlprObhkCtIDB06FCXNvTRT80888yOceWGG25wP/74o9ttt920H6TcjBeHHHKIO/fcc93EE09cK5/S4eXIkvHQRx544AH3wQcfqA6AfBtTniybpz/89NNP7q677nJTTDGFyq6xbtEauTIuSy0dp7FEB0MGThN6RJC/8+R58Ec3WGmlldyiiy6azkbPK3lnVkbpfEiDXPD9998nyZHjN9988+RcD0Z+9a1v698hR/b25150md9jn55+8IuvZOY35OXX/P4HH+k/++KrzPutKQNbp8UkAg5bqfmbbropvqzHMuB6EX70eLXVVvNTTjmlF6XbC0P81FNPrc/J4O3/+ecfTfPXX3/pfelU/FprreW7du3aIl/pfLwwVZ+PX3jBBRf4cccd14vi7aeZZhovSrgXQSBO0rDHw4YNb/Ft2223neKxxhpreOk0/Pzzz++lo9B0O+20kwfjtdde24shxG+//fYFz4vA5EUw1Wt5+ZBg4403Vh5/9913frrpptM/Mbp46aC8CLOaB/9OO+005Tf3qAdbbLFFck+MM5p+8cUX9/PNN5+fZJJJvAjXyX0OTj/9dH3+qaeeKriedZKVVhR8LwqSF6Har7DCCopN//79sx730rH48cYbz88zzzxeOnAvQqb/9NNPNa104F6UcT/ppJN6GSj9WGON5UXRaZFPFk9aJLILHYpAFk/oT5Zffnkvip72K/QtHIthJSkb/JdOPjlPH4gS62VQ0jpx3XXXpW+XPJeBTvs9+kYxSGo9p55yzt/tt9+udbBYGQ477DBPu0rTtddeq3lJKHX6lhejnBdFpcX1jr6Q5sm3336rZZ5jjjn02+m36A/EIOfT2Ipgqv3FAQccULTYX331leY3wwwzePqomESx96JoJ5d69+6tYxP1YZdddkmuN9tBmid77LFHUhfp98At1E0x7iTwvPnmm9ofiuEyuSaGI8VfjJbJtdYc0FeLMTeREfKeFaXEI2cYdRwC6brScW9ujDfts88+HjkZmSL8iaKnHyeGRS/GV7/tttuqrBa++OSTT/abbbZZOG3x2ww8yZLxkPdp/8j/6AHoD0cccUSCT54sm6c/DBgwQMcf+jz0CnQXMSxqvuXKlbXMkyws0b9CfeR3wgkn1H68X79++t158jyYIz/DA8aLrLpayTsTRkYHWflwGx5JNFvBN6BfxuRao/gWSzvi8y9VqUbBLqaAn31eX3/zbXe1WfmmDG1RwNOKHsq5WCa8eCIUl0suuUQHd7Fi6/kxxxyjgmcA7rnnnvMIZij8ABwIwQqF8pxzztFLNAqENrEehiQN/Ztu3CiJKIbi5dLvRqhFgBVPhn/ttdcUczoVSDy5iudHH32k5/zbYYcdVGHOy4d0KPTgLNYuTT/rrLMmRg+EZZR7hGTxOOsgE/ghnjd9J/yEULx79uypx/wTT1TSaFFOaMDwnL88BTwvrXj0tS4Fo8yOO+6oyk7y0ugAZYZ3Uu/EI6dKeCgfnTgdvFjX9IlTTz1VGzqGqJjSPInv2XHnIJDFE4lu0L5EonOSQoknTdvINddco9fyFPBffvnFSwSQl4gSL1ZXL97yJJ9KDn799Vet57TVmPLKgAEzGDHjZygbA2CfPn3iy14iVPQdjz76aMH1zjhJ8yQo4HfffXdSHNoWRkP6kw8//DC5zgHnV155ZcG1+CQo4PQdtPmY0go498Tjqsa/LDzjZxv5OM2T+FslEiHpm+PrHKNs33HHHenLXrxSLa6Vc4G2QNtiPC+HTAEvB6XqpsmrK9V9U2PmJpFVHjk3i+jzJWLPMzbhXPr5559V7sCBgbGrGDUyT/JkPJRDFEWJnlVobrnlFh0z0A/yZNlS+gMGwHXWWUfzpC/D2H7SSSfpeblyZS3yJA/LdN1CIcdxisyfJ88jFzNOX3XVVZqFRBaqrIHMAVX6Tn04+peXz4gRI/Sd6Bl5VJVF2MTKI7JFcRKBxg2VxWSWWXqp4ok66c6+++6r4b0h/FIUsoJQQxG6NITy7bff1hISSigWcQ29iYtMiJoITO7ggw+W8PtvNYRQPJYFoXFx+kY/JuzyjDPOUKz4VsJmRGl0Q4YM0fARwksIyYQIZ4II3YGkwjoRzJ10OC4vH9LCL/F6OzGKaFg5oaOhPs4999xOFAANRye0h1DSEKrIlATCeQkHFyHLiYW3IBSWKQSEHkKEyX/yyScaUqIXcv7lpRWPloYmhfLx3eGbCccXb7cT44R+P+HIO++8s5ZZBj4NaaSs0Ouvv67h9YTFQuLJ1xAxQm6M6gsBGXg1TIpQPhF2ksKvvPLKToyB2mbCxccff9wtsMACOnVGBiMnip3eIoSQkDexvGubkUggDX/j5imnnOL23HPPkIXWaaY9EGZdCRUrw9lnn631NZ2nCCNum222cSKYFNwS45iG80p0TMH1Wj0hdJm+n7ZIODNEmxULu1tyySUd4wjTlfLaIO2ZcE6mjmRRyA/eEvIvRrgkvzPPPNOJF1inJhDySf90zz33JNkwVYXQPO4x9UYii/RdSYIGPwj1XDxETgyXBfWc8FqJaioIBwxw0HaY2gF/aX+M34SvQ2JUUUyZEtBNQs/hceivRRFxYkzRsYf2JAYmfYZ/tEumEogQqO2VMEgjQ6AWEUBmRZ4QB4ROByKkF/krkBhPtc4zXiC3IEMx1Ylpb4xFzUh5Mp4o3CqPIcsxZWbTTTfVaa/IanmybCn9gWcDEcpM+HkY//PkyvBMrf7mYRmXWZRpnZ7H2Mu358nz1N/ff/89eVw84XrMtE2o0nfqw9G/vHyYWseYwhQyptoxDSqLqqKAZ2UcX3tmwLNuicUWcRNO2HJObZyurccMmMw1jP+YG1GKEFzEOuXE26iKViwIMw8GYn4jREVAeBQLoJ6Hf8zplTAJFXxQNOm4jjrqKO2wQppm+kW5lbDU5JMlhFU7IjpuFhlCWKVSSkSC+89//uMkDEoVaB5AEKWTCUpysXxIi1KKsAmhiG600UZ6zD+UmhlnnFHz+fjjj3V+bDxvBt7CV5QE3sG8cIiOjYbOvGuI+bgvvfRSi/mbejP1Ly8tjZH5QJQZZYlfBEeI+sI1OmrKRAcS10OOQyNmzYJ4deRgHKIOG9UXAsyrZsBA4U4T7YJ5x4EwSh1//PGOQZ42IhZwvYUiQHthbQPmiFEPQr2izog1NmShxi6UjqBIJDfKPChWBtoMfWAWoThSX/lWCKGP9sWaDZS7logxAIEUEs+24hzaF8otQmc4z8M965uYQww/GZ8wvKQpLz/mFTP2oHizpoaExSt+YMl6Fxg5mOeGIQaCT1nvSL+zUc7z6jnCK20iq84zjxW+Dh48WMcLDLh33nmnQxFhXj9zuTEaM5Yzzw9cIfDGQIvhXkIQ9U8873pPPIPKH/jEGIOAbGQI1CICGAxxUjC/W6a9uAUXXNBhFOUahDHr6KOP1j4L2QrDE4bh2OBUi9/VnmXKk/EYA+l3aff8oRNIxKSOc3kycSn9AbzphzAwYkykL8MgCOXJle2JQzXyzsMy5I+DDPmcvjoYffLkeZx9Ep6udRZjNoZs6jH1G6r0naE84TcvHxRwdE/kdozp1AWM6GlqdwV8lCzQNuTlV92K4jVub+KDYVb8V847AYlnWeQA7zWW60AsxIWQSMcDYdXIIgQkvKQyz08Xb8NbwsJJEkKalbypruEBQAhhURwqYyAwxVghofxqJULghYJSnRbOs/JByMFTHhNCKe/C08RCefAMvqJoxwSfA1/DdZRfGi1lwoMP4fUql8pJyzslhEgtyiwMCOHBR8DjOmWF4vJyjMccZQ1BncV+8KhhjcZrA8VWP71g/2oegWBUCdEMeQVGIUchoOPHw4YijcJIHaCfwRPH4ENdCvnm5VfJvawylMoHoQHDU/CCszgJ7QyFtNaIMYCBHqI98r0SnpkUE+MhAlaluLOwGu00LBAWMi4nP/iKUZEILBauo5+gL6GfwzMVFnRDQE73neE99luIgEyTUsMwRheMwoxBRBBMNdVUTqYgKO85xuBB3069pR9mjDrooIPUw0V6lPZgMO0m3nKELSK8SINxikWsjAyBWkMARRt5h/pLvaYvwbMXZJ8TTzzREd0ka1xo/42xCUcHiiVpDj/8cEekZzNRnoyHHoA3+4QTTlA9AOcQUbTp8Tgty5bSH+AL/KFvQZmjP2H8jylLrozv1+JxHpahvGzHybcHgwPX8+R5cMBJQb+NPI0sz+LbYRHPSt8ZyhN+8/JBTqCdYPil/8fBSCRVMO6HPNpdAR8oobRzi2dx6qmnCu9st9/99ttPw+4I8wt/eSCFgqA4yzxi9WqjECKEBeIYpScMruF6+hdmM5jTWRH6DOCE9SBsNjPhtUFhQOCURSYKoMCbwyr1eBvw0pEWCgp4nDgrHzo1vD9YuAIRKrXllls6WfxJQ3uDwp/mK+llXp92ZuFZVr1n9U/qzABZyZ5G1B5E+VCYWNmXaAq8mTExuEFxPaSsrOiOYI2nHE8NHTBYMRBSZiyhRvWFQFidk3qcJqIuCLUKxOAbiDoSwgJlLpLWCfowQt5kLQX1Moe08S99WVsoqwzl5Ie3m0ERyz11HqNZeoeCcvJp7zRENhFmD9GX4xklqiAQlneMCYRjtgb38DwRORdeeKEKs3EIeTn5xWMQETMQijvRBXhXQnQP75C1MMIrm/K33HpOP0qdpn6ygwCGYnbUoB5g3EV4o54iPGHY5Y9+l9/gUQFgoqXY6QNC6AvEuANVOuUj5GO/hkB7IMBOG9RzZArkV2Q1Vo0eOHBg8jo84hiZaBdXX3217k6DYYlpcvTnTN8z+hcB+g2wpD8hDF3W51GHIFgFypJl8/QHjCTs8oRXl0hSxidW08b4EVMpuTJOW0/HGK1loeUCWT1PnicKDA80EXdERROxhgKOQ7Rcynpnuc+SDgM5hgPkNPQIWVxVH4/rARfaVQFnLtXA5wdLg/7X9a8lqLF/DIyEQ4YQUAZPFMJA4Xj22WcPlzJ/eY4OLPaeIwS0lxKXWYgau4i3hjA+BFksp4Ho8PHkITxCeKgRGAmHQulE6MUqGygvH7xBAXMiHwjxZPDAQxwr5vCHAQRFFoI3KD2BrzRYBh48HcxPp0OsNh133HFOFulLssVQA6XnjdK5EHkR6h5p6ERCWelYCBV7/vnn1cDDtxHBgYfMqL4QCHO6MRjFRNgsg46sNptcpn9JE94HIiEYkBlksKRjREJBgHgmnj8WrMDpfMo9zypDOc/Koora9rDko9ASll5vRL9Cn8Gc71K4530bESyEc+Jdx1oPlZNfMezpt0LIG3lhmKQuNBNVWs9pDwhpGFOQAzDCMs0DxZzoKYxFjEkYwhgzaFfBQBp7M0gbot2IRkhTuQaB9HN2bgi0JwJMWyISKax7wLvYOimE+sbvZizCm4usxlQMPJIoFsghePmMnBrzMISnKUS4FZNl8/QHxgaiphjXAzENEacV+ku5cmV4tp5+kdmpX0yRiClPnqcPj43QOKcwmocI2zifrONi78xKW+waUwAxtAdC72AMSLerlhJdeKKC395HHSHW3zGWdyzyfY49xnUvobxW8KqKH0E4QTnDM82giaJHRWbQhbCA0ykxKMPII488UtMES3axFzPHgIZH+CIDNoM5nk3mPDcjoUQzbwPBGysrmPNHSAbeGhYNIkyPUBrm0bH4GMozfOE+ngcoLx+8v3H4OfNkeB6rIzwI76TyEwqEUo1lig6NOX28G0EY5ZXF2fAqsa87nkeeZfGEahIeLOoZHQp1jtBW6gzGH0IbUc75RZhESMezjbJNKCR1FSwhlHE8nXi+GPgoM+UvVUer+S2WV3UQoI/E2op1VrbO0HaAhRuvAoIQESJ5RN2FmBfGoIP1l/C24HHjGvWZPzzjpfLLe1db7tH28KIQpUQ7I4S+1onFu+gH2MscwYmQMgx+GA9L4V7q2+A3eYR5yW3JD68V/CZM9P8kfJQ+rtkUvkrrOWMGxiCMtxgyEJQx6MIP2iaCLlFHeMDhFTgTAsr6JPAQGQHjBxFeYXHNUry3+4ZArSDAuMGinThIGG+YxoJhKSxWG8rJ2EEEE/PBIaJGSI/hijUUmtnRFDDil76EMRgjM9gQis60MNaZypNl8/QHIkXpc1DqmP7EuMT0KIwhLDCWJ1fGZavH4+CEoh+OKU+eJwIB+ZppwDgfmF7BuBgvRhvnlT4u9k6Mtcjo5Rib4Dk6BotEYwxH1oeHyA8FVGxrsVq+LmCKfDGGBGTiKnWLqzFX/z1i6yu2FoPYj5p04U+EQr2W3u9ZFBrdh5d0bNEgYYf6fPxPPFa6FVR8TTynXsLVNH/plLw0vvh2Qx+ntzgQi1WCc8CbX7G2Kg7iLfBiDdI0YqHy7H8Lse9kOOa8WD5iKPHwjy3NAokym/nOsEe2KOz6DOVgu7KwzZIoLJnPkV9MIqRpunT9i9OE46y0Irx5mZqge5BTBmmQXizJ+oiEvGve0knruSjiWvdIJwKhl84jZK3brIkSoNu6sdch21iJkSG5Hw7SPAnX7bfzECjGE7GWevGsar8DT8UY5WUgTwpKfZVBNzkXw6Dv0aOHnrM9Hf0N7UiiKnT/aFEktJ6IRzzZ15v7oT1JWFuSV/og1N3QPsL9vDKIsS1zH/DwLL8S+aJ1XJSZ+HKnH6d5IkJOQX8gHk0vOy149voGz0B5uIc0/MqArfmJMh9f9mxZQ/sWA4xez8tPDLu6H2/IQIx4+qwIeXqpf//+XkIeta+QaAjtG8K4F56pp980T+Kys0Uk3xhTXj0XI6ZilbUPOOOHGIh1yz9RtLXPFYFJ+cxe7PCediPGI22fYfxiCybxqmi+onzouCUKuk/ziS3l4LEY/uPi2nEVEcirK1V8TcNmJc6mRBZDXhZlvMW3ikPAS8hzcl2cJirryrojXoxPyfVw0Aw8CeNkLA9KhIwXJ4vuQU27Z8wMW92GsZfr8V/oU/L0B+RCxnb6KJ4Vhd6LI0nhzpMrAz/4rWWeZGFJmZGLxBnHYQsqJs+TkK0jZd0kxYs+XAz/LZ5v7TtlMT3FXpwZBXll5SMRCzomoKPALzFYeYmgK3iOky4o2pKgrujdt99wIny2a5kFVJ34H8LNWvMyQhjwRoY5ea15tl7TDh8+QixxM7e6+Kz+yDZiIuTos1iu8JCFOY7FMpS6q3PxWHiqNUQIIV7mzpx/ineFUOF4Tmexb8DahpeckPQ0MTcIHLBAZ1GlPMnKy65VB4FSPCFygwiIYjwtVgpC1IjooC1lEZE/ePeKLSKZ9UxrrhEtQl3Fkl9vVIoned9TCve8Z7PuVZIfkVZMmyESBmK7FazteKyIlKlHqpQnldZzxgT62BAqGjDDi8X1MM0pXA+/1Hm8f2Grm3DdfjsOgUrrSseVsD7ehNzK+JE1hYIV/llPJ24frIfBeEU0SJqanSeE9CPj0Q+3lvL0B/opZGUiytJUSq5sRJ7kyfNMccVrTZ2uhtyDrM3CmnjUi8lZaZ5QDxiPidDKIlPAs1Cxa61GoBEbd6tBqLEHjCc1xhApTqPyhHmEbMvEFkz1RvXOE6bYYMwjxJ/pOyzUg2DM9JVShsxa5VW986RWcW3EclldqT2uGk+MJ7WHQNtKROg/a4KwplW1qKpzwKtVKMvHEDAEDAFDoH4QYL4VaxsYdTwCeKVYNwBvCwvFMSecvWfrVfnueATtjYaAIWAIGAKGQHEEWMitmso3b+pa/HV2xxAwBAwBQ8AQKI1AvGd96dSWotoIsMgPf0aGgCFgCBgChoAhUPsImAe89nlkJTQEDAFDwBAwBAwBQ8AQMAQMAUPAEGgABLqwgl89fkf37rbncT3yzcpsCBgChoAhYAgYAoaAIWAIGAKGQLMi0OX30X/UnQL+/KCB7b4KerNWiEq/2xbdqBS59nvOeNJ+2Faas/GkUuTa7znjSfthW2nOxpNKkWu+56yu1B7PjSfGk9pDoPZKZCHotccTK5EhYAgYAoaAIWAIGAKGgCFgCBgChkADImAKeAMy1T7JEDAEDAFDwBAwBAwBQ8AQMAQMAUOg9hAwBbz2eGIlMgQMAUPAEGhCBD777DN38803u6+//trdeuut7v33329CFPI/+ffff3crrbSSO/bYY/MTdtDdAw880G299dbO+7qbzddBCNlrDAFDwBAwBNIIdMg2ZP/8848bayzT9dPg27khYAgYAoaAIRAQWH311d1kk03m9t57b/f333+7N954I9yy3/8hcPXVV7sRI0a4gw8+uCYw6dmzp1t66aXdvffe6zbeeOOaKJMVwhAwBAwBQ6C2EaiKAv7zzz+7wS8OcYMGDXbbb7u16959dv3qb7/7zt1ya3/3ztD3XbdZZ3abb7aJm73bbFVHBEHlvPPOcxtssIGbd955C/I///zz3aqrruoWWWQRd9ttt7lhw4bp/S5duriJJprILbXUUm6JJZYoeObPP/90Tz75pHv33XfdKqusos8WJJATPBTXX3+9O/TQQ/XWe++951599dV0MjfjjDO6FVdcscX1ZrkALo888ogKKMX2qb322mvdoosuqn8Bl2+++UY9HJdeeqleysvnoYcecp9//rnbfffdVWh9+umn3TvvvOM22WQTN9NMM4Us9fett95yjz32mJtzzjnduuuu68Yee+zk/g8//ODuu+8+N/7442tdmmCCCZJ74YDyrLfeem622UrX46y0f/zxh3v44Yfd8OHDHcJ2ur6G9/ALBpSHuso7p5122uQ29Q+Bj7rPd8wyyyzJPTuoHwTwduL1zCJ4imcN6t+/v3vzzTfdQQcd5CaffPKs5Hrtq6++SurJ5Zdf7pZbbjm38MILt0h/xRVX6L7R9ItZNHr0aOnPBznaErThhhu6xRZbTOtiVvpGusa3X3TRRckn0UeA+frrr59gG24+88wz7oknnnB77bVXi74mpPntt99c3759dRxYdtllw2X9vfjii3VB0YUWWkjPGcN69eql/RI86t69e0F6O3HKi+23395NPPHENQFHaKcYS0wBrwmWWCFagcDQoUNbGProp2aeeWaHvHLDDTe4H3/80e22227J2DNq1Ch3yCGHuHPPPbdm2mErPrndkqI3ILelCdk3yIx5MmjevTx5sBydJV2mZjkvhyevvPKKkx3BHOMwcjkyN5TXNrjfZp6wCnpb/w476jjf97L/+j33Pci/9c7QJL9rruvnL7rkCv/zqF/8rf3v8meec0Fyry3vZOu0mETAIfbL33TTTfFlPRZlyovwo8errbaan3LKKb0o3V4UPj/11FPrcyLkevHSa5q//vpL78vg7tdaay3ftWvXFvlK5+MlBE6fDy/kHaIgJX/TTDON5i1KYEjS0L/Dhg1v8X3bbbedH3fccf0aa6zhp5hiCj///PN76dAL0kmYpeIkgmjB9RtvvNH36NFDr5XKR4Qe5fF3333np5tuOv0To4sfZ5xxvAizSb6nnXaavot71IMtttgiuSfGGU2/+OKL+/nmm89PMskkXoTr5D4Hp59+uj7/1FNPFVzPOslKKwq+n3766b0I1X6FFVZQbESxynrcS0fsxxtvPD/PPPN46RS8CHn+008/1bRijNB6Numkk3oZKL1El/gHH3ywRT5ZPGmRyC50KAJpnuyxxx7a39AnwU9R9JJz8YJq2UQJ1rq54IILejHEeDG6ZJb5ueee8zPMMENyjzojRqDkPD7o1q1b0i/G1zmmf1t++eW9KJ7az9HXcSyGnnTShjhP8+Tbb7/Vdj7HHHMoL+i36A/EIOevu+66gm8WwVT7iwMOOKDgenwiRhHND97QR8UEv0XRTi717t1bxybw32WXXZLrzXaQ5kn4fur+rLPOqnhmjfchXUf+7r///l6Ea22/6frRkeVo1ncVqyvNikdrv3ufffbxyMmx/HrXXXdpNmJY9KKQ+G233davvfbaSdYnn3yy32yzzZLz9EGz8gSdIcZxwgkn1L6qX79+ClGeDJp3L08eLEdn4eXGk3/1szRPdtppJ4++R/0Wp6wX425SnfPaRjV44tqiCIdnR/3yqyrWPQ/pVaCAn3tBX9//znv03qDBL/pDex3b6Qp4DC4ooziLtcMHBfCSSy5RIfjLL79UJhxzzDGq/FDJIYRcBDMUfhT4YnTllVeqgiWWlWJJGup6unGjJKIYPvvss/qdCLUIsOLxS75bwghVEQbLgH+4ucMOO3g6pFL5oNAjHH/wwQeaHuFMrIGaDcIQDQohWTzOOsiINVfvSbSC8hB+QijeEkqox/wTT1QywIiVS48pJ395CnheWpmzqHUplG/HHXf0En2RvDM+wEjAAEe9E4+cKuGhfBgkMPB8//33+sipp57qJWzVY4iKKc2T+J4ddw4CeTwRD2tS5+LSYaS55ZZbPO1FIn20Lsf3wzFpUOID5SngKDLB6BjSh1+UfPo2iRYKlzxGAPrJa665JrnWKAdpngQF/O67704+kbbFQE1/8uGHHybXOeCc/r4YBQWcvoM2H1NaAefeiy++qMa/YvyJn2/U4zRPwnc++uijahTfaqut1DgUrnfW7y+//KJtknFeIiG8RJ10VlGa9r3F6krTAtLKD5coKY+cm0WMIRKxp2MBzhSJdlW5AweGRGRlPaLXjCf/QoNCjrMPOTVPBs27R0558mApneXfkjSvAh6+P/zGPHnttddUrhkwYIDelqhSlfE/+ugjPc9rG9XgSVUmZouXWGSLlrT2mqu7/3v6WXfp5f91/W66zW20/jotE3XylX333VfDey+77DItiShkBaGGInRpuPDbb7+t9wklFO+lht4UKzrhxYSm9+nTpyCsulj6RrxO2OUZZ5yhWPF94gF3ojS6IUOG6OdK7Xbi4dGQPfHG6bXwj3siaLl11lnHlcoHfonX24lRRMPKCR0N9XHuued2IiBpOPrLL7+sYZ0hpJfQW0JzCQf/9ddfnVh4nXgyQhHcXHPN5UQQ1nNCUz755BMNNU0SFDnIS8v3PvDAA0n5COMihBwiBEa83U46BF3Mh/DfnXfeWcssA58TgVPLStrXX39dw+sJi4XEk68hYmKE0HP711gIEOZEqDL1Q5RCJwpiiw8kVIrwdOoU6UKaxx9/3C2wwAI63UYGHkeIOiRRKbrIVzoj8dA6pnQQWijCV3J75ZVXdjLQaxtOLjbRAdNS6PtpixKdo19Om11zzTXdkksu6RhHmK6U1wZpz4RzMnUki0J+8IkwOBngk/zOPPNMJ9ESOhWA0Gv6p3vuuSfJhqkqhDlyj6k3Ys3XdyUJGuTgqquu0lB+sBChyRGyGRPTLligDRzgB/1pOXT//fcrH8WY68TAqWMPbQ1ivBePYJLNCSecoHP0uUC7o0+X6Dp9RrzyZfMsydAODIFOQoD1mZAnxAGhUyhpT8hfgcSgqzIK03KQq5iOc9ZZZ+m0N8YVo+II0FcxhYvxQqIxXZ4MmncPfuTJg6V0luIlbL47aZ4wLYAQ9TBNGPkJQi7PaxvV4klVFPBibBzx2eeOebQzzTSjKmCffjq8WNKqXBcvhA6MLGAT/pjDUooQXJhjLN5GVbRiwZN5MNAXX3yhvzBQPKtOLIB6nvXvqKOOchJu6I444ois201xDeX2sMMOS7719ttv1/n3zFeGmJsvniN3wQUXJGnCAYIoczCCkpyXDwo0wiaEIrrRRhuFbFSJYA4++Xz88cdOwr+1IwwJ4C18lZAULSvzwiGUFDpN5l1DzH996aWXXHr+pt5M/ctLy3xO5phQZgQ2fk855RTNgYGOayjVlImVfuN6yPHIkSM1LWsWxKsjB+MQddiosRDAEMViU9QrFC4Ws6S+s15BTBixSIeiSFtjIS+I548//ngn3nE18px00kl6nbaHsp2mF154QQUwFO40/ec//1HjZPp6I50zBiCQQmBEXxTaF0odQmc4F2+29lOsKYGCRvsL7TkLk1133VXxY2zKwj4vP4nIcow9KN6sqSFh8brmBUIC611ss802auxFGYTge9Y7sspVL9f4HpRijOIYKOi/g+E8fHM5bSX9vSjRGGbp3zFY/fTTT4ox814hjCoSbZQ8Bi/Cug2V8izJzA4MgU5EgLqNk4L53TLtxck0JzXOcg2SKDx39NFHqzyNbMV6TxhicS4ZFUcApw5yK/Pkg6EiTwbNu1dKHsQ5FMuKaZ2leCmb604WT5CTMNQiW7OuCDKOhJ2rMy+vbVSLJ+2qgD/82BOy8NpGbqMN1nN77rGze+L/nnG/ime0vQhlG5Djv3LeReXlWQZePEcszhYIAwLKIB0PhICbRzzPgkn77befWgvz0jbLPTxqeH/ZrgXBicWkZK6jLmKHxyFNQakG95jS+XAPYRRPeUwIpbwLTxML5cEz+IKiHRN8DnwN12lYeKAkBFc9+FzH61UulZOWd2J5w6LMwoAQHnwWbeN68F7G5eUY6xyWN4Q+LKt41LBGh9WAUdqNGguBs88+WxVujHm0HSI8UABoCzHJegFJncL4FaJAGFCInkCBZ4EvlI08CkaeEF2Rl7YR7zEGIDRBtEfwk/DM5FMZsFEEUdRpexKSrwspEuFDGw74JQ+kDlhYjXZK/xRTOfmRP5EJeGSJ1qGfoC+hn8MzRZSErJuhAnK674zfVa/HeJep11tuuaUaolDEiSgIykK5bSX9/Yw3eDzgJ8Z4FnQth9rCs3LytzSGQHsjQNtB3rnzzjtVvqAv+T+J+CN6ETrxxBMd7UrWuHAyj9nJ2jbq6GBBWNIcfvjhTtamae9i1l3+bCGJvEZkVKA8GbTUPfIoJg/ybJ7OEt7f7L9ZPAmYMI4SoYvcL9Nm1fie1zbAHGorT9pVAZ9phullu5DPVGngd5JJJnbjyADaXoTSy4Ac/5WjEGFBQhHEqw0TEMICcYzSE1uYwr2sX7zjhJugHBk59dog/CNwBm83q5UjTKKI48EAY1YTxmsDBQU8xg/vTzofhF28P4RqBiJUCgGNldVRUlBaoDRfuYYXMVgLOWfVe7wg1BnCG4MXkXvVJMqH4M4K2NQXvGwxMbhBcT2krKzojmCNpxxFDGUKrBgIKbOtmByj2BjHhJehcAXCmo6yxzZM5RCe8UDUK9pHHrEbAUS7ShNRIITKNTIxBuAFhRA8Bw8eXBB+jKeCKBYUQaYG0BYZOzbddFMn88Y0bC0PHyJyLrzwQhVm4xDycvKLxyAiZiCUQKJhMLow7kC8Q9bC0ONG+sf2YwhFRJeBOQozXmoUc6jStkI/SrvC2A4RZUC0VDFCHoDawrNiedt1Q6AjEWBnC5wY9GNEVyFjMYVj4MCBSTGYrsS0FnaaoQ3KWjY63YmwaAxXTN8zKkQAQys7IsTyZZ4MmnevlDyYfra1OkthyRv3LIsn4Wvp84nKZQoGshX6Rl7bqBZP2lUB32D9dd077w51Bx9+tLv3gYfddltvkQgJ4cM7+xeBlHDjEHKJBzKeVxaOZ5999rKKescdd6iFMAhIZT3UoInw1rA9D4IsltNAdBhY7FA++cNSSOgrllc6D4RerLKBiuXDwIFyEqx/RD6wVRCDBx7iWDGHrwwgIXQXIQolI/CVLeQYeAjtZE7IVFNNFV5ftd/jjjvOnXPOOUl+zFGH0vNGwQdhMNQ90hD2GsoKVoSKPf/88zovnW8jggOjhlFjIYDRJd7eECWPcFjmeZdDCFWtIRQR2hMGrJhYiwGBQla/jS831TH9Cn0Gc77x+mBk3XzzzXVqDVEJGO+IvilFRLAQzol3PUTglJNfMV7Sb1FHwnQrDJNhu81SZamX+xgp+UMwwljLH+MEYbMhDL3StoLBAr6GCCK8G2GtBPAhuoD6HyiEn7eFZyEv+zUEOhMBps8wNYZtrAIxvoSw6XCNX/p+ok4w7uEswbtLJCNySNxe4mea8Rg5E0wI648pTwbNu1dKHuTZWFYMx0FejMvQrMfFeIIOQYQghmyIaFnqNzJ5XtuoGk/CSubt+fvjz6Oqsvp5KKMoaqI/jSEZHHXluqxtSQTQZLsdsfLplgo8L14O3VJGFG/d7kmUGs2Q62xfxdYwMih7mZyv25GNedu/RyKgZq6Czqq24p1MJ2/48/Sql9IB6eqC0mF78A5/4m1ogYV46ZJV0CUUyouAm6TJy0fmPXpZnChJK+FQWg/ESpu8j/eyWrgIV7oFGKvgS8SDP/LII3X1dFZ6FiOMF2VYtweTRpc8G1ZGDC8Q74vmn7cKel5a6pQoN14sx7oipnjCtQwiMHvpILwYKvSXPNj+Q/YI9yJkerYEYdXRsNIy38e2bqwQL4K/1lG20ktTmifp+3be8Qjk8SRrFXTqNH0KdYC6Sv2Vuchepkq0KLwsJKXbhYmXWlfPF49pwTZkEsbu6e8gdgtgB4gsYssUGYs872a3ANoEW/1JuFWyFV7Wc/V6Lc0TUcD0+2W+vPYFMq/ai+FMt3hjPJDBWtueRKN4meKi28KBvRjNMlfmFuFU86MvCgT/aNPgTL9AW87LT8LiPeNXIPpFnmXXBcor3ljtM+ibxCig98SiH5LX3W+aJ2z1xTZu4nEr+BYx4Oq30k/mtRV2EKB/pb9Mkwisih9bVtIPS7SW5skYD7FTBSve8ix8ZntI2mpbeJYug51XjkC6rlSeU/M9yerbEj3nJdRct0hEdqVfkWiSrRNpIAAAO4FJREFUAjDY6UEiApNxRxwfujMH8pxEo6h8FT/QzDwR44RiiFwXU54MmnePPPLkwXJ1FuOJ82me0N+jI8raLV6ccyovUf/p+0u1jWrwpCrbkAXFuKN+Y0GGyhkU8HiLK65DCEUs0w+xHzXghj/xcuq19H7PsoK5CrKkYxl6CTvU5+N/MEisIPEl7Zx4phwFreDBBjhJN26x/iU4B7z5FWtri68VS12iDFCp2Qs3ULF8ZE65h39sIxCIgSB+VzgOe2RLuLY+w3UUkFBfJFQ98znyi0k87JouXf/iNOE4Ky2KPvsKBsFbwpM8nTU0QLZBoFwIkhACOnWPayjte+65p17nH9uYsQ0PdRthkG2j6DzSlOZJ+r6ddzwCeTxh6zuUp5jEQ6p7sIr3U+uCLBTYYn/6kB4lAyWFOiO7DWgdj/cBx+gkc4Q1OUavYgo4CSRMWg1h7P8dFA4U0UakNE9kjrdiCI78gYHstODZ6ztW4NgWEGMIAiwGPPokjCVhm8GAVVDA2cotpmDoQAGH8vJDAZfpNMnjsQLORbaqk6gI7SuoQ/G4lzxURwcxT8Szr32mLGrU4gswikq0mZdpTbpFEvsVZ7UVxmR4KdMoWuTBBRR5eEkamWKgdT4o4Iwf8JV7EpruJRxXt6nkubbwjOeN2o5AXFfanlvz5YBhXzzeWr/pNyRasQUIErWjBq5wQ6JOvEScqJMAg1WampknjJ3FtiguJoOCX969PHmQZ8vRWYwn2dtGs7VqqP+M5bH+kdc2qsGTLijNMrDUFT0/aKAuNtOehSacmdDoEOvfnu9qhLyHDx8h8+T/XTG+Ld/D/AvC90uF8Eufo3OgxUvcqtcRIioNR+dTt+rBKiYmVFQE+bLWFSC0i/mOMjC2KAHzIcGB1ZmzqFo8ycrbrlWGQKU8oT8iXJkt9/KI+kC/RZ3JI6Z+sDtAmPNdLC1TQgh9LlbHij1XT9cr5QnfKJ4LnYdcii/l4lFJfoRmM22GrS+hr7/+WucesvI9c9PrkdrCk6y2QrtgqxkWmyrGK8IQ6ZcJZSfEkKlTYS0X5rqGcSO9wF0lPKtHntRqmdtSV2r1mzqjXITp0jaYcpEmplayno4YopJbrIfB+MA4kibjSRqRMed5MmjePXLIkwdL6SzGkzE8yDpi+2jqP+sppSmvbbSFJ+23Ilr6C+rsnNXt4hXu6qz4dVvceNGKvI9ACGqt8k1+KBMIWJ1JNPB4QaW8suQZgMLc97zn7V5jIFBuf0S7KKV8gwgLVkrIbkkFvJQhrDHQrfwrmDPGX7WokvyY69enTx+dB85ibGxDx7WwAGW1ylYv+WS1FRb8lIiioso339ZVFtYrNjaglBQbmyrhWb1gaeVsHgRYC6EYsdZFmmyOcRqR8s7zZNC8e+SeJw9m9XvllchSgUCeTJ7XNtrCE1PAre4ZAoaAIdBkCGDRzbL0NhkMDfG5eKVYuZ09slkojpWM99hjj5JRRA3x8WV+BCvX49Eul9ipY7755is3uaUzBAwBQ8AQMARahYAp4K2CyxIbAoaAIVD/CJhnu/55GH8B+1fzZ1QdBOJdO6qTo+ViCBgChoAhYAiMQaB1e9SMec6ODAFDwBAwBAwBQ8AQMAQMAUPAEDAEDAFDoBUIdGFF51akr5mk3bvbnsc1wwwriCFgCBgChoAhYAgYAoaAIWAIGAKGQEkEbBX0khBZgnIQsBUWy0GpY9MYTzoW73LeZjwpB6WOTWM86Vi8y3mb8aQclCwNCFhdqb16YDwxntQeArVXIgtBrz2eWIkMAUPAEDAEDAFDwBAwBAwBQ8AQMAQaEAFTwBuQqfZJhoAhYAgYAoaAIWAIGAKGgCFgCBgCtYeAKeC1xxMrkSFgCBgChkATIvDZZ5+5m2++2X399dfu1ltvde+//34TopD/yb///rtbaaWV3LHHHpufsIPuHnjggW7rrbd23tflcjodhJK9xhAwBAwBQyBGoEO2Ifv777/d2GOPHb/Xjg0BQ8AQMAQMAUMgQmD11Vd3k002mdt7770d4+Ybb7wR3bVDELj66qvdiBEj3MEHH1wTgPTs2dMtvfTS7t5773Ubb7xxTZTJCmEIGAKGgCFQ2wiM3fvYY/u0tYg///yzG/DcQNfvplvdLDPP5KaYYgrN8ssvv3LnXtjX3Xr7nSJIvOnmn39eN+EEE7T1dTL4DnfdunVL8kFQOffcc92UU07ppp566uQ6B+eff76bQN45/fTTu9tuu8099NBDbuDAgW7QoEHu9ddfd126dHEzzjhjwTN//vmne/zxx90DDzyQPFuQQE7wUFx22WVu+eWXL7j1wQcfuH79+rnxxhtP31lws4FPfvrpJxEcJ23xhe+995676aab9PrMM8+c3B86dKiTFfjd22+/nfyxN3HYn/ibb75xhx56qNtggw30mWL5cBOePvPMM27xxRdXoZV8H3zwQTfTTDMl+YUXv/XWW1oe8p9jjjncWGONCQL54Ycf3O233+54V/fu3d0444wTHkt+L730UjfttNO6ySefPLlW7CAr7R9//KH1ivrFt6bra5wXZcQL9tprr2kdnWiiiZLb1L9bbrnFDRkyRMuD0J6mYjxJp7PzjkOgGE9Gjx7tnn32WXfddde5p59+WusGfRb9E3T55Ze7cccd10033XSZhaVesXcxHlPaQWtp1KhR7sILL9S+kf4x/UcfioJRrAy0v+eff94tuOCCBa+mHT755JNuySWXLLjOCd9LnigvnUlpnsALxo2AweDBg927776r/UncBikz341COPfcc7foa8I3/fbbb+6CCy7QvibuA7l/8cUX6xgT+PrJJ584+o1DDjnETTzxxG7DDTcM2TTVb5on8cdTx2eYYQa35ppr1oRhHz5hEIDPK6+8clxUO+4ABPLqSge8vu5fkSeLMa5ce+21KqvNN998bvzxx9fvZbzYf//93aqrrqpjQhqEZuFJloyHPnL//fernEffEPr2gFGeLPvyyy+rnvLdd9+pjhM7LsEUmW/YsGEqn8b3ypEra50naSyRG1588UWHzB7/gWmQv/Pk+XJ0sUreGfgY/6bz4d4TTzzh4GfQcd555x3RgeePH3Pu99F/+Lb+HXbUcb7vZf/1e+57kH/rnaFJfiedeqa/7sab/bfffe8vuPgy3+/m25J7bXmnKFgS7TWGZOAj9suLojfm4v+OpMPwffv21bPVVlvNi5Lul1pqKb/ooot6UX70OQkf8//884+m+euvv/S+MNmvtdZavmvXri3ylc7HSwicPh+/8IgjjvCieHsRDLwoV36zzTaLbzf08bBhw1t833bbbedFYPdrrLGGF6OMl8rnpaPQdPvss4+HN6LMJn933XVXkseNN97oe/Tooed5+ZBAvA7KY+m0vHR2+icDgxcF2vfq1Uvz4N9pp52m/OYe9WCLLbZI7olxRtOL8uJloPGTTDKJF+E6uc+BKDj6/FNPPVVwPeskK60o+F6UKi/KvV9hhRUUm/79+2c97qVj0bo0zzzz+IUWWsjPMsss/tNPP9W00oErZtSxZZdd1osRwYui0yKfLJ60SGQXOhSBLJ7Qn4ghz8uAqv0KfQvH6667blI2+C+dfHKePhBhyM8222za74gSn75d8lyMPdrv0TcuscQSWs+pp5zzJ4YprYPFynDYYYd52lWaRHjTvERpSt/yonj7rbbaqsX1jr6Q5sm3336rZRYDnX47/Rb9gRghfBrbH3/8UfuLAw44oGixv/rqK81PlEZPHxWTCBL+iiuuSC717t1bxybqwy677JJcb7aDNE/C94tw62eddVbFM2u8D+k68retba8jy9qI7ypWVxrxW9vjm/Jksb322stLVI7fdttt/dprr528/uSTT86Vb5uBJ1kynjjvPHrGNNNMo3oA+gN6QaA8WVaMtCoToj/w/FxzzeXJDxowYICOP4zFXEd3GTlypN4rV66sZZ5kYYn+FesHE044ofb74uDU786T58vRxSp5p7449S8rH5LAI3GMFXwD+mVMVVHAR/3yqyrWPQ/plSjgv/0+2u+29wH+g48+0Xuvvv6mP6r3iZ2ugG+//fbx96viJl4mL54IvX7JJZd4hKIvv/xSz4855hgVPANwzz33nEcwQ+EH4EDff/+9F++Iv+qqq/SSeNg1jVg9QpKG/k03bpREFEPxcul3I9QiwMr8Rj1fbrnlPNgWox122EEV5lL5oNAjHIu1S9MjnIVOC2EZniAkDx8+XBX+G264QV/56quvKn/gJ4TiLaGEesw/8bwnAwzKCcYUeM5fngKel1bmLGpdCuXbcccdVdlJXhodoMzwTuqdeORUCQ/loxOng6bOQaeeeqo2dAxRMaV5Et+z485BIIsn6623nvYlYtlOCiVecE+/dM011+i1PAX8l19+8eedd55/5ZVXvFhdvXjLk3wqOfj111+1noe2GvLIKwMGzGDEDOn5pWwYivr06RNf9vSLtKVHH3204HpnnKR5EhTwu+++OykObWunnXbS/uTDDz9MrnPA+ZVXXllwLT4JCjjfS5uPKa2Ac0+s/mr8y8IzfraRj9M8Cd9KfUGoxXCDoaqzqdptr7O/px7fX6yu1OO3dEaZ82Qx+vyHH37YMzbhTJFoV5U7cGC8+eabRYvbyDzJk/FQDlEUJWJKsRGPtY4ZGF7zZFnu4/Q755xz9DmUauTaIK9usskmfp111tF7GCExtp900kl6Xq5cWYs8ycNSPy76h0KO4xSZP0+eL6WLVfrOqCh6mJePRESpfIOekUdj4m9FOqiUZEBs8Sihk5NOOon74ouRyb3PR46suYVK9t13XycCsIaTU1BRyNz666+vYb2ci9Al+0wO1zACzsWb7sR7qSHvnAcSkB2LwwQiBB0iVLgZiXC8M844Q7Hi+5mWIEqjhkyLYPn/7Z0HvFxF9ceHD7EgWIOACkgTURTEBihKsTcEAwg2hACiUQlChCAlhPanKUhVPqKAKBBCEUUxSDHSCUWwKyAJRBCQQKiC8/99Tzg3827u3t23b1/e7ts5n8/u3r1l7twzc8+c8pszBv8HKqsOavAS+OfEthStIIFjsL5G5XA+7QXEBzj5GmusEY477rjg/RFYqBSkAPQDKAiQHZLlQOuuu25YZ511ggaXIIMjyMNrkCo7qC95GQ3+wn8hLgLQUCAlzajuXEW0DJbk9QPGBVwJkvEUFO02uDnPzxSJ7bff3uoM7FcKp9WVc5k6IYFcwHAUyQ9yMgQgN5l6iwMaeG0KBVNopOwUlQfKKmegvTO+k2kLa6+9dgAGrcEoyLCzQ0AImS4jz7u9M0z58L5wyCGHhJ133tmLsD691lprBWDW7VCjOhx11FHWX8tlShkJ2267rU3LSY8BtV9F04iEjkl3d+020EtkP++i0DlWT95ZYNDA6xlHNtlkk4LvVQ/C+yyFymD3Vce9PNqWueBywhXlHXHEEWGnnXYySDoQPOTThRdeWBRz0UUXhfXXX99g68gGRavsXsUJo2RDDu6w0UYbGS9mzpxpY0f6aEzVIEEbPKI9mL7TCgEZpR2l9AY5OO09kgPGLmW8FzqrKObAAw+0OfrsqHv3mrVZUWDeyBwYIQ4008WYJoeOwniB3oIOdeSRRwahs2wsGqFqj+ht63Q8IOLoY+hyJNTccsstDTIOZLpOJ0b+0BbktZAD2PgsxGOhr3KtE7YV0yN9/K/TK/2abv2t42VaZ+Q+U/MYe3n2On2+mS3W7j3T+rBdVw52DToDU1mZaie0QvnyBf+HAgUvX5tGwDn2y0sujeN3/Xo8+pjj4y4TJsav7jZpWCPgRA2BzKQforApBL0cAVdjxalTp5p3j8gk0OAUtoyHW5yKl1xyCadGIiEQ0Mo0As4+DbjmnQdCAvTAI5gcG+3UzLumuczGRynwUUqLbcMjouLwF9gOUFxo1qxZBiOvigCl5XDuXnvtFSdMmMDmIrT11ltHze+3NtOcTkMupCcReZRSm+6ybdAPRJiVCMn+E4GGvC/URcBbOVdz1g2uy7PLcLKyieDvuuuuUYZ+lOA2nkjI2DG+6G/wC5IiH6Vc2jZfROrg4fTp04t9bDRrkwEn5z+LhQPlNqEv0Ha0ex0RicAjTv/XvGmTPUBfIRnlBndTPoCogTwCddagbMc4xz3n7NC8KrsffbkR1UXAG9UBCHraJ9Oyr7/+erun5lLbbjz4mgtdePDTc0diO20TxgDeb9qEaATvINNBnGT8RaYsQXV89/P59Qi4Buwo565NQyHKDqUR8LryNCfc6iQFzVBFm2++eRw7dmyEl5pjZlEXxj3uwZQc6o/M61VK28SfAZ4xxUtz7u256UP+DnAOYzQyVQ7byDiDPsCUJEcKeTnlX6JVRK0YR5THwNoI/iFzIWCQjmzjP5Bd2hFqt83s4vzVEQ5U9ZWOFNwHhTTTxYiuKlhh+pkcqYYMRWZVTSlK2TWa26ROxyNCC3pS+YdMBqOzNZpmmOqycpRHOaRtHAf5xgf9E/kOgajF3pCTMDItcdVVVzUUWcrzKr0yPd6NbVLHS687ugp9bvLkyb7LxjaQyCml+nydLdbuPdN7sV1XDlM0sD1pf5AjTClkXCpTRyLgGqwqadNN3hsmT9o9bLjBO8NGG24QXrn8cpXndWoniQiIZqafVsom8sS1JCnA+5Qm2tGAbomQSDQH4dWoIo7j/ZJSFAQPseRaJEvAC9bvRJI0vHQs10JkRy+URfDOO++8QBSYREx4k4h0Q0SlieDg6UupXA7HpHRZtCI9D08i96Lc008/3dqMdiUalxLt7O3q++fOnWt1k7Ar6kPUq1Vq5VzuSR/Bo0xiQIgIPokc2E9dobS+bMMrvcBBMFbzBhJRwxvt2YBTBIYVkL+6ngPuGcVD3ozkoDEkBIm5SE5I9E1TFKwPCKoeiGyDNKEvebnNyhzs8ao6NCtD89aC8hgUUXCQJLxnO+ywQ7NLF/txxgASoEG8jzyvpsoU9dCAGkAttMt3zfc2pBTyKaVWyqNdQUoQkZXhaXICWYKcIzJFQjflzTDkRFl2pvfq1W2QHchMOVYtoR3oNBAFjCcQKAzGDc3/s3EGNJScqYYwqXtmxhuifMhSUASazlF3enFsKG1WFJI3MgdGkAPNdDEFp+y9Uo4Lk9+a72oRXhLRoq9NmjQpEKntJ6rT8ZA3RLNByZC4E3mEnCqPx2VdlutAWZJckutAW4HmYVyHkPHofzLSA4k8QTwy/qdUpVemx7txu46XXl85KuzZQZk51enz8KHOFmv3nn5v/60rBz0BJISmHRhSQU7boMCuoVf9en6H1QDnBmPHvkLwlafDrJtuCR/YbGN2DRvJg20DMoOyf+qY5BWh4wM9I4s6MGmUMCe2MXpSeKgfS3+BgAI7ULQnaD6gQdYxwHmJ+pmAjmAwoHCSCRhab731zHAGMisvkR0HNkjWYcgNcPvz3FdVOQg14OVANZ3klTIFTdELU7ww+KFyu7KPrOdpVmIEn5KaGcx0puCNvETDQSiQCFbW+wWKC/Q0JQY3KO2H1JWs7ijW8A3lEgEMrxgI6efAXTL1FgfkMbcK04/LJCSIQa18P4OvE32Evo5BorlI1ieQYUDe7rjjDoOz+bnpL7JsKFRVh1bKGz9+vA2KGDr0eaaX0J+7jRgDgNlDGHRkQE/hx3feeac5EwbLd39OVtwg2zwrZaQQ8lbKS8cgoKEQRiBZwZlO46s2cA/lwvBbjppfss1jMKCk0tcxmFFEMcwhpiPhnHBSdNocUmQoryPkKOfibIeA97MCQSPyd2gobdao7Lw/c2BxcqCZLkZdmCbEtJZ7773XVnxQVDxMnDjRpskhz5m+l2kBBxg/0M8Y74ChKz+PBQSZUuhUpcsSuEMXZsxh6iQGG1M0cVYj83AKKumYrdLD+DRu3DhzfniZ/DbTK9Nze2kbpzXLO6a6ep0+3wlbrOqeg+EZDnIcB+hp2BFKrmqXp/2AHcNugB940P+F31x2edhyi4+Ht663QNkczIMM97koscwr8OVDiECS2t7JtwX58F2VvxhvqeKDQUTURwl6Ks/vh51EawSLNKGC59RpxowZFv0S3NN3BcEETQnC6ETpZR6kU6NyiH6jcDliAeQD8/cx5JkvkhrmtCsDCIYshBKF0ePtivMEJwDLBLD8AQKx07T//vsHwVqLYhG0kM/X9QMIF5RB73vsZykDrytOHpZ7YtknBDTPBoKDCFmm3uIAij/9F4dRSsz5YtARlKnYzQBdJqIPICEYkHH44UnHiQQKBOKadP7YUBE5VXUo16nqv5Iq2ruHJx+DlvnMvUbIFWQGc4Wb8b3u2UCwCEJu0XW89VAr5TXiPXIL+YUMgHBM0hdGE+Gk5IPyytJvfBgnWAaU5UAhHDrwwQlHFOMKinAdMW7Tro4gIrri8yu5DnRB1Ts0lDarq08+ljmwuDhQp4uV68BYRDQX5x45eohIYligh6TvS/m6fvqPgxrnYJkc4dZIl0WHQ767Lsv16KgYb8gZZBPjupNWKrGlD7FfWtUr/dpe+kVnp3/tuOOOA6pdp88P1RZrdM8BFWjyh9w7ONqdsDtoT/S9lBbV6NKjg9w+/LCpYfXVBhqq/3fogWHfffYKG6w/smu9+qOgnGCcYbgAT8bQw0N+wAEH2ClApRFKRLFpSM0xtnMwiuoIrxflAB1hsAZefcUVVwxIgFR3/Wg7hnKkeaEBxRsvKzznAySD9SSJWmCUoyABnSSxGAnSaBeiOUDAobpyiP4SSXOaMmWKXY/XEUPe70nnBwqEUY1nCoGm+SQWPUERRnHl3kSVWHucyCPXkjyhk0QEi36GQKGvAG1FWOP8AZKLcc4vghglncg2xjbJgOir8BLCGCfSSeSLgY86U/9mfbSTz5LL6gwHiFribQUpA3SWpFF4uIkq8G6wHnUdudHFO4UhgfcXeBsDM8Q++jMfDJJm5dXdayjHePeIooBS4j0DQt/tdNttt5kcYC1zFCcgZTj8SIjYjO/Nno32pgwiSNBQygNhRHsDE2XMQcZ5lLZZPXrlONFvIt+Mz4wn/tE8SUOJICfpX/R/5CWJU1FMScbGOvM4npCvVYaCcrUEnMHARpG/wG7dgQV/eIeUX8OupXyMD2gobWYF5K/MgRHmQJ0ullaNsQNY7z777GO7MTQZn0Bf8Y4NF1owrUMvbONYRkbgZIY3yBSmhTG1pU6XRQahCzL9Cd2VoCAOR5Ldgcgh+otRx/QnxiWmR+EMIdlznV7ZCzyrq6MHoXA4pFSnzw/VFmt0z7oxJK0b27Q5NgaoLJzh6Pq0YYrQsmvKidR64b+UDOkXC0kGL7jKYomrhUeiJWVhaTGI9ag5zz9SCm1feb1nGTQ2aZ7zWKJBsEO7Pv1SxMoSdaX7WAqIZC4kUGDSfaPkYOk1o2W7nOBBHquCz85vfjXv0x6ZZXvkDbJzSJzDWnoQiYRYC9epUTlSxCwJkQwWP9WSVKX38m1fI1sGu13DfpYr82WWZLBU1lUCsSibDU9OVe5/A0567k/VuVKSLYEPS3hQB72QxTJMgrzbPglpK0GKoPU9zpNXNCqTdXEbEkWxDA98IykRySfkZCiO+0a5TXx//h05DjRqE3lLLcEKcoM2JcmTBvKiovTXdA1ukg9qvq8dZ3k6KUGW7EOoCkvARtIS+oki4sW63kLlRH+fBGsryi5veN/198OP19Wh0Trgfi2/JMmiP6dJLtPjI7VdbhOWhKGe/qFNSObFWt/w06mO734OvzL6rCw59dLdkSVruIccMLa/rjySsLEer5OceHYtS6FAJPohOQ+yQmiIAeOeX9NLv2mbyNCNyEz6WJnox3LoREE+bYkk1iuWA9N4o1UxbDk3rvHEenJElYuw/yxZyTtEewi5Zu8gYzzE+MH7xDFB06MMfUu0xLGhtBnXZxo6B9K+MvTS+q+ERrpYygmWT9R872KXUCeWaEx5R6KmFxb7faMf2sTHyVQfJHGwgiwmP5AXjJkywowtPvayP/24TkyCVE/ehiyS8e7sjOiFjO3YFlwrgz4qkGTH6/TKogBtdHObVPGSuqMXlZNd+zM10uc53ootNth7NhpDqsoRYsFsGWxM2ksOqygEnVe9+F0Cg1sn9BRde83VlmxmOCstptrEf5+P2+q9mJOHp4SlsRolbGu1rF46b/bsOfLErTjoKgP3gFfA/CAiw0TI+NSRerDNgSbx1GCIyAZRjpGcf0rkBKhwOqez0TMQscEz6vMT0/OYGwQf8EBXUbttUlVW3tcZDjRrE7zfICAatWmjWgBRYz4s71IVgfwBBjdcMgm0CH0VT36vUbM2qXueZnyvu7bqWDvlESlh2gxIGIilL/G2E7ECKdOLNJQ2YewG2p++C8hJli8DmZbuT3nD2I1cZmwATZQurQdSwceNcoK7dtosvW/eHhoHhtJXhnbn0XV1WRdLnw4ECPl0HErNMfJhMF6xpGuZ+r1NQNQgS5DDgyXaAfnjOT3S65FBTG8FUVamZnrlaGyTOn2+07ZYK2NIuU3oB4zHoKiqaEzVzrxvQQbqNAt1qzwZo6RIzE/I1BoHyh2zVYGFEjRY45saYdyMpPFNHRCgrRjfnFvnAErnC3Fupt7nQDPHU6MnxLCuM67rkko1KnMw+5mbe8MNN/SkAT6Y5yyf24zv5fOb/W+nPHJDMP2G+c9M35k2bZrli/AElM3uOdqOM26Xx+7bb789CM3W0PiGB4zdjcYGHMSNxqZ22my08Tw/T+9zoKyLpU9EjpEyeU6a8v78P5jx3EheNONPXTswDacRDUavbFRGr+2v0+c7bYu1MoaU+YcTpa49OzoHvHzz/D9zIHMgcyBzYPRzgNwX5DbItPg5QFSKvAEofCSKY0644HJNUUSLv6Yjd0cSohLRbpXIYsz82EyZA5kDmQOZA5kDgx1DWuFYjoC3wqV8TuZA5kDmQOZAQw6UI44NT8wHhoUDJPnhk6kzHEhX7ehMibmUzIHMgcyBzIHMgYUcyBHwhbzIW5kDmQOZA5kDmQOZA5kDmQOZA5kDmQOZA5kDw8aBJcjgN2ylD2PBq62W1zweRvbmojMHMgcyBzIHMgcyBzIHMgcyBzIHMgcyBzrMgZwFvcMM7dfiRmOGxV5vy9wm3deCuU1ym3QfB7qvRvk96b426dYa5b7SfS2T2yS3SfdxoPtqlCHo3dcmuUaZA5kDmQOZA5kDmQOZA5kDmQOZA5kDmQOjkAPZAB+FjZofKXMgcyBzIHMgcyBzIHMgcyBzIHMgcyBzoPs4kA3w7muTXKPMgcyBzIHMgT7kwD333BN++tOfhn//+9/h7LPPDn/729/6kAv5kTMHMgcyBzIHMgdGNwc6ugzZ//73v8DC6GV65plnw5gxS5Z35/+ZA5kDmQOZA5kDmQPPceB973tfeOlLXxq+9KUvhWeffTbcdtttmTeZA5kDmQOZA5kDmQOjjANL7rvfflOG+kw3zropnHbGmeHc838W/vnPf4Y1X7dGeMELXhAeeODBcPSxJ4Szp00PV199XVh55ZXC2Fe8Yqi3C3PmzA6rrLJKUQ6Kyre//e3wCpW97LLLFvvZOOaYY8JSSy0VVlhhhXDOOeeEX/7yl6rL1eGaa64Jv//978MSSywRXv3qVw+45r///W+49NJLwy9+8Yvi2gEn6A8RipNPPjm8613vKg7hgLjwwgvtujFjxli5lN8P9Mgjj0hxfMkij/rXv/41/OQnP7H9K6644oDjN910k7XJQw89ZO255JILnTQPPPBA2GOPPcLHP/5xu6auHNr0t7/9bXjrW99qSqsy+4eLL744vOY1rwkvecnAOv3hD3+w+lD+6quvPsBh9PDDD4dp06YF7rXaaquF5z3veQPqy5+TTjopLLfccuFlL3vZIsfKO6rOffrpp61/0L+oW7m/pmVQR6Jgt956q/WlpZdeujhM/zvrrLPCjTfeaPVBaS9TozYpn5f/Lz4ONGqTp556Kvzud78Lp512WrjyyiutbyCzXH5873vfC89//vPD8ssvX1lZ+hVrFxMx5T0YLM2fPz9897vfNdmIfCx/kKE/+9nPGtaB9+/aa68Nb3rTmwbcmvfwsssuC29/+9sH7OcPz0uZ73znOxc5tjh3lNuEtmDccB5cd9114c9//rPJk/QdpI4896mnnhrWXHPNRWSNP8MTTzwRjj32WJM1ZRl4/PHH2xjj7XrXXXeZjPnGN74RlllmmfCJT3zCi+mr33KbgAq45JJLijbxtuF39uzZA/odcpfx3ddF/9e//mVjNe8F4/Jg6YYbbgjf//73w6qrrtpU7vPuXn/99WHttdce7G3y+W1yoNxX2iymby/7y1/+EtCZ/vjHPxYfdBM+jCs/+tGP7Pgb3vCG8MIXvtD4xHjx1a9+NWy66aY2JpSZ1y9tUqXjYY/8/Oc/Nz0PGe6y3XlUp8vW6cTwFJ3v7rvvNv001Zdb0Su7vU3KvERvQPais6cfeOr6d50+//e//z2ceeaZZouiS1VRO/dspRzO+c1vfhNoT3+v/vSnP4U3vvGNAy9/8qmn41A+8x55NO4yYfd48623xXmPzo+HHXVsnHbehVbm8SedEr97wvfiQw/Pi2edMz3uvd/UId3L6ylhEVOSgsNSalGGXrrbtiUw4gknnGDbm222WZSRHt/xjnfEt7zlLVHGj1336U9/Osp4tnOeeeYZO65Gjh/84AejBuxFypXwie95z3vser8h13/4wx+OUpjjRhttFLnv+PHj/fCo/7377tmLPONnPvOZKKMhvv/9748vf/nLozpflKCw86SQ2rEPfOAD8ZWvfGV83eteF+X4KMr48Y9/HDfeeGP7X1cOJ3zyk5+0NpYhHyXs7KOBIcqAjnvvvbeVwddhhx1m7c0x+sFWW21VHJNzxs6XkhY10MQXv/jFUcp1cZwNGTh2/eWXXz5gf9WfqnNl4EcJgijjPr773e+25z/33HOrLo8SLFFOrPj6178+vvnNb44rrbRSlHPLzpUAj3ICRA2QcYMNNohCnUQZOouUU9Umi5yUdyxWDlS1CfJEjryoAdXkCrKF7Y985CNF3Wh/DRbF//KGlKH42te+1vqEjPjy4ab/5ewxuYdsfNvb3mb9nH7Kfz5yTFkfbFSHPffcM/JelUnKm5Ulx0D5UJThHbfZZptF9i/uHeU2efDBB63OctDZsyO3kAdyQsQyb+fNm2fy4mtf+1rDat9///1W3qte9aqIjEpJikSUcVfs2nfffW1soj988YtfLPb320a5TXbaaaeiLyL34Jv3TaEFCvbcfvvtJg8vuuiiYp8MYuO/nJbFvsFsIKu32GKLQkeou1aOk4iekWnxcaDcVxbfnUfHnb785S+bvopO4Z/zzz/fHm6XXXaJQuXE7bbbLn7oQx8qHvjggw+On/rUp4r/5Y1+aJMqHQ8dlvcfnRbdFvvhm9/8ZsGeOl22TieeOXOmjT/IPHRlbBc5Fq3cVvXKbm6TKl5if3l/5PdFL3qRyXEZ1fbcdfo8PEd/pg0YL6r6ajv3LBoy2agqh8O0kQJjA54B+zKl4EZtu79z7pkbL/7VjMKwnjb9gnjyKafa/z323i9ec90Ntn3XP2fHL4z/cnx0/mPFue3ecygG+Gc/+9n0+c1ww2hWJML2n3jiiTa433ffffb/W9/6limezrirrroqophh8MNgpwsuuMD28QthJFGuIjx+yqj+Lb/cPD+GoaJc9twotSiwimSYEoqD4+ijj7ZjCBAU3DPOOKPg0ec+9zkzmOvK4WQMeq6Vt8vOX3nllQtDHmVZEauIkqwoiQ0yfo9bbrnF2ov2hDC8d9ttN9vmS5H34qXFOOEFps351Bngdefut99+1pfc0fD5z3/ejJ3ipskGxgz3pN8pImdGuNcPIY6A/89//mNXHHroofai44hKqdwm6bG8PTIcqGqTj370oyZL5NkuKqVImsmPH/7wh7avzgB/7LHH4ne+85148803R3ldo6LlRTntbDz++OPWz3lXU6qrAw5Id2Km11A3BsApU6aku6O8wXaPX//61wP2j8Sfcpu4Ae6ynDrxbn3hC18wefKPf/xjQDX5f8oppwzYl/5xAxzZwTufUtkA55i8/ub8q+Jneu1o3i63SfqsH/vYxwrZnO5nG2N7+vTp5d1RUalF9rWyg3eBd4sxqhXKBngrXOrsOXV9pbN3Gp2lbbjhhhE9t4qQ+b/61a8iYxPBlEcffdT0DgIYOLsa0WhukzodD+MQQ1GIKWONItY2ZuB4rdNlOV6nE+MAJMAHIctwth900EH2v1W9shvbpI6X9nDJFwY5gVN0/jp9Hr0Yvf8HP/iBXS00lOka6BxQu/e0i5OvunLmzJlj98TOqKNFJ2xLSxgMLbvs2LDZphvbJfPnPxauEtR8/XcsgBvyX4aCHVtuuQW/QFe6ib7yla8EKcAGUaNeMsiCBniD9fJfSpdB3IARQIqmB3nEDfJuO577AiY8duzYAjItL1VYZ511DCKcntcv28AuDz/8cOMVz6wIuPUFINPAc6Rcht133z1I2Q1AaZi6ICSCsUcdNkgxDxI4oa4cTqa9gPgAJ19jjTXCcccdV8AMgYXKAAhAP4CCcB+/x7rrrmvto8ElSMkK8vAapMoqoC/aD/gLJIdPABoKpKQZ1Z2riFYxPYFyeBeAK0EynoKi3QY35/mBUG6//fZWZ6DHihQG6goxdUICuYDhKJIf5GQIQG4y9RYHNPDatBim0EjZKSr/3ve+N8gZWMhPDjBtAWgrMGgNRkGGnZ0PhJDpMvK82zvDlA/vC4ccckjYeeedi3Lp02uttVYAZt0ONarDUUcdZf21XKaUkbDtttsaFCw9BtR+FU0jEjom3d2120Avkf28i0LnWD15Z+VhN3g948gmm2xS8L3qQXif5QA02H3VcS+PtmUuuJxwRXlHHHFEUBTYIOlA8JBPTHdyUsTXINccQzYoWmX38uOj/df7uSJEQY5Lk93ez5lHD3xWitkibODdkQFi0FreP8YkpqBBcqoYT4Wisr5KG7u8liES5EyxsYf7yMFk1/DFe8nUKd5T3lemSGXKHOhGDqCHoU8wPUPGgkF90T+c5Dy1Ps94wfQNdKgjjzwyCJ3Vt9Ms6nQ8IOLoY+hyJNTccsstDTIOZLpOl22mE3OtE9PSmB7p43+dXunXdOtvHS/TOsuYtql5jL08e50+T/998skni8uZDg0xbRNq9552cfJVVw7vEjoDU1mZasc0qEpqNwpdvm7+Y4/Hgw//djz9x2cVEW6g6X//x532/4knn7II+Nz77i+Ol8to9b8eXDxeSOqc5m0gaghkJv0QhU0h6OUIOKVMnTrVvHtEJoGbpbBlIjhiXNT8M7sh94KAVqYRcL1ABhudO3ducR6RWSmf9n+0fzXzrmkus/FRCnyUshSlfBs8BJQAH2CEHqWYNWuWwcirIkBpOfB0r732ihMmTKhk79Zbbx01v9+iV5rTaciF9EQij0AbywT6gQizQxuJQEPeF+oi4K2cK4XM4LogAmQ4WdlE8HfdddcoQz9KcBuvJGTsGF/0N+AskBT5KGXftvly9EU58tOsTYoC8sZi40C5TegLyBfavY6IRCBP6P+gapA9wM4hKfn2Lsm5FZFDQJ01KNsxznHPOTs0r8ruR19uRHUR8EZ1AIKe9sm0bIcAay617eY911zowoOfnjsS22mbMAbwftMmIHR4B5kO4sT0IqYsQXV89/P59Qg44xbRW6ahEGWH0gh4XXlEVqmTDERDFW2++eZRDl+TmXIOW9SFcY97MCWHc5F5vUppm5SfoSoCXtfP6XfwowqCzhjAFCkiFUxDYuoHUSuie1xDlEkGfJQz2f77VB+uY3rQeeedF4HrAndkOpG306RJk+JMwUYdRll+hvy/cxyo6yudu8voLEkOKOvX6BboI/R5INRMi4KIripYYfvQZdGNkFlVU4pSDo3mNqnT8YjQgp5U/qGCr42mGaa6bDOdmCguY75yqZjcUT4KQ5GlPK/SK9Pj3dgmdbz0uqOr0OcmT57su2xsA4mcUqrPy2Ft8H8g6PRtR5Nyfrv3TO/VrBymaGB7cm+QI4wrjCFlGnIEXC9sUKHhh6edEZZ6wfPDVuO2YJfRMsssHe57Lkpz/3Peh2WSRFJ+Xqd+SURANDP9tFI2nm+uJUkBEVk8104SSpYICY83hFejiog4EAEnaQ7JjPhVxzGvV9X5/bSPCABeuq9//esW2ZEQDzI4ggwFS25EZIkkU4LbGluI9MJPPH0plcvhGIl5iJSnhFeXe5Hg6fTTT7c2o12JxqVEO3u7+n45UCy6KGFnEXz2E/VqlVo5l3sKQmQeZRIDQkTwSQjBfuoKpfVlm4g57xqRF5L9EFHDG03UBkq9frYjf3U9B9wzioe8GclBY0gIZAsRNqJ3mqJgfYB3h0gcSBP6kpfbrMzBHq+qQ7MyiEoqj0ERBQdJwnu2ww47NLt0sR9nDJARZfflfeR5Bc8s6qEBNYBaaJfvJPPiPUU+pdRKebQrSAkQWDI4TU4gS5BzRKZI6Ka8GYacKMvO9F55eyEHpCRZhIoooBxIQdMJDEHAWC7HprU92yTPQbbTb5HDjFETJ060CBeIAxniBYJFzuUAYkHOGjuHSBUIpUyZA93GAXRUEDf0X/o1skROvEL3UXAqgG5SjguT35rvahFezcm1c+RoMvRitz3XcNanTsdDtyWafeCBB5puix4LirY8Hpd12WY6Me1C+yBbSOSJPGH8T6lKr0yPd+N2HS+9vnJU2LODQHKq0+fhA0gE5Db6NLo8ietAJEDt3tPv7b915aAngITQtANDKijPQgBJxTiTUkcMcLKcz5v3SNhlpx0GZJVe9bUrh5tvudUgXbNm3SyDa4XKzNJphYayrUiowe6A+fmnjkl+L4xBRXYsizqQeZQwJ7YxelJ4qB9Lf4HnAAPkeuCVDoVDaepnAjqCwYDCSSZgiBcDxQfBDkyczgkEyiHeboCnfKsqB6EGvByoppO8W0GR76CIsUH/gHJC5XZln+b1mTBjGyLTsZKa2Quq6IUtB7TgSGe/qR8GE5l96StAT1NicIPSfkhdyeqOYg3UGKg9AhheAfWnnwN3ydRbHJDH3CpMPy6TkCAGtfL9DL5O9BH6OnJHc5GsTyDDgLzdcccdNsXDz01/kWVDoao6tFKeElLaoAiElz6P04z+3G3EShrA7CHkExnQFeEsqnnnnXeaM2GwfPcCWHEDBy3ZWVMIeSvlpWMQ0FAIw53M90x38lUbuIdyYfgt+/K31X6OHKVP0z/JlIuj+N577zVdAOcuyhv9FOUJxy4f5C6/6Qooir4U2fxR+pwYdyDe1UyZA93GgfXWW8+CGOgU6GToakoCaqsNeF2ZJoSTifeCFR8UFTfHEtPkkOdM38u0gAOMH/ASeQIMXfl5LCAIr5yqdNk6nRgnifJQBCUds1V6GJ/GjRsXcH6k1EyvTM/tpW2c1kJ1DdDV6/R5puMBAWc1CqYRMX0YA5wgX6tUdc9Wr+U8HOQ4DtDTMMaVXNUuT/sBO4ZsgBPhvuyKmeGOu+4Oe+69X9htj73tw/zvzT/xUT34PWHinpPDjMuuDNttM84q0U1fDIzMK2DOJcTgKchhUUXfZgmSOkI4oQjR+CjOzEljvnM/G+BEawSLNEUWz6kTPEbYp0gDFCY6KkYnSi9eWadG5aAgEQ3yckA+MH+fpWmIEKeGOfekjTBkIe6H0ePtygvLwEOkg+UPEIidpv333z8I1loUi/MB8vm6fgDhAvLC+x77ESJeVwQLyz2x7BNOC54NBEc/9zXnXa/9MkeU/ovDKCXmfDHoCMpU7OadKRO5E0BCMCAzyOBJx4mEgQBxTTp/zL3A5XJa/V9Vh1auVVJFe/fw5GPQMp+51wi5gsxgSbVmfK97NhAsgpBbdB1vPdRKeY14j9xCfiEDIByT9IV+onb7Oe8DShpOLPQAnLAHHHCAOThBT+EsYkxiziFjBu+VO0jTaAbnOoILNEKZWnUIlK/L/zMHhpMDM2bMMCSS5z3gXuRKYFwqE2MR0Vyce+ToISKJYYEe4vORy9f023+ceTjCy+QIt0a6bJ1OzNgAaopx3UkrlWg55jnm2GtVr/Rre+kXnZ3+teOOOw6odp0+jwxPndAEp0DggW5qhRrds5Vr/RzsPxztTtgdjAHl92qMn9Du7/Ky8L9/4oLIZrkMIOhTp3wrPC5lcilBt7sBFodygnFG5IDBF28UHZloJIQHnAQTDMooNppjbMage7LLz+j/iWBgbOKtQsECGsxLg1eqHwkjWvNCjRd4WeE5BOycJDnApoF6AtVDKScKPEWJbDAoieYQeYDqyiH6m8LP/Xq8tChNfk8SrvkUATxTvBzAS4HxoAijuJKcjagSa4/jQIFQpIARdoqIYPHcOA2AEQFtRVjj/AHaSPIsZTg3HtGHiGzjEEAgoODxH8IYp57wBqcF29S/WR/t1HPkcjrHAaKWeFuVm8L6H78kCwFOjCLEetR15EYXSaYYdHAAAm/zdbfZx/tAnwae3qy8unsN5RgOLaIooJR4z4DQdzuRvAvFCZnOoE5EnHeXhIigDKBGfG/2bHjjGYyJIEHN2rGuPKJWODSAiRKNou/0m8HXbj9nzEAvQb4y3tPeOMRoD95NFF2OEwGnrXDYI7sZU2hD3jOfUkA0PVPmQC9xAPmF3gF6Dt0IZA6OJfSjlJB3wHqRgxCGJuMTjisSP6KHZAomh9H5cTIjT4CiM+6uv/76tbpsnU5Mwk1kDnorDkHsFtoHZwgJxur0yl5vEw9CIYdTqtPnQanBd6a2YrijDzGtgoBdK9TonvCddwDd3J2wjcqjzUEoUG/aB12fNkR/GECtJj7rpvPETOkXC8mTsJWXzeEMEkuwtBhEshU9fPGRUmj7yus9y6CxSfOcyxINalC7Pv1SxMoSdaX7SPYmRcCSirF2MwmP+oXKCR7U8Qs+pzzXvE9jCbzxRBUsv6AXxvaTSIi1cJ0alSNHiSUhUvZ5P9WSVKX38m1PnCOD3a5hP8uVeX/RC1pZVxnHRdlseHKqcv8bcNJzf6rOlfIWWXOTJTyog17I6MswCfJu+2RUWwkyyK3vcZ4UwqhM1sVtSBTF+sn0bZL/kHxCHrbiuG+U28T359+R40CjNpG31BKskKyDNiXRlCfoo7b0Vw26RcVJPqj5vvaf5el4h+TpjUJVWAI2GRK2HJ8i4sW63hz390lGZVFWecP7rr8ffryuDo3WAfdr+dUAaH08TXKZHh+p7XKbsCSMyw5+aROttBBZ6xt+OtXx3c/h15OwySGY7o4sWUP5csDY/rrySO7FerxOigrYtSyFApHoh6RgyAqhIQaMe35NL/2W2yStO0mOeMaU6vq5JwGsSsLG+CEHsY3ZMrRN5go9YO3MWuy0Pe+NnEf2fvr4RZI2xnjaT8aHJX6VgW5J2NJ2Ykk5zpHjP61u3u4gB+r6SgdvM2qLUrDJEkrST9EpWNe4TDI6IokFnU4++WTT35R3JGp6oe8ufvuhTXycTPVBIWSiEDQ2hsNPxkxf6tbHXvanH5cpjXRimIpeyNiOjOJaGfRRkXHjd51eWTSINrq5Tap4Sd3RixSMSx+j2G6kz3MCS0cqb5LxCxlelah5sPf05KwKZhR1YKOqHDllbUzAxqS95LCKQtANuI4/S2BY64SeomuvudqSzQxnpcVUm/jfzNNRrgMQNbyCg72uXE6v/Z89e448PSsOutpEd4nc+vxF0AhEyHyOY6MC1XdtLh6JpwZDtA/R5pGcf0p0BahwOqez0TMA7SJKDiS9TETm4AMe6Cpqt02qysr7OsOBZm0CcgM4baM2bVQLonAgOliSr4pA/hDda5REsuqawexjqQ36Kp78XqNmbVL3PM34Xndt1bF2ygM9xLQZkDAQCAq87XjryQnQi9Rum7TbzxkTkLG8IykxlrOfqHgV0eeJ/hGJyjQyHGi3r4xMbbv3ruhijB8yWBappFZYsQS66ftBpJHxCjRImfq9TYD0o+MhhwdLZZ04vR45BaS6aopkM71yNLZJnT7vKGf6dCf0HnRtELEkLGykZ6VtxTb9gPEYhFYVZQO8iit536A5MBpf7kEzocsuyG3SZQ2i6ozWNiGjOWuMKzLYfUxvUqNebxPml+HMA+LP9J1p06aZYkyuiGaOzCasGbHDvd4mI8a4Prxx7ivd1+i5TXKbdB8HhlYjpqQxBYCpaJ2iRbP6dKrkXE7mQOZA5kDmQF9wgPlWJEvJtPg5QFSKzLhEW0gUx5xwweV61vhe/BzMd8wcyBzIHMgcyBxozAESuXXS+OZOQ07C1ri6+UjmQOZA5kDmQD9wIF2zvh+et9uekSQ/fDJlDmQOZA5kDmQOZA50Pwf+H5nOeeq69/8YAAAAAElFTkSuQmCC;" vertex="1" parent="1">
          <mxGeometry x="160" y="150" width="840" height="353.95" as="geometry" />
        </mxCell>
        <mxCell id="rdEikVPCRvwlYAzFl2-a-26" value="&lt;b&gt;&lt;font style=&quot;font-size: 9px&quot;&gt;THOÁT&lt;/font&gt;&lt;/b&gt;" style="rounded=1;whiteSpace=wrap;html=1;strokeWidth=2;fillColor=#f8cecc;strokeColor=#b85450;" vertex="1" parent="1">
          <mxGeometry x="960" y="101.25" width="40" height="31.25" as="geometry" />
        </mxCell>
        <mxCell id="rdEikVPCRvwlYAzFl2-a-27" value="XUẤT HOÁ ĐƠN" style="rounded=1;whiteSpace=wrap;html=1;strokeWidth=2;fillColor=#d5e8d4;strokeColor=#82b366;" vertex="1" parent="1">
          <mxGeometry x="880" y="101.25" width="70" height="30" as="geometry" />
        </mxCell>
        <mxCell id="rdEikVPCRvwlYAzFl2-a-30" value="&lt;font color=&quot;#4d4d4d&quot; size=&quot;1&quot;&gt;&lt;i style=&quot;font-size: 17px&quot;&gt;&amp;nbsp; &amp;nbsp; &amp;nbsp; &amp;nbsp; &amp;nbsp;Tìm kiếm&lt;/i&gt;&lt;/font&gt;" style="rounded=1;whiteSpace=wrap;html=1;strokeWidth=2;fontColor=#4D9900;align=left;" vertex="1" parent="1">
          <mxGeometry x="160" y="98.75" width="700" height="37.5" as="geometry" />
        </mxCell>
        <mxCell id="rdEikVPCRvwlYAzFl2-a-32" value="" style="pointerEvents=1;shadow=0;dashed=0;html=1;strokeColor=none;labelPosition=center;verticalLabelPosition=bottom;verticalAlign=top;align=center;fillColor=#505050;shape=mxgraph.mscae.oms.log_search;rounded=0;fontColor=#4D9900;" vertex="1" parent="1">
          <mxGeometry x="170" y="100" width="30" height="30" as="geometry" />
        </mxCell>
      </root>
    </mxGraphModel>
  </diagram>
</mxfile>
